G04 #@! TF.GenerationSoftware,KiCad,Pcbnew,5.1.7-a382d34a8~87~ubuntu20.04.1*
G04 #@! TF.CreationDate,2020-10-24T08:36:22+02:00*
G04 #@! TF.ProjectId,xmega_adapter_board,786d6567-615f-4616-9461-707465725f62,1.2.1*
G04 #@! TF.SameCoordinates,Original*
G04 #@! TF.FileFunction,Copper,L1,Top*
G04 #@! TF.FilePolarity,Positive*
%FSLAX46Y46*%
G04 Gerber Fmt 4.6, Leading zero omitted, Abs format (unit mm)*
G04 Created by KiCad (PCBNEW 5.1.7-a382d34a8~87~ubuntu20.04.1) date 2020-10-24 08:36:22*
%MOMM*%
%LPD*%
G01*
G04 APERTURE LIST*
G04 #@! TA.AperFunction,SMDPad,CuDef*
%ADD10R,1.000000X1.200000*%
G04 #@! TD*
G04 #@! TA.AperFunction,SMDPad,CuDef*
%ADD11R,2.000000X1.500000*%
G04 #@! TD*
G04 #@! TA.AperFunction,SMDPad,CuDef*
%ADD12R,2.000000X3.800000*%
G04 #@! TD*
G04 #@! TA.AperFunction,ComponentPad*
%ADD13O,1.700000X1.700000*%
G04 #@! TD*
G04 #@! TA.AperFunction,ComponentPad*
%ADD14R,1.700000X1.700000*%
G04 #@! TD*
G04 #@! TA.AperFunction,SMDPad,CuDef*
%ADD15R,1.500000X0.550000*%
G04 #@! TD*
G04 #@! TA.AperFunction,SMDPad,CuDef*
%ADD16R,0.550000X1.500000*%
G04 #@! TD*
G04 #@! TA.AperFunction,ViaPad*
%ADD17C,0.800000*%
G04 #@! TD*
G04 #@! TA.AperFunction,Conductor*
%ADD18C,0.400000*%
G04 #@! TD*
G04 #@! TA.AperFunction,Conductor*
%ADD19C,0.250000*%
G04 #@! TD*
G04 #@! TA.AperFunction,Conductor*
%ADD20C,0.254000*%
G04 #@! TD*
G04 #@! TA.AperFunction,Conductor*
%ADD21C,0.100000*%
G04 #@! TD*
G04 APERTURE END LIST*
D10*
X203218000Y-72936000D03*
X199118000Y-72936000D03*
X203218000Y-71336000D03*
X199118000Y-71336000D03*
D11*
X195478000Y-125208000D03*
X195478000Y-129808000D03*
X195478000Y-127508000D03*
D12*
X201778000Y-127508000D03*
G04 #@! TA.AperFunction,SMDPad,CuDef*
G36*
G01*
X201577000Y-77031001D02*
X201577000Y-76130999D01*
G75*
G02*
X201826999Y-75881000I249999J0D01*
G01*
X202527001Y-75881000D01*
G75*
G02*
X202777000Y-76130999I0J-249999D01*
G01*
X202777000Y-77031001D01*
G75*
G02*
X202527001Y-77281000I-249999J0D01*
G01*
X201826999Y-77281000D01*
G75*
G02*
X201577000Y-77031001I0J249999D01*
G01*
G37*
G04 #@! TD.AperFunction*
G04 #@! TA.AperFunction,SMDPad,CuDef*
G36*
G01*
X199577000Y-77031001D02*
X199577000Y-76130999D01*
G75*
G02*
X199826999Y-75881000I249999J0D01*
G01*
X200527001Y-75881000D01*
G75*
G02*
X200777000Y-76130999I0J-249999D01*
G01*
X200777000Y-77031001D01*
G75*
G02*
X200527001Y-77281000I-249999J0D01*
G01*
X199826999Y-77281000D01*
G75*
G02*
X199577000Y-77031001I0J249999D01*
G01*
G37*
G04 #@! TD.AperFunction*
G04 #@! TA.AperFunction,SMDPad,CuDef*
G36*
G01*
X197979000Y-134021000D02*
X197979000Y-132171000D01*
G75*
G02*
X198229000Y-131921000I250000J0D01*
G01*
X199229000Y-131921000D01*
G75*
G02*
X199479000Y-132171000I0J-250000D01*
G01*
X199479000Y-134021000D01*
G75*
G02*
X199229000Y-134271000I-250000J0D01*
G01*
X198229000Y-134271000D01*
G75*
G02*
X197979000Y-134021000I0J250000D01*
G01*
G37*
G04 #@! TD.AperFunction*
G04 #@! TA.AperFunction,SMDPad,CuDef*
G36*
G01*
X194729000Y-134021000D02*
X194729000Y-132171000D01*
G75*
G02*
X194979000Y-131921000I250000J0D01*
G01*
X195979000Y-131921000D01*
G75*
G02*
X196229000Y-132171000I0J-250000D01*
G01*
X196229000Y-134021000D01*
G75*
G02*
X195979000Y-134271000I-250000J0D01*
G01*
X194979000Y-134271000D01*
G75*
G02*
X194729000Y-134021000I0J250000D01*
G01*
G37*
G04 #@! TD.AperFunction*
G04 #@! TA.AperFunction,SMDPad,CuDef*
G36*
G01*
X201201000Y-133546000D02*
X202151000Y-133546000D01*
G75*
G02*
X202401000Y-133796000I0J-250000D01*
G01*
X202401000Y-134471000D01*
G75*
G02*
X202151000Y-134721000I-250000J0D01*
G01*
X201201000Y-134721000D01*
G75*
G02*
X200951000Y-134471000I0J250000D01*
G01*
X200951000Y-133796000D01*
G75*
G02*
X201201000Y-133546000I250000J0D01*
G01*
G37*
G04 #@! TD.AperFunction*
G04 #@! TA.AperFunction,SMDPad,CuDef*
G36*
G01*
X201201000Y-131471000D02*
X202151000Y-131471000D01*
G75*
G02*
X202401000Y-131721000I0J-250000D01*
G01*
X202401000Y-132396000D01*
G75*
G02*
X202151000Y-132646000I-250000J0D01*
G01*
X201201000Y-132646000D01*
G75*
G02*
X200951000Y-132396000I0J250000D01*
G01*
X200951000Y-131721000D01*
G75*
G02*
X201201000Y-131471000I250000J0D01*
G01*
G37*
G04 #@! TD.AperFunction*
G04 #@! TA.AperFunction,SMDPad,CuDef*
G36*
G01*
X201609000Y-80460001D02*
X201609000Y-79559999D01*
G75*
G02*
X201858999Y-79310000I249999J0D01*
G01*
X202509001Y-79310000D01*
G75*
G02*
X202759000Y-79559999I0J-249999D01*
G01*
X202759000Y-80460001D01*
G75*
G02*
X202509001Y-80710000I-249999J0D01*
G01*
X201858999Y-80710000D01*
G75*
G02*
X201609000Y-80460001I0J249999D01*
G01*
G37*
G04 #@! TD.AperFunction*
G04 #@! TA.AperFunction,SMDPad,CuDef*
G36*
G01*
X199559000Y-80460001D02*
X199559000Y-79559999D01*
G75*
G02*
X199808999Y-79310000I249999J0D01*
G01*
X200459001Y-79310000D01*
G75*
G02*
X200709000Y-79559999I0J-249999D01*
G01*
X200709000Y-80460001D01*
G75*
G02*
X200459001Y-80710000I-249999J0D01*
G01*
X199808999Y-80710000D01*
G75*
G02*
X199559000Y-80460001I0J249999D01*
G01*
G37*
G04 #@! TD.AperFunction*
D13*
X215138000Y-74041000D03*
X215138000Y-71501000D03*
X215138000Y-68961000D03*
D14*
X215138000Y-66421000D03*
D13*
X187960000Y-74041000D03*
X187960000Y-71501000D03*
X187960000Y-68961000D03*
D14*
X187960000Y-66421000D03*
X187960000Y-76581000D03*
D13*
X187960000Y-79121000D03*
X187960000Y-81661000D03*
X187960000Y-84201000D03*
X187960000Y-86741000D03*
X187960000Y-89281000D03*
X187960000Y-91821000D03*
X187960000Y-94361000D03*
X187960000Y-114681000D03*
X187960000Y-112141000D03*
X187960000Y-109601000D03*
X187960000Y-107061000D03*
X187960000Y-104521000D03*
X187960000Y-101981000D03*
X187960000Y-99441000D03*
D14*
X187960000Y-96901000D03*
X187960000Y-117221000D03*
D13*
X187960000Y-119761000D03*
X187960000Y-122301000D03*
X187960000Y-124841000D03*
X187960000Y-127381000D03*
X187960000Y-129921000D03*
X187960000Y-132461000D03*
X187960000Y-135001000D03*
X215138000Y-117221000D03*
X215138000Y-119761000D03*
X215138000Y-122301000D03*
X215138000Y-124841000D03*
X215138000Y-127381000D03*
X215138000Y-129921000D03*
X215138000Y-132461000D03*
D14*
X215138000Y-135001000D03*
X215138000Y-114681000D03*
D13*
X215138000Y-112141000D03*
X215138000Y-109601000D03*
X215138000Y-107061000D03*
X215138000Y-104521000D03*
X215138000Y-101981000D03*
X215138000Y-99441000D03*
X215138000Y-96901000D03*
X215138000Y-76581000D03*
X215138000Y-79121000D03*
X215138000Y-81661000D03*
X215138000Y-84201000D03*
X215138000Y-86741000D03*
X215138000Y-89281000D03*
X215138000Y-91821000D03*
D14*
X215138000Y-94361000D03*
D15*
X193896000Y-95111000D03*
X193896000Y-95911000D03*
X193896000Y-96711000D03*
X193896000Y-97511000D03*
X193896000Y-98311000D03*
X193896000Y-99111000D03*
X193896000Y-99911000D03*
X193896000Y-100711000D03*
X193896000Y-101511000D03*
X193896000Y-102311000D03*
X193896000Y-103111000D03*
X193896000Y-103911000D03*
X193896000Y-104711000D03*
X193896000Y-105511000D03*
X193896000Y-106311000D03*
X193896000Y-107111000D03*
D16*
X195596000Y-108811000D03*
X196396000Y-108811000D03*
X197196000Y-108811000D03*
X197996000Y-108811000D03*
X198796000Y-108811000D03*
X199596000Y-108811000D03*
X200396000Y-108811000D03*
X201196000Y-108811000D03*
X201996000Y-108811000D03*
X202796000Y-108811000D03*
X203596000Y-108811000D03*
X204396000Y-108811000D03*
X205196000Y-108811000D03*
X205996000Y-108811000D03*
X206796000Y-108811000D03*
X207596000Y-108811000D03*
D15*
X209296000Y-107111000D03*
X209296000Y-106311000D03*
X209296000Y-105511000D03*
X209296000Y-104711000D03*
X209296000Y-103911000D03*
X209296000Y-103111000D03*
X209296000Y-102311000D03*
X209296000Y-101511000D03*
X209296000Y-100711000D03*
X209296000Y-99911000D03*
X209296000Y-99111000D03*
X209296000Y-98311000D03*
X209296000Y-97511000D03*
X209296000Y-96711000D03*
X209296000Y-95911000D03*
X209296000Y-95111000D03*
D16*
X207596000Y-93411000D03*
X206796000Y-93411000D03*
X205996000Y-93411000D03*
X205196000Y-93411000D03*
X204396000Y-93411000D03*
X203596000Y-93411000D03*
X202796000Y-93411000D03*
X201996000Y-93411000D03*
X201196000Y-93411000D03*
X200396000Y-93411000D03*
X199596000Y-93411000D03*
X198796000Y-93411000D03*
X197996000Y-93411000D03*
X197196000Y-93411000D03*
X196396000Y-93411000D03*
X195596000Y-93411000D03*
D17*
X207010000Y-98215001D03*
X207010000Y-96520000D03*
X198796000Y-87036000D03*
X201168000Y-112776000D03*
X193515202Y-125951202D03*
X197104000Y-133096000D03*
X197104000Y-72898000D03*
X199521000Y-88900000D03*
X200471000Y-86360000D03*
X198755000Y-77978000D03*
X202946000Y-78486000D03*
X192024000Y-77724000D03*
X193707798Y-130207798D03*
X207011397Y-95248603D03*
X203200000Y-95250000D03*
X207845998Y-99211000D03*
X207011397Y-95248603D03*
X204470000Y-91440000D03*
X203708000Y-75184000D03*
X203708000Y-81788000D03*
X203708000Y-86868000D03*
X202121000Y-111252000D03*
X211827202Y-108458000D03*
X207010000Y-105410000D03*
X206118077Y-107360998D03*
X203200000Y-107211000D03*
X199166103Y-106903897D03*
X195580000Y-107188000D03*
X197612000Y-126492000D03*
X199644000Y-127508000D03*
X197871000Y-91948000D03*
X197104000Y-130556000D03*
D18*
X199046000Y-105511000D02*
X201196000Y-107661000D01*
X193896000Y-105511000D02*
X199046000Y-105511000D01*
X201196000Y-107661000D02*
X201196000Y-108811000D01*
X202546000Y-106311000D02*
X201196000Y-107661000D01*
X209296000Y-106311000D02*
X202546000Y-106311000D01*
X198796000Y-93411000D02*
X198796000Y-95926000D01*
X198796000Y-95926000D02*
X199390000Y-96520000D01*
X205196000Y-94561000D02*
X205196000Y-93411000D01*
X203237000Y-96520000D02*
X205196000Y-94561000D01*
X199390000Y-96520000D02*
X203237000Y-96520000D01*
X209296000Y-98311000D02*
X207105999Y-98311000D01*
X207105999Y-98311000D02*
X207010000Y-98215001D01*
X205196000Y-94706000D02*
X205196000Y-94561000D01*
X207010000Y-96520000D02*
X205196000Y-94706000D01*
X206610001Y-98615000D02*
X207010000Y-98215001D01*
X206109999Y-105842001D02*
X206109999Y-99115002D01*
X206109999Y-99115002D02*
X206610001Y-98615000D01*
X206578998Y-106311000D02*
X206109999Y-105842001D01*
X209296000Y-106311000D02*
X206578998Y-106311000D01*
D19*
X198796000Y-93411000D02*
X198796000Y-87036000D01*
D18*
X194717000Y-105511000D02*
X193896000Y-105511000D01*
X201168000Y-108839000D02*
X201196000Y-108811000D01*
X201168000Y-112776000D02*
X201168000Y-108839000D01*
X194258404Y-125208000D02*
X193515202Y-125951202D01*
X195478000Y-125208000D02*
X194258404Y-125208000D01*
X197104000Y-133096000D02*
X198729000Y-133096000D01*
X199080000Y-72898000D02*
X199118000Y-72936000D01*
X197104000Y-72898000D02*
X199080000Y-72898000D01*
D19*
X199596000Y-93411000D02*
X199596000Y-88975000D01*
X199596000Y-88975000D02*
X199521000Y-88900000D01*
X200396000Y-93411000D02*
X200396000Y-86435000D01*
X200396000Y-86435000D02*
X200471000Y-86360000D01*
X201996000Y-82103000D02*
X215138000Y-68961000D01*
X201996000Y-93411000D02*
X201996000Y-82103000D01*
X214038000Y-66421000D02*
X215138000Y-66421000D01*
X201196000Y-93411000D02*
X201196000Y-79263000D01*
X199118000Y-70828000D02*
X203218000Y-70828000D01*
X209123000Y-71336000D02*
X209571500Y-70887500D01*
X203218000Y-71336000D02*
X209123000Y-71336000D01*
X209571500Y-70887500D02*
X214038000Y-66421000D01*
X201196000Y-79263000D02*
X209571500Y-70887500D01*
X191910000Y-98311000D02*
X187960000Y-94361000D01*
X193896000Y-98311000D02*
X191910000Y-98311000D01*
X188809999Y-92670999D02*
X187960000Y-91821000D01*
X188809999Y-93424999D02*
X188809999Y-92670999D01*
X192896000Y-97511000D02*
X188809999Y-93424999D01*
X193896000Y-97511000D02*
X192896000Y-97511000D01*
X193059590Y-96711000D02*
X190500000Y-94151410D01*
X193896000Y-96711000D02*
X193059590Y-96711000D01*
X190500000Y-91821000D02*
X187960000Y-89281000D01*
X190500000Y-94151410D02*
X190500000Y-91821000D01*
X192896000Y-95911000D02*
X191770000Y-94785000D01*
X193896000Y-95911000D02*
X192896000Y-95911000D01*
X191770000Y-90551000D02*
X187960000Y-86741000D01*
X191770000Y-94785000D02*
X191770000Y-90551000D01*
X193896000Y-90137000D02*
X187960000Y-84201000D01*
X193896000Y-95111000D02*
X193896000Y-90137000D01*
X195596000Y-89297000D02*
X187960000Y-81661000D01*
X195596000Y-93411000D02*
X195596000Y-89297000D01*
X188809999Y-79970999D02*
X187960000Y-79121000D01*
X196396000Y-87557000D02*
X188809999Y-79970999D01*
X196396000Y-93411000D02*
X196396000Y-87557000D01*
X189060000Y-76581000D02*
X187960000Y-76581000D01*
X197196000Y-84717000D02*
X189060000Y-76581000D01*
X197196000Y-93411000D02*
X197196000Y-84717000D01*
X190035021Y-112605979D02*
X188809999Y-113831001D01*
X190035021Y-107571979D02*
X190035021Y-112605979D01*
X192896000Y-104711000D02*
X190035021Y-107571979D01*
X188809999Y-113831001D02*
X187960000Y-114681000D01*
X193896000Y-104711000D02*
X192896000Y-104711000D01*
X188809999Y-111291001D02*
X187960000Y-112141000D01*
X189585011Y-107221989D02*
X189585011Y-110515989D01*
X192896000Y-103911000D02*
X189585011Y-107221989D01*
X189585011Y-110515989D02*
X188809999Y-111291001D01*
X193896000Y-103911000D02*
X192896000Y-103911000D01*
X188809999Y-108751001D02*
X187960000Y-109601000D01*
X189135001Y-108425999D02*
X188809999Y-108751001D01*
X189135001Y-106871999D02*
X189135001Y-108425999D01*
X192896000Y-103111000D02*
X189135001Y-106871999D01*
X193896000Y-103111000D02*
X192896000Y-103111000D01*
X192710000Y-102311000D02*
X187960000Y-107061000D01*
X193896000Y-102311000D02*
X192710000Y-102311000D01*
X190970000Y-101511000D02*
X187960000Y-104521000D01*
X193896000Y-101511000D02*
X190970000Y-101511000D01*
X189230000Y-100711000D02*
X187960000Y-101981000D01*
X193896000Y-100711000D02*
X189230000Y-100711000D01*
X188430000Y-99911000D02*
X187960000Y-99441000D01*
X193896000Y-99911000D02*
X188430000Y-99911000D01*
X190170000Y-99111000D02*
X187960000Y-96901000D01*
X193896000Y-99111000D02*
X190170000Y-99111000D01*
X194427999Y-128533001D02*
X187960000Y-135001000D01*
X196698001Y-128533001D02*
X194427999Y-128533001D01*
X200396000Y-124835002D02*
X196698001Y-128533001D01*
X200396000Y-108811000D02*
X200396000Y-124835002D01*
X194187999Y-126233001D02*
X187960000Y-132461000D01*
X196698001Y-126233001D02*
X194187999Y-126233001D01*
X199596000Y-123335002D02*
X196698001Y-126233001D01*
X199596000Y-108811000D02*
X199596000Y-123335002D01*
X198796000Y-119085000D02*
X187960000Y-129921000D01*
X198796000Y-108811000D02*
X198796000Y-119085000D01*
X197996000Y-117345000D02*
X187960000Y-127381000D01*
X197996000Y-108811000D02*
X197996000Y-117345000D01*
X197196000Y-115605000D02*
X187960000Y-124841000D01*
X197196000Y-108811000D02*
X197196000Y-115605000D01*
X188809999Y-121451001D02*
X187960000Y-122301000D01*
X196396000Y-113865000D02*
X188809999Y-121451001D01*
X196396000Y-108811000D02*
X196396000Y-113865000D01*
X195596000Y-112125000D02*
X187960000Y-119761000D01*
X195596000Y-108811000D02*
X195596000Y-112125000D01*
X189060000Y-117221000D02*
X187960000Y-117221000D01*
X193896000Y-112385000D02*
X189060000Y-117221000D01*
X193896000Y-107111000D02*
X193896000Y-112385000D01*
X209296000Y-111379000D02*
X215138000Y-117221000D01*
X209296000Y-107111000D02*
X209296000Y-111379000D01*
X207596000Y-112219000D02*
X215138000Y-119761000D01*
X207596000Y-108811000D02*
X207596000Y-112219000D01*
X206796000Y-113959000D02*
X215138000Y-122301000D01*
X206796000Y-108811000D02*
X206796000Y-113959000D01*
X205996000Y-115699000D02*
X215138000Y-124841000D01*
X205996000Y-108811000D02*
X205996000Y-115699000D01*
X205196000Y-117439000D02*
X215138000Y-127381000D01*
X205196000Y-108811000D02*
X205196000Y-117439000D01*
X204396000Y-119179000D02*
X215138000Y-129921000D01*
X204396000Y-108811000D02*
X204396000Y-119179000D01*
X203596000Y-120919000D02*
X215138000Y-132461000D01*
X203596000Y-108811000D02*
X203596000Y-120919000D01*
X214038000Y-135001000D02*
X215138000Y-135001000D01*
X202796000Y-123759000D02*
X214038000Y-135001000D01*
X202796000Y-108811000D02*
X202796000Y-123759000D01*
X212928000Y-99111000D02*
X215138000Y-96901000D01*
X209296000Y-99111000D02*
X212928000Y-99111000D01*
X214668000Y-99911000D02*
X215138000Y-99441000D01*
X209296000Y-99911000D02*
X214668000Y-99911000D01*
X213868000Y-100711000D02*
X215138000Y-101981000D01*
X209296000Y-100711000D02*
X213868000Y-100711000D01*
X212128000Y-101511000D02*
X215138000Y-104521000D01*
X209296000Y-101511000D02*
X212128000Y-101511000D01*
X210388000Y-102311000D02*
X215138000Y-107061000D01*
X209296000Y-102311000D02*
X210388000Y-102311000D01*
X213962999Y-108425999D02*
X214288001Y-108751001D01*
X213962999Y-106967997D02*
X213962999Y-108425999D01*
X214288001Y-108751001D02*
X215138000Y-109601000D01*
X210106002Y-103111000D02*
X213962999Y-106967997D01*
X209296000Y-103111000D02*
X210106002Y-103111000D01*
X213512989Y-110515989D02*
X214288001Y-111291001D01*
X214288001Y-111291001D02*
X215138000Y-112141000D01*
X210269592Y-103911000D02*
X213512989Y-107154397D01*
X213512989Y-107154397D02*
X213512989Y-110515989D01*
X209296000Y-103911000D02*
X210269592Y-103911000D01*
X214038000Y-114681000D02*
X215138000Y-114681000D01*
X213062979Y-107477979D02*
X213062979Y-113705979D01*
X210296000Y-104711000D02*
X213062979Y-107477979D01*
X213062979Y-113705979D02*
X214038000Y-114681000D01*
X209296000Y-104711000D02*
X210296000Y-104711000D01*
X202796000Y-88923000D02*
X215138000Y-76581000D01*
X202796000Y-93411000D02*
X202796000Y-88923000D01*
X203596000Y-90663000D02*
X215138000Y-79121000D01*
X203596000Y-93411000D02*
X203596000Y-90663000D01*
X205996000Y-90803000D02*
X215138000Y-81661000D01*
X205996000Y-93411000D02*
X205996000Y-90803000D01*
X215006000Y-84201000D02*
X215138000Y-84201000D01*
X206796000Y-92411000D02*
X215006000Y-84201000D01*
X206796000Y-93411000D02*
X206796000Y-92411000D01*
X208468000Y-93411000D02*
X215138000Y-86741000D01*
X207596000Y-93411000D02*
X208468000Y-93411000D01*
X215138000Y-89744000D02*
X215138000Y-89281000D01*
X209771000Y-95111000D02*
X215138000Y-89744000D01*
X209296000Y-95111000D02*
X209771000Y-95111000D01*
X211048000Y-95911000D02*
X215138000Y-91821000D01*
X209296000Y-95911000D02*
X211048000Y-95911000D01*
X212788000Y-96711000D02*
X215138000Y-94361000D01*
X209296000Y-96711000D02*
X212788000Y-96711000D01*
X200152000Y-76581000D02*
X198755000Y-77978000D01*
X202946000Y-79248000D02*
X202184000Y-80010000D01*
X202946000Y-78486000D02*
X202946000Y-79248000D01*
X199425500Y-129808000D02*
X201676000Y-132058500D01*
X195478000Y-129808000D02*
X199425500Y-129808000D01*
X187960000Y-71501000D02*
X189865000Y-71501000D01*
X192024000Y-73660000D02*
X192024000Y-77724000D01*
X189865000Y-71501000D02*
X192024000Y-73660000D01*
X195078202Y-130207798D02*
X195478000Y-129808000D01*
X193707798Y-130207798D02*
X195078202Y-130207798D01*
X209195000Y-105410000D02*
X209296000Y-105511000D01*
X209175001Y-97390001D02*
X209296000Y-97511000D01*
D18*
X208045999Y-96283205D02*
X207011397Y-95248603D01*
X208045999Y-97410999D02*
X208045999Y-96283205D01*
X209296000Y-97511000D02*
X208146000Y-97511000D01*
X208146000Y-97511000D02*
X208045999Y-97410999D01*
X204396000Y-94371038D02*
X204396000Y-93411000D01*
X203917037Y-94850001D02*
X204396000Y-94371038D01*
X203599999Y-94850001D02*
X203917037Y-94850001D01*
X203200000Y-95250000D02*
X203599999Y-94850001D01*
X207845998Y-105210998D02*
X207845998Y-99211000D01*
X209296000Y-105511000D02*
X208146000Y-105511000D01*
X208146000Y-105511000D02*
X207845998Y-105210998D01*
X204470000Y-93337000D02*
X204396000Y-93411000D01*
X204470000Y-91440000D02*
X204470000Y-93337000D01*
X203708000Y-81788000D02*
X203708000Y-86868000D01*
X202121000Y-108936000D02*
X201996000Y-108811000D01*
X202121000Y-111252000D02*
X202121000Y-108936000D01*
X202311000Y-76581000D02*
X203708000Y-75184000D01*
X202202000Y-76581000D02*
X202311000Y-76581000D01*
X207111000Y-105511000D02*
X207010000Y-105410000D01*
X209296000Y-105511000D02*
X207111000Y-105511000D01*
X203200000Y-107211000D02*
X202635962Y-107211000D01*
X202635962Y-107211000D02*
X201996000Y-107850962D01*
X201996000Y-107850962D02*
X201996000Y-108811000D01*
X203349998Y-107360998D02*
X203200000Y-107211000D01*
X206118077Y-107360998D02*
X203349998Y-107360998D01*
X193896000Y-106311000D02*
X198573206Y-106311000D01*
X198573206Y-106311000D02*
X199166103Y-106903897D01*
X194703000Y-106311000D02*
X193896000Y-106311000D01*
X195580000Y-107188000D02*
X194703000Y-106311000D01*
D19*
X196596000Y-127508000D02*
X197612000Y-126492000D01*
X195478000Y-127508000D02*
X196596000Y-127508000D01*
X199644000Y-127508000D02*
X201778000Y-127508000D01*
X195478000Y-127508000D02*
X194564000Y-127508000D01*
X202121000Y-127165000D02*
X201778000Y-127508000D01*
X202121000Y-111252000D02*
X202121000Y-127165000D01*
X197996000Y-92073000D02*
X197871000Y-91948000D01*
X197996000Y-93411000D02*
X197996000Y-92073000D01*
X197104000Y-131471000D02*
X195479000Y-133096000D01*
X197104000Y-130556000D02*
X197104000Y-131471000D01*
X193421000Y-66421000D02*
X187960000Y-66421000D01*
X195072000Y-68072000D02*
X193421000Y-66421000D01*
X195072000Y-72136000D02*
X195072000Y-68072000D01*
X197104000Y-74168000D02*
X195072000Y-72136000D01*
X199764000Y-74168000D02*
X197104000Y-74168000D01*
X202177000Y-76581000D02*
X199764000Y-74168000D01*
X211827202Y-107042202D02*
X211827202Y-108458000D01*
X210296000Y-105511000D02*
X211827202Y-107042202D01*
X209296000Y-105511000D02*
X210296000Y-105511000D01*
D20*
X213474201Y-135512003D02*
X213497999Y-135541001D01*
X213613724Y-135635974D01*
X213649928Y-135655326D01*
X213649928Y-135851000D01*
X213662188Y-135975482D01*
X213698498Y-136095180D01*
X213757463Y-136205494D01*
X213790705Y-136246000D01*
X188769655Y-136246000D01*
X188906632Y-136154475D01*
X189113475Y-135947632D01*
X189275990Y-135704411D01*
X189387932Y-135434158D01*
X189445000Y-135147260D01*
X189445000Y-134854740D01*
X189401209Y-134634592D01*
X193036045Y-130999756D01*
X193048024Y-131011735D01*
X193217542Y-131125003D01*
X193405900Y-131203024D01*
X193605859Y-131242798D01*
X193809737Y-131242798D01*
X194009696Y-131203024D01*
X194194490Y-131126479D01*
X194233820Y-131147502D01*
X194353518Y-131183812D01*
X194478000Y-131196072D01*
X196286899Y-131196072D01*
X196293799Y-131206399D01*
X196189046Y-131311153D01*
X196152254Y-131299992D01*
X195979000Y-131282928D01*
X194979000Y-131282928D01*
X194805746Y-131299992D01*
X194639150Y-131350528D01*
X194485614Y-131432595D01*
X194351038Y-131543038D01*
X194240595Y-131677614D01*
X194158528Y-131831150D01*
X194107992Y-131997746D01*
X194090928Y-132171000D01*
X194090928Y-134021000D01*
X194107992Y-134194254D01*
X194158528Y-134360850D01*
X194240595Y-134514386D01*
X194351038Y-134648962D01*
X194485614Y-134759405D01*
X194639150Y-134841472D01*
X194805746Y-134892008D01*
X194979000Y-134909072D01*
X195979000Y-134909072D01*
X196152254Y-134892008D01*
X196318850Y-134841472D01*
X196472386Y-134759405D01*
X196606962Y-134648962D01*
X196717405Y-134514386D01*
X196799472Y-134360850D01*
X196826727Y-134271000D01*
X197340928Y-134271000D01*
X197353188Y-134395482D01*
X197389498Y-134515180D01*
X197448463Y-134625494D01*
X197527815Y-134722185D01*
X197624506Y-134801537D01*
X197734820Y-134860502D01*
X197854518Y-134896812D01*
X197979000Y-134909072D01*
X198443250Y-134906000D01*
X198602000Y-134747250D01*
X198602000Y-133223000D01*
X198856000Y-133223000D01*
X198856000Y-134747250D01*
X199014750Y-134906000D01*
X199479000Y-134909072D01*
X199603482Y-134896812D01*
X199723180Y-134860502D01*
X199833494Y-134801537D01*
X199930185Y-134722185D01*
X199931157Y-134721000D01*
X200312928Y-134721000D01*
X200325188Y-134845482D01*
X200361498Y-134965180D01*
X200420463Y-135075494D01*
X200499815Y-135172185D01*
X200596506Y-135251537D01*
X200706820Y-135310502D01*
X200826518Y-135346812D01*
X200951000Y-135359072D01*
X201390250Y-135356000D01*
X201549000Y-135197250D01*
X201549000Y-134260500D01*
X201803000Y-134260500D01*
X201803000Y-135197250D01*
X201961750Y-135356000D01*
X202401000Y-135359072D01*
X202525482Y-135346812D01*
X202645180Y-135310502D01*
X202755494Y-135251537D01*
X202852185Y-135172185D01*
X202931537Y-135075494D01*
X202990502Y-134965180D01*
X203026812Y-134845482D01*
X203039072Y-134721000D01*
X203036000Y-134419250D01*
X202877250Y-134260500D01*
X201803000Y-134260500D01*
X201549000Y-134260500D01*
X200474750Y-134260500D01*
X200316000Y-134419250D01*
X200312928Y-134721000D01*
X199931157Y-134721000D01*
X200009537Y-134625494D01*
X200068502Y-134515180D01*
X200104812Y-134395482D01*
X200117072Y-134271000D01*
X200114000Y-133381750D01*
X199955250Y-133223000D01*
X198856000Y-133223000D01*
X198602000Y-133223000D01*
X197502750Y-133223000D01*
X197344000Y-133381750D01*
X197340928Y-134271000D01*
X196826727Y-134271000D01*
X196850008Y-134194254D01*
X196867072Y-134021000D01*
X196867072Y-132782730D01*
X197342263Y-132307538D01*
X197344000Y-132810250D01*
X197502750Y-132969000D01*
X198602000Y-132969000D01*
X198602000Y-131444750D01*
X198856000Y-131444750D01*
X198856000Y-132969000D01*
X199955250Y-132969000D01*
X200114000Y-132810250D01*
X200117072Y-131921000D01*
X200104812Y-131796518D01*
X200068502Y-131676820D01*
X200009537Y-131566506D01*
X199930185Y-131469815D01*
X199833494Y-131390463D01*
X199723180Y-131331498D01*
X199603482Y-131295188D01*
X199479000Y-131282928D01*
X199014750Y-131286000D01*
X198856000Y-131444750D01*
X198602000Y-131444750D01*
X198443250Y-131286000D01*
X197979000Y-131282928D01*
X197864000Y-131294254D01*
X197864000Y-131259711D01*
X197907937Y-131215774D01*
X198021205Y-131046256D01*
X198099226Y-130857898D01*
X198139000Y-130657939D01*
X198139000Y-130568000D01*
X199110699Y-130568000D01*
X200312928Y-131770230D01*
X200312928Y-132396000D01*
X200329992Y-132569254D01*
X200380528Y-132735850D01*
X200462595Y-132889386D01*
X200573038Y-133023962D01*
X200579594Y-133029342D01*
X200499815Y-133094815D01*
X200420463Y-133191506D01*
X200361498Y-133301820D01*
X200325188Y-133421518D01*
X200312928Y-133546000D01*
X200316000Y-133847750D01*
X200474750Y-134006500D01*
X201549000Y-134006500D01*
X201549000Y-133986500D01*
X201803000Y-133986500D01*
X201803000Y-134006500D01*
X202877250Y-134006500D01*
X203036000Y-133847750D01*
X203039072Y-133546000D01*
X203026812Y-133421518D01*
X202990502Y-133301820D01*
X202931537Y-133191506D01*
X202852185Y-133094815D01*
X202772406Y-133029342D01*
X202778962Y-133023962D01*
X202889405Y-132889386D01*
X202971472Y-132735850D01*
X203022008Y-132569254D01*
X203039072Y-132396000D01*
X203039072Y-131721000D01*
X203022008Y-131547746D01*
X202971472Y-131381150D01*
X202889405Y-131227614D01*
X202778962Y-131093038D01*
X202644386Y-130982595D01*
X202490850Y-130900528D01*
X202324254Y-130849992D01*
X202151000Y-130832928D01*
X201525230Y-130832928D01*
X200734044Y-130041743D01*
X200778000Y-130046072D01*
X202778000Y-130046072D01*
X202902482Y-130033812D01*
X203022180Y-129997502D01*
X203132494Y-129938537D01*
X203229185Y-129859185D01*
X203308537Y-129762494D01*
X203367502Y-129652180D01*
X203403812Y-129532482D01*
X203416072Y-129408000D01*
X203416072Y-125608000D01*
X203403812Y-125483518D01*
X203385565Y-125423366D01*
X213474201Y-135512003D01*
G04 #@! TA.AperFunction,Conductor*
D21*
G36*
X213474201Y-135512003D02*
G01*
X213497999Y-135541001D01*
X213613724Y-135635974D01*
X213649928Y-135655326D01*
X213649928Y-135851000D01*
X213662188Y-135975482D01*
X213698498Y-136095180D01*
X213757463Y-136205494D01*
X213790705Y-136246000D01*
X188769655Y-136246000D01*
X188906632Y-136154475D01*
X189113475Y-135947632D01*
X189275990Y-135704411D01*
X189387932Y-135434158D01*
X189445000Y-135147260D01*
X189445000Y-134854740D01*
X189401209Y-134634592D01*
X193036045Y-130999756D01*
X193048024Y-131011735D01*
X193217542Y-131125003D01*
X193405900Y-131203024D01*
X193605859Y-131242798D01*
X193809737Y-131242798D01*
X194009696Y-131203024D01*
X194194490Y-131126479D01*
X194233820Y-131147502D01*
X194353518Y-131183812D01*
X194478000Y-131196072D01*
X196286899Y-131196072D01*
X196293799Y-131206399D01*
X196189046Y-131311153D01*
X196152254Y-131299992D01*
X195979000Y-131282928D01*
X194979000Y-131282928D01*
X194805746Y-131299992D01*
X194639150Y-131350528D01*
X194485614Y-131432595D01*
X194351038Y-131543038D01*
X194240595Y-131677614D01*
X194158528Y-131831150D01*
X194107992Y-131997746D01*
X194090928Y-132171000D01*
X194090928Y-134021000D01*
X194107992Y-134194254D01*
X194158528Y-134360850D01*
X194240595Y-134514386D01*
X194351038Y-134648962D01*
X194485614Y-134759405D01*
X194639150Y-134841472D01*
X194805746Y-134892008D01*
X194979000Y-134909072D01*
X195979000Y-134909072D01*
X196152254Y-134892008D01*
X196318850Y-134841472D01*
X196472386Y-134759405D01*
X196606962Y-134648962D01*
X196717405Y-134514386D01*
X196799472Y-134360850D01*
X196826727Y-134271000D01*
X197340928Y-134271000D01*
X197353188Y-134395482D01*
X197389498Y-134515180D01*
X197448463Y-134625494D01*
X197527815Y-134722185D01*
X197624506Y-134801537D01*
X197734820Y-134860502D01*
X197854518Y-134896812D01*
X197979000Y-134909072D01*
X198443250Y-134906000D01*
X198602000Y-134747250D01*
X198602000Y-133223000D01*
X198856000Y-133223000D01*
X198856000Y-134747250D01*
X199014750Y-134906000D01*
X199479000Y-134909072D01*
X199603482Y-134896812D01*
X199723180Y-134860502D01*
X199833494Y-134801537D01*
X199930185Y-134722185D01*
X199931157Y-134721000D01*
X200312928Y-134721000D01*
X200325188Y-134845482D01*
X200361498Y-134965180D01*
X200420463Y-135075494D01*
X200499815Y-135172185D01*
X200596506Y-135251537D01*
X200706820Y-135310502D01*
X200826518Y-135346812D01*
X200951000Y-135359072D01*
X201390250Y-135356000D01*
X201549000Y-135197250D01*
X201549000Y-134260500D01*
X201803000Y-134260500D01*
X201803000Y-135197250D01*
X201961750Y-135356000D01*
X202401000Y-135359072D01*
X202525482Y-135346812D01*
X202645180Y-135310502D01*
X202755494Y-135251537D01*
X202852185Y-135172185D01*
X202931537Y-135075494D01*
X202990502Y-134965180D01*
X203026812Y-134845482D01*
X203039072Y-134721000D01*
X203036000Y-134419250D01*
X202877250Y-134260500D01*
X201803000Y-134260500D01*
X201549000Y-134260500D01*
X200474750Y-134260500D01*
X200316000Y-134419250D01*
X200312928Y-134721000D01*
X199931157Y-134721000D01*
X200009537Y-134625494D01*
X200068502Y-134515180D01*
X200104812Y-134395482D01*
X200117072Y-134271000D01*
X200114000Y-133381750D01*
X199955250Y-133223000D01*
X198856000Y-133223000D01*
X198602000Y-133223000D01*
X197502750Y-133223000D01*
X197344000Y-133381750D01*
X197340928Y-134271000D01*
X196826727Y-134271000D01*
X196850008Y-134194254D01*
X196867072Y-134021000D01*
X196867072Y-132782730D01*
X197342263Y-132307538D01*
X197344000Y-132810250D01*
X197502750Y-132969000D01*
X198602000Y-132969000D01*
X198602000Y-131444750D01*
X198856000Y-131444750D01*
X198856000Y-132969000D01*
X199955250Y-132969000D01*
X200114000Y-132810250D01*
X200117072Y-131921000D01*
X200104812Y-131796518D01*
X200068502Y-131676820D01*
X200009537Y-131566506D01*
X199930185Y-131469815D01*
X199833494Y-131390463D01*
X199723180Y-131331498D01*
X199603482Y-131295188D01*
X199479000Y-131282928D01*
X199014750Y-131286000D01*
X198856000Y-131444750D01*
X198602000Y-131444750D01*
X198443250Y-131286000D01*
X197979000Y-131282928D01*
X197864000Y-131294254D01*
X197864000Y-131259711D01*
X197907937Y-131215774D01*
X198021205Y-131046256D01*
X198099226Y-130857898D01*
X198139000Y-130657939D01*
X198139000Y-130568000D01*
X199110699Y-130568000D01*
X200312928Y-131770230D01*
X200312928Y-132396000D01*
X200329992Y-132569254D01*
X200380528Y-132735850D01*
X200462595Y-132889386D01*
X200573038Y-133023962D01*
X200579594Y-133029342D01*
X200499815Y-133094815D01*
X200420463Y-133191506D01*
X200361498Y-133301820D01*
X200325188Y-133421518D01*
X200312928Y-133546000D01*
X200316000Y-133847750D01*
X200474750Y-134006500D01*
X201549000Y-134006500D01*
X201549000Y-133986500D01*
X201803000Y-133986500D01*
X201803000Y-134006500D01*
X202877250Y-134006500D01*
X203036000Y-133847750D01*
X203039072Y-133546000D01*
X203026812Y-133421518D01*
X202990502Y-133301820D01*
X202931537Y-133191506D01*
X202852185Y-133094815D01*
X202772406Y-133029342D01*
X202778962Y-133023962D01*
X202889405Y-132889386D01*
X202971472Y-132735850D01*
X203022008Y-132569254D01*
X203039072Y-132396000D01*
X203039072Y-131721000D01*
X203022008Y-131547746D01*
X202971472Y-131381150D01*
X202889405Y-131227614D01*
X202778962Y-131093038D01*
X202644386Y-130982595D01*
X202490850Y-130900528D01*
X202324254Y-130849992D01*
X202151000Y-130832928D01*
X201525230Y-130832928D01*
X200734044Y-130041743D01*
X200778000Y-130046072D01*
X202778000Y-130046072D01*
X202902482Y-130033812D01*
X203022180Y-129997502D01*
X203132494Y-129938537D01*
X203229185Y-129859185D01*
X203308537Y-129762494D01*
X203367502Y-129652180D01*
X203403812Y-129532482D01*
X203416072Y-129408000D01*
X203416072Y-125608000D01*
X203403812Y-125483518D01*
X203385565Y-125423366D01*
X213474201Y-135512003D01*
G37*
G04 #@! TD.AperFunction*
D20*
X198836001Y-123020198D02*
X197114193Y-124742008D01*
X197116072Y-124458000D01*
X197103812Y-124333518D01*
X197067502Y-124213820D01*
X197008537Y-124103506D01*
X196929185Y-124006815D01*
X196832494Y-123927463D01*
X196722180Y-123868498D01*
X196602482Y-123832188D01*
X196478000Y-123819928D01*
X195763750Y-123823000D01*
X195605000Y-123981750D01*
X195605000Y-125081000D01*
X195625000Y-125081000D01*
X195625000Y-125335000D01*
X195605000Y-125335000D01*
X195605000Y-125355000D01*
X195351000Y-125355000D01*
X195351000Y-125335000D01*
X194001750Y-125335000D01*
X193843000Y-125493750D01*
X193842589Y-125555872D01*
X193763723Y-125598027D01*
X193647998Y-125693000D01*
X193624200Y-125721998D01*
X189445000Y-129901199D01*
X189445000Y-129774740D01*
X189401209Y-129554592D01*
X193938276Y-125017526D01*
X194001750Y-125081000D01*
X195351000Y-125081000D01*
X195351000Y-123981750D01*
X195192250Y-123823000D01*
X195133056Y-123822745D01*
X198836001Y-120119801D01*
X198836001Y-123020198D01*
G04 #@! TA.AperFunction,Conductor*
D21*
G36*
X198836001Y-123020198D02*
G01*
X197114193Y-124742008D01*
X197116072Y-124458000D01*
X197103812Y-124333518D01*
X197067502Y-124213820D01*
X197008537Y-124103506D01*
X196929185Y-124006815D01*
X196832494Y-123927463D01*
X196722180Y-123868498D01*
X196602482Y-123832188D01*
X196478000Y-123819928D01*
X195763750Y-123823000D01*
X195605000Y-123981750D01*
X195605000Y-125081000D01*
X195625000Y-125081000D01*
X195625000Y-125335000D01*
X195605000Y-125335000D01*
X195605000Y-125355000D01*
X195351000Y-125355000D01*
X195351000Y-125335000D01*
X194001750Y-125335000D01*
X193843000Y-125493750D01*
X193842589Y-125555872D01*
X193763723Y-125598027D01*
X193647998Y-125693000D01*
X193624200Y-125721998D01*
X189445000Y-129901199D01*
X189445000Y-129774740D01*
X189401209Y-129554592D01*
X193938276Y-125017526D01*
X194001750Y-125081000D01*
X195351000Y-125081000D01*
X195351000Y-123981750D01*
X195192250Y-123823000D01*
X195133056Y-123822745D01*
X198836001Y-120119801D01*
X198836001Y-123020198D01*
G37*
G04 #@! TD.AperFunction*
D20*
X201203795Y-111742256D02*
X201317063Y-111911774D01*
X201361000Y-111955711D01*
X201361001Y-124969928D01*
X201146388Y-124969928D01*
X201156000Y-124872335D01*
X201156000Y-124872326D01*
X201159676Y-124835003D01*
X201156000Y-124797680D01*
X201156000Y-111626869D01*
X201203795Y-111742256D01*
G04 #@! TA.AperFunction,Conductor*
D21*
G36*
X201203795Y-111742256D02*
G01*
X201317063Y-111911774D01*
X201361000Y-111955711D01*
X201361001Y-124969928D01*
X201146388Y-124969928D01*
X201156000Y-124872335D01*
X201156000Y-124872326D01*
X201159676Y-124835003D01*
X201156000Y-124797680D01*
X201156000Y-111626869D01*
X201203795Y-111742256D01*
G37*
G04 #@! TD.AperFunction*
D20*
X198869815Y-94612185D02*
X198966506Y-94691537D01*
X198989667Y-94703917D01*
X199081750Y-94796000D01*
X199195337Y-94786454D01*
X199196518Y-94786812D01*
X199321000Y-94799072D01*
X199871000Y-94799072D01*
X199995482Y-94786812D01*
X199996000Y-94786655D01*
X199996518Y-94786812D01*
X200121000Y-94799072D01*
X200671000Y-94799072D01*
X200795482Y-94786812D01*
X200796000Y-94786655D01*
X200796518Y-94786812D01*
X200921000Y-94799072D01*
X201471000Y-94799072D01*
X201595482Y-94786812D01*
X201596000Y-94786655D01*
X201596518Y-94786812D01*
X201721000Y-94799072D01*
X202266505Y-94799072D01*
X202204774Y-94948102D01*
X202165000Y-95148061D01*
X202165000Y-95351939D01*
X202204774Y-95551898D01*
X202282795Y-95740256D01*
X202396063Y-95909774D01*
X202540226Y-96053937D01*
X202709744Y-96167205D01*
X202898102Y-96245226D01*
X203098061Y-96285000D01*
X203301939Y-96285000D01*
X203501898Y-96245226D01*
X203690256Y-96167205D01*
X203859774Y-96053937D01*
X204003937Y-95909774D01*
X204117205Y-95740256D01*
X204154348Y-95650586D01*
X204238124Y-95625173D01*
X204383183Y-95547637D01*
X204510328Y-95443292D01*
X204536483Y-95411422D01*
X204957422Y-94990483D01*
X204989291Y-94964329D01*
X205093636Y-94837184D01*
X205171172Y-94692125D01*
X205215498Y-94546000D01*
X205269815Y-94612185D01*
X205366506Y-94691537D01*
X205389667Y-94703917D01*
X205481750Y-94796000D01*
X205595337Y-94786454D01*
X205596518Y-94786812D01*
X205721000Y-94799072D01*
X206077323Y-94799072D01*
X206016171Y-94946705D01*
X205976397Y-95146664D01*
X205976397Y-95350542D01*
X206016171Y-95550501D01*
X206094192Y-95738859D01*
X206207460Y-95908377D01*
X206351623Y-96052540D01*
X206521141Y-96165808D01*
X206709499Y-96243829D01*
X206854622Y-96272696D01*
X207211000Y-96629073D01*
X207210999Y-97369980D01*
X207206959Y-97410999D01*
X207210999Y-97452017D01*
X207223081Y-97574687D01*
X207270827Y-97732085D01*
X207348363Y-97877144D01*
X207452708Y-98004290D01*
X207484576Y-98030443D01*
X207526557Y-98072425D01*
X207552709Y-98104291D01*
X207660371Y-98192647D01*
X207544100Y-98215774D01*
X207355742Y-98293795D01*
X207186224Y-98407063D01*
X207042061Y-98551226D01*
X206928793Y-98720744D01*
X206850772Y-98909102D01*
X206810998Y-99109061D01*
X206810998Y-99312939D01*
X206850772Y-99512898D01*
X206928793Y-99701256D01*
X207010999Y-99824286D01*
X207010998Y-104375000D01*
X206908061Y-104375000D01*
X206708102Y-104414774D01*
X206519744Y-104492795D01*
X206350226Y-104606063D01*
X206206063Y-104750226D01*
X206092795Y-104919744D01*
X206014774Y-105108102D01*
X205975000Y-105308061D01*
X205975000Y-105511939D01*
X206014774Y-105711898D01*
X206092795Y-105900256D01*
X206206063Y-106069774D01*
X206350226Y-106213937D01*
X206519744Y-106327205D01*
X206708102Y-106405226D01*
X206908061Y-106445000D01*
X207111939Y-106445000D01*
X207311898Y-106405226D01*
X207454881Y-106346000D01*
X207911000Y-106346000D01*
X207911000Y-106438002D01*
X208051166Y-106438002D01*
X208015463Y-106481506D01*
X208003083Y-106504667D01*
X207911000Y-106596750D01*
X207920546Y-106710337D01*
X207920188Y-106711518D01*
X207907928Y-106836000D01*
X207907928Y-107386000D01*
X207911962Y-107426962D01*
X207871000Y-107422928D01*
X207321000Y-107422928D01*
X207196518Y-107435188D01*
X207196000Y-107435345D01*
X207195482Y-107435188D01*
X207153077Y-107431012D01*
X207153077Y-107259059D01*
X207113303Y-107059100D01*
X207035282Y-106870742D01*
X206922014Y-106701224D01*
X206777851Y-106557061D01*
X206608333Y-106443793D01*
X206419975Y-106365772D01*
X206220016Y-106325998D01*
X206016138Y-106325998D01*
X205816179Y-106365772D01*
X205627821Y-106443793D01*
X205504792Y-106525998D01*
X203978709Y-106525998D01*
X203859774Y-106407063D01*
X203690256Y-106293795D01*
X203501898Y-106215774D01*
X203301939Y-106176000D01*
X203098061Y-106176000D01*
X202898102Y-106215774D01*
X202709744Y-106293795D01*
X202585293Y-106376951D01*
X202472273Y-106388082D01*
X202314875Y-106435828D01*
X202169816Y-106513364D01*
X202080072Y-106587015D01*
X202042671Y-106617709D01*
X202016524Y-106649569D01*
X201434578Y-107231517D01*
X201402709Y-107257671D01*
X201309725Y-107370974D01*
X201298364Y-107384817D01*
X201220828Y-107529876D01*
X201176502Y-107676000D01*
X201122185Y-107609815D01*
X201025494Y-107530463D01*
X201002333Y-107518083D01*
X200910250Y-107426000D01*
X200796663Y-107435546D01*
X200795482Y-107435188D01*
X200671000Y-107422928D01*
X200121000Y-107422928D01*
X200060072Y-107428929D01*
X200083308Y-107394153D01*
X200161329Y-107205795D01*
X200201103Y-107005836D01*
X200201103Y-106801958D01*
X200161329Y-106601999D01*
X200083308Y-106413641D01*
X199970040Y-106244123D01*
X199825877Y-106099960D01*
X199656359Y-105986692D01*
X199468001Y-105908671D01*
X199322878Y-105879804D01*
X199192651Y-105749578D01*
X199166497Y-105717709D01*
X199039352Y-105613364D01*
X198894293Y-105535828D01*
X198736895Y-105488082D01*
X198614225Y-105476000D01*
X198614224Y-105476000D01*
X198573206Y-105471960D01*
X198532188Y-105476000D01*
X195281000Y-105476000D01*
X195281000Y-105383998D01*
X195140834Y-105383998D01*
X195176537Y-105340494D01*
X195188917Y-105317333D01*
X195281000Y-105225250D01*
X195271454Y-105111663D01*
X195271812Y-105110482D01*
X195284072Y-104986000D01*
X195284072Y-104436000D01*
X195271812Y-104311518D01*
X195271655Y-104311000D01*
X195271812Y-104310482D01*
X195284072Y-104186000D01*
X195284072Y-103636000D01*
X195271812Y-103511518D01*
X195271655Y-103511000D01*
X195271812Y-103510482D01*
X195284072Y-103386000D01*
X195284072Y-102836000D01*
X195271812Y-102711518D01*
X195271655Y-102711000D01*
X195271812Y-102710482D01*
X195284072Y-102586000D01*
X195284072Y-102036000D01*
X195271812Y-101911518D01*
X195271655Y-101911000D01*
X195271812Y-101910482D01*
X195284072Y-101786000D01*
X195284072Y-101236000D01*
X195271812Y-101111518D01*
X195271655Y-101111000D01*
X195271812Y-101110482D01*
X195284072Y-100986000D01*
X195284072Y-100436000D01*
X195271812Y-100311518D01*
X195271655Y-100311000D01*
X195271812Y-100310482D01*
X195284072Y-100186000D01*
X195284072Y-99636000D01*
X195271812Y-99511518D01*
X195271655Y-99511000D01*
X195271812Y-99510482D01*
X195284072Y-99386000D01*
X195284072Y-98836000D01*
X195271812Y-98711518D01*
X195271655Y-98711000D01*
X195271812Y-98710482D01*
X195284072Y-98586000D01*
X195284072Y-98036000D01*
X195271812Y-97911518D01*
X195271655Y-97911000D01*
X195271812Y-97910482D01*
X195284072Y-97786000D01*
X195284072Y-97236000D01*
X195271812Y-97111518D01*
X195271655Y-97111000D01*
X195271812Y-97110482D01*
X195284072Y-96986000D01*
X195284072Y-96436000D01*
X195271812Y-96311518D01*
X195271655Y-96311000D01*
X195271812Y-96310482D01*
X195284072Y-96186000D01*
X195284072Y-95636000D01*
X195271812Y-95511518D01*
X195271655Y-95511000D01*
X195271812Y-95510482D01*
X195284072Y-95386000D01*
X195284072Y-94836000D01*
X195280038Y-94795038D01*
X195321000Y-94799072D01*
X195871000Y-94799072D01*
X195995482Y-94786812D01*
X195996000Y-94786655D01*
X195996518Y-94786812D01*
X196121000Y-94799072D01*
X196671000Y-94799072D01*
X196795482Y-94786812D01*
X196796000Y-94786655D01*
X196796518Y-94786812D01*
X196921000Y-94799072D01*
X197471000Y-94799072D01*
X197595482Y-94786812D01*
X197596000Y-94786655D01*
X197596518Y-94786812D01*
X197721000Y-94799072D01*
X198271000Y-94799072D01*
X198395482Y-94786812D01*
X198396663Y-94786454D01*
X198510250Y-94796000D01*
X198602333Y-94703917D01*
X198625494Y-94691537D01*
X198722185Y-94612185D01*
X198796000Y-94522241D01*
X198869815Y-94612185D01*
G04 #@! TA.AperFunction,Conductor*
D21*
G36*
X198869815Y-94612185D02*
G01*
X198966506Y-94691537D01*
X198989667Y-94703917D01*
X199081750Y-94796000D01*
X199195337Y-94786454D01*
X199196518Y-94786812D01*
X199321000Y-94799072D01*
X199871000Y-94799072D01*
X199995482Y-94786812D01*
X199996000Y-94786655D01*
X199996518Y-94786812D01*
X200121000Y-94799072D01*
X200671000Y-94799072D01*
X200795482Y-94786812D01*
X200796000Y-94786655D01*
X200796518Y-94786812D01*
X200921000Y-94799072D01*
X201471000Y-94799072D01*
X201595482Y-94786812D01*
X201596000Y-94786655D01*
X201596518Y-94786812D01*
X201721000Y-94799072D01*
X202266505Y-94799072D01*
X202204774Y-94948102D01*
X202165000Y-95148061D01*
X202165000Y-95351939D01*
X202204774Y-95551898D01*
X202282795Y-95740256D01*
X202396063Y-95909774D01*
X202540226Y-96053937D01*
X202709744Y-96167205D01*
X202898102Y-96245226D01*
X203098061Y-96285000D01*
X203301939Y-96285000D01*
X203501898Y-96245226D01*
X203690256Y-96167205D01*
X203859774Y-96053937D01*
X204003937Y-95909774D01*
X204117205Y-95740256D01*
X204154348Y-95650586D01*
X204238124Y-95625173D01*
X204383183Y-95547637D01*
X204510328Y-95443292D01*
X204536483Y-95411422D01*
X204957422Y-94990483D01*
X204989291Y-94964329D01*
X205093636Y-94837184D01*
X205171172Y-94692125D01*
X205215498Y-94546000D01*
X205269815Y-94612185D01*
X205366506Y-94691537D01*
X205389667Y-94703917D01*
X205481750Y-94796000D01*
X205595337Y-94786454D01*
X205596518Y-94786812D01*
X205721000Y-94799072D01*
X206077323Y-94799072D01*
X206016171Y-94946705D01*
X205976397Y-95146664D01*
X205976397Y-95350542D01*
X206016171Y-95550501D01*
X206094192Y-95738859D01*
X206207460Y-95908377D01*
X206351623Y-96052540D01*
X206521141Y-96165808D01*
X206709499Y-96243829D01*
X206854622Y-96272696D01*
X207211000Y-96629073D01*
X207210999Y-97369980D01*
X207206959Y-97410999D01*
X207210999Y-97452017D01*
X207223081Y-97574687D01*
X207270827Y-97732085D01*
X207348363Y-97877144D01*
X207452708Y-98004290D01*
X207484576Y-98030443D01*
X207526557Y-98072425D01*
X207552709Y-98104291D01*
X207660371Y-98192647D01*
X207544100Y-98215774D01*
X207355742Y-98293795D01*
X207186224Y-98407063D01*
X207042061Y-98551226D01*
X206928793Y-98720744D01*
X206850772Y-98909102D01*
X206810998Y-99109061D01*
X206810998Y-99312939D01*
X206850772Y-99512898D01*
X206928793Y-99701256D01*
X207010999Y-99824286D01*
X207010998Y-104375000D01*
X206908061Y-104375000D01*
X206708102Y-104414774D01*
X206519744Y-104492795D01*
X206350226Y-104606063D01*
X206206063Y-104750226D01*
X206092795Y-104919744D01*
X206014774Y-105108102D01*
X205975000Y-105308061D01*
X205975000Y-105511939D01*
X206014774Y-105711898D01*
X206092795Y-105900256D01*
X206206063Y-106069774D01*
X206350226Y-106213937D01*
X206519744Y-106327205D01*
X206708102Y-106405226D01*
X206908061Y-106445000D01*
X207111939Y-106445000D01*
X207311898Y-106405226D01*
X207454881Y-106346000D01*
X207911000Y-106346000D01*
X207911000Y-106438002D01*
X208051166Y-106438002D01*
X208015463Y-106481506D01*
X208003083Y-106504667D01*
X207911000Y-106596750D01*
X207920546Y-106710337D01*
X207920188Y-106711518D01*
X207907928Y-106836000D01*
X207907928Y-107386000D01*
X207911962Y-107426962D01*
X207871000Y-107422928D01*
X207321000Y-107422928D01*
X207196518Y-107435188D01*
X207196000Y-107435345D01*
X207195482Y-107435188D01*
X207153077Y-107431012D01*
X207153077Y-107259059D01*
X207113303Y-107059100D01*
X207035282Y-106870742D01*
X206922014Y-106701224D01*
X206777851Y-106557061D01*
X206608333Y-106443793D01*
X206419975Y-106365772D01*
X206220016Y-106325998D01*
X206016138Y-106325998D01*
X205816179Y-106365772D01*
X205627821Y-106443793D01*
X205504792Y-106525998D01*
X203978709Y-106525998D01*
X203859774Y-106407063D01*
X203690256Y-106293795D01*
X203501898Y-106215774D01*
X203301939Y-106176000D01*
X203098061Y-106176000D01*
X202898102Y-106215774D01*
X202709744Y-106293795D01*
X202585293Y-106376951D01*
X202472273Y-106388082D01*
X202314875Y-106435828D01*
X202169816Y-106513364D01*
X202080072Y-106587015D01*
X202042671Y-106617709D01*
X202016524Y-106649569D01*
X201434578Y-107231517D01*
X201402709Y-107257671D01*
X201309725Y-107370974D01*
X201298364Y-107384817D01*
X201220828Y-107529876D01*
X201176502Y-107676000D01*
X201122185Y-107609815D01*
X201025494Y-107530463D01*
X201002333Y-107518083D01*
X200910250Y-107426000D01*
X200796663Y-107435546D01*
X200795482Y-107435188D01*
X200671000Y-107422928D01*
X200121000Y-107422928D01*
X200060072Y-107428929D01*
X200083308Y-107394153D01*
X200161329Y-107205795D01*
X200201103Y-107005836D01*
X200201103Y-106801958D01*
X200161329Y-106601999D01*
X200083308Y-106413641D01*
X199970040Y-106244123D01*
X199825877Y-106099960D01*
X199656359Y-105986692D01*
X199468001Y-105908671D01*
X199322878Y-105879804D01*
X199192651Y-105749578D01*
X199166497Y-105717709D01*
X199039352Y-105613364D01*
X198894293Y-105535828D01*
X198736895Y-105488082D01*
X198614225Y-105476000D01*
X198614224Y-105476000D01*
X198573206Y-105471960D01*
X198532188Y-105476000D01*
X195281000Y-105476000D01*
X195281000Y-105383998D01*
X195140834Y-105383998D01*
X195176537Y-105340494D01*
X195188917Y-105317333D01*
X195281000Y-105225250D01*
X195271454Y-105111663D01*
X195271812Y-105110482D01*
X195284072Y-104986000D01*
X195284072Y-104436000D01*
X195271812Y-104311518D01*
X195271655Y-104311000D01*
X195271812Y-104310482D01*
X195284072Y-104186000D01*
X195284072Y-103636000D01*
X195271812Y-103511518D01*
X195271655Y-103511000D01*
X195271812Y-103510482D01*
X195284072Y-103386000D01*
X195284072Y-102836000D01*
X195271812Y-102711518D01*
X195271655Y-102711000D01*
X195271812Y-102710482D01*
X195284072Y-102586000D01*
X195284072Y-102036000D01*
X195271812Y-101911518D01*
X195271655Y-101911000D01*
X195271812Y-101910482D01*
X195284072Y-101786000D01*
X195284072Y-101236000D01*
X195271812Y-101111518D01*
X195271655Y-101111000D01*
X195271812Y-101110482D01*
X195284072Y-100986000D01*
X195284072Y-100436000D01*
X195271812Y-100311518D01*
X195271655Y-100311000D01*
X195271812Y-100310482D01*
X195284072Y-100186000D01*
X195284072Y-99636000D01*
X195271812Y-99511518D01*
X195271655Y-99511000D01*
X195271812Y-99510482D01*
X195284072Y-99386000D01*
X195284072Y-98836000D01*
X195271812Y-98711518D01*
X195271655Y-98711000D01*
X195271812Y-98710482D01*
X195284072Y-98586000D01*
X195284072Y-98036000D01*
X195271812Y-97911518D01*
X195271655Y-97911000D01*
X195271812Y-97910482D01*
X195284072Y-97786000D01*
X195284072Y-97236000D01*
X195271812Y-97111518D01*
X195271655Y-97111000D01*
X195271812Y-97110482D01*
X195284072Y-96986000D01*
X195284072Y-96436000D01*
X195271812Y-96311518D01*
X195271655Y-96311000D01*
X195271812Y-96310482D01*
X195284072Y-96186000D01*
X195284072Y-95636000D01*
X195271812Y-95511518D01*
X195271655Y-95511000D01*
X195271812Y-95510482D01*
X195284072Y-95386000D01*
X195284072Y-94836000D01*
X195280038Y-94795038D01*
X195321000Y-94799072D01*
X195871000Y-94799072D01*
X195995482Y-94786812D01*
X195996000Y-94786655D01*
X195996518Y-94786812D01*
X196121000Y-94799072D01*
X196671000Y-94799072D01*
X196795482Y-94786812D01*
X196796000Y-94786655D01*
X196796518Y-94786812D01*
X196921000Y-94799072D01*
X197471000Y-94799072D01*
X197595482Y-94786812D01*
X197596000Y-94786655D01*
X197596518Y-94786812D01*
X197721000Y-94799072D01*
X198271000Y-94799072D01*
X198395482Y-94786812D01*
X198396663Y-94786454D01*
X198510250Y-94796000D01*
X198602333Y-94703917D01*
X198625494Y-94691537D01*
X198722185Y-94612185D01*
X198796000Y-94522241D01*
X198869815Y-94612185D01*
G37*
G04 #@! TD.AperFunction*
D20*
X194312001Y-68386803D02*
X194312000Y-72098677D01*
X194308324Y-72136000D01*
X194312000Y-72173322D01*
X194312000Y-72173332D01*
X194322997Y-72284985D01*
X194366454Y-72428246D01*
X194437026Y-72560276D01*
X194469232Y-72599519D01*
X194531999Y-72676001D01*
X194561003Y-72699804D01*
X196540200Y-74679002D01*
X196563999Y-74708001D01*
X196592997Y-74731799D01*
X196679723Y-74802974D01*
X196791862Y-74862914D01*
X196811753Y-74873546D01*
X196955014Y-74917003D01*
X197066667Y-74928000D01*
X197066677Y-74928000D01*
X197104000Y-74931676D01*
X197141323Y-74928000D01*
X199449199Y-74928000D01*
X199769764Y-75248565D01*
X199653745Y-75259992D01*
X199487149Y-75310528D01*
X199333613Y-75392595D01*
X199199038Y-75503038D01*
X199088595Y-75637613D01*
X199006528Y-75791149D01*
X198955992Y-75957745D01*
X198938928Y-76130999D01*
X198938928Y-76719270D01*
X198715199Y-76943000D01*
X198653061Y-76943000D01*
X198453102Y-76982774D01*
X198264744Y-77060795D01*
X198095226Y-77174063D01*
X197951063Y-77318226D01*
X197837795Y-77487744D01*
X197759774Y-77676102D01*
X197720000Y-77876061D01*
X197720000Y-78079939D01*
X197759774Y-78279898D01*
X197837795Y-78468256D01*
X197951063Y-78637774D01*
X198095226Y-78781937D01*
X198264744Y-78895205D01*
X198453102Y-78973226D01*
X198653061Y-79013000D01*
X198856939Y-79013000D01*
X199014482Y-78981663D01*
X198969498Y-79065820D01*
X198933188Y-79185518D01*
X198920928Y-79310000D01*
X198924000Y-79724250D01*
X199082750Y-79883000D01*
X200007000Y-79883000D01*
X200007000Y-78833750D01*
X199848250Y-78675000D01*
X199559000Y-78671928D01*
X199521045Y-78675666D01*
X199558937Y-78637774D01*
X199672205Y-78468256D01*
X199750226Y-78279898D01*
X199790000Y-78079939D01*
X199790000Y-78017801D01*
X199888729Y-77919072D01*
X200527001Y-77919072D01*
X200700255Y-77902008D01*
X200866851Y-77851472D01*
X201020387Y-77769405D01*
X201154962Y-77658962D01*
X201177000Y-77632109D01*
X201199038Y-77658962D01*
X201333613Y-77769405D01*
X201487149Y-77851472D01*
X201522119Y-77862080D01*
X200711978Y-78672221D01*
X200709000Y-78671928D01*
X200419750Y-78675000D01*
X200261000Y-78833750D01*
X200261000Y-79883000D01*
X200281000Y-79883000D01*
X200281000Y-80137000D01*
X200261000Y-80137000D01*
X200261000Y-81186250D01*
X200419750Y-81345000D01*
X200436001Y-81345173D01*
X200436001Y-85325000D01*
X200369061Y-85325000D01*
X200169102Y-85364774D01*
X199980744Y-85442795D01*
X199811226Y-85556063D01*
X199667063Y-85700226D01*
X199553795Y-85869744D01*
X199475774Y-86058102D01*
X199436000Y-86258061D01*
X199436000Y-86461939D01*
X199475774Y-86661898D01*
X199553795Y-86850256D01*
X199636001Y-86973286D01*
X199636001Y-87867598D01*
X199622939Y-87865000D01*
X199419061Y-87865000D01*
X199219102Y-87904774D01*
X199030744Y-87982795D01*
X198861226Y-88096063D01*
X198717063Y-88240226D01*
X198603795Y-88409744D01*
X198525774Y-88598102D01*
X198486000Y-88798061D01*
X198486000Y-89001939D01*
X198525774Y-89201898D01*
X198603795Y-89390256D01*
X198717063Y-89559774D01*
X198836001Y-89678712D01*
X198836000Y-91573132D01*
X198788205Y-91457744D01*
X198674937Y-91288226D01*
X198530774Y-91144063D01*
X198361256Y-91030795D01*
X198172898Y-90952774D01*
X197972939Y-90913000D01*
X197956000Y-90913000D01*
X197956000Y-84754333D01*
X197959677Y-84717000D01*
X197945003Y-84568014D01*
X197901546Y-84424753D01*
X197830974Y-84292724D01*
X197759799Y-84205997D01*
X197736001Y-84176999D01*
X197707003Y-84153201D01*
X194263802Y-80710000D01*
X198920928Y-80710000D01*
X198933188Y-80834482D01*
X198969498Y-80954180D01*
X199028463Y-81064494D01*
X199107815Y-81161185D01*
X199204506Y-81240537D01*
X199314820Y-81299502D01*
X199434518Y-81335812D01*
X199559000Y-81348072D01*
X199848250Y-81345000D01*
X200007000Y-81186250D01*
X200007000Y-80137000D01*
X199082750Y-80137000D01*
X198924000Y-80295750D01*
X198920928Y-80710000D01*
X194263802Y-80710000D01*
X192281799Y-78727998D01*
X192325898Y-78719226D01*
X192514256Y-78641205D01*
X192683774Y-78527937D01*
X192827937Y-78383774D01*
X192941205Y-78214256D01*
X193019226Y-78025898D01*
X193059000Y-77825939D01*
X193059000Y-77622061D01*
X193019226Y-77422102D01*
X192941205Y-77233744D01*
X192827937Y-77064226D01*
X192784000Y-77020289D01*
X192784000Y-73697322D01*
X192787676Y-73659999D01*
X192784000Y-73622676D01*
X192784000Y-73622667D01*
X192773003Y-73511014D01*
X192729546Y-73367753D01*
X192658975Y-73235725D01*
X192658974Y-73235723D01*
X192587799Y-73148997D01*
X192564001Y-73119999D01*
X192535004Y-73096202D01*
X190428804Y-70990003D01*
X190405001Y-70960999D01*
X190289276Y-70866026D01*
X190157247Y-70795454D01*
X190013986Y-70751997D01*
X189902333Y-70741000D01*
X189902322Y-70741000D01*
X189865000Y-70737324D01*
X189827678Y-70741000D01*
X189238178Y-70741000D01*
X189113475Y-70554368D01*
X188906632Y-70347525D01*
X188732240Y-70231000D01*
X188906632Y-70114475D01*
X189113475Y-69907632D01*
X189275990Y-69664411D01*
X189387932Y-69394158D01*
X189445000Y-69107260D01*
X189445000Y-68814740D01*
X189387932Y-68527842D01*
X189275990Y-68257589D01*
X189113475Y-68014368D01*
X188981620Y-67882513D01*
X189054180Y-67860502D01*
X189164494Y-67801537D01*
X189261185Y-67722185D01*
X189340537Y-67625494D01*
X189399502Y-67515180D01*
X189435812Y-67395482D01*
X189448072Y-67271000D01*
X189448072Y-67181000D01*
X193106199Y-67181000D01*
X194312001Y-68386803D01*
G04 #@! TA.AperFunction,Conductor*
D21*
G36*
X194312001Y-68386803D02*
G01*
X194312000Y-72098677D01*
X194308324Y-72136000D01*
X194312000Y-72173322D01*
X194312000Y-72173332D01*
X194322997Y-72284985D01*
X194366454Y-72428246D01*
X194437026Y-72560276D01*
X194469232Y-72599519D01*
X194531999Y-72676001D01*
X194561003Y-72699804D01*
X196540200Y-74679002D01*
X196563999Y-74708001D01*
X196592997Y-74731799D01*
X196679723Y-74802974D01*
X196791862Y-74862914D01*
X196811753Y-74873546D01*
X196955014Y-74917003D01*
X197066667Y-74928000D01*
X197066677Y-74928000D01*
X197104000Y-74931676D01*
X197141323Y-74928000D01*
X199449199Y-74928000D01*
X199769764Y-75248565D01*
X199653745Y-75259992D01*
X199487149Y-75310528D01*
X199333613Y-75392595D01*
X199199038Y-75503038D01*
X199088595Y-75637613D01*
X199006528Y-75791149D01*
X198955992Y-75957745D01*
X198938928Y-76130999D01*
X198938928Y-76719270D01*
X198715199Y-76943000D01*
X198653061Y-76943000D01*
X198453102Y-76982774D01*
X198264744Y-77060795D01*
X198095226Y-77174063D01*
X197951063Y-77318226D01*
X197837795Y-77487744D01*
X197759774Y-77676102D01*
X197720000Y-77876061D01*
X197720000Y-78079939D01*
X197759774Y-78279898D01*
X197837795Y-78468256D01*
X197951063Y-78637774D01*
X198095226Y-78781937D01*
X198264744Y-78895205D01*
X198453102Y-78973226D01*
X198653061Y-79013000D01*
X198856939Y-79013000D01*
X199014482Y-78981663D01*
X198969498Y-79065820D01*
X198933188Y-79185518D01*
X198920928Y-79310000D01*
X198924000Y-79724250D01*
X199082750Y-79883000D01*
X200007000Y-79883000D01*
X200007000Y-78833750D01*
X199848250Y-78675000D01*
X199559000Y-78671928D01*
X199521045Y-78675666D01*
X199558937Y-78637774D01*
X199672205Y-78468256D01*
X199750226Y-78279898D01*
X199790000Y-78079939D01*
X199790000Y-78017801D01*
X199888729Y-77919072D01*
X200527001Y-77919072D01*
X200700255Y-77902008D01*
X200866851Y-77851472D01*
X201020387Y-77769405D01*
X201154962Y-77658962D01*
X201177000Y-77632109D01*
X201199038Y-77658962D01*
X201333613Y-77769405D01*
X201487149Y-77851472D01*
X201522119Y-77862080D01*
X200711978Y-78672221D01*
X200709000Y-78671928D01*
X200419750Y-78675000D01*
X200261000Y-78833750D01*
X200261000Y-79883000D01*
X200281000Y-79883000D01*
X200281000Y-80137000D01*
X200261000Y-80137000D01*
X200261000Y-81186250D01*
X200419750Y-81345000D01*
X200436001Y-81345173D01*
X200436001Y-85325000D01*
X200369061Y-85325000D01*
X200169102Y-85364774D01*
X199980744Y-85442795D01*
X199811226Y-85556063D01*
X199667063Y-85700226D01*
X199553795Y-85869744D01*
X199475774Y-86058102D01*
X199436000Y-86258061D01*
X199436000Y-86461939D01*
X199475774Y-86661898D01*
X199553795Y-86850256D01*
X199636001Y-86973286D01*
X199636001Y-87867598D01*
X199622939Y-87865000D01*
X199419061Y-87865000D01*
X199219102Y-87904774D01*
X199030744Y-87982795D01*
X198861226Y-88096063D01*
X198717063Y-88240226D01*
X198603795Y-88409744D01*
X198525774Y-88598102D01*
X198486000Y-88798061D01*
X198486000Y-89001939D01*
X198525774Y-89201898D01*
X198603795Y-89390256D01*
X198717063Y-89559774D01*
X198836001Y-89678712D01*
X198836000Y-91573132D01*
X198788205Y-91457744D01*
X198674937Y-91288226D01*
X198530774Y-91144063D01*
X198361256Y-91030795D01*
X198172898Y-90952774D01*
X197972939Y-90913000D01*
X197956000Y-90913000D01*
X197956000Y-84754333D01*
X197959677Y-84717000D01*
X197945003Y-84568014D01*
X197901546Y-84424753D01*
X197830974Y-84292724D01*
X197759799Y-84205997D01*
X197736001Y-84176999D01*
X197707003Y-84153201D01*
X194263802Y-80710000D01*
X198920928Y-80710000D01*
X198933188Y-80834482D01*
X198969498Y-80954180D01*
X199028463Y-81064494D01*
X199107815Y-81161185D01*
X199204506Y-81240537D01*
X199314820Y-81299502D01*
X199434518Y-81335812D01*
X199559000Y-81348072D01*
X199848250Y-81345000D01*
X200007000Y-81186250D01*
X200007000Y-80137000D01*
X199082750Y-80137000D01*
X198924000Y-80295750D01*
X198920928Y-80710000D01*
X194263802Y-80710000D01*
X192281799Y-78727998D01*
X192325898Y-78719226D01*
X192514256Y-78641205D01*
X192683774Y-78527937D01*
X192827937Y-78383774D01*
X192941205Y-78214256D01*
X193019226Y-78025898D01*
X193059000Y-77825939D01*
X193059000Y-77622061D01*
X193019226Y-77422102D01*
X192941205Y-77233744D01*
X192827937Y-77064226D01*
X192784000Y-77020289D01*
X192784000Y-73697322D01*
X192787676Y-73659999D01*
X192784000Y-73622676D01*
X192784000Y-73622667D01*
X192773003Y-73511014D01*
X192729546Y-73367753D01*
X192658975Y-73235725D01*
X192658974Y-73235723D01*
X192587799Y-73148997D01*
X192564001Y-73119999D01*
X192535004Y-73096202D01*
X190428804Y-70990003D01*
X190405001Y-70960999D01*
X190289276Y-70866026D01*
X190157247Y-70795454D01*
X190013986Y-70751997D01*
X189902333Y-70741000D01*
X189902322Y-70741000D01*
X189865000Y-70737324D01*
X189827678Y-70741000D01*
X189238178Y-70741000D01*
X189113475Y-70554368D01*
X188906632Y-70347525D01*
X188732240Y-70231000D01*
X188906632Y-70114475D01*
X189113475Y-69907632D01*
X189275990Y-69664411D01*
X189387932Y-69394158D01*
X189445000Y-69107260D01*
X189445000Y-68814740D01*
X189387932Y-68527842D01*
X189275990Y-68257589D01*
X189113475Y-68014368D01*
X188981620Y-67882513D01*
X189054180Y-67860502D01*
X189164494Y-67801537D01*
X189261185Y-67722185D01*
X189340537Y-67625494D01*
X189399502Y-67515180D01*
X189435812Y-67395482D01*
X189448072Y-67271000D01*
X189448072Y-67181000D01*
X193106199Y-67181000D01*
X194312001Y-68386803D01*
G37*
G04 #@! TD.AperFunction*
D20*
X191264000Y-73974802D02*
X191264001Y-77020288D01*
X191220063Y-77064226D01*
X191106795Y-77233744D01*
X191028774Y-77422102D01*
X191020002Y-77466201D01*
X189623804Y-76070003D01*
X189600001Y-76040999D01*
X189484276Y-75946026D01*
X189448072Y-75926674D01*
X189448072Y-75731000D01*
X189435812Y-75606518D01*
X189399502Y-75486820D01*
X189340537Y-75376506D01*
X189261185Y-75279815D01*
X189164494Y-75200463D01*
X189054180Y-75141498D01*
X188973534Y-75117034D01*
X189057588Y-75041269D01*
X189231641Y-74807920D01*
X189356825Y-74545099D01*
X189401476Y-74397890D01*
X189280155Y-74168000D01*
X188087000Y-74168000D01*
X188087000Y-74188000D01*
X187833000Y-74188000D01*
X187833000Y-74168000D01*
X187813000Y-74168000D01*
X187813000Y-73914000D01*
X187833000Y-73914000D01*
X187833000Y-73894000D01*
X188087000Y-73894000D01*
X188087000Y-73914000D01*
X189280155Y-73914000D01*
X189401476Y-73684110D01*
X189356825Y-73536901D01*
X189231641Y-73274080D01*
X189057588Y-73040731D01*
X188841355Y-72845822D01*
X188724466Y-72776195D01*
X188906632Y-72654475D01*
X189113475Y-72447632D01*
X189238178Y-72261000D01*
X189550199Y-72261000D01*
X191264000Y-73974802D01*
G04 #@! TA.AperFunction,Conductor*
D21*
G36*
X191264000Y-73974802D02*
G01*
X191264001Y-77020288D01*
X191220063Y-77064226D01*
X191106795Y-77233744D01*
X191028774Y-77422102D01*
X191020002Y-77466201D01*
X189623804Y-76070003D01*
X189600001Y-76040999D01*
X189484276Y-75946026D01*
X189448072Y-75926674D01*
X189448072Y-75731000D01*
X189435812Y-75606518D01*
X189399502Y-75486820D01*
X189340537Y-75376506D01*
X189261185Y-75279815D01*
X189164494Y-75200463D01*
X189054180Y-75141498D01*
X188973534Y-75117034D01*
X189057588Y-75041269D01*
X189231641Y-74807920D01*
X189356825Y-74545099D01*
X189401476Y-74397890D01*
X189280155Y-74168000D01*
X188087000Y-74168000D01*
X188087000Y-74188000D01*
X187833000Y-74188000D01*
X187833000Y-74168000D01*
X187813000Y-74168000D01*
X187813000Y-73914000D01*
X187833000Y-73914000D01*
X187833000Y-73894000D01*
X188087000Y-73894000D01*
X188087000Y-73914000D01*
X189280155Y-73914000D01*
X189401476Y-73684110D01*
X189356825Y-73536901D01*
X189231641Y-73274080D01*
X189057588Y-73040731D01*
X188841355Y-72845822D01*
X188724466Y-72776195D01*
X188906632Y-72654475D01*
X189113475Y-72447632D01*
X189238178Y-72261000D01*
X189550199Y-72261000D01*
X191264000Y-73974802D01*
G37*
G04 #@! TD.AperFunction*
D20*
X213757463Y-65216506D02*
X213698498Y-65326820D01*
X213662188Y-65446518D01*
X213649928Y-65571000D01*
X213649928Y-65766674D01*
X213613723Y-65786026D01*
X213530083Y-65854668D01*
X213497999Y-65880999D01*
X213474201Y-65909997D01*
X209060503Y-70323696D01*
X209060497Y-70323701D01*
X208808198Y-70576000D01*
X204333038Y-70576000D01*
X204307502Y-70491820D01*
X204248537Y-70381506D01*
X204169185Y-70284815D01*
X204072494Y-70205463D01*
X203962180Y-70146498D01*
X203842482Y-70110188D01*
X203718000Y-70097928D01*
X203429394Y-70097928D01*
X203366986Y-70078997D01*
X203255333Y-70068000D01*
X199080667Y-70068000D01*
X198969014Y-70078997D01*
X198906606Y-70097928D01*
X198618000Y-70097928D01*
X198493518Y-70110188D01*
X198373820Y-70146498D01*
X198263506Y-70205463D01*
X198166815Y-70284815D01*
X198087463Y-70381506D01*
X198028498Y-70491820D01*
X197992188Y-70611518D01*
X197979928Y-70736000D01*
X197979928Y-71936000D01*
X197992188Y-72060482D01*
X198015096Y-72136000D01*
X197992188Y-72211518D01*
X197979928Y-72336000D01*
X197983000Y-72650250D01*
X198141750Y-72809000D01*
X198991000Y-72809000D01*
X198991000Y-72789000D01*
X199245000Y-72789000D01*
X199245000Y-72809000D01*
X200094250Y-72809000D01*
X200253000Y-72650250D01*
X200256072Y-72336000D01*
X200243812Y-72211518D01*
X200220904Y-72136000D01*
X200243812Y-72060482D01*
X200256072Y-71936000D01*
X200256072Y-71588000D01*
X202079928Y-71588000D01*
X202079928Y-71936000D01*
X202092188Y-72060482D01*
X202115096Y-72136000D01*
X202092188Y-72211518D01*
X202079928Y-72336000D01*
X202083000Y-72650250D01*
X202241750Y-72809000D01*
X203091000Y-72809000D01*
X203091000Y-72789000D01*
X203345000Y-72789000D01*
X203345000Y-72809000D01*
X204194250Y-72809000D01*
X204353000Y-72650250D01*
X204356072Y-72336000D01*
X204343812Y-72211518D01*
X204320904Y-72136000D01*
X204333038Y-72096000D01*
X207288198Y-72096000D01*
X204644316Y-74739882D01*
X204625205Y-74693744D01*
X204511937Y-74524226D01*
X204367774Y-74380063D01*
X204198256Y-74266795D01*
X204009898Y-74188774D01*
X203855103Y-74157984D01*
X203962180Y-74125502D01*
X204072494Y-74066537D01*
X204169185Y-73987185D01*
X204248537Y-73890494D01*
X204307502Y-73780180D01*
X204343812Y-73660482D01*
X204356072Y-73536000D01*
X204353000Y-73221750D01*
X204194250Y-73063000D01*
X203345000Y-73063000D01*
X203345000Y-74012250D01*
X203502374Y-74169624D01*
X203406102Y-74188774D01*
X203217744Y-74266795D01*
X203048226Y-74380063D01*
X202904063Y-74524226D01*
X202790795Y-74693744D01*
X202712774Y-74882102D01*
X202683908Y-75027225D01*
X202468204Y-75242928D01*
X201913730Y-75242928D01*
X200327804Y-73657003D01*
X200304001Y-73627999D01*
X200251273Y-73584726D01*
X200256072Y-73536000D01*
X202079928Y-73536000D01*
X202092188Y-73660482D01*
X202128498Y-73780180D01*
X202187463Y-73890494D01*
X202266815Y-73987185D01*
X202363506Y-74066537D01*
X202473820Y-74125502D01*
X202593518Y-74161812D01*
X202718000Y-74174072D01*
X202932250Y-74171000D01*
X203091000Y-74012250D01*
X203091000Y-73063000D01*
X202241750Y-73063000D01*
X202083000Y-73221750D01*
X202079928Y-73536000D01*
X200256072Y-73536000D01*
X200253000Y-73221750D01*
X200094250Y-73063000D01*
X199245000Y-73063000D01*
X199245000Y-73083000D01*
X198991000Y-73083000D01*
X198991000Y-73063000D01*
X198141750Y-73063000D01*
X197983000Y-73221750D01*
X197981179Y-73408000D01*
X197418802Y-73408000D01*
X195832000Y-71821199D01*
X195832000Y-68109333D01*
X195835677Y-68072000D01*
X195821003Y-67923014D01*
X195777546Y-67779753D01*
X195706974Y-67647724D01*
X195635799Y-67560997D01*
X195612001Y-67531999D01*
X195583003Y-67508201D01*
X193984804Y-65910003D01*
X193961001Y-65880999D01*
X193845276Y-65786026D01*
X193713247Y-65715454D01*
X193569986Y-65671997D01*
X193458333Y-65661000D01*
X193458322Y-65661000D01*
X193421000Y-65657324D01*
X193383678Y-65661000D01*
X189448072Y-65661000D01*
X189448072Y-65571000D01*
X189435812Y-65446518D01*
X189399502Y-65326820D01*
X189340537Y-65216506D01*
X189307295Y-65176000D01*
X213790705Y-65176000D01*
X213757463Y-65216506D01*
G04 #@! TA.AperFunction,Conductor*
D21*
G36*
X213757463Y-65216506D02*
G01*
X213698498Y-65326820D01*
X213662188Y-65446518D01*
X213649928Y-65571000D01*
X213649928Y-65766674D01*
X213613723Y-65786026D01*
X213530083Y-65854668D01*
X213497999Y-65880999D01*
X213474201Y-65909997D01*
X209060503Y-70323696D01*
X209060497Y-70323701D01*
X208808198Y-70576000D01*
X204333038Y-70576000D01*
X204307502Y-70491820D01*
X204248537Y-70381506D01*
X204169185Y-70284815D01*
X204072494Y-70205463D01*
X203962180Y-70146498D01*
X203842482Y-70110188D01*
X203718000Y-70097928D01*
X203429394Y-70097928D01*
X203366986Y-70078997D01*
X203255333Y-70068000D01*
X199080667Y-70068000D01*
X198969014Y-70078997D01*
X198906606Y-70097928D01*
X198618000Y-70097928D01*
X198493518Y-70110188D01*
X198373820Y-70146498D01*
X198263506Y-70205463D01*
X198166815Y-70284815D01*
X198087463Y-70381506D01*
X198028498Y-70491820D01*
X197992188Y-70611518D01*
X197979928Y-70736000D01*
X197979928Y-71936000D01*
X197992188Y-72060482D01*
X198015096Y-72136000D01*
X197992188Y-72211518D01*
X197979928Y-72336000D01*
X197983000Y-72650250D01*
X198141750Y-72809000D01*
X198991000Y-72809000D01*
X198991000Y-72789000D01*
X199245000Y-72789000D01*
X199245000Y-72809000D01*
X200094250Y-72809000D01*
X200253000Y-72650250D01*
X200256072Y-72336000D01*
X200243812Y-72211518D01*
X200220904Y-72136000D01*
X200243812Y-72060482D01*
X200256072Y-71936000D01*
X200256072Y-71588000D01*
X202079928Y-71588000D01*
X202079928Y-71936000D01*
X202092188Y-72060482D01*
X202115096Y-72136000D01*
X202092188Y-72211518D01*
X202079928Y-72336000D01*
X202083000Y-72650250D01*
X202241750Y-72809000D01*
X203091000Y-72809000D01*
X203091000Y-72789000D01*
X203345000Y-72789000D01*
X203345000Y-72809000D01*
X204194250Y-72809000D01*
X204353000Y-72650250D01*
X204356072Y-72336000D01*
X204343812Y-72211518D01*
X204320904Y-72136000D01*
X204333038Y-72096000D01*
X207288198Y-72096000D01*
X204644316Y-74739882D01*
X204625205Y-74693744D01*
X204511937Y-74524226D01*
X204367774Y-74380063D01*
X204198256Y-74266795D01*
X204009898Y-74188774D01*
X203855103Y-74157984D01*
X203962180Y-74125502D01*
X204072494Y-74066537D01*
X204169185Y-73987185D01*
X204248537Y-73890494D01*
X204307502Y-73780180D01*
X204343812Y-73660482D01*
X204356072Y-73536000D01*
X204353000Y-73221750D01*
X204194250Y-73063000D01*
X203345000Y-73063000D01*
X203345000Y-74012250D01*
X203502374Y-74169624D01*
X203406102Y-74188774D01*
X203217744Y-74266795D01*
X203048226Y-74380063D01*
X202904063Y-74524226D01*
X202790795Y-74693744D01*
X202712774Y-74882102D01*
X202683908Y-75027225D01*
X202468204Y-75242928D01*
X201913730Y-75242928D01*
X200327804Y-73657003D01*
X200304001Y-73627999D01*
X200251273Y-73584726D01*
X200256072Y-73536000D01*
X202079928Y-73536000D01*
X202092188Y-73660482D01*
X202128498Y-73780180D01*
X202187463Y-73890494D01*
X202266815Y-73987185D01*
X202363506Y-74066537D01*
X202473820Y-74125502D01*
X202593518Y-74161812D01*
X202718000Y-74174072D01*
X202932250Y-74171000D01*
X203091000Y-74012250D01*
X203091000Y-73063000D01*
X202241750Y-73063000D01*
X202083000Y-73221750D01*
X202079928Y-73536000D01*
X200256072Y-73536000D01*
X200253000Y-73221750D01*
X200094250Y-73063000D01*
X199245000Y-73063000D01*
X199245000Y-73083000D01*
X198991000Y-73083000D01*
X198991000Y-73063000D01*
X198141750Y-73063000D01*
X197983000Y-73221750D01*
X197981179Y-73408000D01*
X197418802Y-73408000D01*
X195832000Y-71821199D01*
X195832000Y-68109333D01*
X195835677Y-68072000D01*
X195821003Y-67923014D01*
X195777546Y-67779753D01*
X195706974Y-67647724D01*
X195635799Y-67560997D01*
X195612001Y-67531999D01*
X195583003Y-67508201D01*
X193984804Y-65910003D01*
X193961001Y-65880999D01*
X193845276Y-65786026D01*
X193713247Y-65715454D01*
X193569986Y-65671997D01*
X193458333Y-65661000D01*
X193458322Y-65661000D01*
X193421000Y-65657324D01*
X193383678Y-65661000D01*
X189448072Y-65661000D01*
X189448072Y-65571000D01*
X189435812Y-65446518D01*
X189399502Y-65326820D01*
X189340537Y-65216506D01*
X189307295Y-65176000D01*
X213790705Y-65176000D01*
X213757463Y-65216506D01*
G37*
G04 #@! TD.AperFunction*
M02*
