M48
; DRILL file {KiCad 5.1.7-a382d34a8~87~ubuntu20.04.1} date Sun Oct 11 22:02:22 2020
; FORMAT={-:-/ absolute / inch / decimal}
; #@! TF.CreationDate,2020-10-11T22:02:22+02:00
; #@! TF.GenerationSoftware,Kicad,Pcbnew,5.1.7-a382d34a8~87~ubuntu20.04.1
; #@! TF.FileFunction,Plated,1,2,PTH
FMAT,2
INCH
T1C0.0157
T2C0.0394
%
G90
G05
T1
X7.56Y-3.06
X7.6187Y-4.9587
X7.6263Y-5.1263
X7.7Y-4.22
X7.76Y-2.87
X7.76Y-5.14
X7.76Y-5.24
X7.78Y-4.98
X7.7902Y-3.62
X7.825Y-3.07
X7.8266Y-3.4266
X7.8412Y-4.2088
X7.8552Y-3.5
X7.86Y-5.02
X7.8926Y-3.4
X7.92Y-4.44
X7.9575Y-4.38
X7.99Y-3.09
X8.0Y-3.75
X8.0Y-4.2209
X8.02Y-2.96
X8.02Y-3.22
X8.02Y-3.42
X8.05Y-3.6
X8.1149Y-4.2268
X8.15Y-3.8
X8.15Y-3.8667
X8.15Y-4.15
X8.1501Y-3.7499
X8.1501Y-3.7499
X8.1829Y-3.9059
X8.3397Y-4.27
T2
X8.47Y-3.815
X8.47Y-3.915
X8.47Y-4.015
X8.47Y-4.115
X8.47Y-4.215
X8.47Y-4.315
X8.47Y-4.415
X8.47Y-4.515
X8.47Y-4.615
X8.47Y-4.715
X8.47Y-4.815
X8.47Y-4.915
X8.47Y-5.015
X8.47Y-5.115
X8.47Y-5.215
X8.47Y-5.315
X7.4Y-4.615
X7.4Y-4.715
X7.4Y-4.815
X7.4Y-4.915
X7.4Y-5.015
X7.4Y-5.115
X7.4Y-5.215
X7.4Y-5.315
X7.4Y-3.015
X7.4Y-3.115
X7.4Y-3.215
X7.4Y-3.315
X7.4Y-3.415
X7.4Y-3.515
X7.4Y-3.615
X7.4Y-3.715
X8.47Y-2.615
X8.47Y-2.715
X8.47Y-2.815
X8.47Y-2.915
X7.4Y-2.615
X7.4Y-2.715
X7.4Y-2.815
X7.4Y-2.915
X8.47Y-3.015
X8.47Y-3.115
X8.47Y-3.215
X8.47Y-3.315
X8.47Y-3.415
X8.47Y-3.515
X8.47Y-3.615
X8.47Y-3.715
X7.4Y-3.815
X7.4Y-3.915
X7.4Y-4.015
X7.4Y-4.115
X7.4Y-4.215
X7.4Y-4.315
X7.4Y-4.415
X7.4Y-4.515
T0
M30
