G04 #@! TF.GenerationSoftware,KiCad,Pcbnew,5.1.7-a382d34a8~87~ubuntu20.04.1*
G04 #@! TF.CreationDate,2020-10-11T22:02:26+02:00*
G04 #@! TF.ProjectId,xmega_adapter_board,786d6567-615f-4616-9461-707465725f62,1.1.0*
G04 #@! TF.SameCoordinates,Original*
G04 #@! TF.FileFunction,Soldermask,Top*
G04 #@! TF.FilePolarity,Negative*
%FSLAX46Y46*%
G04 Gerber Fmt 4.6, Leading zero omitted, Abs format (unit mm)*
G04 Created by KiCad (PCBNEW 5.1.7-a382d34a8~87~ubuntu20.04.1) date 2020-10-11 22:02:26*
%MOMM*%
%LPD*%
G01*
G04 APERTURE LIST*
%ADD10O,1.802000X1.802000*%
%ADD11C,0.100000*%
G04 APERTURE END LIST*
G36*
G01*
X202667000Y-73536000D02*
X202667000Y-72336000D01*
G75*
G02*
X202718000Y-72285000I51000J0D01*
G01*
X203718000Y-72285000D01*
G75*
G02*
X203769000Y-72336000I0J-51000D01*
G01*
X203769000Y-73536000D01*
G75*
G02*
X203718000Y-73587000I-51000J0D01*
G01*
X202718000Y-73587000D01*
G75*
G02*
X202667000Y-73536000I0J51000D01*
G01*
G37*
G36*
G01*
X198567000Y-73536000D02*
X198567000Y-72336000D01*
G75*
G02*
X198618000Y-72285000I51000J0D01*
G01*
X199618000Y-72285000D01*
G75*
G02*
X199669000Y-72336000I0J-51000D01*
G01*
X199669000Y-73536000D01*
G75*
G02*
X199618000Y-73587000I-51000J0D01*
G01*
X198618000Y-73587000D01*
G75*
G02*
X198567000Y-73536000I0J51000D01*
G01*
G37*
G36*
G01*
X202667000Y-71936000D02*
X202667000Y-70736000D01*
G75*
G02*
X202718000Y-70685000I51000J0D01*
G01*
X203718000Y-70685000D01*
G75*
G02*
X203769000Y-70736000I0J-51000D01*
G01*
X203769000Y-71936000D01*
G75*
G02*
X203718000Y-71987000I-51000J0D01*
G01*
X202718000Y-71987000D01*
G75*
G02*
X202667000Y-71936000I0J51000D01*
G01*
G37*
G36*
G01*
X198567000Y-71936000D02*
X198567000Y-70736000D01*
G75*
G02*
X198618000Y-70685000I51000J0D01*
G01*
X199618000Y-70685000D01*
G75*
G02*
X199669000Y-70736000I0J-51000D01*
G01*
X199669000Y-71936000D01*
G75*
G02*
X199618000Y-71987000I-51000J0D01*
G01*
X198618000Y-71987000D01*
G75*
G02*
X198567000Y-71936000I0J51000D01*
G01*
G37*
G36*
G01*
X194427000Y-125958000D02*
X194427000Y-124458000D01*
G75*
G02*
X194478000Y-124407000I51000J0D01*
G01*
X196478000Y-124407000D01*
G75*
G02*
X196529000Y-124458000I0J-51000D01*
G01*
X196529000Y-125958000D01*
G75*
G02*
X196478000Y-126009000I-51000J0D01*
G01*
X194478000Y-126009000D01*
G75*
G02*
X194427000Y-125958000I0J51000D01*
G01*
G37*
G36*
G01*
X194427000Y-130558000D02*
X194427000Y-129058000D01*
G75*
G02*
X194478000Y-129007000I51000J0D01*
G01*
X196478000Y-129007000D01*
G75*
G02*
X196529000Y-129058000I0J-51000D01*
G01*
X196529000Y-130558000D01*
G75*
G02*
X196478000Y-130609000I-51000J0D01*
G01*
X194478000Y-130609000D01*
G75*
G02*
X194427000Y-130558000I0J51000D01*
G01*
G37*
G36*
G01*
X194427000Y-128258000D02*
X194427000Y-126758000D01*
G75*
G02*
X194478000Y-126707000I51000J0D01*
G01*
X196478000Y-126707000D01*
G75*
G02*
X196529000Y-126758000I0J-51000D01*
G01*
X196529000Y-128258000D01*
G75*
G02*
X196478000Y-128309000I-51000J0D01*
G01*
X194478000Y-128309000D01*
G75*
G02*
X194427000Y-128258000I0J51000D01*
G01*
G37*
G36*
G01*
X200727000Y-129408000D02*
X200727000Y-125608000D01*
G75*
G02*
X200778000Y-125557000I51000J0D01*
G01*
X202778000Y-125557000D01*
G75*
G02*
X202829000Y-125608000I0J-51000D01*
G01*
X202829000Y-129408000D01*
G75*
G02*
X202778000Y-129459000I-51000J0D01*
G01*
X200778000Y-129459000D01*
G75*
G02*
X200727000Y-129408000I0J51000D01*
G01*
G37*
G36*
G01*
X201526000Y-77060752D02*
X201526000Y-76101248D01*
G75*
G02*
X201797248Y-75830000I271248J0D01*
G01*
X202556752Y-75830000D01*
G75*
G02*
X202828000Y-76101248I0J-271248D01*
G01*
X202828000Y-77060752D01*
G75*
G02*
X202556752Y-77332000I-271248J0D01*
G01*
X201797248Y-77332000D01*
G75*
G02*
X201526000Y-77060752I0J271248D01*
G01*
G37*
G36*
G01*
X199526000Y-77060752D02*
X199526000Y-76101248D01*
G75*
G02*
X199797248Y-75830000I271248J0D01*
G01*
X200556752Y-75830000D01*
G75*
G02*
X200828000Y-76101248I0J-271248D01*
G01*
X200828000Y-77060752D01*
G75*
G02*
X200556752Y-77332000I-271248J0D01*
G01*
X199797248Y-77332000D01*
G75*
G02*
X199526000Y-77060752I0J271248D01*
G01*
G37*
G36*
G01*
X197928000Y-134055000D02*
X197928000Y-132137000D01*
G75*
G02*
X198195000Y-131870000I267000J0D01*
G01*
X199263000Y-131870000D01*
G75*
G02*
X199530000Y-132137000I0J-267000D01*
G01*
X199530000Y-134055000D01*
G75*
G02*
X199263000Y-134322000I-267000J0D01*
G01*
X198195000Y-134322000D01*
G75*
G02*
X197928000Y-134055000I0J267000D01*
G01*
G37*
G36*
G01*
X194678000Y-134055000D02*
X194678000Y-132137000D01*
G75*
G02*
X194945000Y-131870000I267000J0D01*
G01*
X196013000Y-131870000D01*
G75*
G02*
X196280000Y-132137000I0J-267000D01*
G01*
X196280000Y-134055000D01*
G75*
G02*
X196013000Y-134322000I-267000J0D01*
G01*
X194945000Y-134322000D01*
G75*
G02*
X194678000Y-134055000I0J267000D01*
G01*
G37*
G36*
G01*
X201171702Y-133495000D02*
X202180298Y-133495000D01*
G75*
G02*
X202452000Y-133766702I0J-271702D01*
G01*
X202452000Y-134500298D01*
G75*
G02*
X202180298Y-134772000I-271702J0D01*
G01*
X201171702Y-134772000D01*
G75*
G02*
X200900000Y-134500298I0J271702D01*
G01*
X200900000Y-133766702D01*
G75*
G02*
X201171702Y-133495000I271702J0D01*
G01*
G37*
G36*
G01*
X201171702Y-131420000D02*
X202180298Y-131420000D01*
G75*
G02*
X202452000Y-131691702I0J-271702D01*
G01*
X202452000Y-132425298D01*
G75*
G02*
X202180298Y-132697000I-271702J0D01*
G01*
X201171702Y-132697000D01*
G75*
G02*
X200900000Y-132425298I0J271702D01*
G01*
X200900000Y-131691702D01*
G75*
G02*
X201171702Y-131420000I271702J0D01*
G01*
G37*
G36*
G01*
X201558000Y-80488828D02*
X201558000Y-79531172D01*
G75*
G02*
X201830172Y-79259000I272172J0D01*
G01*
X202537828Y-79259000D01*
G75*
G02*
X202810000Y-79531172I0J-272172D01*
G01*
X202810000Y-80488828D01*
G75*
G02*
X202537828Y-80761000I-272172J0D01*
G01*
X201830172Y-80761000D01*
G75*
G02*
X201558000Y-80488828I0J272172D01*
G01*
G37*
G36*
G01*
X199508000Y-80488828D02*
X199508000Y-79531172D01*
G75*
G02*
X199780172Y-79259000I272172J0D01*
G01*
X200487828Y-79259000D01*
G75*
G02*
X200760000Y-79531172I0J-272172D01*
G01*
X200760000Y-80488828D01*
G75*
G02*
X200487828Y-80761000I-272172J0D01*
G01*
X199780172Y-80761000D01*
G75*
G02*
X199508000Y-80488828I0J272172D01*
G01*
G37*
D10*
X215138000Y-74041000D03*
X215138000Y-71501000D03*
X215138000Y-68961000D03*
G36*
G01*
X216039000Y-65571000D02*
X216039000Y-67271000D01*
G75*
G02*
X215988000Y-67322000I-51000J0D01*
G01*
X214288000Y-67322000D01*
G75*
G02*
X214237000Y-67271000I0J51000D01*
G01*
X214237000Y-65571000D01*
G75*
G02*
X214288000Y-65520000I51000J0D01*
G01*
X215988000Y-65520000D01*
G75*
G02*
X216039000Y-65571000I0J-51000D01*
G01*
G37*
X187960000Y-74041000D03*
X187960000Y-71501000D03*
X187960000Y-68961000D03*
G36*
G01*
X188861000Y-65571000D02*
X188861000Y-67271000D01*
G75*
G02*
X188810000Y-67322000I-51000J0D01*
G01*
X187110000Y-67322000D01*
G75*
G02*
X187059000Y-67271000I0J51000D01*
G01*
X187059000Y-65571000D01*
G75*
G02*
X187110000Y-65520000I51000J0D01*
G01*
X188810000Y-65520000D01*
G75*
G02*
X188861000Y-65571000I0J-51000D01*
G01*
G37*
G36*
G01*
X188861000Y-75731000D02*
X188861000Y-77431000D01*
G75*
G02*
X188810000Y-77482000I-51000J0D01*
G01*
X187110000Y-77482000D01*
G75*
G02*
X187059000Y-77431000I0J51000D01*
G01*
X187059000Y-75731000D01*
G75*
G02*
X187110000Y-75680000I51000J0D01*
G01*
X188810000Y-75680000D01*
G75*
G02*
X188861000Y-75731000I0J-51000D01*
G01*
G37*
X187960000Y-79121000D03*
X187960000Y-81661000D03*
X187960000Y-84201000D03*
X187960000Y-86741000D03*
X187960000Y-89281000D03*
X187960000Y-91821000D03*
X187960000Y-94361000D03*
X187960000Y-114681000D03*
X187960000Y-112141000D03*
X187960000Y-109601000D03*
X187960000Y-107061000D03*
X187960000Y-104521000D03*
X187960000Y-101981000D03*
X187960000Y-99441000D03*
G36*
G01*
X188861000Y-96051000D02*
X188861000Y-97751000D01*
G75*
G02*
X188810000Y-97802000I-51000J0D01*
G01*
X187110000Y-97802000D01*
G75*
G02*
X187059000Y-97751000I0J51000D01*
G01*
X187059000Y-96051000D01*
G75*
G02*
X187110000Y-96000000I51000J0D01*
G01*
X188810000Y-96000000D01*
G75*
G02*
X188861000Y-96051000I0J-51000D01*
G01*
G37*
G36*
G01*
X188861000Y-116371000D02*
X188861000Y-118071000D01*
G75*
G02*
X188810000Y-118122000I-51000J0D01*
G01*
X187110000Y-118122000D01*
G75*
G02*
X187059000Y-118071000I0J51000D01*
G01*
X187059000Y-116371000D01*
G75*
G02*
X187110000Y-116320000I51000J0D01*
G01*
X188810000Y-116320000D01*
G75*
G02*
X188861000Y-116371000I0J-51000D01*
G01*
G37*
X187960000Y-119761000D03*
X187960000Y-122301000D03*
X187960000Y-124841000D03*
X187960000Y-127381000D03*
X187960000Y-129921000D03*
X187960000Y-132461000D03*
X187960000Y-135001000D03*
X215138000Y-117221000D03*
X215138000Y-119761000D03*
X215138000Y-122301000D03*
X215138000Y-124841000D03*
X215138000Y-127381000D03*
X215138000Y-129921000D03*
X215138000Y-132461000D03*
G36*
G01*
X214237000Y-135851000D02*
X214237000Y-134151000D01*
G75*
G02*
X214288000Y-134100000I51000J0D01*
G01*
X215988000Y-134100000D01*
G75*
G02*
X216039000Y-134151000I0J-51000D01*
G01*
X216039000Y-135851000D01*
G75*
G02*
X215988000Y-135902000I-51000J0D01*
G01*
X214288000Y-135902000D01*
G75*
G02*
X214237000Y-135851000I0J51000D01*
G01*
G37*
G36*
G01*
X214237000Y-115531000D02*
X214237000Y-113831000D01*
G75*
G02*
X214288000Y-113780000I51000J0D01*
G01*
X215988000Y-113780000D01*
G75*
G02*
X216039000Y-113831000I0J-51000D01*
G01*
X216039000Y-115531000D01*
G75*
G02*
X215988000Y-115582000I-51000J0D01*
G01*
X214288000Y-115582000D01*
G75*
G02*
X214237000Y-115531000I0J51000D01*
G01*
G37*
X215138000Y-112141000D03*
X215138000Y-109601000D03*
X215138000Y-107061000D03*
X215138000Y-104521000D03*
X215138000Y-101981000D03*
X215138000Y-99441000D03*
X215138000Y-96901000D03*
X215138000Y-76581000D03*
X215138000Y-79121000D03*
X215138000Y-81661000D03*
X215138000Y-84201000D03*
X215138000Y-86741000D03*
X215138000Y-89281000D03*
X215138000Y-91821000D03*
G36*
G01*
X214237000Y-95211000D02*
X214237000Y-93511000D01*
G75*
G02*
X214288000Y-93460000I51000J0D01*
G01*
X215988000Y-93460000D01*
G75*
G02*
X216039000Y-93511000I0J-51000D01*
G01*
X216039000Y-95211000D01*
G75*
G02*
X215988000Y-95262000I-51000J0D01*
G01*
X214288000Y-95262000D01*
G75*
G02*
X214237000Y-95211000I0J51000D01*
G01*
G37*
G36*
G01*
X193095000Y-95386000D02*
X193095000Y-94836000D01*
G75*
G02*
X193146000Y-94785000I51000J0D01*
G01*
X194646000Y-94785000D01*
G75*
G02*
X194697000Y-94836000I0J-51000D01*
G01*
X194697000Y-95386000D01*
G75*
G02*
X194646000Y-95437000I-51000J0D01*
G01*
X193146000Y-95437000D01*
G75*
G02*
X193095000Y-95386000I0J51000D01*
G01*
G37*
G36*
G01*
X193095000Y-96186000D02*
X193095000Y-95636000D01*
G75*
G02*
X193146000Y-95585000I51000J0D01*
G01*
X194646000Y-95585000D01*
G75*
G02*
X194697000Y-95636000I0J-51000D01*
G01*
X194697000Y-96186000D01*
G75*
G02*
X194646000Y-96237000I-51000J0D01*
G01*
X193146000Y-96237000D01*
G75*
G02*
X193095000Y-96186000I0J51000D01*
G01*
G37*
G36*
G01*
X193095000Y-96986000D02*
X193095000Y-96436000D01*
G75*
G02*
X193146000Y-96385000I51000J0D01*
G01*
X194646000Y-96385000D01*
G75*
G02*
X194697000Y-96436000I0J-51000D01*
G01*
X194697000Y-96986000D01*
G75*
G02*
X194646000Y-97037000I-51000J0D01*
G01*
X193146000Y-97037000D01*
G75*
G02*
X193095000Y-96986000I0J51000D01*
G01*
G37*
G36*
G01*
X193095000Y-97786000D02*
X193095000Y-97236000D01*
G75*
G02*
X193146000Y-97185000I51000J0D01*
G01*
X194646000Y-97185000D01*
G75*
G02*
X194697000Y-97236000I0J-51000D01*
G01*
X194697000Y-97786000D01*
G75*
G02*
X194646000Y-97837000I-51000J0D01*
G01*
X193146000Y-97837000D01*
G75*
G02*
X193095000Y-97786000I0J51000D01*
G01*
G37*
G36*
G01*
X193095000Y-98586000D02*
X193095000Y-98036000D01*
G75*
G02*
X193146000Y-97985000I51000J0D01*
G01*
X194646000Y-97985000D01*
G75*
G02*
X194697000Y-98036000I0J-51000D01*
G01*
X194697000Y-98586000D01*
G75*
G02*
X194646000Y-98637000I-51000J0D01*
G01*
X193146000Y-98637000D01*
G75*
G02*
X193095000Y-98586000I0J51000D01*
G01*
G37*
G36*
G01*
X193095000Y-99386000D02*
X193095000Y-98836000D01*
G75*
G02*
X193146000Y-98785000I51000J0D01*
G01*
X194646000Y-98785000D01*
G75*
G02*
X194697000Y-98836000I0J-51000D01*
G01*
X194697000Y-99386000D01*
G75*
G02*
X194646000Y-99437000I-51000J0D01*
G01*
X193146000Y-99437000D01*
G75*
G02*
X193095000Y-99386000I0J51000D01*
G01*
G37*
G36*
G01*
X193095000Y-100186000D02*
X193095000Y-99636000D01*
G75*
G02*
X193146000Y-99585000I51000J0D01*
G01*
X194646000Y-99585000D01*
G75*
G02*
X194697000Y-99636000I0J-51000D01*
G01*
X194697000Y-100186000D01*
G75*
G02*
X194646000Y-100237000I-51000J0D01*
G01*
X193146000Y-100237000D01*
G75*
G02*
X193095000Y-100186000I0J51000D01*
G01*
G37*
G36*
G01*
X193095000Y-100986000D02*
X193095000Y-100436000D01*
G75*
G02*
X193146000Y-100385000I51000J0D01*
G01*
X194646000Y-100385000D01*
G75*
G02*
X194697000Y-100436000I0J-51000D01*
G01*
X194697000Y-100986000D01*
G75*
G02*
X194646000Y-101037000I-51000J0D01*
G01*
X193146000Y-101037000D01*
G75*
G02*
X193095000Y-100986000I0J51000D01*
G01*
G37*
G36*
G01*
X193095000Y-101786000D02*
X193095000Y-101236000D01*
G75*
G02*
X193146000Y-101185000I51000J0D01*
G01*
X194646000Y-101185000D01*
G75*
G02*
X194697000Y-101236000I0J-51000D01*
G01*
X194697000Y-101786000D01*
G75*
G02*
X194646000Y-101837000I-51000J0D01*
G01*
X193146000Y-101837000D01*
G75*
G02*
X193095000Y-101786000I0J51000D01*
G01*
G37*
G36*
G01*
X193095000Y-102586000D02*
X193095000Y-102036000D01*
G75*
G02*
X193146000Y-101985000I51000J0D01*
G01*
X194646000Y-101985000D01*
G75*
G02*
X194697000Y-102036000I0J-51000D01*
G01*
X194697000Y-102586000D01*
G75*
G02*
X194646000Y-102637000I-51000J0D01*
G01*
X193146000Y-102637000D01*
G75*
G02*
X193095000Y-102586000I0J51000D01*
G01*
G37*
G36*
G01*
X193095000Y-103386000D02*
X193095000Y-102836000D01*
G75*
G02*
X193146000Y-102785000I51000J0D01*
G01*
X194646000Y-102785000D01*
G75*
G02*
X194697000Y-102836000I0J-51000D01*
G01*
X194697000Y-103386000D01*
G75*
G02*
X194646000Y-103437000I-51000J0D01*
G01*
X193146000Y-103437000D01*
G75*
G02*
X193095000Y-103386000I0J51000D01*
G01*
G37*
G36*
G01*
X193095000Y-104186000D02*
X193095000Y-103636000D01*
G75*
G02*
X193146000Y-103585000I51000J0D01*
G01*
X194646000Y-103585000D01*
G75*
G02*
X194697000Y-103636000I0J-51000D01*
G01*
X194697000Y-104186000D01*
G75*
G02*
X194646000Y-104237000I-51000J0D01*
G01*
X193146000Y-104237000D01*
G75*
G02*
X193095000Y-104186000I0J51000D01*
G01*
G37*
G36*
G01*
X193095000Y-104986000D02*
X193095000Y-104436000D01*
G75*
G02*
X193146000Y-104385000I51000J0D01*
G01*
X194646000Y-104385000D01*
G75*
G02*
X194697000Y-104436000I0J-51000D01*
G01*
X194697000Y-104986000D01*
G75*
G02*
X194646000Y-105037000I-51000J0D01*
G01*
X193146000Y-105037000D01*
G75*
G02*
X193095000Y-104986000I0J51000D01*
G01*
G37*
G36*
G01*
X193095000Y-105786000D02*
X193095000Y-105236000D01*
G75*
G02*
X193146000Y-105185000I51000J0D01*
G01*
X194646000Y-105185000D01*
G75*
G02*
X194697000Y-105236000I0J-51000D01*
G01*
X194697000Y-105786000D01*
G75*
G02*
X194646000Y-105837000I-51000J0D01*
G01*
X193146000Y-105837000D01*
G75*
G02*
X193095000Y-105786000I0J51000D01*
G01*
G37*
G36*
G01*
X193095000Y-106586000D02*
X193095000Y-106036000D01*
G75*
G02*
X193146000Y-105985000I51000J0D01*
G01*
X194646000Y-105985000D01*
G75*
G02*
X194697000Y-106036000I0J-51000D01*
G01*
X194697000Y-106586000D01*
G75*
G02*
X194646000Y-106637000I-51000J0D01*
G01*
X193146000Y-106637000D01*
G75*
G02*
X193095000Y-106586000I0J51000D01*
G01*
G37*
G36*
G01*
X193095000Y-107386000D02*
X193095000Y-106836000D01*
G75*
G02*
X193146000Y-106785000I51000J0D01*
G01*
X194646000Y-106785000D01*
G75*
G02*
X194697000Y-106836000I0J-51000D01*
G01*
X194697000Y-107386000D01*
G75*
G02*
X194646000Y-107437000I-51000J0D01*
G01*
X193146000Y-107437000D01*
G75*
G02*
X193095000Y-107386000I0J51000D01*
G01*
G37*
G36*
G01*
X195871000Y-109612000D02*
X195321000Y-109612000D01*
G75*
G02*
X195270000Y-109561000I0J51000D01*
G01*
X195270000Y-108061000D01*
G75*
G02*
X195321000Y-108010000I51000J0D01*
G01*
X195871000Y-108010000D01*
G75*
G02*
X195922000Y-108061000I0J-51000D01*
G01*
X195922000Y-109561000D01*
G75*
G02*
X195871000Y-109612000I-51000J0D01*
G01*
G37*
G36*
G01*
X196671000Y-109612000D02*
X196121000Y-109612000D01*
G75*
G02*
X196070000Y-109561000I0J51000D01*
G01*
X196070000Y-108061000D01*
G75*
G02*
X196121000Y-108010000I51000J0D01*
G01*
X196671000Y-108010000D01*
G75*
G02*
X196722000Y-108061000I0J-51000D01*
G01*
X196722000Y-109561000D01*
G75*
G02*
X196671000Y-109612000I-51000J0D01*
G01*
G37*
G36*
G01*
X197471000Y-109612000D02*
X196921000Y-109612000D01*
G75*
G02*
X196870000Y-109561000I0J51000D01*
G01*
X196870000Y-108061000D01*
G75*
G02*
X196921000Y-108010000I51000J0D01*
G01*
X197471000Y-108010000D01*
G75*
G02*
X197522000Y-108061000I0J-51000D01*
G01*
X197522000Y-109561000D01*
G75*
G02*
X197471000Y-109612000I-51000J0D01*
G01*
G37*
G36*
G01*
X198271000Y-109612000D02*
X197721000Y-109612000D01*
G75*
G02*
X197670000Y-109561000I0J51000D01*
G01*
X197670000Y-108061000D01*
G75*
G02*
X197721000Y-108010000I51000J0D01*
G01*
X198271000Y-108010000D01*
G75*
G02*
X198322000Y-108061000I0J-51000D01*
G01*
X198322000Y-109561000D01*
G75*
G02*
X198271000Y-109612000I-51000J0D01*
G01*
G37*
G36*
G01*
X199071000Y-109612000D02*
X198521000Y-109612000D01*
G75*
G02*
X198470000Y-109561000I0J51000D01*
G01*
X198470000Y-108061000D01*
G75*
G02*
X198521000Y-108010000I51000J0D01*
G01*
X199071000Y-108010000D01*
G75*
G02*
X199122000Y-108061000I0J-51000D01*
G01*
X199122000Y-109561000D01*
G75*
G02*
X199071000Y-109612000I-51000J0D01*
G01*
G37*
G36*
G01*
X199871000Y-109612000D02*
X199321000Y-109612000D01*
G75*
G02*
X199270000Y-109561000I0J51000D01*
G01*
X199270000Y-108061000D01*
G75*
G02*
X199321000Y-108010000I51000J0D01*
G01*
X199871000Y-108010000D01*
G75*
G02*
X199922000Y-108061000I0J-51000D01*
G01*
X199922000Y-109561000D01*
G75*
G02*
X199871000Y-109612000I-51000J0D01*
G01*
G37*
G36*
G01*
X200671000Y-109612000D02*
X200121000Y-109612000D01*
G75*
G02*
X200070000Y-109561000I0J51000D01*
G01*
X200070000Y-108061000D01*
G75*
G02*
X200121000Y-108010000I51000J0D01*
G01*
X200671000Y-108010000D01*
G75*
G02*
X200722000Y-108061000I0J-51000D01*
G01*
X200722000Y-109561000D01*
G75*
G02*
X200671000Y-109612000I-51000J0D01*
G01*
G37*
G36*
G01*
X201471000Y-109612000D02*
X200921000Y-109612000D01*
G75*
G02*
X200870000Y-109561000I0J51000D01*
G01*
X200870000Y-108061000D01*
G75*
G02*
X200921000Y-108010000I51000J0D01*
G01*
X201471000Y-108010000D01*
G75*
G02*
X201522000Y-108061000I0J-51000D01*
G01*
X201522000Y-109561000D01*
G75*
G02*
X201471000Y-109612000I-51000J0D01*
G01*
G37*
G36*
G01*
X202271000Y-109612000D02*
X201721000Y-109612000D01*
G75*
G02*
X201670000Y-109561000I0J51000D01*
G01*
X201670000Y-108061000D01*
G75*
G02*
X201721000Y-108010000I51000J0D01*
G01*
X202271000Y-108010000D01*
G75*
G02*
X202322000Y-108061000I0J-51000D01*
G01*
X202322000Y-109561000D01*
G75*
G02*
X202271000Y-109612000I-51000J0D01*
G01*
G37*
G36*
G01*
X203071000Y-109612000D02*
X202521000Y-109612000D01*
G75*
G02*
X202470000Y-109561000I0J51000D01*
G01*
X202470000Y-108061000D01*
G75*
G02*
X202521000Y-108010000I51000J0D01*
G01*
X203071000Y-108010000D01*
G75*
G02*
X203122000Y-108061000I0J-51000D01*
G01*
X203122000Y-109561000D01*
G75*
G02*
X203071000Y-109612000I-51000J0D01*
G01*
G37*
G36*
G01*
X203871000Y-109612000D02*
X203321000Y-109612000D01*
G75*
G02*
X203270000Y-109561000I0J51000D01*
G01*
X203270000Y-108061000D01*
G75*
G02*
X203321000Y-108010000I51000J0D01*
G01*
X203871000Y-108010000D01*
G75*
G02*
X203922000Y-108061000I0J-51000D01*
G01*
X203922000Y-109561000D01*
G75*
G02*
X203871000Y-109612000I-51000J0D01*
G01*
G37*
G36*
G01*
X204671000Y-109612000D02*
X204121000Y-109612000D01*
G75*
G02*
X204070000Y-109561000I0J51000D01*
G01*
X204070000Y-108061000D01*
G75*
G02*
X204121000Y-108010000I51000J0D01*
G01*
X204671000Y-108010000D01*
G75*
G02*
X204722000Y-108061000I0J-51000D01*
G01*
X204722000Y-109561000D01*
G75*
G02*
X204671000Y-109612000I-51000J0D01*
G01*
G37*
G36*
G01*
X205471000Y-109612000D02*
X204921000Y-109612000D01*
G75*
G02*
X204870000Y-109561000I0J51000D01*
G01*
X204870000Y-108061000D01*
G75*
G02*
X204921000Y-108010000I51000J0D01*
G01*
X205471000Y-108010000D01*
G75*
G02*
X205522000Y-108061000I0J-51000D01*
G01*
X205522000Y-109561000D01*
G75*
G02*
X205471000Y-109612000I-51000J0D01*
G01*
G37*
G36*
G01*
X206271000Y-109612000D02*
X205721000Y-109612000D01*
G75*
G02*
X205670000Y-109561000I0J51000D01*
G01*
X205670000Y-108061000D01*
G75*
G02*
X205721000Y-108010000I51000J0D01*
G01*
X206271000Y-108010000D01*
G75*
G02*
X206322000Y-108061000I0J-51000D01*
G01*
X206322000Y-109561000D01*
G75*
G02*
X206271000Y-109612000I-51000J0D01*
G01*
G37*
G36*
G01*
X207071000Y-109612000D02*
X206521000Y-109612000D01*
G75*
G02*
X206470000Y-109561000I0J51000D01*
G01*
X206470000Y-108061000D01*
G75*
G02*
X206521000Y-108010000I51000J0D01*
G01*
X207071000Y-108010000D01*
G75*
G02*
X207122000Y-108061000I0J-51000D01*
G01*
X207122000Y-109561000D01*
G75*
G02*
X207071000Y-109612000I-51000J0D01*
G01*
G37*
G36*
G01*
X207871000Y-109612000D02*
X207321000Y-109612000D01*
G75*
G02*
X207270000Y-109561000I0J51000D01*
G01*
X207270000Y-108061000D01*
G75*
G02*
X207321000Y-108010000I51000J0D01*
G01*
X207871000Y-108010000D01*
G75*
G02*
X207922000Y-108061000I0J-51000D01*
G01*
X207922000Y-109561000D01*
G75*
G02*
X207871000Y-109612000I-51000J0D01*
G01*
G37*
G36*
G01*
X208495000Y-107386000D02*
X208495000Y-106836000D01*
G75*
G02*
X208546000Y-106785000I51000J0D01*
G01*
X210046000Y-106785000D01*
G75*
G02*
X210097000Y-106836000I0J-51000D01*
G01*
X210097000Y-107386000D01*
G75*
G02*
X210046000Y-107437000I-51000J0D01*
G01*
X208546000Y-107437000D01*
G75*
G02*
X208495000Y-107386000I0J51000D01*
G01*
G37*
G36*
G01*
X208495000Y-106586000D02*
X208495000Y-106036000D01*
G75*
G02*
X208546000Y-105985000I51000J0D01*
G01*
X210046000Y-105985000D01*
G75*
G02*
X210097000Y-106036000I0J-51000D01*
G01*
X210097000Y-106586000D01*
G75*
G02*
X210046000Y-106637000I-51000J0D01*
G01*
X208546000Y-106637000D01*
G75*
G02*
X208495000Y-106586000I0J51000D01*
G01*
G37*
G36*
G01*
X208495000Y-105786000D02*
X208495000Y-105236000D01*
G75*
G02*
X208546000Y-105185000I51000J0D01*
G01*
X210046000Y-105185000D01*
G75*
G02*
X210097000Y-105236000I0J-51000D01*
G01*
X210097000Y-105786000D01*
G75*
G02*
X210046000Y-105837000I-51000J0D01*
G01*
X208546000Y-105837000D01*
G75*
G02*
X208495000Y-105786000I0J51000D01*
G01*
G37*
G36*
G01*
X208495000Y-104986000D02*
X208495000Y-104436000D01*
G75*
G02*
X208546000Y-104385000I51000J0D01*
G01*
X210046000Y-104385000D01*
G75*
G02*
X210097000Y-104436000I0J-51000D01*
G01*
X210097000Y-104986000D01*
G75*
G02*
X210046000Y-105037000I-51000J0D01*
G01*
X208546000Y-105037000D01*
G75*
G02*
X208495000Y-104986000I0J51000D01*
G01*
G37*
G36*
G01*
X208495000Y-104186000D02*
X208495000Y-103636000D01*
G75*
G02*
X208546000Y-103585000I51000J0D01*
G01*
X210046000Y-103585000D01*
G75*
G02*
X210097000Y-103636000I0J-51000D01*
G01*
X210097000Y-104186000D01*
G75*
G02*
X210046000Y-104237000I-51000J0D01*
G01*
X208546000Y-104237000D01*
G75*
G02*
X208495000Y-104186000I0J51000D01*
G01*
G37*
G36*
G01*
X208495000Y-103386000D02*
X208495000Y-102836000D01*
G75*
G02*
X208546000Y-102785000I51000J0D01*
G01*
X210046000Y-102785000D01*
G75*
G02*
X210097000Y-102836000I0J-51000D01*
G01*
X210097000Y-103386000D01*
G75*
G02*
X210046000Y-103437000I-51000J0D01*
G01*
X208546000Y-103437000D01*
G75*
G02*
X208495000Y-103386000I0J51000D01*
G01*
G37*
G36*
G01*
X208495000Y-102586000D02*
X208495000Y-102036000D01*
G75*
G02*
X208546000Y-101985000I51000J0D01*
G01*
X210046000Y-101985000D01*
G75*
G02*
X210097000Y-102036000I0J-51000D01*
G01*
X210097000Y-102586000D01*
G75*
G02*
X210046000Y-102637000I-51000J0D01*
G01*
X208546000Y-102637000D01*
G75*
G02*
X208495000Y-102586000I0J51000D01*
G01*
G37*
G36*
G01*
X208495000Y-101786000D02*
X208495000Y-101236000D01*
G75*
G02*
X208546000Y-101185000I51000J0D01*
G01*
X210046000Y-101185000D01*
G75*
G02*
X210097000Y-101236000I0J-51000D01*
G01*
X210097000Y-101786000D01*
G75*
G02*
X210046000Y-101837000I-51000J0D01*
G01*
X208546000Y-101837000D01*
G75*
G02*
X208495000Y-101786000I0J51000D01*
G01*
G37*
G36*
G01*
X208495000Y-100986000D02*
X208495000Y-100436000D01*
G75*
G02*
X208546000Y-100385000I51000J0D01*
G01*
X210046000Y-100385000D01*
G75*
G02*
X210097000Y-100436000I0J-51000D01*
G01*
X210097000Y-100986000D01*
G75*
G02*
X210046000Y-101037000I-51000J0D01*
G01*
X208546000Y-101037000D01*
G75*
G02*
X208495000Y-100986000I0J51000D01*
G01*
G37*
G36*
G01*
X208495000Y-100186000D02*
X208495000Y-99636000D01*
G75*
G02*
X208546000Y-99585000I51000J0D01*
G01*
X210046000Y-99585000D01*
G75*
G02*
X210097000Y-99636000I0J-51000D01*
G01*
X210097000Y-100186000D01*
G75*
G02*
X210046000Y-100237000I-51000J0D01*
G01*
X208546000Y-100237000D01*
G75*
G02*
X208495000Y-100186000I0J51000D01*
G01*
G37*
G36*
G01*
X208495000Y-99386000D02*
X208495000Y-98836000D01*
G75*
G02*
X208546000Y-98785000I51000J0D01*
G01*
X210046000Y-98785000D01*
G75*
G02*
X210097000Y-98836000I0J-51000D01*
G01*
X210097000Y-99386000D01*
G75*
G02*
X210046000Y-99437000I-51000J0D01*
G01*
X208546000Y-99437000D01*
G75*
G02*
X208495000Y-99386000I0J51000D01*
G01*
G37*
G36*
G01*
X208495000Y-98586000D02*
X208495000Y-98036000D01*
G75*
G02*
X208546000Y-97985000I51000J0D01*
G01*
X210046000Y-97985000D01*
G75*
G02*
X210097000Y-98036000I0J-51000D01*
G01*
X210097000Y-98586000D01*
G75*
G02*
X210046000Y-98637000I-51000J0D01*
G01*
X208546000Y-98637000D01*
G75*
G02*
X208495000Y-98586000I0J51000D01*
G01*
G37*
G36*
G01*
X208495000Y-97786000D02*
X208495000Y-97236000D01*
G75*
G02*
X208546000Y-97185000I51000J0D01*
G01*
X210046000Y-97185000D01*
G75*
G02*
X210097000Y-97236000I0J-51000D01*
G01*
X210097000Y-97786000D01*
G75*
G02*
X210046000Y-97837000I-51000J0D01*
G01*
X208546000Y-97837000D01*
G75*
G02*
X208495000Y-97786000I0J51000D01*
G01*
G37*
G36*
G01*
X208495000Y-96986000D02*
X208495000Y-96436000D01*
G75*
G02*
X208546000Y-96385000I51000J0D01*
G01*
X210046000Y-96385000D01*
G75*
G02*
X210097000Y-96436000I0J-51000D01*
G01*
X210097000Y-96986000D01*
G75*
G02*
X210046000Y-97037000I-51000J0D01*
G01*
X208546000Y-97037000D01*
G75*
G02*
X208495000Y-96986000I0J51000D01*
G01*
G37*
G36*
G01*
X208495000Y-96186000D02*
X208495000Y-95636000D01*
G75*
G02*
X208546000Y-95585000I51000J0D01*
G01*
X210046000Y-95585000D01*
G75*
G02*
X210097000Y-95636000I0J-51000D01*
G01*
X210097000Y-96186000D01*
G75*
G02*
X210046000Y-96237000I-51000J0D01*
G01*
X208546000Y-96237000D01*
G75*
G02*
X208495000Y-96186000I0J51000D01*
G01*
G37*
G36*
G01*
X208495000Y-95386000D02*
X208495000Y-94836000D01*
G75*
G02*
X208546000Y-94785000I51000J0D01*
G01*
X210046000Y-94785000D01*
G75*
G02*
X210097000Y-94836000I0J-51000D01*
G01*
X210097000Y-95386000D01*
G75*
G02*
X210046000Y-95437000I-51000J0D01*
G01*
X208546000Y-95437000D01*
G75*
G02*
X208495000Y-95386000I0J51000D01*
G01*
G37*
G36*
G01*
X207871000Y-94212000D02*
X207321000Y-94212000D01*
G75*
G02*
X207270000Y-94161000I0J51000D01*
G01*
X207270000Y-92661000D01*
G75*
G02*
X207321000Y-92610000I51000J0D01*
G01*
X207871000Y-92610000D01*
G75*
G02*
X207922000Y-92661000I0J-51000D01*
G01*
X207922000Y-94161000D01*
G75*
G02*
X207871000Y-94212000I-51000J0D01*
G01*
G37*
G36*
G01*
X207071000Y-94212000D02*
X206521000Y-94212000D01*
G75*
G02*
X206470000Y-94161000I0J51000D01*
G01*
X206470000Y-92661000D01*
G75*
G02*
X206521000Y-92610000I51000J0D01*
G01*
X207071000Y-92610000D01*
G75*
G02*
X207122000Y-92661000I0J-51000D01*
G01*
X207122000Y-94161000D01*
G75*
G02*
X207071000Y-94212000I-51000J0D01*
G01*
G37*
G36*
G01*
X206271000Y-94212000D02*
X205721000Y-94212000D01*
G75*
G02*
X205670000Y-94161000I0J51000D01*
G01*
X205670000Y-92661000D01*
G75*
G02*
X205721000Y-92610000I51000J0D01*
G01*
X206271000Y-92610000D01*
G75*
G02*
X206322000Y-92661000I0J-51000D01*
G01*
X206322000Y-94161000D01*
G75*
G02*
X206271000Y-94212000I-51000J0D01*
G01*
G37*
G36*
G01*
X205471000Y-94212000D02*
X204921000Y-94212000D01*
G75*
G02*
X204870000Y-94161000I0J51000D01*
G01*
X204870000Y-92661000D01*
G75*
G02*
X204921000Y-92610000I51000J0D01*
G01*
X205471000Y-92610000D01*
G75*
G02*
X205522000Y-92661000I0J-51000D01*
G01*
X205522000Y-94161000D01*
G75*
G02*
X205471000Y-94212000I-51000J0D01*
G01*
G37*
G36*
G01*
X204671000Y-94212000D02*
X204121000Y-94212000D01*
G75*
G02*
X204070000Y-94161000I0J51000D01*
G01*
X204070000Y-92661000D01*
G75*
G02*
X204121000Y-92610000I51000J0D01*
G01*
X204671000Y-92610000D01*
G75*
G02*
X204722000Y-92661000I0J-51000D01*
G01*
X204722000Y-94161000D01*
G75*
G02*
X204671000Y-94212000I-51000J0D01*
G01*
G37*
G36*
G01*
X203871000Y-94212000D02*
X203321000Y-94212000D01*
G75*
G02*
X203270000Y-94161000I0J51000D01*
G01*
X203270000Y-92661000D01*
G75*
G02*
X203321000Y-92610000I51000J0D01*
G01*
X203871000Y-92610000D01*
G75*
G02*
X203922000Y-92661000I0J-51000D01*
G01*
X203922000Y-94161000D01*
G75*
G02*
X203871000Y-94212000I-51000J0D01*
G01*
G37*
G36*
G01*
X203071000Y-94212000D02*
X202521000Y-94212000D01*
G75*
G02*
X202470000Y-94161000I0J51000D01*
G01*
X202470000Y-92661000D01*
G75*
G02*
X202521000Y-92610000I51000J0D01*
G01*
X203071000Y-92610000D01*
G75*
G02*
X203122000Y-92661000I0J-51000D01*
G01*
X203122000Y-94161000D01*
G75*
G02*
X203071000Y-94212000I-51000J0D01*
G01*
G37*
G36*
G01*
X202271000Y-94212000D02*
X201721000Y-94212000D01*
G75*
G02*
X201670000Y-94161000I0J51000D01*
G01*
X201670000Y-92661000D01*
G75*
G02*
X201721000Y-92610000I51000J0D01*
G01*
X202271000Y-92610000D01*
G75*
G02*
X202322000Y-92661000I0J-51000D01*
G01*
X202322000Y-94161000D01*
G75*
G02*
X202271000Y-94212000I-51000J0D01*
G01*
G37*
G36*
G01*
X201471000Y-94212000D02*
X200921000Y-94212000D01*
G75*
G02*
X200870000Y-94161000I0J51000D01*
G01*
X200870000Y-92661000D01*
G75*
G02*
X200921000Y-92610000I51000J0D01*
G01*
X201471000Y-92610000D01*
G75*
G02*
X201522000Y-92661000I0J-51000D01*
G01*
X201522000Y-94161000D01*
G75*
G02*
X201471000Y-94212000I-51000J0D01*
G01*
G37*
G36*
G01*
X200671000Y-94212000D02*
X200121000Y-94212000D01*
G75*
G02*
X200070000Y-94161000I0J51000D01*
G01*
X200070000Y-92661000D01*
G75*
G02*
X200121000Y-92610000I51000J0D01*
G01*
X200671000Y-92610000D01*
G75*
G02*
X200722000Y-92661000I0J-51000D01*
G01*
X200722000Y-94161000D01*
G75*
G02*
X200671000Y-94212000I-51000J0D01*
G01*
G37*
G36*
G01*
X199871000Y-94212000D02*
X199321000Y-94212000D01*
G75*
G02*
X199270000Y-94161000I0J51000D01*
G01*
X199270000Y-92661000D01*
G75*
G02*
X199321000Y-92610000I51000J0D01*
G01*
X199871000Y-92610000D01*
G75*
G02*
X199922000Y-92661000I0J-51000D01*
G01*
X199922000Y-94161000D01*
G75*
G02*
X199871000Y-94212000I-51000J0D01*
G01*
G37*
G36*
G01*
X199071000Y-94212000D02*
X198521000Y-94212000D01*
G75*
G02*
X198470000Y-94161000I0J51000D01*
G01*
X198470000Y-92661000D01*
G75*
G02*
X198521000Y-92610000I51000J0D01*
G01*
X199071000Y-92610000D01*
G75*
G02*
X199122000Y-92661000I0J-51000D01*
G01*
X199122000Y-94161000D01*
G75*
G02*
X199071000Y-94212000I-51000J0D01*
G01*
G37*
G36*
G01*
X198271000Y-94212000D02*
X197721000Y-94212000D01*
G75*
G02*
X197670000Y-94161000I0J51000D01*
G01*
X197670000Y-92661000D01*
G75*
G02*
X197721000Y-92610000I51000J0D01*
G01*
X198271000Y-92610000D01*
G75*
G02*
X198322000Y-92661000I0J-51000D01*
G01*
X198322000Y-94161000D01*
G75*
G02*
X198271000Y-94212000I-51000J0D01*
G01*
G37*
G36*
G01*
X197471000Y-94212000D02*
X196921000Y-94212000D01*
G75*
G02*
X196870000Y-94161000I0J51000D01*
G01*
X196870000Y-92661000D01*
G75*
G02*
X196921000Y-92610000I51000J0D01*
G01*
X197471000Y-92610000D01*
G75*
G02*
X197522000Y-92661000I0J-51000D01*
G01*
X197522000Y-94161000D01*
G75*
G02*
X197471000Y-94212000I-51000J0D01*
G01*
G37*
G36*
G01*
X196671000Y-94212000D02*
X196121000Y-94212000D01*
G75*
G02*
X196070000Y-94161000I0J51000D01*
G01*
X196070000Y-92661000D01*
G75*
G02*
X196121000Y-92610000I51000J0D01*
G01*
X196671000Y-92610000D01*
G75*
G02*
X196722000Y-92661000I0J-51000D01*
G01*
X196722000Y-94161000D01*
G75*
G02*
X196671000Y-94212000I-51000J0D01*
G01*
G37*
G36*
G01*
X195871000Y-94212000D02*
X195321000Y-94212000D01*
G75*
G02*
X195270000Y-94161000I0J51000D01*
G01*
X195270000Y-92661000D01*
G75*
G02*
X195321000Y-92610000I51000J0D01*
G01*
X195871000Y-92610000D01*
G75*
G02*
X195922000Y-92661000I0J-51000D01*
G01*
X195922000Y-94161000D01*
G75*
G02*
X195871000Y-94212000I-51000J0D01*
G01*
G37*
D11*
G36*
X207271732Y-108009000D02*
G01*
X207272000Y-108010000D01*
X207272000Y-109612000D01*
X207271000Y-109613732D01*
X207270000Y-109614000D01*
X207122000Y-109614000D01*
X207120268Y-109613000D01*
X207120000Y-109612000D01*
X207120000Y-108012000D01*
X206472000Y-108012000D01*
X206472000Y-109612000D01*
X206471000Y-109613732D01*
X206470000Y-109614000D01*
X206322000Y-109614000D01*
X206320268Y-109613000D01*
X206320000Y-109612000D01*
X206320000Y-108012000D01*
X205672000Y-108012000D01*
X205672000Y-109612000D01*
X205671000Y-109613732D01*
X205670000Y-109614000D01*
X205522000Y-109614000D01*
X205520268Y-109613000D01*
X205520000Y-109612000D01*
X205520000Y-108012000D01*
X204872000Y-108012000D01*
X204872000Y-109612000D01*
X204871000Y-109613732D01*
X204870000Y-109614000D01*
X204722000Y-109614000D01*
X204720268Y-109613000D01*
X204720000Y-109612000D01*
X204720000Y-108012000D01*
X204072000Y-108012000D01*
X204072000Y-109612000D01*
X204071000Y-109613732D01*
X204070000Y-109614000D01*
X203922000Y-109614000D01*
X203920268Y-109613000D01*
X203920000Y-109612000D01*
X203920000Y-108012000D01*
X203272000Y-108012000D01*
X203272000Y-109612000D01*
X203271000Y-109613732D01*
X203270000Y-109614000D01*
X203122000Y-109614000D01*
X203120268Y-109613000D01*
X203120000Y-109612000D01*
X203120000Y-108012000D01*
X202472000Y-108012000D01*
X202472000Y-109612000D01*
X202471000Y-109613732D01*
X202470000Y-109614000D01*
X202322000Y-109614000D01*
X202320268Y-109613000D01*
X202320000Y-109612000D01*
X202320000Y-108012000D01*
X201672000Y-108012000D01*
X201672000Y-109612000D01*
X201671000Y-109613732D01*
X201670000Y-109614000D01*
X201522000Y-109614000D01*
X201520268Y-109613000D01*
X201520000Y-109612000D01*
X201520000Y-108012000D01*
X200872000Y-108012000D01*
X200872000Y-109612000D01*
X200871000Y-109613732D01*
X200870000Y-109614000D01*
X200722000Y-109614000D01*
X200720268Y-109613000D01*
X200720000Y-109612000D01*
X200720000Y-108012000D01*
X200072000Y-108012000D01*
X200072000Y-109612000D01*
X200071000Y-109613732D01*
X200070000Y-109614000D01*
X199922000Y-109614000D01*
X199920268Y-109613000D01*
X199920000Y-109612000D01*
X199920000Y-108012000D01*
X199272000Y-108012000D01*
X199272000Y-109612000D01*
X199271000Y-109613732D01*
X199270000Y-109614000D01*
X199122000Y-109614000D01*
X199120268Y-109613000D01*
X199120000Y-109612000D01*
X199120000Y-108012000D01*
X198472000Y-108012000D01*
X198472000Y-109612000D01*
X198471000Y-109613732D01*
X198470000Y-109614000D01*
X198322000Y-109614000D01*
X198320268Y-109613000D01*
X198320000Y-109612000D01*
X198320000Y-108012000D01*
X197672000Y-108012000D01*
X197672000Y-109612000D01*
X197671000Y-109613732D01*
X197670000Y-109614000D01*
X197522000Y-109614000D01*
X197520268Y-109613000D01*
X197520000Y-109612000D01*
X197520000Y-108012000D01*
X196872000Y-108012000D01*
X196872000Y-109612000D01*
X196871000Y-109613732D01*
X196870000Y-109614000D01*
X196722000Y-109614000D01*
X196720268Y-109613000D01*
X196720000Y-109612000D01*
X196720000Y-108012000D01*
X196072000Y-108012000D01*
X196072000Y-109612000D01*
X196071000Y-109613732D01*
X196070000Y-109614000D01*
X195922000Y-109614000D01*
X195920268Y-109613000D01*
X195920000Y-109612000D01*
X195920000Y-108010000D01*
X195921000Y-108008268D01*
X195922000Y-108008000D01*
X207270000Y-108008000D01*
X207271732Y-108009000D01*
G37*
G36*
X194698732Y-106636000D02*
G01*
X194699000Y-106637000D01*
X194699000Y-106785000D01*
X194698000Y-106786732D01*
X194697000Y-106787000D01*
X193095000Y-106787000D01*
X193093268Y-106786000D01*
X193093000Y-106785000D01*
X193093000Y-106637000D01*
X193094000Y-106635268D01*
X193095000Y-106635000D01*
X194697000Y-106635000D01*
X194698732Y-106636000D01*
G37*
G36*
X210098732Y-106636000D02*
G01*
X210099000Y-106637000D01*
X210099000Y-106785000D01*
X210098000Y-106786732D01*
X210097000Y-106787000D01*
X208495000Y-106787000D01*
X208493268Y-106786000D01*
X208493000Y-106785000D01*
X208493000Y-106637000D01*
X208494000Y-106635268D01*
X208495000Y-106635000D01*
X210097000Y-106635000D01*
X210098732Y-106636000D01*
G37*
G36*
X194698732Y-105836000D02*
G01*
X194699000Y-105837000D01*
X194699000Y-105985000D01*
X194698000Y-105986732D01*
X194697000Y-105987000D01*
X193095000Y-105987000D01*
X193093268Y-105986000D01*
X193093000Y-105985000D01*
X193093000Y-105837000D01*
X193094000Y-105835268D01*
X193095000Y-105835000D01*
X194697000Y-105835000D01*
X194698732Y-105836000D01*
G37*
G36*
X210098732Y-105836000D02*
G01*
X210099000Y-105837000D01*
X210099000Y-105985000D01*
X210098000Y-105986732D01*
X210097000Y-105987000D01*
X208495000Y-105987000D01*
X208493268Y-105986000D01*
X208493000Y-105985000D01*
X208493000Y-105837000D01*
X208494000Y-105835268D01*
X208495000Y-105835000D01*
X210097000Y-105835000D01*
X210098732Y-105836000D01*
G37*
G36*
X210098732Y-105036000D02*
G01*
X210099000Y-105037000D01*
X210099000Y-105185000D01*
X210098000Y-105186732D01*
X210097000Y-105187000D01*
X208495000Y-105187000D01*
X208493268Y-105186000D01*
X208493000Y-105185000D01*
X208493000Y-105037000D01*
X208494000Y-105035268D01*
X208495000Y-105035000D01*
X210097000Y-105035000D01*
X210098732Y-105036000D01*
G37*
G36*
X194698732Y-105036000D02*
G01*
X194699000Y-105037000D01*
X194699000Y-105185000D01*
X194698000Y-105186732D01*
X194697000Y-105187000D01*
X193095000Y-105187000D01*
X193093268Y-105186000D01*
X193093000Y-105185000D01*
X193093000Y-105037000D01*
X193094000Y-105035268D01*
X193095000Y-105035000D01*
X194697000Y-105035000D01*
X194698732Y-105036000D01*
G37*
G36*
X210098732Y-104236000D02*
G01*
X210099000Y-104237000D01*
X210099000Y-104385000D01*
X210098000Y-104386732D01*
X210097000Y-104387000D01*
X208495000Y-104387000D01*
X208493268Y-104386000D01*
X208493000Y-104385000D01*
X208493000Y-104237000D01*
X208494000Y-104235268D01*
X208495000Y-104235000D01*
X210097000Y-104235000D01*
X210098732Y-104236000D01*
G37*
G36*
X194698732Y-104236000D02*
G01*
X194699000Y-104237000D01*
X194699000Y-104385000D01*
X194698000Y-104386732D01*
X194697000Y-104387000D01*
X193095000Y-104387000D01*
X193093268Y-104386000D01*
X193093000Y-104385000D01*
X193093000Y-104237000D01*
X193094000Y-104235268D01*
X193095000Y-104235000D01*
X194697000Y-104235000D01*
X194698732Y-104236000D01*
G37*
G36*
X210098732Y-103436000D02*
G01*
X210099000Y-103437000D01*
X210099000Y-103585000D01*
X210098000Y-103586732D01*
X210097000Y-103587000D01*
X208495000Y-103587000D01*
X208493268Y-103586000D01*
X208493000Y-103585000D01*
X208493000Y-103437000D01*
X208494000Y-103435268D01*
X208495000Y-103435000D01*
X210097000Y-103435000D01*
X210098732Y-103436000D01*
G37*
G36*
X194698732Y-103436000D02*
G01*
X194699000Y-103437000D01*
X194699000Y-103585000D01*
X194698000Y-103586732D01*
X194697000Y-103587000D01*
X193095000Y-103587000D01*
X193093268Y-103586000D01*
X193093000Y-103585000D01*
X193093000Y-103437000D01*
X193094000Y-103435268D01*
X193095000Y-103435000D01*
X194697000Y-103435000D01*
X194698732Y-103436000D01*
G37*
G36*
X194698732Y-102636000D02*
G01*
X194699000Y-102637000D01*
X194699000Y-102785000D01*
X194698000Y-102786732D01*
X194697000Y-102787000D01*
X193095000Y-102787000D01*
X193093268Y-102786000D01*
X193093000Y-102785000D01*
X193093000Y-102637000D01*
X193094000Y-102635268D01*
X193095000Y-102635000D01*
X194697000Y-102635000D01*
X194698732Y-102636000D01*
G37*
G36*
X210098732Y-102636000D02*
G01*
X210099000Y-102637000D01*
X210099000Y-102785000D01*
X210098000Y-102786732D01*
X210097000Y-102787000D01*
X208495000Y-102787000D01*
X208493268Y-102786000D01*
X208493000Y-102785000D01*
X208493000Y-102637000D01*
X208494000Y-102635268D01*
X208495000Y-102635000D01*
X210097000Y-102635000D01*
X210098732Y-102636000D01*
G37*
G36*
X194698732Y-101836000D02*
G01*
X194699000Y-101837000D01*
X194699000Y-101985000D01*
X194698000Y-101986732D01*
X194697000Y-101987000D01*
X193095000Y-101987000D01*
X193093268Y-101986000D01*
X193093000Y-101985000D01*
X193093000Y-101837000D01*
X193094000Y-101835268D01*
X193095000Y-101835000D01*
X194697000Y-101835000D01*
X194698732Y-101836000D01*
G37*
G36*
X210098732Y-101836000D02*
G01*
X210099000Y-101837000D01*
X210099000Y-101985000D01*
X210098000Y-101986732D01*
X210097000Y-101987000D01*
X208495000Y-101987000D01*
X208493268Y-101986000D01*
X208493000Y-101985000D01*
X208493000Y-101837000D01*
X208494000Y-101835268D01*
X208495000Y-101835000D01*
X210097000Y-101835000D01*
X210098732Y-101836000D01*
G37*
G36*
X194698732Y-101036000D02*
G01*
X194699000Y-101037000D01*
X194699000Y-101185000D01*
X194698000Y-101186732D01*
X194697000Y-101187000D01*
X193095000Y-101187000D01*
X193093268Y-101186000D01*
X193093000Y-101185000D01*
X193093000Y-101037000D01*
X193094000Y-101035268D01*
X193095000Y-101035000D01*
X194697000Y-101035000D01*
X194698732Y-101036000D01*
G37*
G36*
X210098732Y-101036000D02*
G01*
X210099000Y-101037000D01*
X210099000Y-101185000D01*
X210098000Y-101186732D01*
X210097000Y-101187000D01*
X208495000Y-101187000D01*
X208493268Y-101186000D01*
X208493000Y-101185000D01*
X208493000Y-101037000D01*
X208494000Y-101035268D01*
X208495000Y-101035000D01*
X210097000Y-101035000D01*
X210098732Y-101036000D01*
G37*
G36*
X210098732Y-100236000D02*
G01*
X210099000Y-100237000D01*
X210099000Y-100385000D01*
X210098000Y-100386732D01*
X210097000Y-100387000D01*
X208495000Y-100387000D01*
X208493268Y-100386000D01*
X208493000Y-100385000D01*
X208493000Y-100237000D01*
X208494000Y-100235268D01*
X208495000Y-100235000D01*
X210097000Y-100235000D01*
X210098732Y-100236000D01*
G37*
G36*
X194698732Y-100236000D02*
G01*
X194699000Y-100237000D01*
X194699000Y-100385000D01*
X194698000Y-100386732D01*
X194697000Y-100387000D01*
X193095000Y-100387000D01*
X193093268Y-100386000D01*
X193093000Y-100385000D01*
X193093000Y-100237000D01*
X193094000Y-100235268D01*
X193095000Y-100235000D01*
X194697000Y-100235000D01*
X194698732Y-100236000D01*
G37*
G36*
X194698732Y-99436000D02*
G01*
X194699000Y-99437000D01*
X194699000Y-99585000D01*
X194698000Y-99586732D01*
X194697000Y-99587000D01*
X193095000Y-99587000D01*
X193093268Y-99586000D01*
X193093000Y-99585000D01*
X193093000Y-99437000D01*
X193094000Y-99435268D01*
X193095000Y-99435000D01*
X194697000Y-99435000D01*
X194698732Y-99436000D01*
G37*
G36*
X210098732Y-99436000D02*
G01*
X210099000Y-99437000D01*
X210099000Y-99585000D01*
X210098000Y-99586732D01*
X210097000Y-99587000D01*
X208495000Y-99587000D01*
X208493268Y-99586000D01*
X208493000Y-99585000D01*
X208493000Y-99437000D01*
X208494000Y-99435268D01*
X208495000Y-99435000D01*
X210097000Y-99435000D01*
X210098732Y-99436000D01*
G37*
G36*
X194698732Y-98636000D02*
G01*
X194699000Y-98637000D01*
X194699000Y-98785000D01*
X194698000Y-98786732D01*
X194697000Y-98787000D01*
X193095000Y-98787000D01*
X193093268Y-98786000D01*
X193093000Y-98785000D01*
X193093000Y-98637000D01*
X193094000Y-98635268D01*
X193095000Y-98635000D01*
X194697000Y-98635000D01*
X194698732Y-98636000D01*
G37*
G36*
X210098732Y-98636000D02*
G01*
X210099000Y-98637000D01*
X210099000Y-98785000D01*
X210098000Y-98786732D01*
X210097000Y-98787000D01*
X208495000Y-98787000D01*
X208493268Y-98786000D01*
X208493000Y-98785000D01*
X208493000Y-98637000D01*
X208494000Y-98635268D01*
X208495000Y-98635000D01*
X210097000Y-98635000D01*
X210098732Y-98636000D01*
G37*
G36*
X194698732Y-97836000D02*
G01*
X194699000Y-97837000D01*
X194699000Y-97985000D01*
X194698000Y-97986732D01*
X194697000Y-97987000D01*
X193095000Y-97987000D01*
X193093268Y-97986000D01*
X193093000Y-97985000D01*
X193093000Y-97837000D01*
X193094000Y-97835268D01*
X193095000Y-97835000D01*
X194697000Y-97835000D01*
X194698732Y-97836000D01*
G37*
G36*
X210098732Y-97836000D02*
G01*
X210099000Y-97837000D01*
X210099000Y-97985000D01*
X210098000Y-97986732D01*
X210097000Y-97987000D01*
X208495000Y-97987000D01*
X208493268Y-97986000D01*
X208493000Y-97985000D01*
X208493000Y-97837000D01*
X208494000Y-97835268D01*
X208495000Y-97835000D01*
X210097000Y-97835000D01*
X210098732Y-97836000D01*
G37*
G36*
X194698732Y-97036000D02*
G01*
X194699000Y-97037000D01*
X194699000Y-97185000D01*
X194698000Y-97186732D01*
X194697000Y-97187000D01*
X193095000Y-97187000D01*
X193093268Y-97186000D01*
X193093000Y-97185000D01*
X193093000Y-97037000D01*
X193094000Y-97035268D01*
X193095000Y-97035000D01*
X194697000Y-97035000D01*
X194698732Y-97036000D01*
G37*
G36*
X210098732Y-97036000D02*
G01*
X210099000Y-97037000D01*
X210099000Y-97185000D01*
X210098000Y-97186732D01*
X210097000Y-97187000D01*
X208495000Y-97187000D01*
X208493268Y-97186000D01*
X208493000Y-97185000D01*
X208493000Y-97037000D01*
X208494000Y-97035268D01*
X208495000Y-97035000D01*
X210097000Y-97035000D01*
X210098732Y-97036000D01*
G37*
G36*
X194698732Y-96236000D02*
G01*
X194699000Y-96237000D01*
X194699000Y-96385000D01*
X194698000Y-96386732D01*
X194697000Y-96387000D01*
X193095000Y-96387000D01*
X193093268Y-96386000D01*
X193093000Y-96385000D01*
X193093000Y-96237000D01*
X193094000Y-96235268D01*
X193095000Y-96235000D01*
X194697000Y-96235000D01*
X194698732Y-96236000D01*
G37*
G36*
X210098732Y-96236000D02*
G01*
X210099000Y-96237000D01*
X210099000Y-96385000D01*
X210098000Y-96386732D01*
X210097000Y-96387000D01*
X208495000Y-96387000D01*
X208493268Y-96386000D01*
X208493000Y-96385000D01*
X208493000Y-96237000D01*
X208494000Y-96235268D01*
X208495000Y-96235000D01*
X210097000Y-96235000D01*
X210098732Y-96236000D01*
G37*
G36*
X210098732Y-95436000D02*
G01*
X210099000Y-95437000D01*
X210099000Y-95585000D01*
X210098000Y-95586732D01*
X210097000Y-95587000D01*
X208495000Y-95587000D01*
X208493268Y-95586000D01*
X208493000Y-95585000D01*
X208493000Y-95437000D01*
X208494000Y-95435268D01*
X208495000Y-95435000D01*
X210097000Y-95435000D01*
X210098732Y-95436000D01*
G37*
G36*
X194698732Y-95436000D02*
G01*
X194699000Y-95437000D01*
X194699000Y-95585000D01*
X194698000Y-95586732D01*
X194697000Y-95587000D01*
X193095000Y-95587000D01*
X193093268Y-95586000D01*
X193093000Y-95585000D01*
X193093000Y-95437000D01*
X193094000Y-95435268D01*
X193095000Y-95435000D01*
X194697000Y-95435000D01*
X194698732Y-95436000D01*
G37*
G36*
X207271732Y-92609000D02*
G01*
X207272000Y-92610000D01*
X207272000Y-94212000D01*
X207271000Y-94213732D01*
X207270000Y-94214000D01*
X207122000Y-94214000D01*
X207120268Y-94213000D01*
X207120000Y-94212000D01*
X207120000Y-92612000D01*
X206472000Y-92612000D01*
X206472000Y-94212000D01*
X206471000Y-94213732D01*
X206470000Y-94214000D01*
X206322000Y-94214000D01*
X206320268Y-94213000D01*
X206320000Y-94212000D01*
X206320000Y-92612000D01*
X205672000Y-92612000D01*
X205672000Y-94212000D01*
X205671000Y-94213732D01*
X205670000Y-94214000D01*
X205522000Y-94214000D01*
X205520268Y-94213000D01*
X205520000Y-94212000D01*
X205520000Y-92612000D01*
X204872000Y-92612000D01*
X204872000Y-94212000D01*
X204871000Y-94213732D01*
X204870000Y-94214000D01*
X204722000Y-94214000D01*
X204720268Y-94213000D01*
X204720000Y-94212000D01*
X204720000Y-92612000D01*
X204072000Y-92612000D01*
X204072000Y-94212000D01*
X204071000Y-94213732D01*
X204070000Y-94214000D01*
X203922000Y-94214000D01*
X203920268Y-94213000D01*
X203920000Y-94212000D01*
X203920000Y-92612000D01*
X203272000Y-92612000D01*
X203272000Y-94212000D01*
X203271000Y-94213732D01*
X203270000Y-94214000D01*
X203122000Y-94214000D01*
X203120268Y-94213000D01*
X203120000Y-94212000D01*
X203120000Y-92612000D01*
X202472000Y-92612000D01*
X202472000Y-94212000D01*
X202471000Y-94213732D01*
X202470000Y-94214000D01*
X202322000Y-94214000D01*
X202320268Y-94213000D01*
X202320000Y-94212000D01*
X202320000Y-92612000D01*
X201672000Y-92612000D01*
X201672000Y-94212000D01*
X201671000Y-94213732D01*
X201670000Y-94214000D01*
X201522000Y-94214000D01*
X201520268Y-94213000D01*
X201520000Y-94212000D01*
X201520000Y-92612000D01*
X200872000Y-92612000D01*
X200872000Y-94212000D01*
X200871000Y-94213732D01*
X200870000Y-94214000D01*
X200722000Y-94214000D01*
X200720268Y-94213000D01*
X200720000Y-94212000D01*
X200720000Y-92612000D01*
X200072000Y-92612000D01*
X200072000Y-94212000D01*
X200071000Y-94213732D01*
X200070000Y-94214000D01*
X199922000Y-94214000D01*
X199920268Y-94213000D01*
X199920000Y-94212000D01*
X199920000Y-92612000D01*
X199272000Y-92612000D01*
X199272000Y-94212000D01*
X199271000Y-94213732D01*
X199270000Y-94214000D01*
X199122000Y-94214000D01*
X199120268Y-94213000D01*
X199120000Y-94212000D01*
X199120000Y-92612000D01*
X198472000Y-92612000D01*
X198472000Y-94212000D01*
X198471000Y-94213732D01*
X198470000Y-94214000D01*
X198322000Y-94214000D01*
X198320268Y-94213000D01*
X198320000Y-94212000D01*
X198320000Y-92612000D01*
X197672000Y-92612000D01*
X197672000Y-94212000D01*
X197671000Y-94213732D01*
X197670000Y-94214000D01*
X197522000Y-94214000D01*
X197520268Y-94213000D01*
X197520000Y-94212000D01*
X197520000Y-92612000D01*
X196872000Y-92612000D01*
X196872000Y-94212000D01*
X196871000Y-94213732D01*
X196870000Y-94214000D01*
X196722000Y-94214000D01*
X196720268Y-94213000D01*
X196720000Y-94212000D01*
X196720000Y-92612000D01*
X196072000Y-92612000D01*
X196072000Y-94212000D01*
X196071000Y-94213732D01*
X196070000Y-94214000D01*
X195922000Y-94214000D01*
X195920268Y-94213000D01*
X195920000Y-94212000D01*
X195920000Y-92610000D01*
X195921000Y-92608268D01*
X195922000Y-92608000D01*
X207270000Y-92608000D01*
X207271732Y-92609000D01*
G37*
M02*
