G04 #@! TF.GenerationSoftware,KiCad,Pcbnew,5.1.7-a382d34a8~87~ubuntu20.04.1*
G04 #@! TF.CreationDate,2020-10-24T08:36:22+02:00*
G04 #@! TF.ProjectId,xmega_adapter_board,786d6567-615f-4616-9461-707465725f62,1.2.1*
G04 #@! TF.SameCoordinates,Original*
G04 #@! TF.FileFunction,Legend,Bot*
G04 #@! TF.FilePolarity,Positive*
%FSLAX46Y46*%
G04 Gerber Fmt 4.6, Leading zero omitted, Abs format (unit mm)*
G04 Created by KiCad (PCBNEW 5.1.7-a382d34a8~87~ubuntu20.04.1) date 2020-10-24 08:36:22*
%MOMM*%
%LPD*%
G01*
G04 APERTURE LIST*
%ADD10C,0.150000*%
%ADD11C,0.120000*%
%ADD12C,0.010000*%
G04 APERTURE END LIST*
D10*
X192246095Y-135580380D02*
X192246095Y-134580380D01*
X191865142Y-134580380D01*
X191769904Y-134628000D01*
X191722285Y-134675619D01*
X191674666Y-134770857D01*
X191674666Y-134913714D01*
X191722285Y-135008952D01*
X191769904Y-135056571D01*
X191865142Y-135104190D01*
X192246095Y-135104190D01*
X190674666Y-135485142D02*
X190722285Y-135532761D01*
X190865142Y-135580380D01*
X190960380Y-135580380D01*
X191103238Y-135532761D01*
X191198476Y-135437523D01*
X191246095Y-135342285D01*
X191293714Y-135151809D01*
X191293714Y-135008952D01*
X191246095Y-134818476D01*
X191198476Y-134723238D01*
X191103238Y-134628000D01*
X190960380Y-134580380D01*
X190865142Y-134580380D01*
X190722285Y-134628000D01*
X190674666Y-134675619D01*
X190341333Y-134580380D02*
X189674666Y-134580380D01*
X190103238Y-135580380D01*
X192246095Y-133040380D02*
X192246095Y-132040380D01*
X191865142Y-132040380D01*
X191769904Y-132088000D01*
X191722285Y-132135619D01*
X191674666Y-132230857D01*
X191674666Y-132373714D01*
X191722285Y-132468952D01*
X191769904Y-132516571D01*
X191865142Y-132564190D01*
X192246095Y-132564190D01*
X190674666Y-132945142D02*
X190722285Y-132992761D01*
X190865142Y-133040380D01*
X190960380Y-133040380D01*
X191103238Y-132992761D01*
X191198476Y-132897523D01*
X191246095Y-132802285D01*
X191293714Y-132611809D01*
X191293714Y-132468952D01*
X191246095Y-132278476D01*
X191198476Y-132183238D01*
X191103238Y-132088000D01*
X190960380Y-132040380D01*
X190865142Y-132040380D01*
X190722285Y-132088000D01*
X190674666Y-132135619D01*
X189817523Y-132040380D02*
X190008000Y-132040380D01*
X190103238Y-132088000D01*
X190150857Y-132135619D01*
X190246095Y-132278476D01*
X190293714Y-132468952D01*
X190293714Y-132849904D01*
X190246095Y-132945142D01*
X190198476Y-132992761D01*
X190103238Y-133040380D01*
X189912761Y-133040380D01*
X189817523Y-132992761D01*
X189769904Y-132945142D01*
X189722285Y-132849904D01*
X189722285Y-132611809D01*
X189769904Y-132516571D01*
X189817523Y-132468952D01*
X189912761Y-132421333D01*
X190103238Y-132421333D01*
X190198476Y-132468952D01*
X190246095Y-132516571D01*
X190293714Y-132611809D01*
X192246095Y-130500380D02*
X192246095Y-129500380D01*
X191865142Y-129500380D01*
X191769904Y-129548000D01*
X191722285Y-129595619D01*
X191674666Y-129690857D01*
X191674666Y-129833714D01*
X191722285Y-129928952D01*
X191769904Y-129976571D01*
X191865142Y-130024190D01*
X192246095Y-130024190D01*
X190674666Y-130405142D02*
X190722285Y-130452761D01*
X190865142Y-130500380D01*
X190960380Y-130500380D01*
X191103238Y-130452761D01*
X191198476Y-130357523D01*
X191246095Y-130262285D01*
X191293714Y-130071809D01*
X191293714Y-129928952D01*
X191246095Y-129738476D01*
X191198476Y-129643238D01*
X191103238Y-129548000D01*
X190960380Y-129500380D01*
X190865142Y-129500380D01*
X190722285Y-129548000D01*
X190674666Y-129595619D01*
X189769904Y-129500380D02*
X190246095Y-129500380D01*
X190293714Y-129976571D01*
X190246095Y-129928952D01*
X190150857Y-129881333D01*
X189912761Y-129881333D01*
X189817523Y-129928952D01*
X189769904Y-129976571D01*
X189722285Y-130071809D01*
X189722285Y-130309904D01*
X189769904Y-130405142D01*
X189817523Y-130452761D01*
X189912761Y-130500380D01*
X190150857Y-130500380D01*
X190246095Y-130452761D01*
X190293714Y-130405142D01*
X192246095Y-127960380D02*
X192246095Y-126960380D01*
X191865142Y-126960380D01*
X191769904Y-127008000D01*
X191722285Y-127055619D01*
X191674666Y-127150857D01*
X191674666Y-127293714D01*
X191722285Y-127388952D01*
X191769904Y-127436571D01*
X191865142Y-127484190D01*
X192246095Y-127484190D01*
X190674666Y-127865142D02*
X190722285Y-127912761D01*
X190865142Y-127960380D01*
X190960380Y-127960380D01*
X191103238Y-127912761D01*
X191198476Y-127817523D01*
X191246095Y-127722285D01*
X191293714Y-127531809D01*
X191293714Y-127388952D01*
X191246095Y-127198476D01*
X191198476Y-127103238D01*
X191103238Y-127008000D01*
X190960380Y-126960380D01*
X190865142Y-126960380D01*
X190722285Y-127008000D01*
X190674666Y-127055619D01*
X189817523Y-127293714D02*
X189817523Y-127960380D01*
X190055619Y-126912761D02*
X190293714Y-127627047D01*
X189674666Y-127627047D01*
X192246095Y-125420380D02*
X192246095Y-124420380D01*
X191865142Y-124420380D01*
X191769904Y-124468000D01*
X191722285Y-124515619D01*
X191674666Y-124610857D01*
X191674666Y-124753714D01*
X191722285Y-124848952D01*
X191769904Y-124896571D01*
X191865142Y-124944190D01*
X192246095Y-124944190D01*
X190674666Y-125325142D02*
X190722285Y-125372761D01*
X190865142Y-125420380D01*
X190960380Y-125420380D01*
X191103238Y-125372761D01*
X191198476Y-125277523D01*
X191246095Y-125182285D01*
X191293714Y-124991809D01*
X191293714Y-124848952D01*
X191246095Y-124658476D01*
X191198476Y-124563238D01*
X191103238Y-124468000D01*
X190960380Y-124420380D01*
X190865142Y-124420380D01*
X190722285Y-124468000D01*
X190674666Y-124515619D01*
X190341333Y-124420380D02*
X189722285Y-124420380D01*
X190055619Y-124801333D01*
X189912761Y-124801333D01*
X189817523Y-124848952D01*
X189769904Y-124896571D01*
X189722285Y-124991809D01*
X189722285Y-125229904D01*
X189769904Y-125325142D01*
X189817523Y-125372761D01*
X189912761Y-125420380D01*
X190198476Y-125420380D01*
X190293714Y-125372761D01*
X190341333Y-125325142D01*
X192246095Y-122880380D02*
X192246095Y-121880380D01*
X191865142Y-121880380D01*
X191769904Y-121928000D01*
X191722285Y-121975619D01*
X191674666Y-122070857D01*
X191674666Y-122213714D01*
X191722285Y-122308952D01*
X191769904Y-122356571D01*
X191865142Y-122404190D01*
X192246095Y-122404190D01*
X190674666Y-122785142D02*
X190722285Y-122832761D01*
X190865142Y-122880380D01*
X190960380Y-122880380D01*
X191103238Y-122832761D01*
X191198476Y-122737523D01*
X191246095Y-122642285D01*
X191293714Y-122451809D01*
X191293714Y-122308952D01*
X191246095Y-122118476D01*
X191198476Y-122023238D01*
X191103238Y-121928000D01*
X190960380Y-121880380D01*
X190865142Y-121880380D01*
X190722285Y-121928000D01*
X190674666Y-121975619D01*
X190293714Y-121975619D02*
X190246095Y-121928000D01*
X190150857Y-121880380D01*
X189912761Y-121880380D01*
X189817523Y-121928000D01*
X189769904Y-121975619D01*
X189722285Y-122070857D01*
X189722285Y-122166095D01*
X189769904Y-122308952D01*
X190341333Y-122880380D01*
X189722285Y-122880380D01*
X192246095Y-120340380D02*
X192246095Y-119340380D01*
X191865142Y-119340380D01*
X191769904Y-119388000D01*
X191722285Y-119435619D01*
X191674666Y-119530857D01*
X191674666Y-119673714D01*
X191722285Y-119768952D01*
X191769904Y-119816571D01*
X191865142Y-119864190D01*
X192246095Y-119864190D01*
X190674666Y-120245142D02*
X190722285Y-120292761D01*
X190865142Y-120340380D01*
X190960380Y-120340380D01*
X191103238Y-120292761D01*
X191198476Y-120197523D01*
X191246095Y-120102285D01*
X191293714Y-119911809D01*
X191293714Y-119768952D01*
X191246095Y-119578476D01*
X191198476Y-119483238D01*
X191103238Y-119388000D01*
X190960380Y-119340380D01*
X190865142Y-119340380D01*
X190722285Y-119388000D01*
X190674666Y-119435619D01*
X189722285Y-120340380D02*
X190293714Y-120340380D01*
X190008000Y-120340380D02*
X190008000Y-119340380D01*
X190103238Y-119483238D01*
X190198476Y-119578476D01*
X190293714Y-119626095D01*
X192246095Y-117800380D02*
X192246095Y-116800380D01*
X191865142Y-116800380D01*
X191769904Y-116848000D01*
X191722285Y-116895619D01*
X191674666Y-116990857D01*
X191674666Y-117133714D01*
X191722285Y-117228952D01*
X191769904Y-117276571D01*
X191865142Y-117324190D01*
X192246095Y-117324190D01*
X190674666Y-117705142D02*
X190722285Y-117752761D01*
X190865142Y-117800380D01*
X190960380Y-117800380D01*
X191103238Y-117752761D01*
X191198476Y-117657523D01*
X191246095Y-117562285D01*
X191293714Y-117371809D01*
X191293714Y-117228952D01*
X191246095Y-117038476D01*
X191198476Y-116943238D01*
X191103238Y-116848000D01*
X190960380Y-116800380D01*
X190865142Y-116800380D01*
X190722285Y-116848000D01*
X190674666Y-116895619D01*
X190055619Y-116800380D02*
X189960380Y-116800380D01*
X189865142Y-116848000D01*
X189817523Y-116895619D01*
X189769904Y-116990857D01*
X189722285Y-117181333D01*
X189722285Y-117419428D01*
X189769904Y-117609904D01*
X189817523Y-117705142D01*
X189865142Y-117752761D01*
X189960380Y-117800380D01*
X190055619Y-117800380D01*
X190150857Y-117752761D01*
X190198476Y-117705142D01*
X190246095Y-117609904D01*
X190293714Y-117419428D01*
X190293714Y-117181333D01*
X190246095Y-116990857D01*
X190198476Y-116895619D01*
X190150857Y-116848000D01*
X190055619Y-116800380D01*
X192246095Y-115260380D02*
X192246095Y-114260380D01*
X191865142Y-114260380D01*
X191769904Y-114308000D01*
X191722285Y-114355619D01*
X191674666Y-114450857D01*
X191674666Y-114593714D01*
X191722285Y-114688952D01*
X191769904Y-114736571D01*
X191865142Y-114784190D01*
X192246095Y-114784190D01*
X190912761Y-114736571D02*
X190769904Y-114784190D01*
X190722285Y-114831809D01*
X190674666Y-114927047D01*
X190674666Y-115069904D01*
X190722285Y-115165142D01*
X190769904Y-115212761D01*
X190865142Y-115260380D01*
X191246095Y-115260380D01*
X191246095Y-114260380D01*
X190912761Y-114260380D01*
X190817523Y-114308000D01*
X190769904Y-114355619D01*
X190722285Y-114450857D01*
X190722285Y-114546095D01*
X190769904Y-114641333D01*
X190817523Y-114688952D01*
X190912761Y-114736571D01*
X191246095Y-114736571D01*
X190341333Y-114260380D02*
X189674666Y-114260380D01*
X190103238Y-115260380D01*
X192246095Y-112720380D02*
X192246095Y-111720380D01*
X191865142Y-111720380D01*
X191769904Y-111768000D01*
X191722285Y-111815619D01*
X191674666Y-111910857D01*
X191674666Y-112053714D01*
X191722285Y-112148952D01*
X191769904Y-112196571D01*
X191865142Y-112244190D01*
X192246095Y-112244190D01*
X190912761Y-112196571D02*
X190769904Y-112244190D01*
X190722285Y-112291809D01*
X190674666Y-112387047D01*
X190674666Y-112529904D01*
X190722285Y-112625142D01*
X190769904Y-112672761D01*
X190865142Y-112720380D01*
X191246095Y-112720380D01*
X191246095Y-111720380D01*
X190912761Y-111720380D01*
X190817523Y-111768000D01*
X190769904Y-111815619D01*
X190722285Y-111910857D01*
X190722285Y-112006095D01*
X190769904Y-112101333D01*
X190817523Y-112148952D01*
X190912761Y-112196571D01*
X191246095Y-112196571D01*
X189817523Y-111720380D02*
X190008000Y-111720380D01*
X190103238Y-111768000D01*
X190150857Y-111815619D01*
X190246095Y-111958476D01*
X190293714Y-112148952D01*
X190293714Y-112529904D01*
X190246095Y-112625142D01*
X190198476Y-112672761D01*
X190103238Y-112720380D01*
X189912761Y-112720380D01*
X189817523Y-112672761D01*
X189769904Y-112625142D01*
X189722285Y-112529904D01*
X189722285Y-112291809D01*
X189769904Y-112196571D01*
X189817523Y-112148952D01*
X189912761Y-112101333D01*
X190103238Y-112101333D01*
X190198476Y-112148952D01*
X190246095Y-112196571D01*
X190293714Y-112291809D01*
X192246095Y-110180380D02*
X192246095Y-109180380D01*
X191865142Y-109180380D01*
X191769904Y-109228000D01*
X191722285Y-109275619D01*
X191674666Y-109370857D01*
X191674666Y-109513714D01*
X191722285Y-109608952D01*
X191769904Y-109656571D01*
X191865142Y-109704190D01*
X192246095Y-109704190D01*
X190912761Y-109656571D02*
X190769904Y-109704190D01*
X190722285Y-109751809D01*
X190674666Y-109847047D01*
X190674666Y-109989904D01*
X190722285Y-110085142D01*
X190769904Y-110132761D01*
X190865142Y-110180380D01*
X191246095Y-110180380D01*
X191246095Y-109180380D01*
X190912761Y-109180380D01*
X190817523Y-109228000D01*
X190769904Y-109275619D01*
X190722285Y-109370857D01*
X190722285Y-109466095D01*
X190769904Y-109561333D01*
X190817523Y-109608952D01*
X190912761Y-109656571D01*
X191246095Y-109656571D01*
X189769904Y-109180380D02*
X190246095Y-109180380D01*
X190293714Y-109656571D01*
X190246095Y-109608952D01*
X190150857Y-109561333D01*
X189912761Y-109561333D01*
X189817523Y-109608952D01*
X189769904Y-109656571D01*
X189722285Y-109751809D01*
X189722285Y-109989904D01*
X189769904Y-110085142D01*
X189817523Y-110132761D01*
X189912761Y-110180380D01*
X190150857Y-110180380D01*
X190246095Y-110132761D01*
X190293714Y-110085142D01*
X192246095Y-107640380D02*
X192246095Y-106640380D01*
X191865142Y-106640380D01*
X191769904Y-106688000D01*
X191722285Y-106735619D01*
X191674666Y-106830857D01*
X191674666Y-106973714D01*
X191722285Y-107068952D01*
X191769904Y-107116571D01*
X191865142Y-107164190D01*
X192246095Y-107164190D01*
X190912761Y-107116571D02*
X190769904Y-107164190D01*
X190722285Y-107211809D01*
X190674666Y-107307047D01*
X190674666Y-107449904D01*
X190722285Y-107545142D01*
X190769904Y-107592761D01*
X190865142Y-107640380D01*
X191246095Y-107640380D01*
X191246095Y-106640380D01*
X190912761Y-106640380D01*
X190817523Y-106688000D01*
X190769904Y-106735619D01*
X190722285Y-106830857D01*
X190722285Y-106926095D01*
X190769904Y-107021333D01*
X190817523Y-107068952D01*
X190912761Y-107116571D01*
X191246095Y-107116571D01*
X189817523Y-106973714D02*
X189817523Y-107640380D01*
X190055619Y-106592761D02*
X190293714Y-107307047D01*
X189674666Y-107307047D01*
X192246095Y-105100380D02*
X192246095Y-104100380D01*
X191865142Y-104100380D01*
X191769904Y-104148000D01*
X191722285Y-104195619D01*
X191674666Y-104290857D01*
X191674666Y-104433714D01*
X191722285Y-104528952D01*
X191769904Y-104576571D01*
X191865142Y-104624190D01*
X192246095Y-104624190D01*
X190912761Y-104576571D02*
X190769904Y-104624190D01*
X190722285Y-104671809D01*
X190674666Y-104767047D01*
X190674666Y-104909904D01*
X190722285Y-105005142D01*
X190769904Y-105052761D01*
X190865142Y-105100380D01*
X191246095Y-105100380D01*
X191246095Y-104100380D01*
X190912761Y-104100380D01*
X190817523Y-104148000D01*
X190769904Y-104195619D01*
X190722285Y-104290857D01*
X190722285Y-104386095D01*
X190769904Y-104481333D01*
X190817523Y-104528952D01*
X190912761Y-104576571D01*
X191246095Y-104576571D01*
X190341333Y-104100380D02*
X189722285Y-104100380D01*
X190055619Y-104481333D01*
X189912761Y-104481333D01*
X189817523Y-104528952D01*
X189769904Y-104576571D01*
X189722285Y-104671809D01*
X189722285Y-104909904D01*
X189769904Y-105005142D01*
X189817523Y-105052761D01*
X189912761Y-105100380D01*
X190198476Y-105100380D01*
X190293714Y-105052761D01*
X190341333Y-105005142D01*
X192246095Y-102560380D02*
X192246095Y-101560380D01*
X191865142Y-101560380D01*
X191769904Y-101608000D01*
X191722285Y-101655619D01*
X191674666Y-101750857D01*
X191674666Y-101893714D01*
X191722285Y-101988952D01*
X191769904Y-102036571D01*
X191865142Y-102084190D01*
X192246095Y-102084190D01*
X190912761Y-102036571D02*
X190769904Y-102084190D01*
X190722285Y-102131809D01*
X190674666Y-102227047D01*
X190674666Y-102369904D01*
X190722285Y-102465142D01*
X190769904Y-102512761D01*
X190865142Y-102560380D01*
X191246095Y-102560380D01*
X191246095Y-101560380D01*
X190912761Y-101560380D01*
X190817523Y-101608000D01*
X190769904Y-101655619D01*
X190722285Y-101750857D01*
X190722285Y-101846095D01*
X190769904Y-101941333D01*
X190817523Y-101988952D01*
X190912761Y-102036571D01*
X191246095Y-102036571D01*
X190293714Y-101655619D02*
X190246095Y-101608000D01*
X190150857Y-101560380D01*
X189912761Y-101560380D01*
X189817523Y-101608000D01*
X189769904Y-101655619D01*
X189722285Y-101750857D01*
X189722285Y-101846095D01*
X189769904Y-101988952D01*
X190341333Y-102560380D01*
X189722285Y-102560380D01*
X192246095Y-100020380D02*
X192246095Y-99020380D01*
X191865142Y-99020380D01*
X191769904Y-99068000D01*
X191722285Y-99115619D01*
X191674666Y-99210857D01*
X191674666Y-99353714D01*
X191722285Y-99448952D01*
X191769904Y-99496571D01*
X191865142Y-99544190D01*
X192246095Y-99544190D01*
X190912761Y-99496571D02*
X190769904Y-99544190D01*
X190722285Y-99591809D01*
X190674666Y-99687047D01*
X190674666Y-99829904D01*
X190722285Y-99925142D01*
X190769904Y-99972761D01*
X190865142Y-100020380D01*
X191246095Y-100020380D01*
X191246095Y-99020380D01*
X190912761Y-99020380D01*
X190817523Y-99068000D01*
X190769904Y-99115619D01*
X190722285Y-99210857D01*
X190722285Y-99306095D01*
X190769904Y-99401333D01*
X190817523Y-99448952D01*
X190912761Y-99496571D01*
X191246095Y-99496571D01*
X189722285Y-100020380D02*
X190293714Y-100020380D01*
X190008000Y-100020380D02*
X190008000Y-99020380D01*
X190103238Y-99163238D01*
X190198476Y-99258476D01*
X190293714Y-99306095D01*
X192246095Y-97480380D02*
X192246095Y-96480380D01*
X191865142Y-96480380D01*
X191769904Y-96528000D01*
X191722285Y-96575619D01*
X191674666Y-96670857D01*
X191674666Y-96813714D01*
X191722285Y-96908952D01*
X191769904Y-96956571D01*
X191865142Y-97004190D01*
X192246095Y-97004190D01*
X190912761Y-96956571D02*
X190769904Y-97004190D01*
X190722285Y-97051809D01*
X190674666Y-97147047D01*
X190674666Y-97289904D01*
X190722285Y-97385142D01*
X190769904Y-97432761D01*
X190865142Y-97480380D01*
X191246095Y-97480380D01*
X191246095Y-96480380D01*
X190912761Y-96480380D01*
X190817523Y-96528000D01*
X190769904Y-96575619D01*
X190722285Y-96670857D01*
X190722285Y-96766095D01*
X190769904Y-96861333D01*
X190817523Y-96908952D01*
X190912761Y-96956571D01*
X191246095Y-96956571D01*
X190055619Y-96480380D02*
X189960380Y-96480380D01*
X189865142Y-96528000D01*
X189817523Y-96575619D01*
X189769904Y-96670857D01*
X189722285Y-96861333D01*
X189722285Y-97099428D01*
X189769904Y-97289904D01*
X189817523Y-97385142D01*
X189865142Y-97432761D01*
X189960380Y-97480380D01*
X190055619Y-97480380D01*
X190150857Y-97432761D01*
X190198476Y-97385142D01*
X190246095Y-97289904D01*
X190293714Y-97099428D01*
X190293714Y-96861333D01*
X190246095Y-96670857D01*
X190198476Y-96575619D01*
X190150857Y-96528000D01*
X190055619Y-96480380D01*
X192174666Y-94940380D02*
X192174666Y-93940380D01*
X191793714Y-93940380D01*
X191698476Y-93988000D01*
X191650857Y-94035619D01*
X191603238Y-94130857D01*
X191603238Y-94273714D01*
X191650857Y-94368952D01*
X191698476Y-94416571D01*
X191793714Y-94464190D01*
X192174666Y-94464190D01*
X191222285Y-94654666D02*
X190746095Y-94654666D01*
X191317523Y-94940380D02*
X190984190Y-93940380D01*
X190650857Y-94940380D01*
X190412761Y-93940380D02*
X189746095Y-93940380D01*
X190174666Y-94940380D01*
X192174666Y-92400380D02*
X192174666Y-91400380D01*
X191793714Y-91400380D01*
X191698476Y-91448000D01*
X191650857Y-91495619D01*
X191603238Y-91590857D01*
X191603238Y-91733714D01*
X191650857Y-91828952D01*
X191698476Y-91876571D01*
X191793714Y-91924190D01*
X192174666Y-91924190D01*
X191222285Y-92114666D02*
X190746095Y-92114666D01*
X191317523Y-92400380D02*
X190984190Y-91400380D01*
X190650857Y-92400380D01*
X189888952Y-91400380D02*
X190079428Y-91400380D01*
X190174666Y-91448000D01*
X190222285Y-91495619D01*
X190317523Y-91638476D01*
X190365142Y-91828952D01*
X190365142Y-92209904D01*
X190317523Y-92305142D01*
X190269904Y-92352761D01*
X190174666Y-92400380D01*
X189984190Y-92400380D01*
X189888952Y-92352761D01*
X189841333Y-92305142D01*
X189793714Y-92209904D01*
X189793714Y-91971809D01*
X189841333Y-91876571D01*
X189888952Y-91828952D01*
X189984190Y-91781333D01*
X190174666Y-91781333D01*
X190269904Y-91828952D01*
X190317523Y-91876571D01*
X190365142Y-91971809D01*
X192174666Y-89860380D02*
X192174666Y-88860380D01*
X191793714Y-88860380D01*
X191698476Y-88908000D01*
X191650857Y-88955619D01*
X191603238Y-89050857D01*
X191603238Y-89193714D01*
X191650857Y-89288952D01*
X191698476Y-89336571D01*
X191793714Y-89384190D01*
X192174666Y-89384190D01*
X191222285Y-89574666D02*
X190746095Y-89574666D01*
X191317523Y-89860380D02*
X190984190Y-88860380D01*
X190650857Y-89860380D01*
X189841333Y-88860380D02*
X190317523Y-88860380D01*
X190365142Y-89336571D01*
X190317523Y-89288952D01*
X190222285Y-89241333D01*
X189984190Y-89241333D01*
X189888952Y-89288952D01*
X189841333Y-89336571D01*
X189793714Y-89431809D01*
X189793714Y-89669904D01*
X189841333Y-89765142D01*
X189888952Y-89812761D01*
X189984190Y-89860380D01*
X190222285Y-89860380D01*
X190317523Y-89812761D01*
X190365142Y-89765142D01*
X192174666Y-87320380D02*
X192174666Y-86320380D01*
X191793714Y-86320380D01*
X191698476Y-86368000D01*
X191650857Y-86415619D01*
X191603238Y-86510857D01*
X191603238Y-86653714D01*
X191650857Y-86748952D01*
X191698476Y-86796571D01*
X191793714Y-86844190D01*
X192174666Y-86844190D01*
X191222285Y-87034666D02*
X190746095Y-87034666D01*
X191317523Y-87320380D02*
X190984190Y-86320380D01*
X190650857Y-87320380D01*
X189888952Y-86653714D02*
X189888952Y-87320380D01*
X190127047Y-86272761D02*
X190365142Y-86987047D01*
X189746095Y-86987047D01*
X192174666Y-84780380D02*
X192174666Y-83780380D01*
X191793714Y-83780380D01*
X191698476Y-83828000D01*
X191650857Y-83875619D01*
X191603238Y-83970857D01*
X191603238Y-84113714D01*
X191650857Y-84208952D01*
X191698476Y-84256571D01*
X191793714Y-84304190D01*
X192174666Y-84304190D01*
X191222285Y-84494666D02*
X190746095Y-84494666D01*
X191317523Y-84780380D02*
X190984190Y-83780380D01*
X190650857Y-84780380D01*
X190412761Y-83780380D02*
X189793714Y-83780380D01*
X190127047Y-84161333D01*
X189984190Y-84161333D01*
X189888952Y-84208952D01*
X189841333Y-84256571D01*
X189793714Y-84351809D01*
X189793714Y-84589904D01*
X189841333Y-84685142D01*
X189888952Y-84732761D01*
X189984190Y-84780380D01*
X190269904Y-84780380D01*
X190365142Y-84732761D01*
X190412761Y-84685142D01*
X192174666Y-82240380D02*
X192174666Y-81240380D01*
X191793714Y-81240380D01*
X191698476Y-81288000D01*
X191650857Y-81335619D01*
X191603238Y-81430857D01*
X191603238Y-81573714D01*
X191650857Y-81668952D01*
X191698476Y-81716571D01*
X191793714Y-81764190D01*
X192174666Y-81764190D01*
X191222285Y-81954666D02*
X190746095Y-81954666D01*
X191317523Y-82240380D02*
X190984190Y-81240380D01*
X190650857Y-82240380D01*
X190365142Y-81335619D02*
X190317523Y-81288000D01*
X190222285Y-81240380D01*
X189984190Y-81240380D01*
X189888952Y-81288000D01*
X189841333Y-81335619D01*
X189793714Y-81430857D01*
X189793714Y-81526095D01*
X189841333Y-81668952D01*
X190412761Y-82240380D01*
X189793714Y-82240380D01*
X192174666Y-79700380D02*
X192174666Y-78700380D01*
X191793714Y-78700380D01*
X191698476Y-78748000D01*
X191650857Y-78795619D01*
X191603238Y-78890857D01*
X191603238Y-79033714D01*
X191650857Y-79128952D01*
X191698476Y-79176571D01*
X191793714Y-79224190D01*
X192174666Y-79224190D01*
X191222285Y-79414666D02*
X190746095Y-79414666D01*
X191317523Y-79700380D02*
X190984190Y-78700380D01*
X190650857Y-79700380D01*
X189793714Y-79700380D02*
X190365142Y-79700380D01*
X190079428Y-79700380D02*
X190079428Y-78700380D01*
X190174666Y-78843238D01*
X190269904Y-78938476D01*
X190365142Y-78986095D01*
X192174666Y-77160380D02*
X192174666Y-76160380D01*
X191793714Y-76160380D01*
X191698476Y-76208000D01*
X191650857Y-76255619D01*
X191603238Y-76350857D01*
X191603238Y-76493714D01*
X191650857Y-76588952D01*
X191698476Y-76636571D01*
X191793714Y-76684190D01*
X192174666Y-76684190D01*
X191222285Y-76874666D02*
X190746095Y-76874666D01*
X191317523Y-77160380D02*
X190984190Y-76160380D01*
X190650857Y-77160380D01*
X190127047Y-76160380D02*
X190031809Y-76160380D01*
X189936571Y-76208000D01*
X189888952Y-76255619D01*
X189841333Y-76350857D01*
X189793714Y-76541333D01*
X189793714Y-76779428D01*
X189841333Y-76969904D01*
X189888952Y-77065142D01*
X189936571Y-77112761D01*
X190031809Y-77160380D01*
X190127047Y-77160380D01*
X190222285Y-77112761D01*
X190269904Y-77065142D01*
X190317523Y-76969904D01*
X190365142Y-76779428D01*
X190365142Y-76541333D01*
X190317523Y-76350857D01*
X190269904Y-76255619D01*
X190222285Y-76208000D01*
X190127047Y-76160380D01*
X191769904Y-73668000D02*
X191865142Y-73620380D01*
X192008000Y-73620380D01*
X192150857Y-73668000D01*
X192246095Y-73763238D01*
X192293714Y-73858476D01*
X192341333Y-74048952D01*
X192341333Y-74191809D01*
X192293714Y-74382285D01*
X192246095Y-74477523D01*
X192150857Y-74572761D01*
X192008000Y-74620380D01*
X191912761Y-74620380D01*
X191769904Y-74572761D01*
X191722285Y-74525142D01*
X191722285Y-74191809D01*
X191912761Y-74191809D01*
X191293714Y-74620380D02*
X191293714Y-73620380D01*
X190722285Y-74620380D01*
X190722285Y-73620380D01*
X190246095Y-74620380D02*
X190246095Y-73620380D01*
X190008000Y-73620380D01*
X189865142Y-73668000D01*
X189769904Y-73763238D01*
X189722285Y-73858476D01*
X189674666Y-74048952D01*
X189674666Y-74191809D01*
X189722285Y-74382285D01*
X189769904Y-74477523D01*
X189865142Y-74572761D01*
X190008000Y-74620380D01*
X190246095Y-74620380D01*
X192801714Y-71699428D02*
X192039809Y-71699428D01*
X192420761Y-72080380D02*
X192420761Y-71318476D01*
X191087428Y-71080380D02*
X191563619Y-71080380D01*
X191611238Y-71556571D01*
X191563619Y-71508952D01*
X191468380Y-71461333D01*
X191230285Y-71461333D01*
X191135047Y-71508952D01*
X191087428Y-71556571D01*
X191039809Y-71651809D01*
X191039809Y-71889904D01*
X191087428Y-71985142D01*
X191135047Y-72032761D01*
X191230285Y-72080380D01*
X191468380Y-72080380D01*
X191563619Y-72032761D01*
X191611238Y-71985142D01*
X190754095Y-71080380D02*
X190420761Y-72080380D01*
X190087428Y-71080380D01*
X192317523Y-69540380D02*
X192317523Y-68540380D01*
X191746095Y-69540380D01*
X191746095Y-68540380D01*
X190555619Y-68492761D02*
X191412761Y-69778476D01*
X189650857Y-69445142D02*
X189698476Y-69492761D01*
X189841333Y-69540380D01*
X189936571Y-69540380D01*
X190079428Y-69492761D01*
X190174666Y-69397523D01*
X190222285Y-69302285D01*
X190269904Y-69111809D01*
X190269904Y-68968952D01*
X190222285Y-68778476D01*
X190174666Y-68683238D01*
X190079428Y-68588000D01*
X189936571Y-68540380D01*
X189841333Y-68540380D01*
X189698476Y-68588000D01*
X189650857Y-68635619D01*
X194024000Y-66619428D02*
X193262095Y-66619428D01*
X193643047Y-67000380D02*
X193643047Y-66238476D01*
X192881142Y-66000380D02*
X192262095Y-66000380D01*
X192595428Y-66381333D01*
X192452571Y-66381333D01*
X192357333Y-66428952D01*
X192309714Y-66476571D01*
X192262095Y-66571809D01*
X192262095Y-66809904D01*
X192309714Y-66905142D01*
X192357333Y-66952761D01*
X192452571Y-67000380D01*
X192738285Y-67000380D01*
X192833523Y-66952761D01*
X192881142Y-66905142D01*
X191785904Y-66952761D02*
X191785904Y-67000380D01*
X191833523Y-67095619D01*
X191881142Y-67143238D01*
X191452571Y-66000380D02*
X190833523Y-66000380D01*
X191166857Y-66381333D01*
X191024000Y-66381333D01*
X190928761Y-66428952D01*
X190881142Y-66476571D01*
X190833523Y-66571809D01*
X190833523Y-66809904D01*
X190881142Y-66905142D01*
X190928761Y-66952761D01*
X191024000Y-67000380D01*
X191309714Y-67000380D01*
X191404952Y-66952761D01*
X191452571Y-66905142D01*
X190547809Y-66000380D02*
X190214476Y-67000380D01*
X189881142Y-66000380D01*
X213074095Y-135580380D02*
X213074095Y-134580380D01*
X212693142Y-134580380D01*
X212597904Y-134628000D01*
X212550285Y-134675619D01*
X212502666Y-134770857D01*
X212502666Y-134913714D01*
X212550285Y-135008952D01*
X212597904Y-135056571D01*
X212693142Y-135104190D01*
X213074095Y-135104190D01*
X212074095Y-135580380D02*
X212074095Y-134580380D01*
X211836000Y-134580380D01*
X211693142Y-134628000D01*
X211597904Y-134723238D01*
X211550285Y-134818476D01*
X211502666Y-135008952D01*
X211502666Y-135151809D01*
X211550285Y-135342285D01*
X211597904Y-135437523D01*
X211693142Y-135532761D01*
X211836000Y-135580380D01*
X212074095Y-135580380D01*
X210883619Y-134580380D02*
X210788380Y-134580380D01*
X210693142Y-134628000D01*
X210645523Y-134675619D01*
X210597904Y-134770857D01*
X210550285Y-134961333D01*
X210550285Y-135199428D01*
X210597904Y-135389904D01*
X210645523Y-135485142D01*
X210693142Y-135532761D01*
X210788380Y-135580380D01*
X210883619Y-135580380D01*
X210978857Y-135532761D01*
X211026476Y-135485142D01*
X211074095Y-135389904D01*
X211121714Y-135199428D01*
X211121714Y-134961333D01*
X211074095Y-134770857D01*
X211026476Y-134675619D01*
X210978857Y-134628000D01*
X210883619Y-134580380D01*
X213074095Y-133040380D02*
X213074095Y-132040380D01*
X212693142Y-132040380D01*
X212597904Y-132088000D01*
X212550285Y-132135619D01*
X212502666Y-132230857D01*
X212502666Y-132373714D01*
X212550285Y-132468952D01*
X212597904Y-132516571D01*
X212693142Y-132564190D01*
X213074095Y-132564190D01*
X212074095Y-133040380D02*
X212074095Y-132040380D01*
X211836000Y-132040380D01*
X211693142Y-132088000D01*
X211597904Y-132183238D01*
X211550285Y-132278476D01*
X211502666Y-132468952D01*
X211502666Y-132611809D01*
X211550285Y-132802285D01*
X211597904Y-132897523D01*
X211693142Y-132992761D01*
X211836000Y-133040380D01*
X212074095Y-133040380D01*
X210550285Y-133040380D02*
X211121714Y-133040380D01*
X210836000Y-133040380D02*
X210836000Y-132040380D01*
X210931238Y-132183238D01*
X211026476Y-132278476D01*
X211121714Y-132326095D01*
X213074095Y-130500380D02*
X213074095Y-129500380D01*
X212693142Y-129500380D01*
X212597904Y-129548000D01*
X212550285Y-129595619D01*
X212502666Y-129690857D01*
X212502666Y-129833714D01*
X212550285Y-129928952D01*
X212597904Y-129976571D01*
X212693142Y-130024190D01*
X213074095Y-130024190D01*
X212074095Y-130500380D02*
X212074095Y-129500380D01*
X211836000Y-129500380D01*
X211693142Y-129548000D01*
X211597904Y-129643238D01*
X211550285Y-129738476D01*
X211502666Y-129928952D01*
X211502666Y-130071809D01*
X211550285Y-130262285D01*
X211597904Y-130357523D01*
X211693142Y-130452761D01*
X211836000Y-130500380D01*
X212074095Y-130500380D01*
X211121714Y-129595619D02*
X211074095Y-129548000D01*
X210978857Y-129500380D01*
X210740761Y-129500380D01*
X210645523Y-129548000D01*
X210597904Y-129595619D01*
X210550285Y-129690857D01*
X210550285Y-129786095D01*
X210597904Y-129928952D01*
X211169333Y-130500380D01*
X210550285Y-130500380D01*
X213074095Y-127960380D02*
X213074095Y-126960380D01*
X212693142Y-126960380D01*
X212597904Y-127008000D01*
X212550285Y-127055619D01*
X212502666Y-127150857D01*
X212502666Y-127293714D01*
X212550285Y-127388952D01*
X212597904Y-127436571D01*
X212693142Y-127484190D01*
X213074095Y-127484190D01*
X212074095Y-127960380D02*
X212074095Y-126960380D01*
X211836000Y-126960380D01*
X211693142Y-127008000D01*
X211597904Y-127103238D01*
X211550285Y-127198476D01*
X211502666Y-127388952D01*
X211502666Y-127531809D01*
X211550285Y-127722285D01*
X211597904Y-127817523D01*
X211693142Y-127912761D01*
X211836000Y-127960380D01*
X212074095Y-127960380D01*
X211169333Y-126960380D02*
X210550285Y-126960380D01*
X210883619Y-127341333D01*
X210740761Y-127341333D01*
X210645523Y-127388952D01*
X210597904Y-127436571D01*
X210550285Y-127531809D01*
X210550285Y-127769904D01*
X210597904Y-127865142D01*
X210645523Y-127912761D01*
X210740761Y-127960380D01*
X211026476Y-127960380D01*
X211121714Y-127912761D01*
X211169333Y-127865142D01*
X213074095Y-125420380D02*
X213074095Y-124420380D01*
X212693142Y-124420380D01*
X212597904Y-124468000D01*
X212550285Y-124515619D01*
X212502666Y-124610857D01*
X212502666Y-124753714D01*
X212550285Y-124848952D01*
X212597904Y-124896571D01*
X212693142Y-124944190D01*
X213074095Y-124944190D01*
X212074095Y-125420380D02*
X212074095Y-124420380D01*
X211836000Y-124420380D01*
X211693142Y-124468000D01*
X211597904Y-124563238D01*
X211550285Y-124658476D01*
X211502666Y-124848952D01*
X211502666Y-124991809D01*
X211550285Y-125182285D01*
X211597904Y-125277523D01*
X211693142Y-125372761D01*
X211836000Y-125420380D01*
X212074095Y-125420380D01*
X210645523Y-124753714D02*
X210645523Y-125420380D01*
X210883619Y-124372761D02*
X211121714Y-125087047D01*
X210502666Y-125087047D01*
X213074095Y-122880380D02*
X213074095Y-121880380D01*
X212693142Y-121880380D01*
X212597904Y-121928000D01*
X212550285Y-121975619D01*
X212502666Y-122070857D01*
X212502666Y-122213714D01*
X212550285Y-122308952D01*
X212597904Y-122356571D01*
X212693142Y-122404190D01*
X213074095Y-122404190D01*
X212074095Y-122880380D02*
X212074095Y-121880380D01*
X211836000Y-121880380D01*
X211693142Y-121928000D01*
X211597904Y-122023238D01*
X211550285Y-122118476D01*
X211502666Y-122308952D01*
X211502666Y-122451809D01*
X211550285Y-122642285D01*
X211597904Y-122737523D01*
X211693142Y-122832761D01*
X211836000Y-122880380D01*
X212074095Y-122880380D01*
X210597904Y-121880380D02*
X211074095Y-121880380D01*
X211121714Y-122356571D01*
X211074095Y-122308952D01*
X210978857Y-122261333D01*
X210740761Y-122261333D01*
X210645523Y-122308952D01*
X210597904Y-122356571D01*
X210550285Y-122451809D01*
X210550285Y-122689904D01*
X210597904Y-122785142D01*
X210645523Y-122832761D01*
X210740761Y-122880380D01*
X210978857Y-122880380D01*
X211074095Y-122832761D01*
X211121714Y-122785142D01*
X213074095Y-120340380D02*
X213074095Y-119340380D01*
X212693142Y-119340380D01*
X212597904Y-119388000D01*
X212550285Y-119435619D01*
X212502666Y-119530857D01*
X212502666Y-119673714D01*
X212550285Y-119768952D01*
X212597904Y-119816571D01*
X212693142Y-119864190D01*
X213074095Y-119864190D01*
X212074095Y-120340380D02*
X212074095Y-119340380D01*
X211836000Y-119340380D01*
X211693142Y-119388000D01*
X211597904Y-119483238D01*
X211550285Y-119578476D01*
X211502666Y-119768952D01*
X211502666Y-119911809D01*
X211550285Y-120102285D01*
X211597904Y-120197523D01*
X211693142Y-120292761D01*
X211836000Y-120340380D01*
X212074095Y-120340380D01*
X210645523Y-119340380D02*
X210836000Y-119340380D01*
X210931238Y-119388000D01*
X210978857Y-119435619D01*
X211074095Y-119578476D01*
X211121714Y-119768952D01*
X211121714Y-120149904D01*
X211074095Y-120245142D01*
X211026476Y-120292761D01*
X210931238Y-120340380D01*
X210740761Y-120340380D01*
X210645523Y-120292761D01*
X210597904Y-120245142D01*
X210550285Y-120149904D01*
X210550285Y-119911809D01*
X210597904Y-119816571D01*
X210645523Y-119768952D01*
X210740761Y-119721333D01*
X210931238Y-119721333D01*
X211026476Y-119768952D01*
X211074095Y-119816571D01*
X211121714Y-119911809D01*
X213074095Y-117800380D02*
X213074095Y-116800380D01*
X212693142Y-116800380D01*
X212597904Y-116848000D01*
X212550285Y-116895619D01*
X212502666Y-116990857D01*
X212502666Y-117133714D01*
X212550285Y-117228952D01*
X212597904Y-117276571D01*
X212693142Y-117324190D01*
X213074095Y-117324190D01*
X212074095Y-117800380D02*
X212074095Y-116800380D01*
X211836000Y-116800380D01*
X211693142Y-116848000D01*
X211597904Y-116943238D01*
X211550285Y-117038476D01*
X211502666Y-117228952D01*
X211502666Y-117371809D01*
X211550285Y-117562285D01*
X211597904Y-117657523D01*
X211693142Y-117752761D01*
X211836000Y-117800380D01*
X212074095Y-117800380D01*
X211169333Y-116800380D02*
X210502666Y-116800380D01*
X210931238Y-117800380D01*
X213026476Y-115260380D02*
X213026476Y-114260380D01*
X212645523Y-114260380D01*
X212550285Y-114308000D01*
X212502666Y-114355619D01*
X212455047Y-114450857D01*
X212455047Y-114593714D01*
X212502666Y-114688952D01*
X212550285Y-114736571D01*
X212645523Y-114784190D01*
X213026476Y-114784190D01*
X212026476Y-114736571D02*
X211693142Y-114736571D01*
X211550285Y-115260380D02*
X212026476Y-115260380D01*
X212026476Y-114260380D01*
X211550285Y-114260380D01*
X210931238Y-114260380D02*
X210836000Y-114260380D01*
X210740761Y-114308000D01*
X210693142Y-114355619D01*
X210645523Y-114450857D01*
X210597904Y-114641333D01*
X210597904Y-114879428D01*
X210645523Y-115069904D01*
X210693142Y-115165142D01*
X210740761Y-115212761D01*
X210836000Y-115260380D01*
X210931238Y-115260380D01*
X211026476Y-115212761D01*
X211074095Y-115165142D01*
X211121714Y-115069904D01*
X211169333Y-114879428D01*
X211169333Y-114641333D01*
X211121714Y-114450857D01*
X211074095Y-114355619D01*
X211026476Y-114308000D01*
X210931238Y-114260380D01*
X213026476Y-107640380D02*
X213026476Y-106640380D01*
X212645523Y-106640380D01*
X212550285Y-106688000D01*
X212502666Y-106735619D01*
X212455047Y-106830857D01*
X212455047Y-106973714D01*
X212502666Y-107068952D01*
X212550285Y-107116571D01*
X212645523Y-107164190D01*
X213026476Y-107164190D01*
X212026476Y-107116571D02*
X211693142Y-107116571D01*
X211550285Y-107640380D02*
X212026476Y-107640380D01*
X212026476Y-106640380D01*
X211550285Y-106640380D01*
X211216952Y-106640380D02*
X210597904Y-106640380D01*
X210931238Y-107021333D01*
X210788380Y-107021333D01*
X210693142Y-107068952D01*
X210645523Y-107116571D01*
X210597904Y-107211809D01*
X210597904Y-107449904D01*
X210645523Y-107545142D01*
X210693142Y-107592761D01*
X210788380Y-107640380D01*
X211074095Y-107640380D01*
X211169333Y-107592761D01*
X211216952Y-107545142D01*
X213026476Y-110180380D02*
X213026476Y-109180380D01*
X212645523Y-109180380D01*
X212550285Y-109228000D01*
X212502666Y-109275619D01*
X212455047Y-109370857D01*
X212455047Y-109513714D01*
X212502666Y-109608952D01*
X212550285Y-109656571D01*
X212645523Y-109704190D01*
X213026476Y-109704190D01*
X212026476Y-109656571D02*
X211693142Y-109656571D01*
X211550285Y-110180380D02*
X212026476Y-110180380D01*
X212026476Y-109180380D01*
X211550285Y-109180380D01*
X211169333Y-109275619D02*
X211121714Y-109228000D01*
X211026476Y-109180380D01*
X210788380Y-109180380D01*
X210693142Y-109228000D01*
X210645523Y-109275619D01*
X210597904Y-109370857D01*
X210597904Y-109466095D01*
X210645523Y-109608952D01*
X211216952Y-110180380D01*
X210597904Y-110180380D01*
X213026476Y-112720380D02*
X213026476Y-111720380D01*
X212645523Y-111720380D01*
X212550285Y-111768000D01*
X212502666Y-111815619D01*
X212455047Y-111910857D01*
X212455047Y-112053714D01*
X212502666Y-112148952D01*
X212550285Y-112196571D01*
X212645523Y-112244190D01*
X213026476Y-112244190D01*
X212026476Y-112196571D02*
X211693142Y-112196571D01*
X211550285Y-112720380D02*
X212026476Y-112720380D01*
X212026476Y-111720380D01*
X211550285Y-111720380D01*
X210597904Y-112720380D02*
X211169333Y-112720380D01*
X210883619Y-112720380D02*
X210883619Y-111720380D01*
X210978857Y-111863238D01*
X211074095Y-111958476D01*
X211169333Y-112006095D01*
X213026476Y-105100380D02*
X213026476Y-104100380D01*
X212645523Y-104100380D01*
X212550285Y-104148000D01*
X212502666Y-104195619D01*
X212455047Y-104290857D01*
X212455047Y-104433714D01*
X212502666Y-104528952D01*
X212550285Y-104576571D01*
X212645523Y-104624190D01*
X213026476Y-104624190D01*
X212026476Y-104576571D02*
X211693142Y-104576571D01*
X211550285Y-105100380D02*
X212026476Y-105100380D01*
X212026476Y-104100380D01*
X211550285Y-104100380D01*
X210693142Y-104433714D02*
X210693142Y-105100380D01*
X210931238Y-104052761D02*
X211169333Y-104767047D01*
X210550285Y-104767047D01*
X213026476Y-102560380D02*
X213026476Y-101560380D01*
X212645523Y-101560380D01*
X212550285Y-101608000D01*
X212502666Y-101655619D01*
X212455047Y-101750857D01*
X212455047Y-101893714D01*
X212502666Y-101988952D01*
X212550285Y-102036571D01*
X212645523Y-102084190D01*
X213026476Y-102084190D01*
X212026476Y-102036571D02*
X211693142Y-102036571D01*
X211550285Y-102560380D02*
X212026476Y-102560380D01*
X212026476Y-101560380D01*
X211550285Y-101560380D01*
X210645523Y-101560380D02*
X211121714Y-101560380D01*
X211169333Y-102036571D01*
X211121714Y-101988952D01*
X211026476Y-101941333D01*
X210788380Y-101941333D01*
X210693142Y-101988952D01*
X210645523Y-102036571D01*
X210597904Y-102131809D01*
X210597904Y-102369904D01*
X210645523Y-102465142D01*
X210693142Y-102512761D01*
X210788380Y-102560380D01*
X211026476Y-102560380D01*
X211121714Y-102512761D01*
X211169333Y-102465142D01*
X213026476Y-100020380D02*
X213026476Y-99020380D01*
X212645523Y-99020380D01*
X212550285Y-99068000D01*
X212502666Y-99115619D01*
X212455047Y-99210857D01*
X212455047Y-99353714D01*
X212502666Y-99448952D01*
X212550285Y-99496571D01*
X212645523Y-99544190D01*
X213026476Y-99544190D01*
X212026476Y-99496571D02*
X211693142Y-99496571D01*
X211550285Y-100020380D02*
X212026476Y-100020380D01*
X212026476Y-99020380D01*
X211550285Y-99020380D01*
X210693142Y-99020380D02*
X210883619Y-99020380D01*
X210978857Y-99068000D01*
X211026476Y-99115619D01*
X211121714Y-99258476D01*
X211169333Y-99448952D01*
X211169333Y-99829904D01*
X211121714Y-99925142D01*
X211074095Y-99972761D01*
X210978857Y-100020380D01*
X210788380Y-100020380D01*
X210693142Y-99972761D01*
X210645523Y-99925142D01*
X210597904Y-99829904D01*
X210597904Y-99591809D01*
X210645523Y-99496571D01*
X210693142Y-99448952D01*
X210788380Y-99401333D01*
X210978857Y-99401333D01*
X211074095Y-99448952D01*
X211121714Y-99496571D01*
X211169333Y-99591809D01*
X213026476Y-97480380D02*
X213026476Y-96480380D01*
X212645523Y-96480380D01*
X212550285Y-96528000D01*
X212502666Y-96575619D01*
X212455047Y-96670857D01*
X212455047Y-96813714D01*
X212502666Y-96908952D01*
X212550285Y-96956571D01*
X212645523Y-97004190D01*
X213026476Y-97004190D01*
X212026476Y-96956571D02*
X211693142Y-96956571D01*
X211550285Y-97480380D02*
X212026476Y-97480380D01*
X212026476Y-96480380D01*
X211550285Y-96480380D01*
X211216952Y-96480380D02*
X210550285Y-96480380D01*
X210978857Y-97480380D01*
X213002666Y-94940380D02*
X213002666Y-93940380D01*
X212621714Y-93940380D01*
X212526476Y-93988000D01*
X212478857Y-94035619D01*
X212431238Y-94130857D01*
X212431238Y-94273714D01*
X212478857Y-94368952D01*
X212526476Y-94416571D01*
X212621714Y-94464190D01*
X213002666Y-94464190D01*
X211669333Y-94416571D02*
X212002666Y-94416571D01*
X212002666Y-94940380D02*
X212002666Y-93940380D01*
X211526476Y-93940380D01*
X210955047Y-93940380D02*
X210859809Y-93940380D01*
X210764571Y-93988000D01*
X210716952Y-94035619D01*
X210669333Y-94130857D01*
X210621714Y-94321333D01*
X210621714Y-94559428D01*
X210669333Y-94749904D01*
X210716952Y-94845142D01*
X210764571Y-94892761D01*
X210859809Y-94940380D01*
X210955047Y-94940380D01*
X211050285Y-94892761D01*
X211097904Y-94845142D01*
X211145523Y-94749904D01*
X211193142Y-94559428D01*
X211193142Y-94321333D01*
X211145523Y-94130857D01*
X211097904Y-94035619D01*
X211050285Y-93988000D01*
X210955047Y-93940380D01*
X213002666Y-92400380D02*
X213002666Y-91400380D01*
X212621714Y-91400380D01*
X212526476Y-91448000D01*
X212478857Y-91495619D01*
X212431238Y-91590857D01*
X212431238Y-91733714D01*
X212478857Y-91828952D01*
X212526476Y-91876571D01*
X212621714Y-91924190D01*
X213002666Y-91924190D01*
X211669333Y-91876571D02*
X212002666Y-91876571D01*
X212002666Y-92400380D02*
X212002666Y-91400380D01*
X211526476Y-91400380D01*
X210621714Y-92400380D02*
X211193142Y-92400380D01*
X210907428Y-92400380D02*
X210907428Y-91400380D01*
X211002666Y-91543238D01*
X211097904Y-91638476D01*
X211193142Y-91686095D01*
X213002666Y-89860380D02*
X213002666Y-88860380D01*
X212621714Y-88860380D01*
X212526476Y-88908000D01*
X212478857Y-88955619D01*
X212431238Y-89050857D01*
X212431238Y-89193714D01*
X212478857Y-89288952D01*
X212526476Y-89336571D01*
X212621714Y-89384190D01*
X213002666Y-89384190D01*
X211669333Y-89336571D02*
X212002666Y-89336571D01*
X212002666Y-89860380D02*
X212002666Y-88860380D01*
X211526476Y-88860380D01*
X211193142Y-88955619D02*
X211145523Y-88908000D01*
X211050285Y-88860380D01*
X210812190Y-88860380D01*
X210716952Y-88908000D01*
X210669333Y-88955619D01*
X210621714Y-89050857D01*
X210621714Y-89146095D01*
X210669333Y-89288952D01*
X211240761Y-89860380D01*
X210621714Y-89860380D01*
X213002666Y-87320380D02*
X213002666Y-86320380D01*
X212621714Y-86320380D01*
X212526476Y-86368000D01*
X212478857Y-86415619D01*
X212431238Y-86510857D01*
X212431238Y-86653714D01*
X212478857Y-86748952D01*
X212526476Y-86796571D01*
X212621714Y-86844190D01*
X213002666Y-86844190D01*
X211669333Y-86796571D02*
X212002666Y-86796571D01*
X212002666Y-87320380D02*
X212002666Y-86320380D01*
X211526476Y-86320380D01*
X211240761Y-86320380D02*
X210621714Y-86320380D01*
X210955047Y-86701333D01*
X210812190Y-86701333D01*
X210716952Y-86748952D01*
X210669333Y-86796571D01*
X210621714Y-86891809D01*
X210621714Y-87129904D01*
X210669333Y-87225142D01*
X210716952Y-87272761D01*
X210812190Y-87320380D01*
X211097904Y-87320380D01*
X211193142Y-87272761D01*
X211240761Y-87225142D01*
X213002666Y-84780380D02*
X213002666Y-83780380D01*
X212621714Y-83780380D01*
X212526476Y-83828000D01*
X212478857Y-83875619D01*
X212431238Y-83970857D01*
X212431238Y-84113714D01*
X212478857Y-84208952D01*
X212526476Y-84256571D01*
X212621714Y-84304190D01*
X213002666Y-84304190D01*
X211669333Y-84256571D02*
X212002666Y-84256571D01*
X212002666Y-84780380D02*
X212002666Y-83780380D01*
X211526476Y-83780380D01*
X210716952Y-84113714D02*
X210716952Y-84780380D01*
X210955047Y-83732761D02*
X211193142Y-84447047D01*
X210574095Y-84447047D01*
X213002666Y-82240380D02*
X213002666Y-81240380D01*
X212621714Y-81240380D01*
X212526476Y-81288000D01*
X212478857Y-81335619D01*
X212431238Y-81430857D01*
X212431238Y-81573714D01*
X212478857Y-81668952D01*
X212526476Y-81716571D01*
X212621714Y-81764190D01*
X213002666Y-81764190D01*
X211669333Y-81716571D02*
X212002666Y-81716571D01*
X212002666Y-82240380D02*
X212002666Y-81240380D01*
X211526476Y-81240380D01*
X210669333Y-81240380D02*
X211145523Y-81240380D01*
X211193142Y-81716571D01*
X211145523Y-81668952D01*
X211050285Y-81621333D01*
X210812190Y-81621333D01*
X210716952Y-81668952D01*
X210669333Y-81716571D01*
X210621714Y-81811809D01*
X210621714Y-82049904D01*
X210669333Y-82145142D01*
X210716952Y-82192761D01*
X210812190Y-82240380D01*
X211050285Y-82240380D01*
X211145523Y-82192761D01*
X211193142Y-82145142D01*
X213002666Y-79700380D02*
X213002666Y-78700380D01*
X212621714Y-78700380D01*
X212526476Y-78748000D01*
X212478857Y-78795619D01*
X212431238Y-78890857D01*
X212431238Y-79033714D01*
X212478857Y-79128952D01*
X212526476Y-79176571D01*
X212621714Y-79224190D01*
X213002666Y-79224190D01*
X211669333Y-79176571D02*
X212002666Y-79176571D01*
X212002666Y-79700380D02*
X212002666Y-78700380D01*
X211526476Y-78700380D01*
X210716952Y-78700380D02*
X210907428Y-78700380D01*
X211002666Y-78748000D01*
X211050285Y-78795619D01*
X211145523Y-78938476D01*
X211193142Y-79128952D01*
X211193142Y-79509904D01*
X211145523Y-79605142D01*
X211097904Y-79652761D01*
X211002666Y-79700380D01*
X210812190Y-79700380D01*
X210716952Y-79652761D01*
X210669333Y-79605142D01*
X210621714Y-79509904D01*
X210621714Y-79271809D01*
X210669333Y-79176571D01*
X210716952Y-79128952D01*
X210812190Y-79081333D01*
X211002666Y-79081333D01*
X211097904Y-79128952D01*
X211145523Y-79176571D01*
X211193142Y-79271809D01*
X213002666Y-77160380D02*
X213002666Y-76160380D01*
X212621714Y-76160380D01*
X212526476Y-76208000D01*
X212478857Y-76255619D01*
X212431238Y-76350857D01*
X212431238Y-76493714D01*
X212478857Y-76588952D01*
X212526476Y-76636571D01*
X212621714Y-76684190D01*
X213002666Y-76684190D01*
X211669333Y-76636571D02*
X212002666Y-76636571D01*
X212002666Y-77160380D02*
X212002666Y-76160380D01*
X211526476Y-76160380D01*
X211240761Y-76160380D02*
X210574095Y-76160380D01*
X211002666Y-77160380D01*
X213081714Y-74620380D02*
X213081714Y-73620380D01*
X212700761Y-73620380D01*
X212605523Y-73668000D01*
X212557904Y-73715619D01*
X212510285Y-73810857D01*
X212510285Y-73953714D01*
X212557904Y-74048952D01*
X212605523Y-74096571D01*
X212700761Y-74144190D01*
X213081714Y-74144190D01*
X211510285Y-74620380D02*
X211843619Y-74144190D01*
X212081714Y-74620380D02*
X212081714Y-73620380D01*
X211700761Y-73620380D01*
X211605523Y-73668000D01*
X211557904Y-73715619D01*
X211510285Y-73810857D01*
X211510285Y-73953714D01*
X211557904Y-74048952D01*
X211605523Y-74096571D01*
X211700761Y-74144190D01*
X212081714Y-74144190D01*
X210557904Y-74620380D02*
X211129333Y-74620380D01*
X210843619Y-74620380D02*
X210843619Y-73620380D01*
X210938857Y-73763238D01*
X211034095Y-73858476D01*
X211129333Y-73906095D01*
X209462666Y-73620380D02*
X208796000Y-74620380D01*
X208796000Y-73620380D02*
X209462666Y-74620380D01*
X208557904Y-73620380D02*
X207986476Y-73620380D01*
X208272190Y-74620380D02*
X208272190Y-73620380D01*
X207700761Y-74334666D02*
X207224571Y-74334666D01*
X207796000Y-74620380D02*
X207462666Y-73620380D01*
X207129333Y-74620380D01*
X206319809Y-74620380D02*
X206796000Y-74620380D01*
X206796000Y-73620380D01*
X205462666Y-74620380D02*
X206034095Y-74620380D01*
X205748380Y-74620380D02*
X205748380Y-73620380D01*
X205843619Y-73763238D01*
X205938857Y-73858476D01*
X206034095Y-73906095D01*
X213081714Y-72080380D02*
X213081714Y-71080380D01*
X212700761Y-71080380D01*
X212605523Y-71128000D01*
X212557904Y-71175619D01*
X212510285Y-71270857D01*
X212510285Y-71413714D01*
X212557904Y-71508952D01*
X212605523Y-71556571D01*
X212700761Y-71604190D01*
X213081714Y-71604190D01*
X211510285Y-72080380D02*
X211843619Y-71604190D01*
X212081714Y-72080380D02*
X212081714Y-71080380D01*
X211700761Y-71080380D01*
X211605523Y-71128000D01*
X211557904Y-71175619D01*
X211510285Y-71270857D01*
X211510285Y-71413714D01*
X211557904Y-71508952D01*
X211605523Y-71556571D01*
X211700761Y-71604190D01*
X212081714Y-71604190D01*
X210891238Y-71080380D02*
X210796000Y-71080380D01*
X210700761Y-71128000D01*
X210653142Y-71175619D01*
X210605523Y-71270857D01*
X210557904Y-71461333D01*
X210557904Y-71699428D01*
X210605523Y-71889904D01*
X210653142Y-71985142D01*
X210700761Y-72032761D01*
X210796000Y-72080380D01*
X210891238Y-72080380D01*
X210986476Y-72032761D01*
X211034095Y-71985142D01*
X211081714Y-71889904D01*
X211129333Y-71699428D01*
X211129333Y-71461333D01*
X211081714Y-71270857D01*
X211034095Y-71175619D01*
X210986476Y-71128000D01*
X210891238Y-71080380D01*
X209462666Y-71080380D02*
X208796000Y-72080380D01*
X208796000Y-71080380D02*
X209462666Y-72080380D01*
X208557904Y-71080380D02*
X207986476Y-71080380D01*
X208272190Y-72080380D02*
X208272190Y-71080380D01*
X207700761Y-71794666D02*
X207224571Y-71794666D01*
X207796000Y-72080380D02*
X207462666Y-71080380D01*
X207129333Y-72080380D01*
X206319809Y-72080380D02*
X206796000Y-72080380D01*
X206796000Y-71080380D01*
X206034095Y-71175619D02*
X205986476Y-71128000D01*
X205891238Y-71080380D01*
X205653142Y-71080380D01*
X205557904Y-71128000D01*
X205510285Y-71175619D01*
X205462666Y-71270857D01*
X205462666Y-71366095D01*
X205510285Y-71508952D01*
X206081714Y-72080380D01*
X205462666Y-72080380D01*
X212923047Y-69540380D02*
X212923047Y-68540380D01*
X212542095Y-68540380D01*
X212446857Y-68588000D01*
X212399238Y-68635619D01*
X212351619Y-68730857D01*
X212351619Y-68873714D01*
X212399238Y-68968952D01*
X212446857Y-69016571D01*
X212542095Y-69064190D01*
X212923047Y-69064190D01*
X211923047Y-69540380D02*
X211923047Y-68540380D01*
X211684952Y-68540380D01*
X211542095Y-68588000D01*
X211446857Y-68683238D01*
X211399238Y-68778476D01*
X211351619Y-68968952D01*
X211351619Y-69111809D01*
X211399238Y-69302285D01*
X211446857Y-69397523D01*
X211542095Y-69492761D01*
X211684952Y-69540380D01*
X211923047Y-69540380D01*
X210923047Y-69540380D02*
X210923047Y-68540380D01*
X209684952Y-69540380D02*
X209684952Y-68540380D01*
X209446857Y-68540380D01*
X209304000Y-68588000D01*
X209208761Y-68683238D01*
X209161142Y-68778476D01*
X209113523Y-68968952D01*
X209113523Y-69111809D01*
X209161142Y-69302285D01*
X209208761Y-69397523D01*
X209304000Y-69492761D01*
X209446857Y-69540380D01*
X209684952Y-69540380D01*
X208732571Y-69254666D02*
X208256380Y-69254666D01*
X208827809Y-69540380D02*
X208494476Y-68540380D01*
X208161142Y-69540380D01*
X207970666Y-68540380D02*
X207399238Y-68540380D01*
X207684952Y-69540380D02*
X207684952Y-68540380D01*
X207113523Y-69254666D02*
X206637333Y-69254666D01*
X207208761Y-69540380D02*
X206875428Y-68540380D01*
X206542095Y-69540380D01*
X212272380Y-67000380D02*
X212605714Y-66524190D01*
X212843809Y-67000380D02*
X212843809Y-66000380D01*
X212462857Y-66000380D01*
X212367619Y-66048000D01*
X212320000Y-66095619D01*
X212272380Y-66190857D01*
X212272380Y-66333714D01*
X212320000Y-66428952D01*
X212367619Y-66476571D01*
X212462857Y-66524190D01*
X212843809Y-66524190D01*
X211843809Y-66476571D02*
X211510476Y-66476571D01*
X211367619Y-67000380D02*
X211843809Y-67000380D01*
X211843809Y-66000380D01*
X211367619Y-66000380D01*
X210986666Y-66952761D02*
X210843809Y-67000380D01*
X210605714Y-67000380D01*
X210510476Y-66952761D01*
X210462857Y-66905142D01*
X210415238Y-66809904D01*
X210415238Y-66714666D01*
X210462857Y-66619428D01*
X210510476Y-66571809D01*
X210605714Y-66524190D01*
X210796190Y-66476571D01*
X210891428Y-66428952D01*
X210939047Y-66381333D01*
X210986666Y-66286095D01*
X210986666Y-66190857D01*
X210939047Y-66095619D01*
X210891428Y-66048000D01*
X210796190Y-66000380D01*
X210558095Y-66000380D01*
X210415238Y-66048000D01*
X209986666Y-66476571D02*
X209653333Y-66476571D01*
X209510476Y-67000380D02*
X209986666Y-67000380D01*
X209986666Y-66000380D01*
X209510476Y-66000380D01*
X209224761Y-66000380D02*
X208653333Y-66000380D01*
X208939047Y-67000380D02*
X208939047Y-66000380D01*
D11*
X196343748Y-90905000D02*
X196866252Y-90905000D01*
X196343748Y-89435000D02*
X196866252Y-89435000D01*
X201946252Y-89435000D02*
X201423748Y-89435000D01*
X201946252Y-90905000D02*
X201423748Y-90905000D01*
X205459000Y-99330252D02*
X205459000Y-98807748D01*
X203989000Y-99330252D02*
X203989000Y-98807748D01*
X209523000Y-109989252D02*
X209523000Y-109466748D01*
X208053000Y-109989252D02*
X208053000Y-109466748D01*
X201928252Y-113565000D02*
X201405748Y-113565000D01*
X201928252Y-115035000D02*
X201405748Y-115035000D01*
X198347000Y-105916252D02*
X198347000Y-105393748D01*
X196877000Y-105916252D02*
X196877000Y-105393748D01*
D12*
G36*
X200908111Y-120654031D02*
G01*
X200905160Y-120658076D01*
X200902686Y-120662784D01*
X200900647Y-120669241D01*
X200899003Y-120678532D01*
X200897710Y-120691741D01*
X200896725Y-120709954D01*
X200896008Y-120734254D01*
X200895516Y-120765727D01*
X200895206Y-120805457D01*
X200895037Y-120854530D01*
X200894966Y-120914030D01*
X200894951Y-120985041D01*
X200894950Y-120992445D01*
X200894950Y-121314128D01*
X200782238Y-121335283D01*
X200683310Y-121355352D01*
X200578013Y-121379440D01*
X200469589Y-121406667D01*
X200361284Y-121436156D01*
X200256341Y-121467028D01*
X200158005Y-121498405D01*
X200080975Y-121525201D01*
X200013124Y-121549915D01*
X199859329Y-121282520D01*
X199828269Y-121228722D01*
X199798696Y-121177896D01*
X199771293Y-121131186D01*
X199746742Y-121089738D01*
X199725727Y-121054698D01*
X199708931Y-121027212D01*
X199697035Y-121008425D01*
X199690722Y-120999483D01*
X199690607Y-120999358D01*
X199686039Y-120994461D01*
X199681661Y-120990248D01*
X199676866Y-120987024D01*
X199671048Y-120985095D01*
X199663603Y-120984766D01*
X199653923Y-120986343D01*
X199641405Y-120990130D01*
X199625441Y-120996435D01*
X199605427Y-121005561D01*
X199580757Y-121017815D01*
X199550824Y-121033502D01*
X199515025Y-121052928D01*
X199472752Y-121076398D01*
X199423401Y-121104218D01*
X199366365Y-121136692D01*
X199301040Y-121174127D01*
X199226819Y-121216829D01*
X199143097Y-121265102D01*
X199049268Y-121319252D01*
X198999475Y-121347991D01*
X198916917Y-121395709D01*
X198837267Y-121441885D01*
X198761238Y-121486096D01*
X198689541Y-121527925D01*
X198622891Y-121566949D01*
X198561997Y-121602750D01*
X198507572Y-121634908D01*
X198460329Y-121663002D01*
X198420979Y-121686612D01*
X198390235Y-121705318D01*
X198368809Y-121718700D01*
X198357412Y-121726339D01*
X198355856Y-121727651D01*
X198345187Y-121744071D01*
X198343479Y-121762550D01*
X198344016Y-121767159D01*
X198347782Y-121777822D01*
X198357523Y-121798273D01*
X198373306Y-121828635D01*
X198395201Y-121869029D01*
X198423276Y-121919580D01*
X198457600Y-121980409D01*
X198498241Y-122051639D01*
X198545268Y-122133394D01*
X198598749Y-122225795D01*
X198644784Y-122304984D01*
X198660045Y-122331193D01*
X198575760Y-122403054D01*
X198542457Y-122432428D01*
X198502182Y-122469551D01*
X198456548Y-122512808D01*
X198407166Y-122560588D01*
X198355649Y-122611279D01*
X198303610Y-122663268D01*
X198252661Y-122714943D01*
X198204414Y-122764691D01*
X198160481Y-122810900D01*
X198122476Y-122851959D01*
X198092009Y-122886254D01*
X198088705Y-122890109D01*
X198016844Y-122974394D01*
X197990635Y-122959139D01*
X197892134Y-122901915D01*
X197804267Y-122851101D01*
X197726785Y-122806556D01*
X197659439Y-122768143D01*
X197601981Y-122735721D01*
X197554162Y-122709153D01*
X197515735Y-122688299D01*
X197486450Y-122673021D01*
X197466059Y-122663179D01*
X197454314Y-122658634D01*
X197452810Y-122658323D01*
X197432992Y-122658554D01*
X197416753Y-122667312D01*
X197413367Y-122670205D01*
X197408037Y-122677586D01*
X197396797Y-122695265D01*
X197380067Y-122722531D01*
X197358269Y-122758672D01*
X197331822Y-122802976D01*
X197301146Y-122854732D01*
X197266662Y-122913227D01*
X197228789Y-122977749D01*
X197187949Y-123047588D01*
X197144561Y-123122031D01*
X197099046Y-123200367D01*
X197051824Y-123281883D01*
X197033358Y-123313825D01*
X196976081Y-123412943D01*
X196924834Y-123501656D01*
X196879314Y-123580568D01*
X196839218Y-123650284D01*
X196804243Y-123711407D01*
X196774087Y-123764541D01*
X196748446Y-123810290D01*
X196727018Y-123849257D01*
X196709500Y-123882048D01*
X196695589Y-123909266D01*
X196684983Y-123931514D01*
X196677378Y-123949397D01*
X196672472Y-123963519D01*
X196669962Y-123974483D01*
X196669545Y-123982894D01*
X196670919Y-123989355D01*
X196673781Y-123994471D01*
X196677827Y-123998845D01*
X196682755Y-124003082D01*
X196686297Y-124006055D01*
X196694832Y-124011865D01*
X196713242Y-124023311D01*
X196740383Y-124039714D01*
X196775111Y-124060397D01*
X196816281Y-124084682D01*
X196862749Y-124111892D01*
X196913370Y-124141347D01*
X196967001Y-124172371D01*
X196968864Y-124173445D01*
X197235772Y-124327365D01*
X197214020Y-124385745D01*
X197188041Y-124459357D01*
X197161088Y-124542865D01*
X197133894Y-124633578D01*
X197107190Y-124728806D01*
X197081707Y-124825859D01*
X197058177Y-124922048D01*
X197037330Y-125014682D01*
X197020746Y-125096587D01*
X196999383Y-125209300D01*
X196349272Y-125209300D01*
X196336111Y-125226031D01*
X196334121Y-125228682D01*
X196332342Y-125231754D01*
X196330762Y-125235939D01*
X196329371Y-125241927D01*
X196328155Y-125250409D01*
X196327104Y-125262075D01*
X196326204Y-125277617D01*
X196325445Y-125297725D01*
X196324814Y-125323090D01*
X196324300Y-125354402D01*
X196323890Y-125392352D01*
X196323573Y-125437632D01*
X196323337Y-125490931D01*
X196323169Y-125552940D01*
X196323059Y-125624351D01*
X196322994Y-125705854D01*
X196322962Y-125798139D01*
X196322952Y-125901898D01*
X196322950Y-125990745D01*
X196322950Y-126738728D01*
X196339682Y-126751889D01*
X196343728Y-126754841D01*
X196348438Y-126757316D01*
X196354897Y-126759354D01*
X196364191Y-126760999D01*
X196377405Y-126762292D01*
X196395623Y-126763276D01*
X196419931Y-126763993D01*
X196451414Y-126764485D01*
X196491158Y-126764795D01*
X196540247Y-126764964D01*
X196599767Y-126765034D01*
X196670802Y-126765049D01*
X196677898Y-126765049D01*
X196999383Y-126765050D01*
X197020746Y-126877762D01*
X197041231Y-126978041D01*
X197065631Y-127084280D01*
X197093079Y-127193288D01*
X197122711Y-127301873D01*
X197153661Y-127406843D01*
X197185065Y-127505008D01*
X197210886Y-127579119D01*
X197235634Y-127647063D01*
X196968795Y-127800944D01*
X196915056Y-127832028D01*
X196864264Y-127861588D01*
X196817565Y-127888945D01*
X196776110Y-127913415D01*
X196741046Y-127934319D01*
X196713522Y-127950975D01*
X196694687Y-127962702D01*
X196685688Y-127968819D01*
X196685582Y-127968909D01*
X196680440Y-127973258D01*
X196676002Y-127977431D01*
X196672570Y-127982033D01*
X196670448Y-127987666D01*
X196669941Y-127994934D01*
X196671351Y-128004441D01*
X196674983Y-128016790D01*
X196681141Y-128032584D01*
X196690127Y-128052427D01*
X196702246Y-128076922D01*
X196717802Y-128106673D01*
X196737098Y-128142283D01*
X196760439Y-128184356D01*
X196788127Y-128233494D01*
X196820467Y-128290302D01*
X196857763Y-128355383D01*
X196900317Y-128429341D01*
X196948435Y-128512778D01*
X197002419Y-128606298D01*
X197033724Y-128660525D01*
X197081451Y-128743081D01*
X197127633Y-128822728D01*
X197171850Y-128898755D01*
X197213682Y-128970449D01*
X197252709Y-129037098D01*
X197288511Y-129097991D01*
X197320668Y-129152415D01*
X197348759Y-129199659D01*
X197372366Y-129239009D01*
X197391067Y-129269755D01*
X197404444Y-129291185D01*
X197412075Y-129302586D01*
X197413385Y-129304144D01*
X197429767Y-129314822D01*
X197448271Y-129316544D01*
X197452810Y-129316021D01*
X197464031Y-129311979D01*
X197485560Y-129301658D01*
X197516844Y-129285360D01*
X197557329Y-129263387D01*
X197606460Y-129236041D01*
X197663684Y-129203623D01*
X197728446Y-129166436D01*
X197745350Y-129156661D01*
X198015225Y-129000393D01*
X198034275Y-129021443D01*
X198044391Y-129032742D01*
X198061240Y-129051696D01*
X198083160Y-129076431D01*
X198108491Y-129105072D01*
X198135571Y-129135744D01*
X198137585Y-129138027D01*
X198177216Y-129181731D01*
X198224298Y-129231622D01*
X198276761Y-129285654D01*
X198332533Y-129341778D01*
X198389544Y-129397948D01*
X198445722Y-129452117D01*
X198498998Y-129502235D01*
X198547301Y-129546257D01*
X198575658Y-129571157D01*
X198659791Y-129643589D01*
X198644657Y-129669582D01*
X198586205Y-129770185D01*
X198534256Y-129860053D01*
X198488735Y-129939316D01*
X198449569Y-130008104D01*
X198416688Y-130066548D01*
X198390016Y-130114777D01*
X198369481Y-130152923D01*
X198355011Y-130181115D01*
X198346533Y-130199484D01*
X198344016Y-130207190D01*
X198344195Y-130226962D01*
X198352869Y-130243157D01*
X198355856Y-130246663D01*
X198363237Y-130251997D01*
X198380917Y-130263240D01*
X198408184Y-130279972D01*
X198444327Y-130301771D01*
X198488632Y-130328219D01*
X198540389Y-130358895D01*
X198598886Y-130393378D01*
X198663411Y-130431249D01*
X198733252Y-130472087D01*
X198807697Y-130515471D01*
X198886035Y-130560983D01*
X198967554Y-130608200D01*
X198999475Y-130626652D01*
X199098448Y-130683836D01*
X199187017Y-130734992D01*
X199265790Y-130780425D01*
X199335372Y-130820439D01*
X199396369Y-130855339D01*
X199449388Y-130885430D01*
X199495035Y-130911015D01*
X199533915Y-130932400D01*
X199566635Y-130949889D01*
X199593800Y-130963787D01*
X199616017Y-130974398D01*
X199633892Y-130982026D01*
X199648030Y-130986977D01*
X199659039Y-130989555D01*
X199667523Y-130990064D01*
X199674089Y-130988809D01*
X199679342Y-130986095D01*
X199683890Y-130982225D01*
X199688338Y-130977505D01*
X199691289Y-130974309D01*
X199697246Y-130965888D01*
X199708817Y-130947577D01*
X199725322Y-130920518D01*
X199746083Y-130885854D01*
X199770420Y-130844726D01*
X199797654Y-130798275D01*
X199827106Y-130747644D01*
X199858096Y-130693974D01*
X199859329Y-130691829D01*
X200013124Y-130424434D01*
X200080975Y-130449087D01*
X200179045Y-130482899D01*
X200285507Y-130516332D01*
X200397157Y-130548543D01*
X200510796Y-130578689D01*
X200623220Y-130605928D01*
X200731230Y-130629417D01*
X200831623Y-130648313D01*
X200848913Y-130651207D01*
X200894950Y-130658747D01*
X200894950Y-131310728D01*
X200911682Y-131323889D01*
X200914333Y-131325879D01*
X200917405Y-131327658D01*
X200921590Y-131329238D01*
X200927578Y-131330629D01*
X200936060Y-131331845D01*
X200947726Y-131332896D01*
X200963268Y-131333796D01*
X200983376Y-131334555D01*
X201008741Y-131335186D01*
X201040053Y-131335700D01*
X201078003Y-131336110D01*
X201123283Y-131336427D01*
X201176582Y-131336663D01*
X201238591Y-131336831D01*
X201310002Y-131336941D01*
X201391505Y-131337006D01*
X201483790Y-131337038D01*
X201587549Y-131337048D01*
X201676396Y-131337050D01*
X202424379Y-131337050D01*
X202437540Y-131320318D01*
X202440488Y-131316278D01*
X202442960Y-131311575D01*
X202444997Y-131305125D01*
X202446641Y-131295845D01*
X202447935Y-131282652D01*
X202448920Y-131264462D01*
X202449638Y-131240192D01*
X202450131Y-131208758D01*
X202450442Y-131169077D01*
X202450613Y-131120065D01*
X202450685Y-131060639D01*
X202450700Y-130989716D01*
X202450700Y-130658747D01*
X202496738Y-130651207D01*
X202592092Y-130633858D01*
X202695585Y-130611926D01*
X202804118Y-130586236D01*
X202914591Y-130557617D01*
X203023905Y-130526896D01*
X203128959Y-130494899D01*
X203226654Y-130462453D01*
X203289955Y-130439559D01*
X203332284Y-130423620D01*
X203486380Y-130690832D01*
X203517485Y-130744608D01*
X203547067Y-130795438D01*
X203574445Y-130842175D01*
X203598938Y-130883671D01*
X203619866Y-130918778D01*
X203636548Y-130946348D01*
X203648304Y-130965235D01*
X203654452Y-130974291D01*
X203654560Y-130974418D01*
X203658910Y-130979561D01*
X203663084Y-130984002D01*
X203667685Y-130987436D01*
X203673317Y-130989559D01*
X203680585Y-130990070D01*
X203690090Y-130988662D01*
X203702436Y-130985034D01*
X203718228Y-130978880D01*
X203738068Y-130969898D01*
X203762561Y-130957784D01*
X203792309Y-130942234D01*
X203827916Y-130922944D01*
X203869985Y-130899611D01*
X203919121Y-130871931D01*
X203975926Y-130839599D01*
X204041005Y-130802314D01*
X204114959Y-130759770D01*
X204198394Y-130711665D01*
X204291913Y-130657694D01*
X204346175Y-130626374D01*
X204428734Y-130578655D01*
X204508384Y-130532479D01*
X204584413Y-130488267D01*
X204656109Y-130446438D01*
X204722760Y-130407412D01*
X204783654Y-130371611D01*
X204838078Y-130339452D01*
X204885322Y-130311358D01*
X204924671Y-130287747D01*
X204955416Y-130269040D01*
X204976842Y-130255656D01*
X204988239Y-130248017D01*
X204989795Y-130246704D01*
X205000464Y-130230277D01*
X205002172Y-130211792D01*
X205001635Y-130207190D01*
X204997876Y-130196542D01*
X204988156Y-130176128D01*
X204972403Y-130145822D01*
X204950550Y-130105500D01*
X204922524Y-130055036D01*
X204888258Y-129994305D01*
X204847680Y-129923182D01*
X204800721Y-129841543D01*
X204747311Y-129749261D01*
X204700906Y-129669432D01*
X204685685Y-129643290D01*
X204776280Y-129565101D01*
X204815245Y-129530451D01*
X204860900Y-129488151D01*
X204911448Y-129439996D01*
X204965092Y-129387784D01*
X205020035Y-129333313D01*
X205074479Y-129278378D01*
X205126629Y-129224777D01*
X205174687Y-129174307D01*
X205216856Y-129128766D01*
X205250752Y-129090629D01*
X205328941Y-129000034D01*
X205355083Y-129015255D01*
X205455791Y-129073769D01*
X205545759Y-129125777D01*
X205625112Y-129171349D01*
X205693976Y-129210555D01*
X205752474Y-129243465D01*
X205800733Y-129270149D01*
X205838877Y-129290676D01*
X205867031Y-129305117D01*
X205885321Y-129313542D01*
X205892841Y-129315984D01*
X205912644Y-129315798D01*
X205928897Y-129307093D01*
X205932368Y-129304144D01*
X205937709Y-129296763D01*
X205948959Y-129279083D01*
X205965697Y-129251816D01*
X205987503Y-129215673D01*
X206013958Y-129171367D01*
X206044639Y-129119610D01*
X206079127Y-129061113D01*
X206117003Y-128996588D01*
X206157845Y-128926747D01*
X206201233Y-128852301D01*
X206246746Y-128773963D01*
X206293966Y-128692444D01*
X206312417Y-128660525D01*
X206369686Y-128561408D01*
X206420926Y-128472697D01*
X206466439Y-128393787D01*
X206506529Y-128324074D01*
X206541499Y-128262953D01*
X206571650Y-128209822D01*
X206597286Y-128164076D01*
X206618710Y-128125112D01*
X206636224Y-128092324D01*
X206650132Y-128065109D01*
X206660735Y-128042863D01*
X206668336Y-128024983D01*
X206673239Y-128010863D01*
X206675746Y-127999900D01*
X206676160Y-127991491D01*
X206674784Y-127985031D01*
X206671919Y-127979915D01*
X206667870Y-127975541D01*
X206662939Y-127971304D01*
X206659383Y-127968319D01*
X206650858Y-127962513D01*
X206632459Y-127951066D01*
X206605329Y-127934656D01*
X206570612Y-127913960D01*
X206529450Y-127889657D01*
X206482987Y-127862423D01*
X206432365Y-127832936D01*
X206378728Y-127801875D01*
X206376561Y-127800624D01*
X206109369Y-127646373D01*
X206123997Y-127607349D01*
X206158145Y-127511107D01*
X206192196Y-127405411D01*
X206225271Y-127293482D01*
X206256487Y-127178543D01*
X206284964Y-127063814D01*
X206309821Y-126952517D01*
X206327147Y-126864639D01*
X206332965Y-126832539D01*
X206337848Y-126804833D01*
X206341376Y-126783957D01*
X206343131Y-126772345D01*
X206343251Y-126770977D01*
X206349475Y-126769658D01*
X206367648Y-126768478D01*
X206397019Y-126767449D01*
X206436836Y-126766585D01*
X206486349Y-126765900D01*
X206544808Y-126765408D01*
X206611460Y-126765121D01*
X206669815Y-126765050D01*
X206996379Y-126765049D01*
X207009540Y-126748318D01*
X207011530Y-126745667D01*
X207013309Y-126742595D01*
X207014889Y-126738410D01*
X207016280Y-126732422D01*
X207017496Y-126723940D01*
X207018547Y-126712274D01*
X207019447Y-126696732D01*
X207020206Y-126676624D01*
X207020837Y-126651259D01*
X207021351Y-126619947D01*
X207021761Y-126581997D01*
X207022078Y-126536717D01*
X207022314Y-126483418D01*
X207022482Y-126421409D01*
X207022592Y-126349998D01*
X207022657Y-126268495D01*
X207022689Y-126176210D01*
X207022699Y-126072451D01*
X207022699Y-126064134D01*
X205383566Y-126064134D01*
X205373119Y-126277698D01*
X205350450Y-126490551D01*
X205315506Y-126702016D01*
X205291410Y-126815850D01*
X205237388Y-127024132D01*
X205171477Y-127228320D01*
X205093964Y-127427927D01*
X205005136Y-127622472D01*
X204905280Y-127811468D01*
X204794683Y-127994432D01*
X204673633Y-128170880D01*
X204542415Y-128340328D01*
X204401316Y-128502292D01*
X204250625Y-128656287D01*
X204139800Y-128758893D01*
X203971481Y-128900209D01*
X203797150Y-129030360D01*
X203616989Y-129149269D01*
X203431177Y-129256858D01*
X203239896Y-129353051D01*
X203043326Y-129437770D01*
X202841648Y-129510939D01*
X202635041Y-129572481D01*
X202423687Y-129622318D01*
X202207766Y-129660374D01*
X201987459Y-129686572D01*
X201958618Y-129689093D01*
X201903818Y-129692712D01*
X201839344Y-129695357D01*
X201768185Y-129697027D01*
X201693330Y-129697721D01*
X201617768Y-129697438D01*
X201544487Y-129696178D01*
X201476477Y-129693939D01*
X201416726Y-129690721D01*
X201396940Y-129689252D01*
X201175424Y-129665136D01*
X200958421Y-129629211D01*
X200746113Y-129581559D01*
X200538683Y-129522264D01*
X200336312Y-129451408D01*
X200139184Y-129369074D01*
X199947482Y-129275346D01*
X199761387Y-129170306D01*
X199581082Y-129054037D01*
X199406751Y-128926622D01*
X199238575Y-128788144D01*
X199076737Y-128638686D01*
X199070296Y-128632380D01*
X198920186Y-128476314D01*
X198780227Y-128312822D01*
X198650611Y-128142358D01*
X198531525Y-127965375D01*
X198423159Y-127782323D01*
X198325704Y-127593656D01*
X198239349Y-127399826D01*
X198164284Y-127201285D01*
X198100697Y-126998486D01*
X198048780Y-126791881D01*
X198008721Y-126581922D01*
X197980710Y-126369061D01*
X197964937Y-126153751D01*
X197961250Y-125987174D01*
X197967456Y-125771459D01*
X197985970Y-125557247D01*
X198016633Y-125345133D01*
X198059290Y-125135712D01*
X198113783Y-124929579D01*
X198179954Y-124727328D01*
X198257648Y-124529556D01*
X198346707Y-124336855D01*
X198445709Y-124152025D01*
X198559641Y-123966054D01*
X198683075Y-123788192D01*
X198815615Y-123618720D01*
X198956864Y-123457918D01*
X199106424Y-123306068D01*
X199263899Y-123163449D01*
X199428892Y-123030343D01*
X199601006Y-122907029D01*
X199779843Y-122793789D01*
X199965008Y-122690904D01*
X200156102Y-122598653D01*
X200352729Y-122517318D01*
X200554493Y-122447180D01*
X200760996Y-122388518D01*
X200971840Y-122341613D01*
X201018775Y-122332899D01*
X201228450Y-122301665D01*
X201440213Y-122282536D01*
X201653075Y-122275462D01*
X201866045Y-122280393D01*
X202078134Y-122297280D01*
X202288350Y-122326073D01*
X202495702Y-122366724D01*
X202688825Y-122416191D01*
X202895050Y-122481804D01*
X203095916Y-122558754D01*
X203291037Y-122646695D01*
X203480028Y-122745278D01*
X203662503Y-122854154D01*
X203838073Y-122972977D01*
X204006354Y-123101397D01*
X204166960Y-123239066D01*
X204319502Y-123385636D01*
X204463596Y-123540760D01*
X204598855Y-123704088D01*
X204724893Y-123875274D01*
X204841323Y-124053968D01*
X204947759Y-124239822D01*
X205043814Y-124432489D01*
X205118908Y-124606050D01*
X205192538Y-124805667D01*
X205254316Y-125009304D01*
X205304188Y-125216286D01*
X205342102Y-125425935D01*
X205368005Y-125637577D01*
X205381843Y-125850535D01*
X205383566Y-126064134D01*
X207022699Y-126064134D01*
X207022700Y-125983604D01*
X207022700Y-125235621D01*
X207005969Y-125222460D01*
X207001933Y-125219514D01*
X206997234Y-125217044D01*
X206990790Y-125215008D01*
X206981519Y-125213364D01*
X206968338Y-125212070D01*
X206950165Y-125211085D01*
X206925918Y-125210366D01*
X206894514Y-125209871D01*
X206854871Y-125209559D01*
X206805907Y-125209388D01*
X206746539Y-125209315D01*
X206675684Y-125209300D01*
X206666244Y-125209299D01*
X206594056Y-125209185D01*
X206529459Y-125208852D01*
X206473208Y-125208313D01*
X206426061Y-125207583D01*
X206388774Y-125206676D01*
X206362104Y-125205604D01*
X206346806Y-125204383D01*
X206343250Y-125203372D01*
X206342157Y-125195273D01*
X206339156Y-125177124D01*
X206334665Y-125151358D01*
X206329103Y-125120411D01*
X206327147Y-125109710D01*
X206305958Y-125003612D01*
X206280407Y-124891397D01*
X206251376Y-124776289D01*
X206219748Y-124661515D01*
X206186405Y-124550297D01*
X206152229Y-124445862D01*
X206123948Y-124366870D01*
X206109271Y-124327716D01*
X206376483Y-124173620D01*
X206430259Y-124142515D01*
X206481089Y-124112933D01*
X206527826Y-124085555D01*
X206569322Y-124061062D01*
X206604429Y-124040134D01*
X206631999Y-124023452D01*
X206650886Y-124011696D01*
X206659942Y-124005548D01*
X206660069Y-124005440D01*
X206665222Y-124001085D01*
X206669672Y-123996909D01*
X206673117Y-123992310D01*
X206675253Y-123986684D01*
X206675777Y-123979426D01*
X206674384Y-123969934D01*
X206670771Y-123957604D01*
X206664635Y-123941833D01*
X206655672Y-123922016D01*
X206643578Y-123897551D01*
X206628049Y-123867833D01*
X206608783Y-123832260D01*
X206585475Y-123790227D01*
X206557822Y-123741131D01*
X206525520Y-123684368D01*
X206488265Y-123619336D01*
X206445754Y-123545429D01*
X206397683Y-123462046D01*
X206343749Y-123368581D01*
X206312148Y-123313825D01*
X206264433Y-123231264D01*
X206218259Y-123151612D01*
X206174048Y-123075582D01*
X206132218Y-123003885D01*
X206093191Y-122937233D01*
X206057386Y-122876339D01*
X206025224Y-122821914D01*
X205997124Y-122774671D01*
X205973507Y-122735322D01*
X205954793Y-122704579D01*
X205941401Y-122683154D01*
X205933753Y-122671759D01*
X205932437Y-122670205D01*
X205915915Y-122659528D01*
X205897351Y-122657837D01*
X205892841Y-122658365D01*
X205882193Y-122662124D01*
X205861779Y-122671844D01*
X205831473Y-122687597D01*
X205791151Y-122709450D01*
X205740687Y-122737476D01*
X205679956Y-122771742D01*
X205608833Y-122812320D01*
X205527194Y-122859279D01*
X205434912Y-122912689D01*
X205355083Y-122959094D01*
X205328941Y-122974315D01*
X205250752Y-122883720D01*
X205216102Y-122844755D01*
X205173802Y-122799100D01*
X205125647Y-122748552D01*
X205073435Y-122694908D01*
X205018964Y-122639965D01*
X204964029Y-122585521D01*
X204910428Y-122533371D01*
X204859958Y-122485313D01*
X204814417Y-122443144D01*
X204776280Y-122409248D01*
X204685685Y-122331059D01*
X204700906Y-122304917D01*
X204759420Y-122204209D01*
X204811428Y-122114241D01*
X204857000Y-122034888D01*
X204896206Y-121966024D01*
X204929116Y-121907526D01*
X204955800Y-121859267D01*
X204976327Y-121821123D01*
X204990768Y-121792969D01*
X204999193Y-121774679D01*
X205001635Y-121767159D01*
X205001441Y-121747326D01*
X204992706Y-121731012D01*
X204989795Y-121727578D01*
X204982413Y-121722230D01*
X204964732Y-121710975D01*
X204937463Y-121694234D01*
X204901318Y-121672426D01*
X204857009Y-121645971D01*
X204805248Y-121615291D01*
X204746747Y-121580805D01*
X204682217Y-121542934D01*
X204612372Y-121502097D01*
X204537922Y-121458717D01*
X204459579Y-121413211D01*
X204378055Y-121366002D01*
X204346175Y-121347579D01*
X204247052Y-121290322D01*
X204158334Y-121239094D01*
X204079417Y-121193590D01*
X204009699Y-121153509D01*
X203948573Y-121118547D01*
X203895438Y-121088403D01*
X203849688Y-121062772D01*
X203810720Y-121041353D01*
X203777929Y-121023843D01*
X203750712Y-121009938D01*
X203728465Y-120999337D01*
X203710583Y-120991737D01*
X203696462Y-120986834D01*
X203685499Y-120984327D01*
X203677090Y-120983912D01*
X203670629Y-120985286D01*
X203665515Y-120988147D01*
X203661141Y-120992193D01*
X203656905Y-120997120D01*
X203653945Y-121000646D01*
X203648136Y-121009179D01*
X203636692Y-121027588D01*
X203620289Y-121054730D01*
X203599604Y-121089460D01*
X203575316Y-121130636D01*
X203548101Y-121177113D01*
X203518637Y-121227749D01*
X203487601Y-121281399D01*
X203486380Y-121283517D01*
X203332284Y-121550729D01*
X203289955Y-121534745D01*
X203201040Y-121502997D01*
X203102504Y-121471043D01*
X202997382Y-121439692D01*
X202888712Y-121409755D01*
X202779530Y-121382043D01*
X202672875Y-121357365D01*
X202571782Y-121336532D01*
X202496738Y-121323142D01*
X202450700Y-121315602D01*
X202450700Y-120663621D01*
X202433969Y-120650460D01*
X202431318Y-120648470D01*
X202428246Y-120646691D01*
X202424061Y-120645111D01*
X202418073Y-120643720D01*
X202409591Y-120642504D01*
X202397925Y-120641453D01*
X202382383Y-120640553D01*
X202362275Y-120639794D01*
X202336910Y-120639163D01*
X202305598Y-120638649D01*
X202267648Y-120638239D01*
X202222368Y-120637922D01*
X202169069Y-120637686D01*
X202107060Y-120637518D01*
X202035649Y-120637408D01*
X201954146Y-120637343D01*
X201861861Y-120637311D01*
X201758102Y-120637301D01*
X201669255Y-120637300D01*
X200921272Y-120637300D01*
X200908111Y-120654031D01*
G37*
X200908111Y-120654031D02*
X200905160Y-120658076D01*
X200902686Y-120662784D01*
X200900647Y-120669241D01*
X200899003Y-120678532D01*
X200897710Y-120691741D01*
X200896725Y-120709954D01*
X200896008Y-120734254D01*
X200895516Y-120765727D01*
X200895206Y-120805457D01*
X200895037Y-120854530D01*
X200894966Y-120914030D01*
X200894951Y-120985041D01*
X200894950Y-120992445D01*
X200894950Y-121314128D01*
X200782238Y-121335283D01*
X200683310Y-121355352D01*
X200578013Y-121379440D01*
X200469589Y-121406667D01*
X200361284Y-121436156D01*
X200256341Y-121467028D01*
X200158005Y-121498405D01*
X200080975Y-121525201D01*
X200013124Y-121549915D01*
X199859329Y-121282520D01*
X199828269Y-121228722D01*
X199798696Y-121177896D01*
X199771293Y-121131186D01*
X199746742Y-121089738D01*
X199725727Y-121054698D01*
X199708931Y-121027212D01*
X199697035Y-121008425D01*
X199690722Y-120999483D01*
X199690607Y-120999358D01*
X199686039Y-120994461D01*
X199681661Y-120990248D01*
X199676866Y-120987024D01*
X199671048Y-120985095D01*
X199663603Y-120984766D01*
X199653923Y-120986343D01*
X199641405Y-120990130D01*
X199625441Y-120996435D01*
X199605427Y-121005561D01*
X199580757Y-121017815D01*
X199550824Y-121033502D01*
X199515025Y-121052928D01*
X199472752Y-121076398D01*
X199423401Y-121104218D01*
X199366365Y-121136692D01*
X199301040Y-121174127D01*
X199226819Y-121216829D01*
X199143097Y-121265102D01*
X199049268Y-121319252D01*
X198999475Y-121347991D01*
X198916917Y-121395709D01*
X198837267Y-121441885D01*
X198761238Y-121486096D01*
X198689541Y-121527925D01*
X198622891Y-121566949D01*
X198561997Y-121602750D01*
X198507572Y-121634908D01*
X198460329Y-121663002D01*
X198420979Y-121686612D01*
X198390235Y-121705318D01*
X198368809Y-121718700D01*
X198357412Y-121726339D01*
X198355856Y-121727651D01*
X198345187Y-121744071D01*
X198343479Y-121762550D01*
X198344016Y-121767159D01*
X198347782Y-121777822D01*
X198357523Y-121798273D01*
X198373306Y-121828635D01*
X198395201Y-121869029D01*
X198423276Y-121919580D01*
X198457600Y-121980409D01*
X198498241Y-122051639D01*
X198545268Y-122133394D01*
X198598749Y-122225795D01*
X198644784Y-122304984D01*
X198660045Y-122331193D01*
X198575760Y-122403054D01*
X198542457Y-122432428D01*
X198502182Y-122469551D01*
X198456548Y-122512808D01*
X198407166Y-122560588D01*
X198355649Y-122611279D01*
X198303610Y-122663268D01*
X198252661Y-122714943D01*
X198204414Y-122764691D01*
X198160481Y-122810900D01*
X198122476Y-122851959D01*
X198092009Y-122886254D01*
X198088705Y-122890109D01*
X198016844Y-122974394D01*
X197990635Y-122959139D01*
X197892134Y-122901915D01*
X197804267Y-122851101D01*
X197726785Y-122806556D01*
X197659439Y-122768143D01*
X197601981Y-122735721D01*
X197554162Y-122709153D01*
X197515735Y-122688299D01*
X197486450Y-122673021D01*
X197466059Y-122663179D01*
X197454314Y-122658634D01*
X197452810Y-122658323D01*
X197432992Y-122658554D01*
X197416753Y-122667312D01*
X197413367Y-122670205D01*
X197408037Y-122677586D01*
X197396797Y-122695265D01*
X197380067Y-122722531D01*
X197358269Y-122758672D01*
X197331822Y-122802976D01*
X197301146Y-122854732D01*
X197266662Y-122913227D01*
X197228789Y-122977749D01*
X197187949Y-123047588D01*
X197144561Y-123122031D01*
X197099046Y-123200367D01*
X197051824Y-123281883D01*
X197033358Y-123313825D01*
X196976081Y-123412943D01*
X196924834Y-123501656D01*
X196879314Y-123580568D01*
X196839218Y-123650284D01*
X196804243Y-123711407D01*
X196774087Y-123764541D01*
X196748446Y-123810290D01*
X196727018Y-123849257D01*
X196709500Y-123882048D01*
X196695589Y-123909266D01*
X196684983Y-123931514D01*
X196677378Y-123949397D01*
X196672472Y-123963519D01*
X196669962Y-123974483D01*
X196669545Y-123982894D01*
X196670919Y-123989355D01*
X196673781Y-123994471D01*
X196677827Y-123998845D01*
X196682755Y-124003082D01*
X196686297Y-124006055D01*
X196694832Y-124011865D01*
X196713242Y-124023311D01*
X196740383Y-124039714D01*
X196775111Y-124060397D01*
X196816281Y-124084682D01*
X196862749Y-124111892D01*
X196913370Y-124141347D01*
X196967001Y-124172371D01*
X196968864Y-124173445D01*
X197235772Y-124327365D01*
X197214020Y-124385745D01*
X197188041Y-124459357D01*
X197161088Y-124542865D01*
X197133894Y-124633578D01*
X197107190Y-124728806D01*
X197081707Y-124825859D01*
X197058177Y-124922048D01*
X197037330Y-125014682D01*
X197020746Y-125096587D01*
X196999383Y-125209300D01*
X196349272Y-125209300D01*
X196336111Y-125226031D01*
X196334121Y-125228682D01*
X196332342Y-125231754D01*
X196330762Y-125235939D01*
X196329371Y-125241927D01*
X196328155Y-125250409D01*
X196327104Y-125262075D01*
X196326204Y-125277617D01*
X196325445Y-125297725D01*
X196324814Y-125323090D01*
X196324300Y-125354402D01*
X196323890Y-125392352D01*
X196323573Y-125437632D01*
X196323337Y-125490931D01*
X196323169Y-125552940D01*
X196323059Y-125624351D01*
X196322994Y-125705854D01*
X196322962Y-125798139D01*
X196322952Y-125901898D01*
X196322950Y-125990745D01*
X196322950Y-126738728D01*
X196339682Y-126751889D01*
X196343728Y-126754841D01*
X196348438Y-126757316D01*
X196354897Y-126759354D01*
X196364191Y-126760999D01*
X196377405Y-126762292D01*
X196395623Y-126763276D01*
X196419931Y-126763993D01*
X196451414Y-126764485D01*
X196491158Y-126764795D01*
X196540247Y-126764964D01*
X196599767Y-126765034D01*
X196670802Y-126765049D01*
X196677898Y-126765049D01*
X196999383Y-126765050D01*
X197020746Y-126877762D01*
X197041231Y-126978041D01*
X197065631Y-127084280D01*
X197093079Y-127193288D01*
X197122711Y-127301873D01*
X197153661Y-127406843D01*
X197185065Y-127505008D01*
X197210886Y-127579119D01*
X197235634Y-127647063D01*
X196968795Y-127800944D01*
X196915056Y-127832028D01*
X196864264Y-127861588D01*
X196817565Y-127888945D01*
X196776110Y-127913415D01*
X196741046Y-127934319D01*
X196713522Y-127950975D01*
X196694687Y-127962702D01*
X196685688Y-127968819D01*
X196685582Y-127968909D01*
X196680440Y-127973258D01*
X196676002Y-127977431D01*
X196672570Y-127982033D01*
X196670448Y-127987666D01*
X196669941Y-127994934D01*
X196671351Y-128004441D01*
X196674983Y-128016790D01*
X196681141Y-128032584D01*
X196690127Y-128052427D01*
X196702246Y-128076922D01*
X196717802Y-128106673D01*
X196737098Y-128142283D01*
X196760439Y-128184356D01*
X196788127Y-128233494D01*
X196820467Y-128290302D01*
X196857763Y-128355383D01*
X196900317Y-128429341D01*
X196948435Y-128512778D01*
X197002419Y-128606298D01*
X197033724Y-128660525D01*
X197081451Y-128743081D01*
X197127633Y-128822728D01*
X197171850Y-128898755D01*
X197213682Y-128970449D01*
X197252709Y-129037098D01*
X197288511Y-129097991D01*
X197320668Y-129152415D01*
X197348759Y-129199659D01*
X197372366Y-129239009D01*
X197391067Y-129269755D01*
X197404444Y-129291185D01*
X197412075Y-129302586D01*
X197413385Y-129304144D01*
X197429767Y-129314822D01*
X197448271Y-129316544D01*
X197452810Y-129316021D01*
X197464031Y-129311979D01*
X197485560Y-129301658D01*
X197516844Y-129285360D01*
X197557329Y-129263387D01*
X197606460Y-129236041D01*
X197663684Y-129203623D01*
X197728446Y-129166436D01*
X197745350Y-129156661D01*
X198015225Y-129000393D01*
X198034275Y-129021443D01*
X198044391Y-129032742D01*
X198061240Y-129051696D01*
X198083160Y-129076431D01*
X198108491Y-129105072D01*
X198135571Y-129135744D01*
X198137585Y-129138027D01*
X198177216Y-129181731D01*
X198224298Y-129231622D01*
X198276761Y-129285654D01*
X198332533Y-129341778D01*
X198389544Y-129397948D01*
X198445722Y-129452117D01*
X198498998Y-129502235D01*
X198547301Y-129546257D01*
X198575658Y-129571157D01*
X198659791Y-129643589D01*
X198644657Y-129669582D01*
X198586205Y-129770185D01*
X198534256Y-129860053D01*
X198488735Y-129939316D01*
X198449569Y-130008104D01*
X198416688Y-130066548D01*
X198390016Y-130114777D01*
X198369481Y-130152923D01*
X198355011Y-130181115D01*
X198346533Y-130199484D01*
X198344016Y-130207190D01*
X198344195Y-130226962D01*
X198352869Y-130243157D01*
X198355856Y-130246663D01*
X198363237Y-130251997D01*
X198380917Y-130263240D01*
X198408184Y-130279972D01*
X198444327Y-130301771D01*
X198488632Y-130328219D01*
X198540389Y-130358895D01*
X198598886Y-130393378D01*
X198663411Y-130431249D01*
X198733252Y-130472087D01*
X198807697Y-130515471D01*
X198886035Y-130560983D01*
X198967554Y-130608200D01*
X198999475Y-130626652D01*
X199098448Y-130683836D01*
X199187017Y-130734992D01*
X199265790Y-130780425D01*
X199335372Y-130820439D01*
X199396369Y-130855339D01*
X199449388Y-130885430D01*
X199495035Y-130911015D01*
X199533915Y-130932400D01*
X199566635Y-130949889D01*
X199593800Y-130963787D01*
X199616017Y-130974398D01*
X199633892Y-130982026D01*
X199648030Y-130986977D01*
X199659039Y-130989555D01*
X199667523Y-130990064D01*
X199674089Y-130988809D01*
X199679342Y-130986095D01*
X199683890Y-130982225D01*
X199688338Y-130977505D01*
X199691289Y-130974309D01*
X199697246Y-130965888D01*
X199708817Y-130947577D01*
X199725322Y-130920518D01*
X199746083Y-130885854D01*
X199770420Y-130844726D01*
X199797654Y-130798275D01*
X199827106Y-130747644D01*
X199858096Y-130693974D01*
X199859329Y-130691829D01*
X200013124Y-130424434D01*
X200080975Y-130449087D01*
X200179045Y-130482899D01*
X200285507Y-130516332D01*
X200397157Y-130548543D01*
X200510796Y-130578689D01*
X200623220Y-130605928D01*
X200731230Y-130629417D01*
X200831623Y-130648313D01*
X200848913Y-130651207D01*
X200894950Y-130658747D01*
X200894950Y-131310728D01*
X200911682Y-131323889D01*
X200914333Y-131325879D01*
X200917405Y-131327658D01*
X200921590Y-131329238D01*
X200927578Y-131330629D01*
X200936060Y-131331845D01*
X200947726Y-131332896D01*
X200963268Y-131333796D01*
X200983376Y-131334555D01*
X201008741Y-131335186D01*
X201040053Y-131335700D01*
X201078003Y-131336110D01*
X201123283Y-131336427D01*
X201176582Y-131336663D01*
X201238591Y-131336831D01*
X201310002Y-131336941D01*
X201391505Y-131337006D01*
X201483790Y-131337038D01*
X201587549Y-131337048D01*
X201676396Y-131337050D01*
X202424379Y-131337050D01*
X202437540Y-131320318D01*
X202440488Y-131316278D01*
X202442960Y-131311575D01*
X202444997Y-131305125D01*
X202446641Y-131295845D01*
X202447935Y-131282652D01*
X202448920Y-131264462D01*
X202449638Y-131240192D01*
X202450131Y-131208758D01*
X202450442Y-131169077D01*
X202450613Y-131120065D01*
X202450685Y-131060639D01*
X202450700Y-130989716D01*
X202450700Y-130658747D01*
X202496738Y-130651207D01*
X202592092Y-130633858D01*
X202695585Y-130611926D01*
X202804118Y-130586236D01*
X202914591Y-130557617D01*
X203023905Y-130526896D01*
X203128959Y-130494899D01*
X203226654Y-130462453D01*
X203289955Y-130439559D01*
X203332284Y-130423620D01*
X203486380Y-130690832D01*
X203517485Y-130744608D01*
X203547067Y-130795438D01*
X203574445Y-130842175D01*
X203598938Y-130883671D01*
X203619866Y-130918778D01*
X203636548Y-130946348D01*
X203648304Y-130965235D01*
X203654452Y-130974291D01*
X203654560Y-130974418D01*
X203658910Y-130979561D01*
X203663084Y-130984002D01*
X203667685Y-130987436D01*
X203673317Y-130989559D01*
X203680585Y-130990070D01*
X203690090Y-130988662D01*
X203702436Y-130985034D01*
X203718228Y-130978880D01*
X203738068Y-130969898D01*
X203762561Y-130957784D01*
X203792309Y-130942234D01*
X203827916Y-130922944D01*
X203869985Y-130899611D01*
X203919121Y-130871931D01*
X203975926Y-130839599D01*
X204041005Y-130802314D01*
X204114959Y-130759770D01*
X204198394Y-130711665D01*
X204291913Y-130657694D01*
X204346175Y-130626374D01*
X204428734Y-130578655D01*
X204508384Y-130532479D01*
X204584413Y-130488267D01*
X204656109Y-130446438D01*
X204722760Y-130407412D01*
X204783654Y-130371611D01*
X204838078Y-130339452D01*
X204885322Y-130311358D01*
X204924671Y-130287747D01*
X204955416Y-130269040D01*
X204976842Y-130255656D01*
X204988239Y-130248017D01*
X204989795Y-130246704D01*
X205000464Y-130230277D01*
X205002172Y-130211792D01*
X205001635Y-130207190D01*
X204997876Y-130196542D01*
X204988156Y-130176128D01*
X204972403Y-130145822D01*
X204950550Y-130105500D01*
X204922524Y-130055036D01*
X204888258Y-129994305D01*
X204847680Y-129923182D01*
X204800721Y-129841543D01*
X204747311Y-129749261D01*
X204700906Y-129669432D01*
X204685685Y-129643290D01*
X204776280Y-129565101D01*
X204815245Y-129530451D01*
X204860900Y-129488151D01*
X204911448Y-129439996D01*
X204965092Y-129387784D01*
X205020035Y-129333313D01*
X205074479Y-129278378D01*
X205126629Y-129224777D01*
X205174687Y-129174307D01*
X205216856Y-129128766D01*
X205250752Y-129090629D01*
X205328941Y-129000034D01*
X205355083Y-129015255D01*
X205455791Y-129073769D01*
X205545759Y-129125777D01*
X205625112Y-129171349D01*
X205693976Y-129210555D01*
X205752474Y-129243465D01*
X205800733Y-129270149D01*
X205838877Y-129290676D01*
X205867031Y-129305117D01*
X205885321Y-129313542D01*
X205892841Y-129315984D01*
X205912644Y-129315798D01*
X205928897Y-129307093D01*
X205932368Y-129304144D01*
X205937709Y-129296763D01*
X205948959Y-129279083D01*
X205965697Y-129251816D01*
X205987503Y-129215673D01*
X206013958Y-129171367D01*
X206044639Y-129119610D01*
X206079127Y-129061113D01*
X206117003Y-128996588D01*
X206157845Y-128926747D01*
X206201233Y-128852301D01*
X206246746Y-128773963D01*
X206293966Y-128692444D01*
X206312417Y-128660525D01*
X206369686Y-128561408D01*
X206420926Y-128472697D01*
X206466439Y-128393787D01*
X206506529Y-128324074D01*
X206541499Y-128262953D01*
X206571650Y-128209822D01*
X206597286Y-128164076D01*
X206618710Y-128125112D01*
X206636224Y-128092324D01*
X206650132Y-128065109D01*
X206660735Y-128042863D01*
X206668336Y-128024983D01*
X206673239Y-128010863D01*
X206675746Y-127999900D01*
X206676160Y-127991491D01*
X206674784Y-127985031D01*
X206671919Y-127979915D01*
X206667870Y-127975541D01*
X206662939Y-127971304D01*
X206659383Y-127968319D01*
X206650858Y-127962513D01*
X206632459Y-127951066D01*
X206605329Y-127934656D01*
X206570612Y-127913960D01*
X206529450Y-127889657D01*
X206482987Y-127862423D01*
X206432365Y-127832936D01*
X206378728Y-127801875D01*
X206376561Y-127800624D01*
X206109369Y-127646373D01*
X206123997Y-127607349D01*
X206158145Y-127511107D01*
X206192196Y-127405411D01*
X206225271Y-127293482D01*
X206256487Y-127178543D01*
X206284964Y-127063814D01*
X206309821Y-126952517D01*
X206327147Y-126864639D01*
X206332965Y-126832539D01*
X206337848Y-126804833D01*
X206341376Y-126783957D01*
X206343131Y-126772345D01*
X206343251Y-126770977D01*
X206349475Y-126769658D01*
X206367648Y-126768478D01*
X206397019Y-126767449D01*
X206436836Y-126766585D01*
X206486349Y-126765900D01*
X206544808Y-126765408D01*
X206611460Y-126765121D01*
X206669815Y-126765050D01*
X206996379Y-126765049D01*
X207009540Y-126748318D01*
X207011530Y-126745667D01*
X207013309Y-126742595D01*
X207014889Y-126738410D01*
X207016280Y-126732422D01*
X207017496Y-126723940D01*
X207018547Y-126712274D01*
X207019447Y-126696732D01*
X207020206Y-126676624D01*
X207020837Y-126651259D01*
X207021351Y-126619947D01*
X207021761Y-126581997D01*
X207022078Y-126536717D01*
X207022314Y-126483418D01*
X207022482Y-126421409D01*
X207022592Y-126349998D01*
X207022657Y-126268495D01*
X207022689Y-126176210D01*
X207022699Y-126072451D01*
X207022699Y-126064134D01*
X205383566Y-126064134D01*
X205373119Y-126277698D01*
X205350450Y-126490551D01*
X205315506Y-126702016D01*
X205291410Y-126815850D01*
X205237388Y-127024132D01*
X205171477Y-127228320D01*
X205093964Y-127427927D01*
X205005136Y-127622472D01*
X204905280Y-127811468D01*
X204794683Y-127994432D01*
X204673633Y-128170880D01*
X204542415Y-128340328D01*
X204401316Y-128502292D01*
X204250625Y-128656287D01*
X204139800Y-128758893D01*
X203971481Y-128900209D01*
X203797150Y-129030360D01*
X203616989Y-129149269D01*
X203431177Y-129256858D01*
X203239896Y-129353051D01*
X203043326Y-129437770D01*
X202841648Y-129510939D01*
X202635041Y-129572481D01*
X202423687Y-129622318D01*
X202207766Y-129660374D01*
X201987459Y-129686572D01*
X201958618Y-129689093D01*
X201903818Y-129692712D01*
X201839344Y-129695357D01*
X201768185Y-129697027D01*
X201693330Y-129697721D01*
X201617768Y-129697438D01*
X201544487Y-129696178D01*
X201476477Y-129693939D01*
X201416726Y-129690721D01*
X201396940Y-129689252D01*
X201175424Y-129665136D01*
X200958421Y-129629211D01*
X200746113Y-129581559D01*
X200538683Y-129522264D01*
X200336312Y-129451408D01*
X200139184Y-129369074D01*
X199947482Y-129275346D01*
X199761387Y-129170306D01*
X199581082Y-129054037D01*
X199406751Y-128926622D01*
X199238575Y-128788144D01*
X199076737Y-128638686D01*
X199070296Y-128632380D01*
X198920186Y-128476314D01*
X198780227Y-128312822D01*
X198650611Y-128142358D01*
X198531525Y-127965375D01*
X198423159Y-127782323D01*
X198325704Y-127593656D01*
X198239349Y-127399826D01*
X198164284Y-127201285D01*
X198100697Y-126998486D01*
X198048780Y-126791881D01*
X198008721Y-126581922D01*
X197980710Y-126369061D01*
X197964937Y-126153751D01*
X197961250Y-125987174D01*
X197967456Y-125771459D01*
X197985970Y-125557247D01*
X198016633Y-125345133D01*
X198059290Y-125135712D01*
X198113783Y-124929579D01*
X198179954Y-124727328D01*
X198257648Y-124529556D01*
X198346707Y-124336855D01*
X198445709Y-124152025D01*
X198559641Y-123966054D01*
X198683075Y-123788192D01*
X198815615Y-123618720D01*
X198956864Y-123457918D01*
X199106424Y-123306068D01*
X199263899Y-123163449D01*
X199428892Y-123030343D01*
X199601006Y-122907029D01*
X199779843Y-122793789D01*
X199965008Y-122690904D01*
X200156102Y-122598653D01*
X200352729Y-122517318D01*
X200554493Y-122447180D01*
X200760996Y-122388518D01*
X200971840Y-122341613D01*
X201018775Y-122332899D01*
X201228450Y-122301665D01*
X201440213Y-122282536D01*
X201653075Y-122275462D01*
X201866045Y-122280393D01*
X202078134Y-122297280D01*
X202288350Y-122326073D01*
X202495702Y-122366724D01*
X202688825Y-122416191D01*
X202895050Y-122481804D01*
X203095916Y-122558754D01*
X203291037Y-122646695D01*
X203480028Y-122745278D01*
X203662503Y-122854154D01*
X203838073Y-122972977D01*
X204006354Y-123101397D01*
X204166960Y-123239066D01*
X204319502Y-123385636D01*
X204463596Y-123540760D01*
X204598855Y-123704088D01*
X204724893Y-123875274D01*
X204841323Y-124053968D01*
X204947759Y-124239822D01*
X205043814Y-124432489D01*
X205118908Y-124606050D01*
X205192538Y-124805667D01*
X205254316Y-125009304D01*
X205304188Y-125216286D01*
X205342102Y-125425935D01*
X205368005Y-125637577D01*
X205381843Y-125850535D01*
X205383566Y-126064134D01*
X207022699Y-126064134D01*
X207022700Y-125983604D01*
X207022700Y-125235621D01*
X207005969Y-125222460D01*
X207001933Y-125219514D01*
X206997234Y-125217044D01*
X206990790Y-125215008D01*
X206981519Y-125213364D01*
X206968338Y-125212070D01*
X206950165Y-125211085D01*
X206925918Y-125210366D01*
X206894514Y-125209871D01*
X206854871Y-125209559D01*
X206805907Y-125209388D01*
X206746539Y-125209315D01*
X206675684Y-125209300D01*
X206666244Y-125209299D01*
X206594056Y-125209185D01*
X206529459Y-125208852D01*
X206473208Y-125208313D01*
X206426061Y-125207583D01*
X206388774Y-125206676D01*
X206362104Y-125205604D01*
X206346806Y-125204383D01*
X206343250Y-125203372D01*
X206342157Y-125195273D01*
X206339156Y-125177124D01*
X206334665Y-125151358D01*
X206329103Y-125120411D01*
X206327147Y-125109710D01*
X206305958Y-125003612D01*
X206280407Y-124891397D01*
X206251376Y-124776289D01*
X206219748Y-124661515D01*
X206186405Y-124550297D01*
X206152229Y-124445862D01*
X206123948Y-124366870D01*
X206109271Y-124327716D01*
X206376483Y-124173620D01*
X206430259Y-124142515D01*
X206481089Y-124112933D01*
X206527826Y-124085555D01*
X206569322Y-124061062D01*
X206604429Y-124040134D01*
X206631999Y-124023452D01*
X206650886Y-124011696D01*
X206659942Y-124005548D01*
X206660069Y-124005440D01*
X206665222Y-124001085D01*
X206669672Y-123996909D01*
X206673117Y-123992310D01*
X206675253Y-123986684D01*
X206675777Y-123979426D01*
X206674384Y-123969934D01*
X206670771Y-123957604D01*
X206664635Y-123941833D01*
X206655672Y-123922016D01*
X206643578Y-123897551D01*
X206628049Y-123867833D01*
X206608783Y-123832260D01*
X206585475Y-123790227D01*
X206557822Y-123741131D01*
X206525520Y-123684368D01*
X206488265Y-123619336D01*
X206445754Y-123545429D01*
X206397683Y-123462046D01*
X206343749Y-123368581D01*
X206312148Y-123313825D01*
X206264433Y-123231264D01*
X206218259Y-123151612D01*
X206174048Y-123075582D01*
X206132218Y-123003885D01*
X206093191Y-122937233D01*
X206057386Y-122876339D01*
X206025224Y-122821914D01*
X205997124Y-122774671D01*
X205973507Y-122735322D01*
X205954793Y-122704579D01*
X205941401Y-122683154D01*
X205933753Y-122671759D01*
X205932437Y-122670205D01*
X205915915Y-122659528D01*
X205897351Y-122657837D01*
X205892841Y-122658365D01*
X205882193Y-122662124D01*
X205861779Y-122671844D01*
X205831473Y-122687597D01*
X205791151Y-122709450D01*
X205740687Y-122737476D01*
X205679956Y-122771742D01*
X205608833Y-122812320D01*
X205527194Y-122859279D01*
X205434912Y-122912689D01*
X205355083Y-122959094D01*
X205328941Y-122974315D01*
X205250752Y-122883720D01*
X205216102Y-122844755D01*
X205173802Y-122799100D01*
X205125647Y-122748552D01*
X205073435Y-122694908D01*
X205018964Y-122639965D01*
X204964029Y-122585521D01*
X204910428Y-122533371D01*
X204859958Y-122485313D01*
X204814417Y-122443144D01*
X204776280Y-122409248D01*
X204685685Y-122331059D01*
X204700906Y-122304917D01*
X204759420Y-122204209D01*
X204811428Y-122114241D01*
X204857000Y-122034888D01*
X204896206Y-121966024D01*
X204929116Y-121907526D01*
X204955800Y-121859267D01*
X204976327Y-121821123D01*
X204990768Y-121792969D01*
X204999193Y-121774679D01*
X205001635Y-121767159D01*
X205001441Y-121747326D01*
X204992706Y-121731012D01*
X204989795Y-121727578D01*
X204982413Y-121722230D01*
X204964732Y-121710975D01*
X204937463Y-121694234D01*
X204901318Y-121672426D01*
X204857009Y-121645971D01*
X204805248Y-121615291D01*
X204746747Y-121580805D01*
X204682217Y-121542934D01*
X204612372Y-121502097D01*
X204537922Y-121458717D01*
X204459579Y-121413211D01*
X204378055Y-121366002D01*
X204346175Y-121347579D01*
X204247052Y-121290322D01*
X204158334Y-121239094D01*
X204079417Y-121193590D01*
X204009699Y-121153509D01*
X203948573Y-121118547D01*
X203895438Y-121088403D01*
X203849688Y-121062772D01*
X203810720Y-121041353D01*
X203777929Y-121023843D01*
X203750712Y-121009938D01*
X203728465Y-120999337D01*
X203710583Y-120991737D01*
X203696462Y-120986834D01*
X203685499Y-120984327D01*
X203677090Y-120983912D01*
X203670629Y-120985286D01*
X203665515Y-120988147D01*
X203661141Y-120992193D01*
X203656905Y-120997120D01*
X203653945Y-121000646D01*
X203648136Y-121009179D01*
X203636692Y-121027588D01*
X203620289Y-121054730D01*
X203599604Y-121089460D01*
X203575316Y-121130636D01*
X203548101Y-121177113D01*
X203518637Y-121227749D01*
X203487601Y-121281399D01*
X203486380Y-121283517D01*
X203332284Y-121550729D01*
X203289955Y-121534745D01*
X203201040Y-121502997D01*
X203102504Y-121471043D01*
X202997382Y-121439692D01*
X202888712Y-121409755D01*
X202779530Y-121382043D01*
X202672875Y-121357365D01*
X202571782Y-121336532D01*
X202496738Y-121323142D01*
X202450700Y-121315602D01*
X202450700Y-120663621D01*
X202433969Y-120650460D01*
X202431318Y-120648470D01*
X202428246Y-120646691D01*
X202424061Y-120645111D01*
X202418073Y-120643720D01*
X202409591Y-120642504D01*
X202397925Y-120641453D01*
X202382383Y-120640553D01*
X202362275Y-120639794D01*
X202336910Y-120639163D01*
X202305598Y-120638649D01*
X202267648Y-120638239D01*
X202222368Y-120637922D01*
X202169069Y-120637686D01*
X202107060Y-120637518D01*
X202035649Y-120637408D01*
X201954146Y-120637343D01*
X201861861Y-120637311D01*
X201758102Y-120637301D01*
X201669255Y-120637300D01*
X200921272Y-120637300D01*
X200908111Y-120654031D01*
G36*
X201534523Y-123157916D02*
G01*
X201526775Y-123158560D01*
X201345499Y-123180264D01*
X201166777Y-123213894D01*
X200991239Y-123259095D01*
X200819519Y-123315515D01*
X200652247Y-123382800D01*
X200490056Y-123460596D01*
X200333578Y-123548552D01*
X200183444Y-123646312D01*
X200040286Y-123753524D01*
X199904736Y-123869835D01*
X199777426Y-123994891D01*
X199658987Y-124128339D01*
X199557133Y-124259975D01*
X199464857Y-124397350D01*
X199384185Y-124537781D01*
X199315241Y-124680825D01*
X199258146Y-124826038D01*
X199213025Y-124972977D01*
X199180001Y-125121197D01*
X199159196Y-125270256D01*
X199150734Y-125419710D01*
X199154738Y-125569115D01*
X199164949Y-125672850D01*
X199189722Y-125821225D01*
X199225964Y-125971508D01*
X199273016Y-126121845D01*
X199330216Y-126270383D01*
X199396905Y-126415269D01*
X199472420Y-126554652D01*
X199489868Y-126583924D01*
X199515881Y-126626087D01*
X199541066Y-126665090D01*
X199566399Y-126702100D01*
X199592858Y-126738283D01*
X199621419Y-126774806D01*
X199653061Y-126812835D01*
X199688759Y-126853536D01*
X199729493Y-126898077D01*
X199776237Y-126947623D01*
X199829970Y-127003342D01*
X199891669Y-127066399D01*
X199907569Y-127082550D01*
X199948973Y-127124898D01*
X199989439Y-127166908D01*
X200027647Y-127207166D01*
X200062279Y-127244256D01*
X200092013Y-127276764D01*
X200115532Y-127303275D01*
X200131514Y-127322374D01*
X200132668Y-127323850D01*
X200216823Y-127441390D01*
X200294856Y-127568750D01*
X200355125Y-127682561D01*
X200388029Y-127750980D01*
X200418443Y-127818300D01*
X200447309Y-127886901D01*
X200475567Y-127959163D01*
X200504162Y-128037466D01*
X200534034Y-128124189D01*
X200554990Y-128187450D01*
X200578171Y-128258236D01*
X200597913Y-128318208D01*
X200614673Y-128368636D01*
X200628904Y-128410795D01*
X200641064Y-128445957D01*
X200651607Y-128475395D01*
X200660988Y-128500382D01*
X200669664Y-128522190D01*
X200678089Y-128542093D01*
X200686720Y-128561363D01*
X200695589Y-128580380D01*
X200752744Y-128687446D01*
X200818721Y-128785393D01*
X200893653Y-128874357D01*
X200977675Y-128954477D01*
X201070922Y-129025891D01*
X201173529Y-129088736D01*
X201210595Y-129108188D01*
X201258082Y-129129883D01*
X201313676Y-129151662D01*
X201373028Y-129172067D01*
X201431786Y-129189641D01*
X201485601Y-129202926D01*
X201504550Y-129206674D01*
X201549528Y-129212958D01*
X201601476Y-129217263D01*
X201656556Y-129219511D01*
X201710932Y-129219623D01*
X201760766Y-129217523D01*
X201802222Y-129213132D01*
X201804640Y-129212749D01*
X201923328Y-129187271D01*
X202036680Y-129150595D01*
X202144111Y-129103170D01*
X202245033Y-129045449D01*
X202338862Y-128977882D01*
X202425010Y-128900919D01*
X202502891Y-128815012D01*
X202571920Y-128720613D01*
X202631509Y-128618171D01*
X202662615Y-128552744D01*
X202673698Y-128525756D01*
X202687389Y-128489814D01*
X202702537Y-128448095D01*
X202717989Y-128403775D01*
X202732592Y-128360030D01*
X202733283Y-128357904D01*
X202765667Y-128258826D01*
X202795054Y-128170614D01*
X202821959Y-128091929D01*
X202846895Y-128021434D01*
X202870377Y-127957788D01*
X202892919Y-127899654D01*
X202915035Y-127845693D01*
X202937239Y-127794565D01*
X202960045Y-127744932D01*
X202983967Y-127695456D01*
X202999939Y-127663575D01*
X203032061Y-127601512D01*
X203062740Y-127545360D01*
X203093091Y-127493642D01*
X203124227Y-127444886D01*
X203157262Y-127397615D01*
X203193309Y-127350355D01*
X203233484Y-127301633D01*
X203278898Y-127249974D01*
X203330668Y-127193902D01*
X203389905Y-127131944D01*
X203441300Y-127079306D01*
X203504706Y-127014487D01*
X203559920Y-126957261D01*
X203607931Y-126906452D01*
X203649732Y-126860881D01*
X203686314Y-126819372D01*
X203718669Y-126780748D01*
X203747790Y-126743832D01*
X203774666Y-126707446D01*
X203800291Y-126670413D01*
X203825656Y-126631557D01*
X203846315Y-126598548D01*
X203927029Y-126456682D01*
X203998425Y-126308510D01*
X204059894Y-126155735D01*
X204110826Y-126000056D01*
X204150610Y-125843176D01*
X204178636Y-125686794D01*
X204181809Y-125663325D01*
X204186149Y-125620468D01*
X204189415Y-125569211D01*
X204191583Y-125512561D01*
X204192628Y-125453524D01*
X204192602Y-125438350D01*
X204015773Y-125438350D01*
X204015283Y-125499886D01*
X204013463Y-125558754D01*
X204010315Y-125611910D01*
X204005839Y-125656309D01*
X204004387Y-125666500D01*
X203974390Y-125822305D01*
X203932833Y-125977518D01*
X203880440Y-126130172D01*
X203817931Y-126278301D01*
X203746029Y-126419939D01*
X203696930Y-126503827D01*
X203673047Y-126541803D01*
X203650018Y-126576723D01*
X203626784Y-126609845D01*
X203602284Y-126642425D01*
X203575458Y-126675722D01*
X203545248Y-126710993D01*
X203510592Y-126749495D01*
X203470431Y-126792487D01*
X203423705Y-126841226D01*
X203369355Y-126896969D01*
X203342988Y-126923800D01*
X203289677Y-126978077D01*
X203244317Y-127024592D01*
X203205839Y-127064522D01*
X203173174Y-127099046D01*
X203145254Y-127129341D01*
X203121009Y-127156586D01*
X203099371Y-127181958D01*
X203079271Y-127206636D01*
X203059639Y-127231797D01*
X203040485Y-127257175D01*
X202987374Y-127331527D01*
X202937494Y-127408087D01*
X202890262Y-127488091D01*
X202845095Y-127572772D01*
X202801408Y-127663367D01*
X202758618Y-127761108D01*
X202716141Y-127867232D01*
X202673395Y-127982972D01*
X202629795Y-128109564D01*
X202611658Y-128164516D01*
X202587552Y-128237971D01*
X202566650Y-128300629D01*
X202548436Y-128353833D01*
X202532398Y-128398931D01*
X202518022Y-128437267D01*
X202504793Y-128470186D01*
X202492198Y-128499036D01*
X202479723Y-128525160D01*
X202466854Y-128549906D01*
X202459077Y-128564032D01*
X202417871Y-128631526D01*
X202372924Y-128692548D01*
X202321061Y-128751166D01*
X202285030Y-128787139D01*
X202202884Y-128857306D01*
X202113610Y-128917317D01*
X202018289Y-128966671D01*
X201918002Y-129004869D01*
X201813831Y-129031411D01*
X201729645Y-129043795D01*
X201699077Y-129046263D01*
X201670869Y-129046935D01*
X201641567Y-129045626D01*
X201607714Y-129042149D01*
X201565856Y-129036318D01*
X201552175Y-129034229D01*
X201450814Y-129012208D01*
X201352549Y-128978317D01*
X201258392Y-128933212D01*
X201169354Y-128877553D01*
X201086447Y-128811995D01*
X201010681Y-128737196D01*
X200943069Y-128653813D01*
X200923325Y-128625434D01*
X200907109Y-128600736D01*
X200892441Y-128577095D01*
X200878837Y-128553316D01*
X200865810Y-128528207D01*
X200852874Y-128500572D01*
X200839545Y-128469218D01*
X200825337Y-128432950D01*
X200809763Y-128390575D01*
X200792338Y-128340897D01*
X200772577Y-128282724D01*
X200749993Y-128214861D01*
X200724102Y-128136113D01*
X200723238Y-128133475D01*
X200677698Y-127999198D01*
X200632658Y-127876313D01*
X200587552Y-127763556D01*
X200541814Y-127659665D01*
X200494879Y-127563375D01*
X200446181Y-127473423D01*
X200395153Y-127388547D01*
X200376910Y-127360218D01*
X200351207Y-127321594D01*
X200326464Y-127285894D01*
X200301630Y-127251893D01*
X200275655Y-127218369D01*
X200247490Y-127184099D01*
X200216084Y-127147859D01*
X200180387Y-127108426D01*
X200139350Y-127064575D01*
X200091923Y-127015085D01*
X200037055Y-126958731D01*
X199999643Y-126920625D01*
X199959972Y-126880167D01*
X199921684Y-126840853D01*
X199886045Y-126804001D01*
X199854322Y-126770931D01*
X199827780Y-126742963D01*
X199807686Y-126721415D01*
X199795554Y-126707900D01*
X199723158Y-126615859D01*
X199654182Y-126513227D01*
X199589495Y-126401854D01*
X199529965Y-126283589D01*
X199476461Y-126160283D01*
X199429850Y-126033784D01*
X199391001Y-125905943D01*
X199361877Y-125783975D01*
X199338770Y-125640386D01*
X199328279Y-125496245D01*
X199330357Y-125351983D01*
X199344958Y-125208036D01*
X199372036Y-125064835D01*
X199411545Y-124922816D01*
X199463440Y-124782411D01*
X199470075Y-124766680D01*
X199532526Y-124635164D01*
X199606715Y-124504923D01*
X199691677Y-124377242D01*
X199786450Y-124253410D01*
X199890071Y-124134715D01*
X200001576Y-124022444D01*
X200078975Y-123952529D01*
X200193578Y-123858718D01*
X200310156Y-123774083D01*
X200431732Y-123696629D01*
X200561332Y-123624362D01*
X200627418Y-123590862D01*
X200787060Y-123518368D01*
X200947453Y-123457866D01*
X201110324Y-123408850D01*
X201277398Y-123370811D01*
X201450404Y-123343244D01*
X201485500Y-123338985D01*
X201609168Y-123330093D01*
X201739449Y-123330939D01*
X201875059Y-123341318D01*
X202014713Y-123361021D01*
X202157128Y-123389843D01*
X202301017Y-123427577D01*
X202445097Y-123474016D01*
X202536425Y-123508057D01*
X202579517Y-123526095D01*
X202630597Y-123549276D01*
X202686798Y-123576152D01*
X202745250Y-123605275D01*
X202803085Y-123635198D01*
X202857437Y-123664472D01*
X202905436Y-123691650D01*
X202933300Y-123708391D01*
X203082761Y-123808229D01*
X203223261Y-123916566D01*
X203354481Y-124033068D01*
X203476103Y-124157403D01*
X203587805Y-124289238D01*
X203689269Y-124428240D01*
X203780174Y-124574076D01*
X203801866Y-124612753D01*
X203851209Y-124711731D01*
X203896171Y-124819918D01*
X203935749Y-124934282D01*
X203968943Y-125051788D01*
X203994751Y-125169404D01*
X204004436Y-125226412D01*
X204009266Y-125268178D01*
X204012765Y-125319452D01*
X204014934Y-125377191D01*
X204015773Y-125438350D01*
X204192602Y-125438350D01*
X204192527Y-125395109D01*
X204191255Y-125340320D01*
X204188788Y-125292166D01*
X204185114Y-125253750D01*
X204167155Y-125135085D01*
X204145339Y-125025675D01*
X204118739Y-124922414D01*
X204086432Y-124822201D01*
X204047491Y-124721931D01*
X204000992Y-124618503D01*
X203987287Y-124590175D01*
X203909759Y-124446157D01*
X203820793Y-124306437D01*
X203721126Y-124171695D01*
X203611493Y-124042610D01*
X203492632Y-123919865D01*
X203365278Y-123804139D01*
X203230168Y-123696113D01*
X203088039Y-123596468D01*
X202939626Y-123505884D01*
X202785666Y-123425042D01*
X202669775Y-123372391D01*
X202524967Y-123315420D01*
X202378193Y-123266543D01*
X202230850Y-123226023D01*
X202084336Y-123194120D01*
X201940049Y-123171097D01*
X201799386Y-123157214D01*
X201663745Y-123152733D01*
X201534523Y-123157916D01*
G37*
X201534523Y-123157916D02*
X201526775Y-123158560D01*
X201345499Y-123180264D01*
X201166777Y-123213894D01*
X200991239Y-123259095D01*
X200819519Y-123315515D01*
X200652247Y-123382800D01*
X200490056Y-123460596D01*
X200333578Y-123548552D01*
X200183444Y-123646312D01*
X200040286Y-123753524D01*
X199904736Y-123869835D01*
X199777426Y-123994891D01*
X199658987Y-124128339D01*
X199557133Y-124259975D01*
X199464857Y-124397350D01*
X199384185Y-124537781D01*
X199315241Y-124680825D01*
X199258146Y-124826038D01*
X199213025Y-124972977D01*
X199180001Y-125121197D01*
X199159196Y-125270256D01*
X199150734Y-125419710D01*
X199154738Y-125569115D01*
X199164949Y-125672850D01*
X199189722Y-125821225D01*
X199225964Y-125971508D01*
X199273016Y-126121845D01*
X199330216Y-126270383D01*
X199396905Y-126415269D01*
X199472420Y-126554652D01*
X199489868Y-126583924D01*
X199515881Y-126626087D01*
X199541066Y-126665090D01*
X199566399Y-126702100D01*
X199592858Y-126738283D01*
X199621419Y-126774806D01*
X199653061Y-126812835D01*
X199688759Y-126853536D01*
X199729493Y-126898077D01*
X199776237Y-126947623D01*
X199829970Y-127003342D01*
X199891669Y-127066399D01*
X199907569Y-127082550D01*
X199948973Y-127124898D01*
X199989439Y-127166908D01*
X200027647Y-127207166D01*
X200062279Y-127244256D01*
X200092013Y-127276764D01*
X200115532Y-127303275D01*
X200131514Y-127322374D01*
X200132668Y-127323850D01*
X200216823Y-127441390D01*
X200294856Y-127568750D01*
X200355125Y-127682561D01*
X200388029Y-127750980D01*
X200418443Y-127818300D01*
X200447309Y-127886901D01*
X200475567Y-127959163D01*
X200504162Y-128037466D01*
X200534034Y-128124189D01*
X200554990Y-128187450D01*
X200578171Y-128258236D01*
X200597913Y-128318208D01*
X200614673Y-128368636D01*
X200628904Y-128410795D01*
X200641064Y-128445957D01*
X200651607Y-128475395D01*
X200660988Y-128500382D01*
X200669664Y-128522190D01*
X200678089Y-128542093D01*
X200686720Y-128561363D01*
X200695589Y-128580380D01*
X200752744Y-128687446D01*
X200818721Y-128785393D01*
X200893653Y-128874357D01*
X200977675Y-128954477D01*
X201070922Y-129025891D01*
X201173529Y-129088736D01*
X201210595Y-129108188D01*
X201258082Y-129129883D01*
X201313676Y-129151662D01*
X201373028Y-129172067D01*
X201431786Y-129189641D01*
X201485601Y-129202926D01*
X201504550Y-129206674D01*
X201549528Y-129212958D01*
X201601476Y-129217263D01*
X201656556Y-129219511D01*
X201710932Y-129219623D01*
X201760766Y-129217523D01*
X201802222Y-129213132D01*
X201804640Y-129212749D01*
X201923328Y-129187271D01*
X202036680Y-129150595D01*
X202144111Y-129103170D01*
X202245033Y-129045449D01*
X202338862Y-128977882D01*
X202425010Y-128900919D01*
X202502891Y-128815012D01*
X202571920Y-128720613D01*
X202631509Y-128618171D01*
X202662615Y-128552744D01*
X202673698Y-128525756D01*
X202687389Y-128489814D01*
X202702537Y-128448095D01*
X202717989Y-128403775D01*
X202732592Y-128360030D01*
X202733283Y-128357904D01*
X202765667Y-128258826D01*
X202795054Y-128170614D01*
X202821959Y-128091929D01*
X202846895Y-128021434D01*
X202870377Y-127957788D01*
X202892919Y-127899654D01*
X202915035Y-127845693D01*
X202937239Y-127794565D01*
X202960045Y-127744932D01*
X202983967Y-127695456D01*
X202999939Y-127663575D01*
X203032061Y-127601512D01*
X203062740Y-127545360D01*
X203093091Y-127493642D01*
X203124227Y-127444886D01*
X203157262Y-127397615D01*
X203193309Y-127350355D01*
X203233484Y-127301633D01*
X203278898Y-127249974D01*
X203330668Y-127193902D01*
X203389905Y-127131944D01*
X203441300Y-127079306D01*
X203504706Y-127014487D01*
X203559920Y-126957261D01*
X203607931Y-126906452D01*
X203649732Y-126860881D01*
X203686314Y-126819372D01*
X203718669Y-126780748D01*
X203747790Y-126743832D01*
X203774666Y-126707446D01*
X203800291Y-126670413D01*
X203825656Y-126631557D01*
X203846315Y-126598548D01*
X203927029Y-126456682D01*
X203998425Y-126308510D01*
X204059894Y-126155735D01*
X204110826Y-126000056D01*
X204150610Y-125843176D01*
X204178636Y-125686794D01*
X204181809Y-125663325D01*
X204186149Y-125620468D01*
X204189415Y-125569211D01*
X204191583Y-125512561D01*
X204192628Y-125453524D01*
X204192602Y-125438350D01*
X204015773Y-125438350D01*
X204015283Y-125499886D01*
X204013463Y-125558754D01*
X204010315Y-125611910D01*
X204005839Y-125656309D01*
X204004387Y-125666500D01*
X203974390Y-125822305D01*
X203932833Y-125977518D01*
X203880440Y-126130172D01*
X203817931Y-126278301D01*
X203746029Y-126419939D01*
X203696930Y-126503827D01*
X203673047Y-126541803D01*
X203650018Y-126576723D01*
X203626784Y-126609845D01*
X203602284Y-126642425D01*
X203575458Y-126675722D01*
X203545248Y-126710993D01*
X203510592Y-126749495D01*
X203470431Y-126792487D01*
X203423705Y-126841226D01*
X203369355Y-126896969D01*
X203342988Y-126923800D01*
X203289677Y-126978077D01*
X203244317Y-127024592D01*
X203205839Y-127064522D01*
X203173174Y-127099046D01*
X203145254Y-127129341D01*
X203121009Y-127156586D01*
X203099371Y-127181958D01*
X203079271Y-127206636D01*
X203059639Y-127231797D01*
X203040485Y-127257175D01*
X202987374Y-127331527D01*
X202937494Y-127408087D01*
X202890262Y-127488091D01*
X202845095Y-127572772D01*
X202801408Y-127663367D01*
X202758618Y-127761108D01*
X202716141Y-127867232D01*
X202673395Y-127982972D01*
X202629795Y-128109564D01*
X202611658Y-128164516D01*
X202587552Y-128237971D01*
X202566650Y-128300629D01*
X202548436Y-128353833D01*
X202532398Y-128398931D01*
X202518022Y-128437267D01*
X202504793Y-128470186D01*
X202492198Y-128499036D01*
X202479723Y-128525160D01*
X202466854Y-128549906D01*
X202459077Y-128564032D01*
X202417871Y-128631526D01*
X202372924Y-128692548D01*
X202321061Y-128751166D01*
X202285030Y-128787139D01*
X202202884Y-128857306D01*
X202113610Y-128917317D01*
X202018289Y-128966671D01*
X201918002Y-129004869D01*
X201813831Y-129031411D01*
X201729645Y-129043795D01*
X201699077Y-129046263D01*
X201670869Y-129046935D01*
X201641567Y-129045626D01*
X201607714Y-129042149D01*
X201565856Y-129036318D01*
X201552175Y-129034229D01*
X201450814Y-129012208D01*
X201352549Y-128978317D01*
X201258392Y-128933212D01*
X201169354Y-128877553D01*
X201086447Y-128811995D01*
X201010681Y-128737196D01*
X200943069Y-128653813D01*
X200923325Y-128625434D01*
X200907109Y-128600736D01*
X200892441Y-128577095D01*
X200878837Y-128553316D01*
X200865810Y-128528207D01*
X200852874Y-128500572D01*
X200839545Y-128469218D01*
X200825337Y-128432950D01*
X200809763Y-128390575D01*
X200792338Y-128340897D01*
X200772577Y-128282724D01*
X200749993Y-128214861D01*
X200724102Y-128136113D01*
X200723238Y-128133475D01*
X200677698Y-127999198D01*
X200632658Y-127876313D01*
X200587552Y-127763556D01*
X200541814Y-127659665D01*
X200494879Y-127563375D01*
X200446181Y-127473423D01*
X200395153Y-127388547D01*
X200376910Y-127360218D01*
X200351207Y-127321594D01*
X200326464Y-127285894D01*
X200301630Y-127251893D01*
X200275655Y-127218369D01*
X200247490Y-127184099D01*
X200216084Y-127147859D01*
X200180387Y-127108426D01*
X200139350Y-127064575D01*
X200091923Y-127015085D01*
X200037055Y-126958731D01*
X199999643Y-126920625D01*
X199959972Y-126880167D01*
X199921684Y-126840853D01*
X199886045Y-126804001D01*
X199854322Y-126770931D01*
X199827780Y-126742963D01*
X199807686Y-126721415D01*
X199795554Y-126707900D01*
X199723158Y-126615859D01*
X199654182Y-126513227D01*
X199589495Y-126401854D01*
X199529965Y-126283589D01*
X199476461Y-126160283D01*
X199429850Y-126033784D01*
X199391001Y-125905943D01*
X199361877Y-125783975D01*
X199338770Y-125640386D01*
X199328279Y-125496245D01*
X199330357Y-125351983D01*
X199344958Y-125208036D01*
X199372036Y-125064835D01*
X199411545Y-124922816D01*
X199463440Y-124782411D01*
X199470075Y-124766680D01*
X199532526Y-124635164D01*
X199606715Y-124504923D01*
X199691677Y-124377242D01*
X199786450Y-124253410D01*
X199890071Y-124134715D01*
X200001576Y-124022444D01*
X200078975Y-123952529D01*
X200193578Y-123858718D01*
X200310156Y-123774083D01*
X200431732Y-123696629D01*
X200561332Y-123624362D01*
X200627418Y-123590862D01*
X200787060Y-123518368D01*
X200947453Y-123457866D01*
X201110324Y-123408850D01*
X201277398Y-123370811D01*
X201450404Y-123343244D01*
X201485500Y-123338985D01*
X201609168Y-123330093D01*
X201739449Y-123330939D01*
X201875059Y-123341318D01*
X202014713Y-123361021D01*
X202157128Y-123389843D01*
X202301017Y-123427577D01*
X202445097Y-123474016D01*
X202536425Y-123508057D01*
X202579517Y-123526095D01*
X202630597Y-123549276D01*
X202686798Y-123576152D01*
X202745250Y-123605275D01*
X202803085Y-123635198D01*
X202857437Y-123664472D01*
X202905436Y-123691650D01*
X202933300Y-123708391D01*
X203082761Y-123808229D01*
X203223261Y-123916566D01*
X203354481Y-124033068D01*
X203476103Y-124157403D01*
X203587805Y-124289238D01*
X203689269Y-124428240D01*
X203780174Y-124574076D01*
X203801866Y-124612753D01*
X203851209Y-124711731D01*
X203896171Y-124819918D01*
X203935749Y-124934282D01*
X203968943Y-125051788D01*
X203994751Y-125169404D01*
X204004436Y-125226412D01*
X204009266Y-125268178D01*
X204012765Y-125319452D01*
X204014934Y-125377191D01*
X204015773Y-125438350D01*
X204192602Y-125438350D01*
X204192527Y-125395109D01*
X204191255Y-125340320D01*
X204188788Y-125292166D01*
X204185114Y-125253750D01*
X204167155Y-125135085D01*
X204145339Y-125025675D01*
X204118739Y-124922414D01*
X204086432Y-124822201D01*
X204047491Y-124721931D01*
X204000992Y-124618503D01*
X203987287Y-124590175D01*
X203909759Y-124446157D01*
X203820793Y-124306437D01*
X203721126Y-124171695D01*
X203611493Y-124042610D01*
X203492632Y-123919865D01*
X203365278Y-123804139D01*
X203230168Y-123696113D01*
X203088039Y-123596468D01*
X202939626Y-123505884D01*
X202785666Y-123425042D01*
X202669775Y-123372391D01*
X202524967Y-123315420D01*
X202378193Y-123266543D01*
X202230850Y-123226023D01*
X202084336Y-123194120D01*
X201940049Y-123171097D01*
X201799386Y-123157214D01*
X201663745Y-123152733D01*
X201534523Y-123157916D01*
G36*
X201022827Y-127717313D02*
G01*
X200997900Y-127729416D01*
X200976421Y-127749386D01*
X200962536Y-127773133D01*
X200960925Y-127778406D01*
X200959685Y-127804658D01*
X200966623Y-127832677D01*
X200978286Y-127853631D01*
X200995074Y-127870000D01*
X201019375Y-127887855D01*
X201046750Y-127904377D01*
X201072764Y-127916748D01*
X201083345Y-127920352D01*
X201096016Y-127922605D01*
X201119733Y-127925599D01*
X201152872Y-127929198D01*
X201193810Y-127933269D01*
X201240922Y-127937677D01*
X201292584Y-127942289D01*
X201347174Y-127946971D01*
X201403066Y-127951589D01*
X201458637Y-127956008D01*
X201512264Y-127960094D01*
X201562322Y-127963714D01*
X201607188Y-127966734D01*
X201645237Y-127969019D01*
X201674846Y-127970435D01*
X201694391Y-127970849D01*
X201695050Y-127970841D01*
X201713637Y-127970123D01*
X201743097Y-127968407D01*
X201781656Y-127965821D01*
X201827538Y-127962494D01*
X201878968Y-127958555D01*
X201934169Y-127954135D01*
X201991366Y-127949361D01*
X201996675Y-127948908D01*
X202052340Y-127944005D01*
X202104755Y-127939118D01*
X202152402Y-127934409D01*
X202193762Y-127930039D01*
X202227316Y-127926169D01*
X202251546Y-127922961D01*
X202264934Y-127920578D01*
X202266157Y-127920221D01*
X202286559Y-127911194D01*
X202310892Y-127897604D01*
X202334903Y-127882126D01*
X202354338Y-127867438D01*
X202362489Y-127859598D01*
X202377097Y-127834238D01*
X202382546Y-127805360D01*
X202379325Y-127776269D01*
X202367927Y-127750273D01*
X202348841Y-127730677D01*
X202342808Y-127727104D01*
X202323410Y-127720263D01*
X202301322Y-127716601D01*
X202299616Y-127716514D01*
X202285726Y-127716757D01*
X202272385Y-127719443D01*
X202256357Y-127725718D01*
X202234405Y-127736726D01*
X202218925Y-127745053D01*
X202210679Y-127748064D01*
X202196343Y-127751160D01*
X202174958Y-127754449D01*
X202145563Y-127758039D01*
X202107200Y-127762040D01*
X202058907Y-127766560D01*
X201999726Y-127771708D01*
X201939525Y-127776710D01*
X201679175Y-127797998D01*
X201406051Y-127775159D01*
X201339398Y-127769543D01*
X201284226Y-127764771D01*
X201239356Y-127760697D01*
X201203609Y-127757175D01*
X201175803Y-127754059D01*
X201154761Y-127751203D01*
X201139301Y-127748460D01*
X201128245Y-127745685D01*
X201120412Y-127742732D01*
X201114623Y-127739454D01*
X201113951Y-127738991D01*
X201079014Y-127720388D01*
X201045099Y-127714297D01*
X201022827Y-127717313D01*
G37*
X201022827Y-127717313D02*
X200997900Y-127729416D01*
X200976421Y-127749386D01*
X200962536Y-127773133D01*
X200960925Y-127778406D01*
X200959685Y-127804658D01*
X200966623Y-127832677D01*
X200978286Y-127853631D01*
X200995074Y-127870000D01*
X201019375Y-127887855D01*
X201046750Y-127904377D01*
X201072764Y-127916748D01*
X201083345Y-127920352D01*
X201096016Y-127922605D01*
X201119733Y-127925599D01*
X201152872Y-127929198D01*
X201193810Y-127933269D01*
X201240922Y-127937677D01*
X201292584Y-127942289D01*
X201347174Y-127946971D01*
X201403066Y-127951589D01*
X201458637Y-127956008D01*
X201512264Y-127960094D01*
X201562322Y-127963714D01*
X201607188Y-127966734D01*
X201645237Y-127969019D01*
X201674846Y-127970435D01*
X201694391Y-127970849D01*
X201695050Y-127970841D01*
X201713637Y-127970123D01*
X201743097Y-127968407D01*
X201781656Y-127965821D01*
X201827538Y-127962494D01*
X201878968Y-127958555D01*
X201934169Y-127954135D01*
X201991366Y-127949361D01*
X201996675Y-127948908D01*
X202052340Y-127944005D01*
X202104755Y-127939118D01*
X202152402Y-127934409D01*
X202193762Y-127930039D01*
X202227316Y-127926169D01*
X202251546Y-127922961D01*
X202264934Y-127920578D01*
X202266157Y-127920221D01*
X202286559Y-127911194D01*
X202310892Y-127897604D01*
X202334903Y-127882126D01*
X202354338Y-127867438D01*
X202362489Y-127859598D01*
X202377097Y-127834238D01*
X202382546Y-127805360D01*
X202379325Y-127776269D01*
X202367927Y-127750273D01*
X202348841Y-127730677D01*
X202342808Y-127727104D01*
X202323410Y-127720263D01*
X202301322Y-127716601D01*
X202299616Y-127716514D01*
X202285726Y-127716757D01*
X202272385Y-127719443D01*
X202256357Y-127725718D01*
X202234405Y-127736726D01*
X202218925Y-127745053D01*
X202210679Y-127748064D01*
X202196343Y-127751160D01*
X202174958Y-127754449D01*
X202145563Y-127758039D01*
X202107200Y-127762040D01*
X202058907Y-127766560D01*
X201999726Y-127771708D01*
X201939525Y-127776710D01*
X201679175Y-127797998D01*
X201406051Y-127775159D01*
X201339398Y-127769543D01*
X201284226Y-127764771D01*
X201239356Y-127760697D01*
X201203609Y-127757175D01*
X201175803Y-127754059D01*
X201154761Y-127751203D01*
X201139301Y-127748460D01*
X201128245Y-127745685D01*
X201120412Y-127742732D01*
X201114623Y-127739454D01*
X201113951Y-127738991D01*
X201079014Y-127720388D01*
X201045099Y-127714297D01*
X201022827Y-127717313D01*
G36*
X202632373Y-124545747D02*
G01*
X202573355Y-124551184D01*
X202515064Y-124560375D01*
X202453596Y-124573713D01*
X202436838Y-124577851D01*
X202324298Y-124612695D01*
X202215073Y-124659365D01*
X202110214Y-124717190D01*
X202010771Y-124785501D01*
X201917795Y-124863626D01*
X201832335Y-124950895D01*
X201807757Y-124979432D01*
X201763315Y-125032640D01*
X201793572Y-125100332D01*
X201854482Y-125221650D01*
X201925990Y-125336579D01*
X202008452Y-125445617D01*
X202102224Y-125549265D01*
X202139118Y-125585641D01*
X202243906Y-125677401D01*
X202355030Y-125758178D01*
X202472253Y-125827854D01*
X202595341Y-125886315D01*
X202724057Y-125933445D01*
X202858165Y-125969126D01*
X202955525Y-125987292D01*
X202983653Y-125990624D01*
X203021634Y-125993652D01*
X203066695Y-125996291D01*
X203116066Y-125998454D01*
X203166975Y-126000058D01*
X203216649Y-126001016D01*
X203262317Y-126001244D01*
X203301208Y-126000656D01*
X203330549Y-125999167D01*
X203333350Y-125998918D01*
X203458198Y-125981566D01*
X203584452Y-125953382D01*
X203708724Y-125915295D01*
X203827632Y-125868234D01*
X203855089Y-125855663D01*
X203885520Y-125841136D01*
X203906352Y-125829572D01*
X203919406Y-125818385D01*
X203926507Y-125804985D01*
X203929475Y-125786783D01*
X203930134Y-125761193D01*
X203930158Y-125749050D01*
X203924308Y-125626628D01*
X203906670Y-125507173D01*
X203877750Y-125391392D01*
X203838049Y-125279994D01*
X203788074Y-125173687D01*
X203728328Y-125073179D01*
X203659316Y-124979180D01*
X203581540Y-124892397D01*
X203495506Y-124813539D01*
X203401718Y-124743315D01*
X203300679Y-124682431D01*
X203192894Y-124631598D01*
X203114275Y-124602563D01*
X203047182Y-124582162D01*
X202984040Y-124566862D01*
X202920867Y-124555994D01*
X202853681Y-124548892D01*
X202778501Y-124544888D01*
X202768200Y-124544568D01*
X202696020Y-124543673D01*
X202632373Y-124545747D01*
G37*
X202632373Y-124545747D02*
X202573355Y-124551184D01*
X202515064Y-124560375D01*
X202453596Y-124573713D01*
X202436838Y-124577851D01*
X202324298Y-124612695D01*
X202215073Y-124659365D01*
X202110214Y-124717190D01*
X202010771Y-124785501D01*
X201917795Y-124863626D01*
X201832335Y-124950895D01*
X201807757Y-124979432D01*
X201763315Y-125032640D01*
X201793572Y-125100332D01*
X201854482Y-125221650D01*
X201925990Y-125336579D01*
X202008452Y-125445617D01*
X202102224Y-125549265D01*
X202139118Y-125585641D01*
X202243906Y-125677401D01*
X202355030Y-125758178D01*
X202472253Y-125827854D01*
X202595341Y-125886315D01*
X202724057Y-125933445D01*
X202858165Y-125969126D01*
X202955525Y-125987292D01*
X202983653Y-125990624D01*
X203021634Y-125993652D01*
X203066695Y-125996291D01*
X203116066Y-125998454D01*
X203166975Y-126000058D01*
X203216649Y-126001016D01*
X203262317Y-126001244D01*
X203301208Y-126000656D01*
X203330549Y-125999167D01*
X203333350Y-125998918D01*
X203458198Y-125981566D01*
X203584452Y-125953382D01*
X203708724Y-125915295D01*
X203827632Y-125868234D01*
X203855089Y-125855663D01*
X203885520Y-125841136D01*
X203906352Y-125829572D01*
X203919406Y-125818385D01*
X203926507Y-125804985D01*
X203929475Y-125786783D01*
X203930134Y-125761193D01*
X203930158Y-125749050D01*
X203924308Y-125626628D01*
X203906670Y-125507173D01*
X203877750Y-125391392D01*
X203838049Y-125279994D01*
X203788074Y-125173687D01*
X203728328Y-125073179D01*
X203659316Y-124979180D01*
X203581540Y-124892397D01*
X203495506Y-124813539D01*
X203401718Y-124743315D01*
X203300679Y-124682431D01*
X203192894Y-124631598D01*
X203114275Y-124602563D01*
X203047182Y-124582162D01*
X202984040Y-124566862D01*
X202920867Y-124555994D01*
X202853681Y-124548892D01*
X202778501Y-124544888D01*
X202768200Y-124544568D01*
X202696020Y-124543673D01*
X202632373Y-124545747D01*
G36*
X200554095Y-124544789D02*
G01*
X200511973Y-124547398D01*
X200500962Y-124548523D01*
X200379128Y-124568699D01*
X200261198Y-124600632D01*
X200147936Y-124643942D01*
X200040105Y-124698247D01*
X199938469Y-124763167D01*
X199843793Y-124838321D01*
X199763892Y-124915751D01*
X199707460Y-124979586D01*
X199658676Y-125043396D01*
X199615076Y-125110827D01*
X199574197Y-125185523D01*
X199554749Y-125225175D01*
X199516417Y-125313438D01*
X199486884Y-125399480D01*
X199465400Y-125486502D01*
X199451211Y-125577705D01*
X199443567Y-125676289D01*
X199442576Y-125702965D01*
X199439115Y-125818806D01*
X199517745Y-125856780D01*
X199626400Y-125903850D01*
X199738886Y-125941691D01*
X199857167Y-125970848D01*
X199983206Y-125991866D01*
X200021825Y-125996554D01*
X200054970Y-125999181D01*
X200097388Y-126000943D01*
X200145685Y-126001844D01*
X200196463Y-126001889D01*
X200246326Y-126001082D01*
X200291879Y-125999429D01*
X200329726Y-125996933D01*
X200338185Y-125996116D01*
X200476359Y-125975293D01*
X200610448Y-125942658D01*
X200739858Y-125898601D01*
X200863991Y-125843512D01*
X200982252Y-125777781D01*
X201094045Y-125701799D01*
X201198774Y-125615955D01*
X201295844Y-125520640D01*
X201384657Y-125416243D01*
X201464619Y-125303155D01*
X201508967Y-125229766D01*
X201523959Y-125202308D01*
X201540032Y-125171113D01*
X201556113Y-125138482D01*
X201571128Y-125106713D01*
X201584001Y-125078106D01*
X201593658Y-125054960D01*
X201599026Y-125039574D01*
X201599765Y-125035443D01*
X201595765Y-125026816D01*
X201584957Y-125010943D01*
X201569064Y-124989985D01*
X201549811Y-124966103D01*
X201528922Y-124941458D01*
X201508121Y-124918211D01*
X201496200Y-124905629D01*
X201407533Y-124823601D01*
X201310531Y-124750583D01*
X201206425Y-124687229D01*
X201096446Y-124634196D01*
X200981826Y-124592142D01*
X200863797Y-124561721D01*
X200843460Y-124557750D01*
X200807495Y-124552631D01*
X200762192Y-124548576D01*
X200710876Y-124545675D01*
X200656872Y-124544017D01*
X200603503Y-124543692D01*
X200554095Y-124544789D01*
G37*
X200554095Y-124544789D02*
X200511973Y-124547398D01*
X200500962Y-124548523D01*
X200379128Y-124568699D01*
X200261198Y-124600632D01*
X200147936Y-124643942D01*
X200040105Y-124698247D01*
X199938469Y-124763167D01*
X199843793Y-124838321D01*
X199763892Y-124915751D01*
X199707460Y-124979586D01*
X199658676Y-125043396D01*
X199615076Y-125110827D01*
X199574197Y-125185523D01*
X199554749Y-125225175D01*
X199516417Y-125313438D01*
X199486884Y-125399480D01*
X199465400Y-125486502D01*
X199451211Y-125577705D01*
X199443567Y-125676289D01*
X199442576Y-125702965D01*
X199439115Y-125818806D01*
X199517745Y-125856780D01*
X199626400Y-125903850D01*
X199738886Y-125941691D01*
X199857167Y-125970848D01*
X199983206Y-125991866D01*
X200021825Y-125996554D01*
X200054970Y-125999181D01*
X200097388Y-126000943D01*
X200145685Y-126001844D01*
X200196463Y-126001889D01*
X200246326Y-126001082D01*
X200291879Y-125999429D01*
X200329726Y-125996933D01*
X200338185Y-125996116D01*
X200476359Y-125975293D01*
X200610448Y-125942658D01*
X200739858Y-125898601D01*
X200863991Y-125843512D01*
X200982252Y-125777781D01*
X201094045Y-125701799D01*
X201198774Y-125615955D01*
X201295844Y-125520640D01*
X201384657Y-125416243D01*
X201464619Y-125303155D01*
X201508967Y-125229766D01*
X201523959Y-125202308D01*
X201540032Y-125171113D01*
X201556113Y-125138482D01*
X201571128Y-125106713D01*
X201584001Y-125078106D01*
X201593658Y-125054960D01*
X201599026Y-125039574D01*
X201599765Y-125035443D01*
X201595765Y-125026816D01*
X201584957Y-125010943D01*
X201569064Y-124989985D01*
X201549811Y-124966103D01*
X201528922Y-124941458D01*
X201508121Y-124918211D01*
X201496200Y-124905629D01*
X201407533Y-124823601D01*
X201310531Y-124750583D01*
X201206425Y-124687229D01*
X201096446Y-124634196D01*
X200981826Y-124592142D01*
X200863797Y-124561721D01*
X200843460Y-124557750D01*
X200807495Y-124552631D01*
X200762192Y-124548576D01*
X200710876Y-124545675D01*
X200656872Y-124544017D01*
X200603503Y-124543692D01*
X200554095Y-124544789D01*
D11*
X216468000Y-75371000D02*
X213808000Y-75371000D01*
X216468000Y-67691000D02*
X216468000Y-75371000D01*
X213808000Y-67691000D02*
X213808000Y-75371000D01*
X216468000Y-67691000D02*
X213808000Y-67691000D01*
X216468000Y-66421000D02*
X216468000Y-65091000D01*
X216468000Y-65091000D02*
X215138000Y-65091000D01*
X189290000Y-75371000D02*
X186630000Y-75371000D01*
X189290000Y-67691000D02*
X189290000Y-75371000D01*
X186630000Y-67691000D02*
X186630000Y-75371000D01*
X189290000Y-67691000D02*
X186630000Y-67691000D01*
X189290000Y-66421000D02*
X189290000Y-65091000D01*
X189290000Y-65091000D02*
X187960000Y-65091000D01*
X189290000Y-75251000D02*
X187960000Y-75251000D01*
X189290000Y-76581000D02*
X189290000Y-75251000D01*
X189290000Y-77851000D02*
X186630000Y-77851000D01*
X186630000Y-77851000D02*
X186630000Y-95691000D01*
X189290000Y-77851000D02*
X189290000Y-95691000D01*
X189290000Y-95691000D02*
X186630000Y-95691000D01*
X189290000Y-116011000D02*
X186630000Y-116011000D01*
X189290000Y-98171000D02*
X189290000Y-116011000D01*
X186630000Y-98171000D02*
X186630000Y-116011000D01*
X189290000Y-98171000D02*
X186630000Y-98171000D01*
X189290000Y-96901000D02*
X189290000Y-95571000D01*
X189290000Y-95571000D02*
X187960000Y-95571000D01*
X189290000Y-115891000D02*
X187960000Y-115891000D01*
X189290000Y-117221000D02*
X189290000Y-115891000D01*
X189290000Y-118491000D02*
X186630000Y-118491000D01*
X186630000Y-118491000D02*
X186630000Y-136331000D01*
X189290000Y-118491000D02*
X189290000Y-136331000D01*
X189290000Y-136331000D02*
X186630000Y-136331000D01*
X213808000Y-115891000D02*
X216468000Y-115891000D01*
X213808000Y-133731000D02*
X213808000Y-115891000D01*
X216468000Y-133731000D02*
X216468000Y-115891000D01*
X213808000Y-133731000D02*
X216468000Y-133731000D01*
X213808000Y-135001000D02*
X213808000Y-136331000D01*
X213808000Y-136331000D02*
X215138000Y-136331000D01*
X213808000Y-116011000D02*
X215138000Y-116011000D01*
X213808000Y-114681000D02*
X213808000Y-116011000D01*
X213808000Y-113411000D02*
X216468000Y-113411000D01*
X216468000Y-113411000D02*
X216468000Y-95571000D01*
X213808000Y-113411000D02*
X213808000Y-95571000D01*
X213808000Y-95571000D02*
X216468000Y-95571000D01*
X213808000Y-75251000D02*
X216468000Y-75251000D01*
X213808000Y-93091000D02*
X213808000Y-75251000D01*
X216468000Y-93091000D02*
X216468000Y-75251000D01*
X213808000Y-93091000D02*
X216468000Y-93091000D01*
X213808000Y-94361000D02*
X213808000Y-95691000D01*
X213808000Y-95691000D02*
X215138000Y-95691000D01*
D10*
X196771666Y-92207142D02*
X196819285Y-92254761D01*
X196962142Y-92302380D01*
X197057380Y-92302380D01*
X197200238Y-92254761D01*
X197295476Y-92159523D01*
X197343095Y-92064285D01*
X197390714Y-91873809D01*
X197390714Y-91730952D01*
X197343095Y-91540476D01*
X197295476Y-91445238D01*
X197200238Y-91350000D01*
X197057380Y-91302380D01*
X196962142Y-91302380D01*
X196819285Y-91350000D01*
X196771666Y-91397619D01*
X195914523Y-91302380D02*
X196105000Y-91302380D01*
X196200238Y-91350000D01*
X196247857Y-91397619D01*
X196343095Y-91540476D01*
X196390714Y-91730952D01*
X196390714Y-92111904D01*
X196343095Y-92207142D01*
X196295476Y-92254761D01*
X196200238Y-92302380D01*
X196009761Y-92302380D01*
X195914523Y-92254761D01*
X195866904Y-92207142D01*
X195819285Y-92111904D01*
X195819285Y-91873809D01*
X195866904Y-91778571D01*
X195914523Y-91730952D01*
X196009761Y-91683333D01*
X196200238Y-91683333D01*
X196295476Y-91730952D01*
X196343095Y-91778571D01*
X196390714Y-91873809D01*
X201851666Y-88847142D02*
X201899285Y-88894761D01*
X202042142Y-88942380D01*
X202137380Y-88942380D01*
X202280238Y-88894761D01*
X202375476Y-88799523D01*
X202423095Y-88704285D01*
X202470714Y-88513809D01*
X202470714Y-88370952D01*
X202423095Y-88180476D01*
X202375476Y-88085238D01*
X202280238Y-87990000D01*
X202137380Y-87942380D01*
X202042142Y-87942380D01*
X201899285Y-87990000D01*
X201851666Y-88037619D01*
X200946904Y-87942380D02*
X201423095Y-87942380D01*
X201470714Y-88418571D01*
X201423095Y-88370952D01*
X201327857Y-88323333D01*
X201089761Y-88323333D01*
X200994523Y-88370952D01*
X200946904Y-88418571D01*
X200899285Y-88513809D01*
X200899285Y-88751904D01*
X200946904Y-88847142D01*
X200994523Y-88894761D01*
X201089761Y-88942380D01*
X201327857Y-88942380D01*
X201423095Y-88894761D01*
X201470714Y-88847142D01*
X206761142Y-98902333D02*
X206808761Y-98854714D01*
X206856380Y-98711857D01*
X206856380Y-98616619D01*
X206808761Y-98473761D01*
X206713523Y-98378523D01*
X206618285Y-98330904D01*
X206427809Y-98283285D01*
X206284952Y-98283285D01*
X206094476Y-98330904D01*
X205999238Y-98378523D01*
X205904000Y-98473761D01*
X205856380Y-98616619D01*
X205856380Y-98711857D01*
X205904000Y-98854714D01*
X205951619Y-98902333D01*
X206189714Y-99759476D02*
X206856380Y-99759476D01*
X205808761Y-99521380D02*
X206523047Y-99283285D01*
X206523047Y-99902333D01*
X207621142Y-109561333D02*
X207668761Y-109513714D01*
X207716380Y-109370857D01*
X207716380Y-109275619D01*
X207668761Y-109132761D01*
X207573523Y-109037523D01*
X207478285Y-108989904D01*
X207287809Y-108942285D01*
X207144952Y-108942285D01*
X206954476Y-108989904D01*
X206859238Y-109037523D01*
X206764000Y-109132761D01*
X206716380Y-109275619D01*
X206716380Y-109370857D01*
X206764000Y-109513714D01*
X206811619Y-109561333D01*
X206716380Y-109894666D02*
X206716380Y-110513714D01*
X207097333Y-110180380D01*
X207097333Y-110323238D01*
X207144952Y-110418476D01*
X207192571Y-110466095D01*
X207287809Y-110513714D01*
X207525904Y-110513714D01*
X207621142Y-110466095D01*
X207668761Y-110418476D01*
X207716380Y-110323238D01*
X207716380Y-110037523D01*
X207668761Y-109942285D01*
X207621142Y-109894666D01*
X201833666Y-112977142D02*
X201881285Y-113024761D01*
X202024142Y-113072380D01*
X202119380Y-113072380D01*
X202262238Y-113024761D01*
X202357476Y-112929523D01*
X202405095Y-112834285D01*
X202452714Y-112643809D01*
X202452714Y-112500952D01*
X202405095Y-112310476D01*
X202357476Y-112215238D01*
X202262238Y-112120000D01*
X202119380Y-112072380D01*
X202024142Y-112072380D01*
X201881285Y-112120000D01*
X201833666Y-112167619D01*
X201452714Y-112167619D02*
X201405095Y-112120000D01*
X201309857Y-112072380D01*
X201071761Y-112072380D01*
X200976523Y-112120000D01*
X200928904Y-112167619D01*
X200881285Y-112262857D01*
X200881285Y-112358095D01*
X200928904Y-112500952D01*
X201500333Y-113072380D01*
X200881285Y-113072380D01*
X199649142Y-105488333D02*
X199696761Y-105440714D01*
X199744380Y-105297857D01*
X199744380Y-105202619D01*
X199696761Y-105059761D01*
X199601523Y-104964523D01*
X199506285Y-104916904D01*
X199315809Y-104869285D01*
X199172952Y-104869285D01*
X198982476Y-104916904D01*
X198887238Y-104964523D01*
X198792000Y-105059761D01*
X198744380Y-105202619D01*
X198744380Y-105297857D01*
X198792000Y-105440714D01*
X198839619Y-105488333D01*
X199744380Y-106440714D02*
X199744380Y-105869285D01*
X199744380Y-106155000D02*
X198744380Y-106155000D01*
X198887238Y-106059761D01*
X198982476Y-105964523D01*
X199030095Y-105869285D01*
X188293333Y-73703380D02*
X188293333Y-74417666D01*
X188340952Y-74560523D01*
X188436190Y-74655761D01*
X188579047Y-74703380D01*
X188674285Y-74703380D01*
X187864761Y-73798619D02*
X187817142Y-73751000D01*
X187721904Y-73703380D01*
X187483809Y-73703380D01*
X187388571Y-73751000D01*
X187340952Y-73798619D01*
X187293333Y-73893857D01*
X187293333Y-73989095D01*
X187340952Y-74131952D01*
X187912380Y-74703380D01*
X187293333Y-74703380D01*
X188293333Y-94023380D02*
X188293333Y-94737666D01*
X188340952Y-94880523D01*
X188436190Y-94975761D01*
X188579047Y-95023380D01*
X188674285Y-95023380D01*
X187912380Y-94023380D02*
X187293333Y-94023380D01*
X187626666Y-94404333D01*
X187483809Y-94404333D01*
X187388571Y-94451952D01*
X187340952Y-94499571D01*
X187293333Y-94594809D01*
X187293333Y-94832904D01*
X187340952Y-94928142D01*
X187388571Y-94975761D01*
X187483809Y-95023380D01*
X187769523Y-95023380D01*
X187864761Y-94975761D01*
X187912380Y-94928142D01*
X188293333Y-114343380D02*
X188293333Y-115057666D01*
X188340952Y-115200523D01*
X188436190Y-115295761D01*
X188579047Y-115343380D01*
X188674285Y-115343380D01*
X187340952Y-114343380D02*
X187817142Y-114343380D01*
X187864761Y-114819571D01*
X187817142Y-114771952D01*
X187721904Y-114724333D01*
X187483809Y-114724333D01*
X187388571Y-114771952D01*
X187340952Y-114819571D01*
X187293333Y-114914809D01*
X187293333Y-115152904D01*
X187340952Y-115248142D01*
X187388571Y-115295761D01*
X187483809Y-115343380D01*
X187721904Y-115343380D01*
X187817142Y-115295761D01*
X187864761Y-115248142D01*
X215471333Y-116463380D02*
X215471333Y-117177666D01*
X215518952Y-117320523D01*
X215614190Y-117415761D01*
X215757047Y-117463380D01*
X215852285Y-117463380D01*
X215090380Y-116463380D02*
X214423714Y-116463380D01*
X214852285Y-117463380D01*
X215471333Y-96143380D02*
X215471333Y-96857666D01*
X215518952Y-97000523D01*
X215614190Y-97095761D01*
X215757047Y-97143380D01*
X215852285Y-97143380D01*
X214852285Y-96571952D02*
X214947523Y-96524333D01*
X214995142Y-96476714D01*
X215042761Y-96381476D01*
X215042761Y-96333857D01*
X214995142Y-96238619D01*
X214947523Y-96191000D01*
X214852285Y-96143380D01*
X214661809Y-96143380D01*
X214566571Y-96191000D01*
X214518952Y-96238619D01*
X214471333Y-96333857D01*
X214471333Y-96381476D01*
X214518952Y-96476714D01*
X214566571Y-96524333D01*
X214661809Y-96571952D01*
X214852285Y-96571952D01*
X214947523Y-96619571D01*
X214995142Y-96667190D01*
X215042761Y-96762428D01*
X215042761Y-96952904D01*
X214995142Y-97048142D01*
X214947523Y-97095761D01*
X214852285Y-97143380D01*
X214661809Y-97143380D01*
X214566571Y-97095761D01*
X214518952Y-97048142D01*
X214471333Y-96952904D01*
X214471333Y-96762428D01*
X214518952Y-96667190D01*
X214566571Y-96619571D01*
X214661809Y-96571952D01*
M02*
