G04 #@! TF.GenerationSoftware,KiCad,Pcbnew,5.1.7-a382d34a8~87~ubuntu20.04.1*
G04 #@! TF.CreationDate,2020-10-11T22:02:26+02:00*
G04 #@! TF.ProjectId,xmega_adapter_board,786d6567-615f-4616-9461-707465725f62,1.1.0*
G04 #@! TF.SameCoordinates,Original*
G04 #@! TF.FileFunction,Legend,Top*
G04 #@! TF.FilePolarity,Positive*
%FSLAX46Y46*%
G04 Gerber Fmt 4.6, Leading zero omitted, Abs format (unit mm)*
G04 Created by KiCad (PCBNEW 5.1.7-a382d34a8~87~ubuntu20.04.1) date 2020-10-11 22:02:26*
%MOMM*%
%LPD*%
G01*
G04 APERTURE LIST*
%ADD10C,0.150000*%
%ADD11C,0.120000*%
%ADD12C,0.010000*%
G04 APERTURE END LIST*
D10*
X199715619Y-70302380D02*
X199382285Y-69826190D01*
X199144190Y-70302380D02*
X199144190Y-69302380D01*
X199525142Y-69302380D01*
X199620380Y-69350000D01*
X199668000Y-69397619D01*
X199715619Y-69492857D01*
X199715619Y-69635714D01*
X199668000Y-69730952D01*
X199620380Y-69778571D01*
X199525142Y-69826190D01*
X199144190Y-69826190D01*
X200144190Y-69778571D02*
X200477523Y-69778571D01*
X200620380Y-70302380D02*
X200144190Y-70302380D01*
X200144190Y-69302380D01*
X200620380Y-69302380D01*
X201001333Y-70254761D02*
X201144190Y-70302380D01*
X201382285Y-70302380D01*
X201477523Y-70254761D01*
X201525142Y-70207142D01*
X201572761Y-70111904D01*
X201572761Y-70016666D01*
X201525142Y-69921428D01*
X201477523Y-69873809D01*
X201382285Y-69826190D01*
X201191809Y-69778571D01*
X201096571Y-69730952D01*
X201048952Y-69683333D01*
X201001333Y-69588095D01*
X201001333Y-69492857D01*
X201048952Y-69397619D01*
X201096571Y-69350000D01*
X201191809Y-69302380D01*
X201429904Y-69302380D01*
X201572761Y-69350000D01*
X202001333Y-69778571D02*
X202334666Y-69778571D01*
X202477523Y-70302380D02*
X202001333Y-70302380D01*
X202001333Y-69302380D01*
X202477523Y-69302380D01*
X202763238Y-69302380D02*
X203334666Y-69302380D01*
X203048952Y-70302380D02*
X203048952Y-69302380D01*
X189516000Y-66619428D02*
X190277904Y-66619428D01*
X189896952Y-67000380D02*
X189896952Y-66238476D01*
X190658857Y-66000380D02*
X191277904Y-66000380D01*
X190944571Y-66381333D01*
X191087428Y-66381333D01*
X191182666Y-66428952D01*
X191230285Y-66476571D01*
X191277904Y-66571809D01*
X191277904Y-66809904D01*
X191230285Y-66905142D01*
X191182666Y-66952761D01*
X191087428Y-67000380D01*
X190801714Y-67000380D01*
X190706476Y-66952761D01*
X190658857Y-66905142D01*
X191754095Y-66952761D02*
X191754095Y-67000380D01*
X191706476Y-67095619D01*
X191658857Y-67143238D01*
X192087428Y-66000380D02*
X192706476Y-66000380D01*
X192373142Y-66381333D01*
X192516000Y-66381333D01*
X192611238Y-66428952D01*
X192658857Y-66476571D01*
X192706476Y-66571809D01*
X192706476Y-66809904D01*
X192658857Y-66905142D01*
X192611238Y-66952761D01*
X192516000Y-67000380D01*
X192230285Y-67000380D01*
X192135047Y-66952761D01*
X192087428Y-66905142D01*
X192992190Y-66000380D02*
X193325523Y-67000380D01*
X193658857Y-66000380D01*
X203303476Y-80462380D02*
X203303476Y-79462380D01*
X203684428Y-79462380D01*
X203779666Y-79510000D01*
X203827285Y-79557619D01*
X203874904Y-79652857D01*
X203874904Y-79795714D01*
X203827285Y-79890952D01*
X203779666Y-79938571D01*
X203684428Y-79986190D01*
X203303476Y-79986190D01*
X204493952Y-79462380D02*
X204684428Y-79462380D01*
X204779666Y-79510000D01*
X204874904Y-79605238D01*
X204922523Y-79795714D01*
X204922523Y-80129047D01*
X204874904Y-80319523D01*
X204779666Y-80414761D01*
X204684428Y-80462380D01*
X204493952Y-80462380D01*
X204398714Y-80414761D01*
X204303476Y-80319523D01*
X204255857Y-80129047D01*
X204255857Y-79795714D01*
X204303476Y-79605238D01*
X204398714Y-79510000D01*
X204493952Y-79462380D01*
X205255857Y-79462380D02*
X205493952Y-80462380D01*
X205684428Y-79748095D01*
X205874904Y-80462380D01*
X206113000Y-79462380D01*
X206493952Y-79938571D02*
X206827285Y-79938571D01*
X206970142Y-80462380D02*
X206493952Y-80462380D01*
X206493952Y-79462380D01*
X206970142Y-79462380D01*
X207970142Y-80462380D02*
X207636809Y-79986190D01*
X207398714Y-80462380D02*
X207398714Y-79462380D01*
X207779666Y-79462380D01*
X207874904Y-79510000D01*
X207922523Y-79557619D01*
X207970142Y-79652857D01*
X207970142Y-79795714D01*
X207922523Y-79890952D01*
X207874904Y-79938571D01*
X207779666Y-79986190D01*
X207398714Y-79986190D01*
X204558380Y-128419809D02*
X205558380Y-127753142D01*
X204558380Y-127753142D02*
X205558380Y-128419809D01*
X205558380Y-127372190D02*
X204558380Y-127372190D01*
X205272666Y-127038857D01*
X204558380Y-126705523D01*
X205558380Y-126705523D01*
X205034571Y-126229333D02*
X205034571Y-125896000D01*
X205558380Y-125753142D02*
X205558380Y-126229333D01*
X204558380Y-126229333D01*
X204558380Y-125753142D01*
X204606000Y-124800761D02*
X204558380Y-124896000D01*
X204558380Y-125038857D01*
X204606000Y-125181714D01*
X204701238Y-125276952D01*
X204796476Y-125324571D01*
X204986952Y-125372190D01*
X205129809Y-125372190D01*
X205320285Y-125324571D01*
X205415523Y-125276952D01*
X205510761Y-125181714D01*
X205558380Y-125038857D01*
X205558380Y-124943619D01*
X205510761Y-124800761D01*
X205463142Y-124753142D01*
X205129809Y-124753142D01*
X205129809Y-124943619D01*
X205272666Y-124372190D02*
X205272666Y-123896000D01*
X205558380Y-124467428D02*
X204558380Y-124134095D01*
X205558380Y-123800761D01*
X205272666Y-122753142D02*
X205272666Y-122276952D01*
X205558380Y-122848380D02*
X204558380Y-122515047D01*
X205558380Y-122181714D01*
X205558380Y-121419809D02*
X204558380Y-121419809D01*
X205510761Y-121419809D02*
X205558380Y-121515047D01*
X205558380Y-121705523D01*
X205510761Y-121800761D01*
X205463142Y-121848380D01*
X205367904Y-121896000D01*
X205082190Y-121896000D01*
X204986952Y-121848380D01*
X204939333Y-121800761D01*
X204891714Y-121705523D01*
X204891714Y-121515047D01*
X204939333Y-121419809D01*
X205558380Y-120515047D02*
X205034571Y-120515047D01*
X204939333Y-120562666D01*
X204891714Y-120657904D01*
X204891714Y-120848380D01*
X204939333Y-120943619D01*
X205510761Y-120515047D02*
X205558380Y-120610285D01*
X205558380Y-120848380D01*
X205510761Y-120943619D01*
X205415523Y-120991238D01*
X205320285Y-120991238D01*
X205225047Y-120943619D01*
X205177428Y-120848380D01*
X205177428Y-120610285D01*
X205129809Y-120515047D01*
X204891714Y-120038857D02*
X205891714Y-120038857D01*
X204939333Y-120038857D02*
X204891714Y-119943619D01*
X204891714Y-119753142D01*
X204939333Y-119657904D01*
X204986952Y-119610285D01*
X205082190Y-119562666D01*
X205367904Y-119562666D01*
X205463142Y-119610285D01*
X205510761Y-119657904D01*
X205558380Y-119753142D01*
X205558380Y-119943619D01*
X205510761Y-120038857D01*
X204891714Y-119276952D02*
X204891714Y-118896000D01*
X204558380Y-119134095D02*
X205415523Y-119134095D01*
X205510761Y-119086476D01*
X205558380Y-118991238D01*
X205558380Y-118896000D01*
X205510761Y-118181714D02*
X205558380Y-118276952D01*
X205558380Y-118467428D01*
X205510761Y-118562666D01*
X205415523Y-118610285D01*
X205034571Y-118610285D01*
X204939333Y-118562666D01*
X204891714Y-118467428D01*
X204891714Y-118276952D01*
X204939333Y-118181714D01*
X205034571Y-118134095D01*
X205129809Y-118134095D01*
X205225047Y-118610285D01*
X205558380Y-117705523D02*
X204891714Y-117705523D01*
X205082190Y-117705523D02*
X204986952Y-117657904D01*
X204939333Y-117610285D01*
X204891714Y-117515047D01*
X204891714Y-117419809D01*
X205034571Y-115991238D02*
X205082190Y-115848380D01*
X205129809Y-115800761D01*
X205225047Y-115753142D01*
X205367904Y-115753142D01*
X205463142Y-115800761D01*
X205510761Y-115848380D01*
X205558380Y-115943619D01*
X205558380Y-116324571D01*
X204558380Y-116324571D01*
X204558380Y-115991238D01*
X204606000Y-115896000D01*
X204653619Y-115848380D01*
X204748857Y-115800761D01*
X204844095Y-115800761D01*
X204939333Y-115848380D01*
X204986952Y-115896000D01*
X205034571Y-115991238D01*
X205034571Y-116324571D01*
X205558380Y-115181714D02*
X205510761Y-115276952D01*
X205463142Y-115324571D01*
X205367904Y-115372190D01*
X205082190Y-115372190D01*
X204986952Y-115324571D01*
X204939333Y-115276952D01*
X204891714Y-115181714D01*
X204891714Y-115038857D01*
X204939333Y-114943619D01*
X204986952Y-114896000D01*
X205082190Y-114848380D01*
X205367904Y-114848380D01*
X205463142Y-114896000D01*
X205510761Y-114943619D01*
X205558380Y-115038857D01*
X205558380Y-115181714D01*
X205558380Y-113991238D02*
X205034571Y-113991238D01*
X204939333Y-114038857D01*
X204891714Y-114134095D01*
X204891714Y-114324571D01*
X204939333Y-114419809D01*
X205510761Y-113991238D02*
X205558380Y-114086476D01*
X205558380Y-114324571D01*
X205510761Y-114419809D01*
X205415523Y-114467428D01*
X205320285Y-114467428D01*
X205225047Y-114419809D01*
X205177428Y-114324571D01*
X205177428Y-114086476D01*
X205129809Y-113991238D01*
X205558380Y-113515047D02*
X204891714Y-113515047D01*
X205082190Y-113515047D02*
X204986952Y-113467428D01*
X204939333Y-113419809D01*
X204891714Y-113324571D01*
X204891714Y-113229333D01*
X205558380Y-112467428D02*
X204558380Y-112467428D01*
X205510761Y-112467428D02*
X205558380Y-112562666D01*
X205558380Y-112753142D01*
X205510761Y-112848380D01*
X205463142Y-112896000D01*
X205367904Y-112943619D01*
X205082190Y-112943619D01*
X204986952Y-112896000D01*
X204939333Y-112848380D01*
X204891714Y-112753142D01*
X204891714Y-112562666D01*
X204939333Y-112467428D01*
X207208380Y-123657904D02*
X206732190Y-123991238D01*
X207208380Y-124229333D02*
X206208380Y-124229333D01*
X206208380Y-123848380D01*
X206256000Y-123753142D01*
X206303619Y-123705523D01*
X206398857Y-123657904D01*
X206541714Y-123657904D01*
X206636952Y-123705523D01*
X206684571Y-123753142D01*
X206732190Y-123848380D01*
X206732190Y-124229333D01*
X207160761Y-122848380D02*
X207208380Y-122943619D01*
X207208380Y-123134095D01*
X207160761Y-123229333D01*
X207065523Y-123276952D01*
X206684571Y-123276952D01*
X206589333Y-123229333D01*
X206541714Y-123134095D01*
X206541714Y-122943619D01*
X206589333Y-122848380D01*
X206684571Y-122800761D01*
X206779809Y-122800761D01*
X206875047Y-123276952D01*
X206541714Y-122467428D02*
X207208380Y-122229333D01*
X206541714Y-121991238D01*
X207113142Y-121610285D02*
X207160761Y-121562666D01*
X207208380Y-121610285D01*
X207160761Y-121657904D01*
X207113142Y-121610285D01*
X207208380Y-121610285D01*
X207113142Y-121134095D02*
X207160761Y-121086476D01*
X207208380Y-121134095D01*
X207160761Y-121181714D01*
X207113142Y-121134095D01*
X207208380Y-121134095D01*
X206589333Y-121134095D02*
X206636952Y-121086476D01*
X206684571Y-121134095D01*
X206636952Y-121181714D01*
X206589333Y-121134095D01*
X206684571Y-121134095D01*
X207208380Y-119372190D02*
X207208380Y-119943619D01*
X207208380Y-119657904D02*
X206208380Y-119657904D01*
X206351238Y-119753142D01*
X206446476Y-119848380D01*
X206494095Y-119943619D01*
X207113142Y-118943619D02*
X207160761Y-118896000D01*
X207208380Y-118943619D01*
X207160761Y-118991238D01*
X207113142Y-118943619D01*
X207208380Y-118943619D01*
X206303619Y-118515047D02*
X206256000Y-118467428D01*
X206208380Y-118372190D01*
X206208380Y-118134095D01*
X206256000Y-118038857D01*
X206303619Y-117991238D01*
X206398857Y-117943619D01*
X206494095Y-117943619D01*
X206636952Y-117991238D01*
X207208380Y-118562666D01*
X207208380Y-117943619D01*
X207113142Y-117515047D02*
X207160761Y-117467428D01*
X207208380Y-117515047D01*
X207160761Y-117562666D01*
X207113142Y-117515047D01*
X207208380Y-117515047D01*
X206208380Y-116848380D02*
X206208380Y-116753142D01*
X206256000Y-116657904D01*
X206303619Y-116610285D01*
X206398857Y-116562666D01*
X206589333Y-116515047D01*
X206827428Y-116515047D01*
X207017904Y-116562666D01*
X207113142Y-116610285D01*
X207160761Y-116657904D01*
X207208380Y-116753142D01*
X207208380Y-116848380D01*
X207160761Y-116943619D01*
X207113142Y-116991238D01*
X207017904Y-117038857D01*
X206827428Y-117086476D01*
X206589333Y-117086476D01*
X206398857Y-117038857D01*
X206303619Y-116991238D01*
X206256000Y-116943619D01*
X206208380Y-116848380D01*
X208191714Y-128538857D02*
X208858380Y-128300761D01*
X208191714Y-128062666D01*
X208858380Y-127538857D02*
X208810761Y-127634095D01*
X208763142Y-127681714D01*
X208667904Y-127729333D01*
X208382190Y-127729333D01*
X208286952Y-127681714D01*
X208239333Y-127634095D01*
X208191714Y-127538857D01*
X208191714Y-127396000D01*
X208239333Y-127300761D01*
X208286952Y-127253142D01*
X208382190Y-127205523D01*
X208667904Y-127205523D01*
X208763142Y-127253142D01*
X208810761Y-127300761D01*
X208858380Y-127396000D01*
X208858380Y-127538857D01*
X208191714Y-126776952D02*
X208858380Y-126776952D01*
X208286952Y-126776952D02*
X208239333Y-126729333D01*
X208191714Y-126634095D01*
X208191714Y-126491238D01*
X208239333Y-126396000D01*
X208334571Y-126348380D01*
X208858380Y-126348380D01*
X208191714Y-125253142D02*
X208191714Y-124872190D01*
X207858380Y-125110285D02*
X208715523Y-125110285D01*
X208810761Y-125062666D01*
X208858380Y-124967428D01*
X208858380Y-124872190D01*
X208858380Y-124538857D02*
X207858380Y-124538857D01*
X208858380Y-124110285D02*
X208334571Y-124110285D01*
X208239333Y-124157904D01*
X208191714Y-124253142D01*
X208191714Y-124396000D01*
X208239333Y-124491238D01*
X208286952Y-124538857D01*
X208858380Y-123491238D02*
X208810761Y-123586476D01*
X208763142Y-123634095D01*
X208667904Y-123681714D01*
X208382190Y-123681714D01*
X208286952Y-123634095D01*
X208239333Y-123586476D01*
X208191714Y-123491238D01*
X208191714Y-123348380D01*
X208239333Y-123253142D01*
X208286952Y-123205523D01*
X208382190Y-123157904D01*
X208667904Y-123157904D01*
X208763142Y-123205523D01*
X208810761Y-123253142D01*
X208858380Y-123348380D01*
X208858380Y-123491238D01*
X208858380Y-122729333D02*
X208191714Y-122729333D01*
X208382190Y-122729333D02*
X208286952Y-122681714D01*
X208239333Y-122634095D01*
X208191714Y-122538857D01*
X208191714Y-122443619D01*
X208810761Y-122157904D02*
X208858380Y-122062666D01*
X208858380Y-121872190D01*
X208810761Y-121776952D01*
X208715523Y-121729333D01*
X208667904Y-121729333D01*
X208572666Y-121776952D01*
X208525047Y-121872190D01*
X208525047Y-122015047D01*
X208477428Y-122110285D01*
X208382190Y-122157904D01*
X208334571Y-122157904D01*
X208239333Y-122110285D01*
X208191714Y-122015047D01*
X208191714Y-121872190D01*
X208239333Y-121776952D01*
X208191714Y-121443619D02*
X208191714Y-121062666D01*
X207858380Y-121300761D02*
X208715523Y-121300761D01*
X208810761Y-121253142D01*
X208858380Y-121157904D01*
X208858380Y-121062666D01*
X208810761Y-120348380D02*
X208858380Y-120443619D01*
X208858380Y-120634095D01*
X208810761Y-120729333D01*
X208715523Y-120776952D01*
X208334571Y-120776952D01*
X208239333Y-120729333D01*
X208191714Y-120634095D01*
X208191714Y-120443619D01*
X208239333Y-120348380D01*
X208334571Y-120300761D01*
X208429809Y-120300761D01*
X208525047Y-120776952D01*
X208191714Y-119872190D02*
X208858380Y-119872190D01*
X208286952Y-119872190D02*
X208239333Y-119824571D01*
X208191714Y-119729333D01*
X208191714Y-119586476D01*
X208239333Y-119491238D01*
X208334571Y-119443619D01*
X208858380Y-119443619D01*
X208858380Y-118205523D02*
X207858380Y-118205523D01*
X208477428Y-118110285D02*
X208858380Y-117824571D01*
X208191714Y-117824571D02*
X208572666Y-118205523D01*
X208858380Y-116967428D02*
X208334571Y-116967428D01*
X208239333Y-117015047D01*
X208191714Y-117110285D01*
X208191714Y-117300761D01*
X208239333Y-117396000D01*
X208810761Y-116967428D02*
X208858380Y-117062666D01*
X208858380Y-117300761D01*
X208810761Y-117396000D01*
X208715523Y-117443619D01*
X208620285Y-117443619D01*
X208525047Y-117396000D01*
X208477428Y-117300761D01*
X208477428Y-117062666D01*
X208429809Y-116967428D01*
X208191714Y-116634095D02*
X208191714Y-116253142D01*
X207858380Y-116491238D02*
X208715523Y-116491238D01*
X208810761Y-116443619D01*
X208858380Y-116348380D01*
X208858380Y-116253142D01*
X208191714Y-116062666D02*
X208191714Y-115681714D01*
X207858380Y-115919809D02*
X208715523Y-115919809D01*
X208810761Y-115872190D01*
X208858380Y-115776952D01*
X208858380Y-115681714D01*
X208858380Y-114919809D02*
X208334571Y-114919809D01*
X208239333Y-114967428D01*
X208191714Y-115062666D01*
X208191714Y-115253142D01*
X208239333Y-115348380D01*
X208810761Y-114919809D02*
X208858380Y-115015047D01*
X208858380Y-115253142D01*
X208810761Y-115348380D01*
X208715523Y-115396000D01*
X208620285Y-115396000D01*
X208525047Y-115348380D01*
X208477428Y-115253142D01*
X208477428Y-115015047D01*
X208429809Y-114919809D01*
X208191714Y-114443619D02*
X208858380Y-114443619D01*
X208286952Y-114443619D02*
X208239333Y-114396000D01*
X208191714Y-114300761D01*
X208191714Y-114157904D01*
X208239333Y-114062666D01*
X208334571Y-114015047D01*
X208858380Y-114015047D01*
X208810761Y-113157904D02*
X208858380Y-113253142D01*
X208858380Y-113443619D01*
X208810761Y-113538857D01*
X208715523Y-113586476D01*
X208334571Y-113586476D01*
X208239333Y-113538857D01*
X208191714Y-113443619D01*
X208191714Y-113253142D01*
X208239333Y-113157904D01*
X208334571Y-113110285D01*
X208429809Y-113110285D01*
X208525047Y-113586476D01*
X208858380Y-112681714D02*
X207858380Y-112681714D01*
X208477428Y-112586476D02*
X208858380Y-112300761D01*
X208191714Y-112300761D02*
X208572666Y-112681714D01*
X210597904Y-135580380D02*
X210597904Y-134580380D01*
X210978857Y-134580380D01*
X211074095Y-134628000D01*
X211121714Y-134675619D01*
X211169333Y-134770857D01*
X211169333Y-134913714D01*
X211121714Y-135008952D01*
X211074095Y-135056571D01*
X210978857Y-135104190D01*
X210597904Y-135104190D01*
X211597904Y-135580380D02*
X211597904Y-134580380D01*
X211836000Y-134580380D01*
X211978857Y-134628000D01*
X212074095Y-134723238D01*
X212121714Y-134818476D01*
X212169333Y-135008952D01*
X212169333Y-135151809D01*
X212121714Y-135342285D01*
X212074095Y-135437523D01*
X211978857Y-135532761D01*
X211836000Y-135580380D01*
X211597904Y-135580380D01*
X212788380Y-134580380D02*
X212883619Y-134580380D01*
X212978857Y-134628000D01*
X213026476Y-134675619D01*
X213074095Y-134770857D01*
X213121714Y-134961333D01*
X213121714Y-135199428D01*
X213074095Y-135389904D01*
X213026476Y-135485142D01*
X212978857Y-135532761D01*
X212883619Y-135580380D01*
X212788380Y-135580380D01*
X212693142Y-135532761D01*
X212645523Y-135485142D01*
X212597904Y-135389904D01*
X212550285Y-135199428D01*
X212550285Y-134961333D01*
X212597904Y-134770857D01*
X212645523Y-134675619D01*
X212693142Y-134628000D01*
X212788380Y-134580380D01*
X210597904Y-133040380D02*
X210597904Y-132040380D01*
X210978857Y-132040380D01*
X211074095Y-132088000D01*
X211121714Y-132135619D01*
X211169333Y-132230857D01*
X211169333Y-132373714D01*
X211121714Y-132468952D01*
X211074095Y-132516571D01*
X210978857Y-132564190D01*
X210597904Y-132564190D01*
X211597904Y-133040380D02*
X211597904Y-132040380D01*
X211836000Y-132040380D01*
X211978857Y-132088000D01*
X212074095Y-132183238D01*
X212121714Y-132278476D01*
X212169333Y-132468952D01*
X212169333Y-132611809D01*
X212121714Y-132802285D01*
X212074095Y-132897523D01*
X211978857Y-132992761D01*
X211836000Y-133040380D01*
X211597904Y-133040380D01*
X213121714Y-133040380D02*
X212550285Y-133040380D01*
X212836000Y-133040380D02*
X212836000Y-132040380D01*
X212740761Y-132183238D01*
X212645523Y-132278476D01*
X212550285Y-132326095D01*
X210597904Y-130500380D02*
X210597904Y-129500380D01*
X210978857Y-129500380D01*
X211074095Y-129548000D01*
X211121714Y-129595619D01*
X211169333Y-129690857D01*
X211169333Y-129833714D01*
X211121714Y-129928952D01*
X211074095Y-129976571D01*
X210978857Y-130024190D01*
X210597904Y-130024190D01*
X211597904Y-130500380D02*
X211597904Y-129500380D01*
X211836000Y-129500380D01*
X211978857Y-129548000D01*
X212074095Y-129643238D01*
X212121714Y-129738476D01*
X212169333Y-129928952D01*
X212169333Y-130071809D01*
X212121714Y-130262285D01*
X212074095Y-130357523D01*
X211978857Y-130452761D01*
X211836000Y-130500380D01*
X211597904Y-130500380D01*
X212550285Y-129595619D02*
X212597904Y-129548000D01*
X212693142Y-129500380D01*
X212931238Y-129500380D01*
X213026476Y-129548000D01*
X213074095Y-129595619D01*
X213121714Y-129690857D01*
X213121714Y-129786095D01*
X213074095Y-129928952D01*
X212502666Y-130500380D01*
X213121714Y-130500380D01*
X210597904Y-127960380D02*
X210597904Y-126960380D01*
X210978857Y-126960380D01*
X211074095Y-127008000D01*
X211121714Y-127055619D01*
X211169333Y-127150857D01*
X211169333Y-127293714D01*
X211121714Y-127388952D01*
X211074095Y-127436571D01*
X210978857Y-127484190D01*
X210597904Y-127484190D01*
X211597904Y-127960380D02*
X211597904Y-126960380D01*
X211836000Y-126960380D01*
X211978857Y-127008000D01*
X212074095Y-127103238D01*
X212121714Y-127198476D01*
X212169333Y-127388952D01*
X212169333Y-127531809D01*
X212121714Y-127722285D01*
X212074095Y-127817523D01*
X211978857Y-127912761D01*
X211836000Y-127960380D01*
X211597904Y-127960380D01*
X212502666Y-126960380D02*
X213121714Y-126960380D01*
X212788380Y-127341333D01*
X212931238Y-127341333D01*
X213026476Y-127388952D01*
X213074095Y-127436571D01*
X213121714Y-127531809D01*
X213121714Y-127769904D01*
X213074095Y-127865142D01*
X213026476Y-127912761D01*
X212931238Y-127960380D01*
X212645523Y-127960380D01*
X212550285Y-127912761D01*
X212502666Y-127865142D01*
X210597904Y-125420380D02*
X210597904Y-124420380D01*
X210978857Y-124420380D01*
X211074095Y-124468000D01*
X211121714Y-124515619D01*
X211169333Y-124610857D01*
X211169333Y-124753714D01*
X211121714Y-124848952D01*
X211074095Y-124896571D01*
X210978857Y-124944190D01*
X210597904Y-124944190D01*
X211597904Y-125420380D02*
X211597904Y-124420380D01*
X211836000Y-124420380D01*
X211978857Y-124468000D01*
X212074095Y-124563238D01*
X212121714Y-124658476D01*
X212169333Y-124848952D01*
X212169333Y-124991809D01*
X212121714Y-125182285D01*
X212074095Y-125277523D01*
X211978857Y-125372761D01*
X211836000Y-125420380D01*
X211597904Y-125420380D01*
X213026476Y-124753714D02*
X213026476Y-125420380D01*
X212788380Y-124372761D02*
X212550285Y-125087047D01*
X213169333Y-125087047D01*
X210597904Y-122880380D02*
X210597904Y-121880380D01*
X210978857Y-121880380D01*
X211074095Y-121928000D01*
X211121714Y-121975619D01*
X211169333Y-122070857D01*
X211169333Y-122213714D01*
X211121714Y-122308952D01*
X211074095Y-122356571D01*
X210978857Y-122404190D01*
X210597904Y-122404190D01*
X211597904Y-122880380D02*
X211597904Y-121880380D01*
X211836000Y-121880380D01*
X211978857Y-121928000D01*
X212074095Y-122023238D01*
X212121714Y-122118476D01*
X212169333Y-122308952D01*
X212169333Y-122451809D01*
X212121714Y-122642285D01*
X212074095Y-122737523D01*
X211978857Y-122832761D01*
X211836000Y-122880380D01*
X211597904Y-122880380D01*
X213074095Y-121880380D02*
X212597904Y-121880380D01*
X212550285Y-122356571D01*
X212597904Y-122308952D01*
X212693142Y-122261333D01*
X212931238Y-122261333D01*
X213026476Y-122308952D01*
X213074095Y-122356571D01*
X213121714Y-122451809D01*
X213121714Y-122689904D01*
X213074095Y-122785142D01*
X213026476Y-122832761D01*
X212931238Y-122880380D01*
X212693142Y-122880380D01*
X212597904Y-122832761D01*
X212550285Y-122785142D01*
X210597904Y-120340380D02*
X210597904Y-119340380D01*
X210978857Y-119340380D01*
X211074095Y-119388000D01*
X211121714Y-119435619D01*
X211169333Y-119530857D01*
X211169333Y-119673714D01*
X211121714Y-119768952D01*
X211074095Y-119816571D01*
X210978857Y-119864190D01*
X210597904Y-119864190D01*
X211597904Y-120340380D02*
X211597904Y-119340380D01*
X211836000Y-119340380D01*
X211978857Y-119388000D01*
X212074095Y-119483238D01*
X212121714Y-119578476D01*
X212169333Y-119768952D01*
X212169333Y-119911809D01*
X212121714Y-120102285D01*
X212074095Y-120197523D01*
X211978857Y-120292761D01*
X211836000Y-120340380D01*
X211597904Y-120340380D01*
X213026476Y-119340380D02*
X212836000Y-119340380D01*
X212740761Y-119388000D01*
X212693142Y-119435619D01*
X212597904Y-119578476D01*
X212550285Y-119768952D01*
X212550285Y-120149904D01*
X212597904Y-120245142D01*
X212645523Y-120292761D01*
X212740761Y-120340380D01*
X212931238Y-120340380D01*
X213026476Y-120292761D01*
X213074095Y-120245142D01*
X213121714Y-120149904D01*
X213121714Y-119911809D01*
X213074095Y-119816571D01*
X213026476Y-119768952D01*
X212931238Y-119721333D01*
X212740761Y-119721333D01*
X212645523Y-119768952D01*
X212597904Y-119816571D01*
X212550285Y-119911809D01*
X210597904Y-117800380D02*
X210597904Y-116800380D01*
X210978857Y-116800380D01*
X211074095Y-116848000D01*
X211121714Y-116895619D01*
X211169333Y-116990857D01*
X211169333Y-117133714D01*
X211121714Y-117228952D01*
X211074095Y-117276571D01*
X210978857Y-117324190D01*
X210597904Y-117324190D01*
X211597904Y-117800380D02*
X211597904Y-116800380D01*
X211836000Y-116800380D01*
X211978857Y-116848000D01*
X212074095Y-116943238D01*
X212121714Y-117038476D01*
X212169333Y-117228952D01*
X212169333Y-117371809D01*
X212121714Y-117562285D01*
X212074095Y-117657523D01*
X211978857Y-117752761D01*
X211836000Y-117800380D01*
X211597904Y-117800380D01*
X212502666Y-116800380D02*
X213169333Y-116800380D01*
X212740761Y-117800380D01*
X210645523Y-115260380D02*
X210645523Y-114260380D01*
X211026476Y-114260380D01*
X211121714Y-114308000D01*
X211169333Y-114355619D01*
X211216952Y-114450857D01*
X211216952Y-114593714D01*
X211169333Y-114688952D01*
X211121714Y-114736571D01*
X211026476Y-114784190D01*
X210645523Y-114784190D01*
X211645523Y-114736571D02*
X211978857Y-114736571D01*
X212121714Y-115260380D02*
X211645523Y-115260380D01*
X211645523Y-114260380D01*
X212121714Y-114260380D01*
X212740761Y-114260380D02*
X212836000Y-114260380D01*
X212931238Y-114308000D01*
X212978857Y-114355619D01*
X213026476Y-114450857D01*
X213074095Y-114641333D01*
X213074095Y-114879428D01*
X213026476Y-115069904D01*
X212978857Y-115165142D01*
X212931238Y-115212761D01*
X212836000Y-115260380D01*
X212740761Y-115260380D01*
X212645523Y-115212761D01*
X212597904Y-115165142D01*
X212550285Y-115069904D01*
X212502666Y-114879428D01*
X212502666Y-114641333D01*
X212550285Y-114450857D01*
X212597904Y-114355619D01*
X212645523Y-114308000D01*
X212740761Y-114260380D01*
X210645523Y-112720380D02*
X210645523Y-111720380D01*
X211026476Y-111720380D01*
X211121714Y-111768000D01*
X211169333Y-111815619D01*
X211216952Y-111910857D01*
X211216952Y-112053714D01*
X211169333Y-112148952D01*
X211121714Y-112196571D01*
X211026476Y-112244190D01*
X210645523Y-112244190D01*
X211645523Y-112196571D02*
X211978857Y-112196571D01*
X212121714Y-112720380D02*
X211645523Y-112720380D01*
X211645523Y-111720380D01*
X212121714Y-111720380D01*
X213074095Y-112720380D02*
X212502666Y-112720380D01*
X212788380Y-112720380D02*
X212788380Y-111720380D01*
X212693142Y-111863238D01*
X212597904Y-111958476D01*
X212502666Y-112006095D01*
X210645523Y-110180380D02*
X210645523Y-109180380D01*
X211026476Y-109180380D01*
X211121714Y-109228000D01*
X211169333Y-109275619D01*
X211216952Y-109370857D01*
X211216952Y-109513714D01*
X211169333Y-109608952D01*
X211121714Y-109656571D01*
X211026476Y-109704190D01*
X210645523Y-109704190D01*
X211645523Y-109656571D02*
X211978857Y-109656571D01*
X212121714Y-110180380D02*
X211645523Y-110180380D01*
X211645523Y-109180380D01*
X212121714Y-109180380D01*
X212502666Y-109275619D02*
X212550285Y-109228000D01*
X212645523Y-109180380D01*
X212883619Y-109180380D01*
X212978857Y-109228000D01*
X213026476Y-109275619D01*
X213074095Y-109370857D01*
X213074095Y-109466095D01*
X213026476Y-109608952D01*
X212455047Y-110180380D01*
X213074095Y-110180380D01*
X210645523Y-107640380D02*
X210645523Y-106640380D01*
X211026476Y-106640380D01*
X211121714Y-106688000D01*
X211169333Y-106735619D01*
X211216952Y-106830857D01*
X211216952Y-106973714D01*
X211169333Y-107068952D01*
X211121714Y-107116571D01*
X211026476Y-107164190D01*
X210645523Y-107164190D01*
X211645523Y-107116571D02*
X211978857Y-107116571D01*
X212121714Y-107640380D02*
X211645523Y-107640380D01*
X211645523Y-106640380D01*
X212121714Y-106640380D01*
X212455047Y-106640380D02*
X213074095Y-106640380D01*
X212740761Y-107021333D01*
X212883619Y-107021333D01*
X212978857Y-107068952D01*
X213026476Y-107116571D01*
X213074095Y-107211809D01*
X213074095Y-107449904D01*
X213026476Y-107545142D01*
X212978857Y-107592761D01*
X212883619Y-107640380D01*
X212597904Y-107640380D01*
X212502666Y-107592761D01*
X212455047Y-107545142D01*
X210645523Y-105100380D02*
X210645523Y-104100380D01*
X211026476Y-104100380D01*
X211121714Y-104148000D01*
X211169333Y-104195619D01*
X211216952Y-104290857D01*
X211216952Y-104433714D01*
X211169333Y-104528952D01*
X211121714Y-104576571D01*
X211026476Y-104624190D01*
X210645523Y-104624190D01*
X211645523Y-104576571D02*
X211978857Y-104576571D01*
X212121714Y-105100380D02*
X211645523Y-105100380D01*
X211645523Y-104100380D01*
X212121714Y-104100380D01*
X212978857Y-104433714D02*
X212978857Y-105100380D01*
X212740761Y-104052761D02*
X212502666Y-104767047D01*
X213121714Y-104767047D01*
X210645523Y-102560380D02*
X210645523Y-101560380D01*
X211026476Y-101560380D01*
X211121714Y-101608000D01*
X211169333Y-101655619D01*
X211216952Y-101750857D01*
X211216952Y-101893714D01*
X211169333Y-101988952D01*
X211121714Y-102036571D01*
X211026476Y-102084190D01*
X210645523Y-102084190D01*
X211645523Y-102036571D02*
X211978857Y-102036571D01*
X212121714Y-102560380D02*
X211645523Y-102560380D01*
X211645523Y-101560380D01*
X212121714Y-101560380D01*
X213026476Y-101560380D02*
X212550285Y-101560380D01*
X212502666Y-102036571D01*
X212550285Y-101988952D01*
X212645523Y-101941333D01*
X212883619Y-101941333D01*
X212978857Y-101988952D01*
X213026476Y-102036571D01*
X213074095Y-102131809D01*
X213074095Y-102369904D01*
X213026476Y-102465142D01*
X212978857Y-102512761D01*
X212883619Y-102560380D01*
X212645523Y-102560380D01*
X212550285Y-102512761D01*
X212502666Y-102465142D01*
X210645523Y-100020380D02*
X210645523Y-99020380D01*
X211026476Y-99020380D01*
X211121714Y-99068000D01*
X211169333Y-99115619D01*
X211216952Y-99210857D01*
X211216952Y-99353714D01*
X211169333Y-99448952D01*
X211121714Y-99496571D01*
X211026476Y-99544190D01*
X210645523Y-99544190D01*
X211645523Y-99496571D02*
X211978857Y-99496571D01*
X212121714Y-100020380D02*
X211645523Y-100020380D01*
X211645523Y-99020380D01*
X212121714Y-99020380D01*
X212978857Y-99020380D02*
X212788380Y-99020380D01*
X212693142Y-99068000D01*
X212645523Y-99115619D01*
X212550285Y-99258476D01*
X212502666Y-99448952D01*
X212502666Y-99829904D01*
X212550285Y-99925142D01*
X212597904Y-99972761D01*
X212693142Y-100020380D01*
X212883619Y-100020380D01*
X212978857Y-99972761D01*
X213026476Y-99925142D01*
X213074095Y-99829904D01*
X213074095Y-99591809D01*
X213026476Y-99496571D01*
X212978857Y-99448952D01*
X212883619Y-99401333D01*
X212693142Y-99401333D01*
X212597904Y-99448952D01*
X212550285Y-99496571D01*
X212502666Y-99591809D01*
X210645523Y-97480380D02*
X210645523Y-96480380D01*
X211026476Y-96480380D01*
X211121714Y-96528000D01*
X211169333Y-96575619D01*
X211216952Y-96670857D01*
X211216952Y-96813714D01*
X211169333Y-96908952D01*
X211121714Y-96956571D01*
X211026476Y-97004190D01*
X210645523Y-97004190D01*
X211645523Y-96956571D02*
X211978857Y-96956571D01*
X212121714Y-97480380D02*
X211645523Y-97480380D01*
X211645523Y-96480380D01*
X212121714Y-96480380D01*
X212455047Y-96480380D02*
X213121714Y-96480380D01*
X212693142Y-97480380D01*
X210669333Y-94940380D02*
X210669333Y-93940380D01*
X211050285Y-93940380D01*
X211145523Y-93988000D01*
X211193142Y-94035619D01*
X211240761Y-94130857D01*
X211240761Y-94273714D01*
X211193142Y-94368952D01*
X211145523Y-94416571D01*
X211050285Y-94464190D01*
X210669333Y-94464190D01*
X212002666Y-94416571D02*
X211669333Y-94416571D01*
X211669333Y-94940380D02*
X211669333Y-93940380D01*
X212145523Y-93940380D01*
X212716952Y-93940380D02*
X212812190Y-93940380D01*
X212907428Y-93988000D01*
X212955047Y-94035619D01*
X213002666Y-94130857D01*
X213050285Y-94321333D01*
X213050285Y-94559428D01*
X213002666Y-94749904D01*
X212955047Y-94845142D01*
X212907428Y-94892761D01*
X212812190Y-94940380D01*
X212716952Y-94940380D01*
X212621714Y-94892761D01*
X212574095Y-94845142D01*
X212526476Y-94749904D01*
X212478857Y-94559428D01*
X212478857Y-94321333D01*
X212526476Y-94130857D01*
X212574095Y-94035619D01*
X212621714Y-93988000D01*
X212716952Y-93940380D01*
X210669333Y-92400380D02*
X210669333Y-91400380D01*
X211050285Y-91400380D01*
X211145523Y-91448000D01*
X211193142Y-91495619D01*
X211240761Y-91590857D01*
X211240761Y-91733714D01*
X211193142Y-91828952D01*
X211145523Y-91876571D01*
X211050285Y-91924190D01*
X210669333Y-91924190D01*
X212002666Y-91876571D02*
X211669333Y-91876571D01*
X211669333Y-92400380D02*
X211669333Y-91400380D01*
X212145523Y-91400380D01*
X213050285Y-92400380D02*
X212478857Y-92400380D01*
X212764571Y-92400380D02*
X212764571Y-91400380D01*
X212669333Y-91543238D01*
X212574095Y-91638476D01*
X212478857Y-91686095D01*
X210669333Y-89860380D02*
X210669333Y-88860380D01*
X211050285Y-88860380D01*
X211145523Y-88908000D01*
X211193142Y-88955619D01*
X211240761Y-89050857D01*
X211240761Y-89193714D01*
X211193142Y-89288952D01*
X211145523Y-89336571D01*
X211050285Y-89384190D01*
X210669333Y-89384190D01*
X212002666Y-89336571D02*
X211669333Y-89336571D01*
X211669333Y-89860380D02*
X211669333Y-88860380D01*
X212145523Y-88860380D01*
X212478857Y-88955619D02*
X212526476Y-88908000D01*
X212621714Y-88860380D01*
X212859809Y-88860380D01*
X212955047Y-88908000D01*
X213002666Y-88955619D01*
X213050285Y-89050857D01*
X213050285Y-89146095D01*
X213002666Y-89288952D01*
X212431238Y-89860380D01*
X213050285Y-89860380D01*
X210669333Y-87320380D02*
X210669333Y-86320380D01*
X211050285Y-86320380D01*
X211145523Y-86368000D01*
X211193142Y-86415619D01*
X211240761Y-86510857D01*
X211240761Y-86653714D01*
X211193142Y-86748952D01*
X211145523Y-86796571D01*
X211050285Y-86844190D01*
X210669333Y-86844190D01*
X212002666Y-86796571D02*
X211669333Y-86796571D01*
X211669333Y-87320380D02*
X211669333Y-86320380D01*
X212145523Y-86320380D01*
X212431238Y-86320380D02*
X213050285Y-86320380D01*
X212716952Y-86701333D01*
X212859809Y-86701333D01*
X212955047Y-86748952D01*
X213002666Y-86796571D01*
X213050285Y-86891809D01*
X213050285Y-87129904D01*
X213002666Y-87225142D01*
X212955047Y-87272761D01*
X212859809Y-87320380D01*
X212574095Y-87320380D01*
X212478857Y-87272761D01*
X212431238Y-87225142D01*
X210669333Y-84780380D02*
X210669333Y-83780380D01*
X211050285Y-83780380D01*
X211145523Y-83828000D01*
X211193142Y-83875619D01*
X211240761Y-83970857D01*
X211240761Y-84113714D01*
X211193142Y-84208952D01*
X211145523Y-84256571D01*
X211050285Y-84304190D01*
X210669333Y-84304190D01*
X212002666Y-84256571D02*
X211669333Y-84256571D01*
X211669333Y-84780380D02*
X211669333Y-83780380D01*
X212145523Y-83780380D01*
X212955047Y-84113714D02*
X212955047Y-84780380D01*
X212716952Y-83732761D02*
X212478857Y-84447047D01*
X213097904Y-84447047D01*
X210669333Y-82240380D02*
X210669333Y-81240380D01*
X211050285Y-81240380D01*
X211145523Y-81288000D01*
X211193142Y-81335619D01*
X211240761Y-81430857D01*
X211240761Y-81573714D01*
X211193142Y-81668952D01*
X211145523Y-81716571D01*
X211050285Y-81764190D01*
X210669333Y-81764190D01*
X212002666Y-81716571D02*
X211669333Y-81716571D01*
X211669333Y-82240380D02*
X211669333Y-81240380D01*
X212145523Y-81240380D01*
X213002666Y-81240380D02*
X212526476Y-81240380D01*
X212478857Y-81716571D01*
X212526476Y-81668952D01*
X212621714Y-81621333D01*
X212859809Y-81621333D01*
X212955047Y-81668952D01*
X213002666Y-81716571D01*
X213050285Y-81811809D01*
X213050285Y-82049904D01*
X213002666Y-82145142D01*
X212955047Y-82192761D01*
X212859809Y-82240380D01*
X212621714Y-82240380D01*
X212526476Y-82192761D01*
X212478857Y-82145142D01*
X210669333Y-79700380D02*
X210669333Y-78700380D01*
X211050285Y-78700380D01*
X211145523Y-78748000D01*
X211193142Y-78795619D01*
X211240761Y-78890857D01*
X211240761Y-79033714D01*
X211193142Y-79128952D01*
X211145523Y-79176571D01*
X211050285Y-79224190D01*
X210669333Y-79224190D01*
X212002666Y-79176571D02*
X211669333Y-79176571D01*
X211669333Y-79700380D02*
X211669333Y-78700380D01*
X212145523Y-78700380D01*
X212955047Y-78700380D02*
X212764571Y-78700380D01*
X212669333Y-78748000D01*
X212621714Y-78795619D01*
X212526476Y-78938476D01*
X212478857Y-79128952D01*
X212478857Y-79509904D01*
X212526476Y-79605142D01*
X212574095Y-79652761D01*
X212669333Y-79700380D01*
X212859809Y-79700380D01*
X212955047Y-79652761D01*
X213002666Y-79605142D01*
X213050285Y-79509904D01*
X213050285Y-79271809D01*
X213002666Y-79176571D01*
X212955047Y-79128952D01*
X212859809Y-79081333D01*
X212669333Y-79081333D01*
X212574095Y-79128952D01*
X212526476Y-79176571D01*
X212478857Y-79271809D01*
X210669333Y-77160380D02*
X210669333Y-76160380D01*
X211050285Y-76160380D01*
X211145523Y-76208000D01*
X211193142Y-76255619D01*
X211240761Y-76350857D01*
X211240761Y-76493714D01*
X211193142Y-76588952D01*
X211145523Y-76636571D01*
X211050285Y-76684190D01*
X210669333Y-76684190D01*
X212002666Y-76636571D02*
X211669333Y-76636571D01*
X211669333Y-77160380D02*
X211669333Y-76160380D01*
X212145523Y-76160380D01*
X212431238Y-76160380D02*
X213097904Y-76160380D01*
X212669333Y-77160380D01*
X205510285Y-74620380D02*
X205510285Y-73620380D01*
X205891238Y-73620380D01*
X205986476Y-73668000D01*
X206034095Y-73715619D01*
X206081714Y-73810857D01*
X206081714Y-73953714D01*
X206034095Y-74048952D01*
X205986476Y-74096571D01*
X205891238Y-74144190D01*
X205510285Y-74144190D01*
X207081714Y-74620380D02*
X206748380Y-74144190D01*
X206510285Y-74620380D02*
X206510285Y-73620380D01*
X206891238Y-73620380D01*
X206986476Y-73668000D01*
X207034095Y-73715619D01*
X207081714Y-73810857D01*
X207081714Y-73953714D01*
X207034095Y-74048952D01*
X206986476Y-74096571D01*
X206891238Y-74144190D01*
X206510285Y-74144190D01*
X208034095Y-74620380D02*
X207462666Y-74620380D01*
X207748380Y-74620380D02*
X207748380Y-73620380D01*
X207653142Y-73763238D01*
X207557904Y-73858476D01*
X207462666Y-73906095D01*
X209129333Y-73620380D02*
X209796000Y-74620380D01*
X209796000Y-73620380D02*
X209129333Y-74620380D01*
X210034095Y-73620380D02*
X210605523Y-73620380D01*
X210319809Y-74620380D02*
X210319809Y-73620380D01*
X210891238Y-74334666D02*
X211367428Y-74334666D01*
X210796000Y-74620380D02*
X211129333Y-73620380D01*
X211462666Y-74620380D01*
X212272190Y-74620380D02*
X211796000Y-74620380D01*
X211796000Y-73620380D01*
X213129333Y-74620380D02*
X212557904Y-74620380D01*
X212843619Y-74620380D02*
X212843619Y-73620380D01*
X212748380Y-73763238D01*
X212653142Y-73858476D01*
X212557904Y-73906095D01*
X205510285Y-72080380D02*
X205510285Y-71080380D01*
X205891238Y-71080380D01*
X205986476Y-71128000D01*
X206034095Y-71175619D01*
X206081714Y-71270857D01*
X206081714Y-71413714D01*
X206034095Y-71508952D01*
X205986476Y-71556571D01*
X205891238Y-71604190D01*
X205510285Y-71604190D01*
X207081714Y-72080380D02*
X206748380Y-71604190D01*
X206510285Y-72080380D02*
X206510285Y-71080380D01*
X206891238Y-71080380D01*
X206986476Y-71128000D01*
X207034095Y-71175619D01*
X207081714Y-71270857D01*
X207081714Y-71413714D01*
X207034095Y-71508952D01*
X206986476Y-71556571D01*
X206891238Y-71604190D01*
X206510285Y-71604190D01*
X207700761Y-71080380D02*
X207796000Y-71080380D01*
X207891238Y-71128000D01*
X207938857Y-71175619D01*
X207986476Y-71270857D01*
X208034095Y-71461333D01*
X208034095Y-71699428D01*
X207986476Y-71889904D01*
X207938857Y-71985142D01*
X207891238Y-72032761D01*
X207796000Y-72080380D01*
X207700761Y-72080380D01*
X207605523Y-72032761D01*
X207557904Y-71985142D01*
X207510285Y-71889904D01*
X207462666Y-71699428D01*
X207462666Y-71461333D01*
X207510285Y-71270857D01*
X207557904Y-71175619D01*
X207605523Y-71128000D01*
X207700761Y-71080380D01*
X209129333Y-71080380D02*
X209796000Y-72080380D01*
X209796000Y-71080380D02*
X209129333Y-72080380D01*
X210034095Y-71080380D02*
X210605523Y-71080380D01*
X210319809Y-72080380D02*
X210319809Y-71080380D01*
X210891238Y-71794666D02*
X211367428Y-71794666D01*
X210796000Y-72080380D02*
X211129333Y-71080380D01*
X211462666Y-72080380D01*
X212272190Y-72080380D02*
X211796000Y-72080380D01*
X211796000Y-71080380D01*
X212557904Y-71175619D02*
X212605523Y-71128000D01*
X212700761Y-71080380D01*
X212938857Y-71080380D01*
X213034095Y-71128000D01*
X213081714Y-71175619D01*
X213129333Y-71270857D01*
X213129333Y-71366095D01*
X213081714Y-71508952D01*
X212510285Y-72080380D01*
X213129333Y-72080380D01*
X206684952Y-69540380D02*
X206684952Y-68540380D01*
X207065904Y-68540380D01*
X207161142Y-68588000D01*
X207208761Y-68635619D01*
X207256380Y-68730857D01*
X207256380Y-68873714D01*
X207208761Y-68968952D01*
X207161142Y-69016571D01*
X207065904Y-69064190D01*
X206684952Y-69064190D01*
X207684952Y-69540380D02*
X207684952Y-68540380D01*
X207923047Y-68540380D01*
X208065904Y-68588000D01*
X208161142Y-68683238D01*
X208208761Y-68778476D01*
X208256380Y-68968952D01*
X208256380Y-69111809D01*
X208208761Y-69302285D01*
X208161142Y-69397523D01*
X208065904Y-69492761D01*
X207923047Y-69540380D01*
X207684952Y-69540380D01*
X208684952Y-69540380D02*
X208684952Y-68540380D01*
X209923047Y-69540380D02*
X209923047Y-68540380D01*
X210161142Y-68540380D01*
X210304000Y-68588000D01*
X210399238Y-68683238D01*
X210446857Y-68778476D01*
X210494476Y-68968952D01*
X210494476Y-69111809D01*
X210446857Y-69302285D01*
X210399238Y-69397523D01*
X210304000Y-69492761D01*
X210161142Y-69540380D01*
X209923047Y-69540380D01*
X210875428Y-69254666D02*
X211351619Y-69254666D01*
X210780190Y-69540380D02*
X211113523Y-68540380D01*
X211446857Y-69540380D01*
X211637333Y-68540380D02*
X212208761Y-68540380D01*
X211923047Y-69540380D02*
X211923047Y-68540380D01*
X212494476Y-69254666D02*
X212970666Y-69254666D01*
X212399238Y-69540380D02*
X212732571Y-68540380D01*
X213065904Y-69540380D01*
X202518000Y-66873380D02*
X202184666Y-66397190D01*
X201946571Y-66873380D02*
X201946571Y-65873380D01*
X202327523Y-65873380D01*
X202422761Y-65921000D01*
X202470380Y-65968619D01*
X202518000Y-66063857D01*
X202518000Y-66206714D01*
X202470380Y-66301952D01*
X202422761Y-66349571D01*
X202327523Y-66397190D01*
X201946571Y-66397190D01*
X202946571Y-66349571D02*
X203279904Y-66349571D01*
X203422761Y-66873380D02*
X202946571Y-66873380D01*
X202946571Y-65873380D01*
X203422761Y-65873380D01*
X203803714Y-66825761D02*
X203946571Y-66873380D01*
X204184666Y-66873380D01*
X204279904Y-66825761D01*
X204327523Y-66778142D01*
X204375142Y-66682904D01*
X204375142Y-66587666D01*
X204327523Y-66492428D01*
X204279904Y-66444809D01*
X204184666Y-66397190D01*
X203994190Y-66349571D01*
X203898952Y-66301952D01*
X203851333Y-66254333D01*
X203803714Y-66159095D01*
X203803714Y-66063857D01*
X203851333Y-65968619D01*
X203898952Y-65921000D01*
X203994190Y-65873380D01*
X204232285Y-65873380D01*
X204375142Y-65921000D01*
X204803714Y-66349571D02*
X205137047Y-66349571D01*
X205279904Y-66873380D02*
X204803714Y-66873380D01*
X204803714Y-65873380D01*
X205279904Y-65873380D01*
X205565619Y-65873380D02*
X206137047Y-65873380D01*
X205851333Y-66873380D02*
X205851333Y-65873380D01*
X207184666Y-65825761D02*
X206327523Y-67111476D01*
X207518000Y-66873380D02*
X207518000Y-65873380D01*
X207898952Y-65873380D01*
X207994190Y-65921000D01*
X208041809Y-65968619D01*
X208089428Y-66063857D01*
X208089428Y-66206714D01*
X208041809Y-66301952D01*
X207994190Y-66349571D01*
X207898952Y-66397190D01*
X207518000Y-66397190D01*
X208518000Y-66873380D02*
X208518000Y-65873380D01*
X208756095Y-65873380D01*
X208898952Y-65921000D01*
X208994190Y-66016238D01*
X209041809Y-66111476D01*
X209089428Y-66301952D01*
X209089428Y-66444809D01*
X209041809Y-66635285D01*
X208994190Y-66730523D01*
X208898952Y-66825761D01*
X208756095Y-66873380D01*
X208518000Y-66873380D01*
X209518000Y-66873380D02*
X209518000Y-65873380D01*
X211327523Y-66778142D02*
X211279904Y-66825761D01*
X211137047Y-66873380D01*
X211041809Y-66873380D01*
X210898952Y-66825761D01*
X210803714Y-66730523D01*
X210756095Y-66635285D01*
X210708476Y-66444809D01*
X210708476Y-66301952D01*
X210756095Y-66111476D01*
X210803714Y-66016238D01*
X210898952Y-65921000D01*
X211041809Y-65873380D01*
X211137047Y-65873380D01*
X211279904Y-65921000D01*
X211327523Y-65968619D01*
X212232285Y-66873380D02*
X211756095Y-66873380D01*
X211756095Y-65873380D01*
X212565619Y-66873380D02*
X212565619Y-65873380D01*
X213137047Y-66873380D02*
X212708476Y-66301952D01*
X213137047Y-65873380D02*
X212565619Y-66444809D01*
X189769904Y-135580380D02*
X189769904Y-134580380D01*
X190150857Y-134580380D01*
X190246095Y-134628000D01*
X190293714Y-134675619D01*
X190341333Y-134770857D01*
X190341333Y-134913714D01*
X190293714Y-135008952D01*
X190246095Y-135056571D01*
X190150857Y-135104190D01*
X189769904Y-135104190D01*
X191341333Y-135485142D02*
X191293714Y-135532761D01*
X191150857Y-135580380D01*
X191055619Y-135580380D01*
X190912761Y-135532761D01*
X190817523Y-135437523D01*
X190769904Y-135342285D01*
X190722285Y-135151809D01*
X190722285Y-135008952D01*
X190769904Y-134818476D01*
X190817523Y-134723238D01*
X190912761Y-134628000D01*
X191055619Y-134580380D01*
X191150857Y-134580380D01*
X191293714Y-134628000D01*
X191341333Y-134675619D01*
X191674666Y-134580380D02*
X192341333Y-134580380D01*
X191912761Y-135580380D01*
X189769904Y-133040380D02*
X189769904Y-132040380D01*
X190150857Y-132040380D01*
X190246095Y-132088000D01*
X190293714Y-132135619D01*
X190341333Y-132230857D01*
X190341333Y-132373714D01*
X190293714Y-132468952D01*
X190246095Y-132516571D01*
X190150857Y-132564190D01*
X189769904Y-132564190D01*
X191341333Y-132945142D02*
X191293714Y-132992761D01*
X191150857Y-133040380D01*
X191055619Y-133040380D01*
X190912761Y-132992761D01*
X190817523Y-132897523D01*
X190769904Y-132802285D01*
X190722285Y-132611809D01*
X190722285Y-132468952D01*
X190769904Y-132278476D01*
X190817523Y-132183238D01*
X190912761Y-132088000D01*
X191055619Y-132040380D01*
X191150857Y-132040380D01*
X191293714Y-132088000D01*
X191341333Y-132135619D01*
X192198476Y-132040380D02*
X192008000Y-132040380D01*
X191912761Y-132088000D01*
X191865142Y-132135619D01*
X191769904Y-132278476D01*
X191722285Y-132468952D01*
X191722285Y-132849904D01*
X191769904Y-132945142D01*
X191817523Y-132992761D01*
X191912761Y-133040380D01*
X192103238Y-133040380D01*
X192198476Y-132992761D01*
X192246095Y-132945142D01*
X192293714Y-132849904D01*
X192293714Y-132611809D01*
X192246095Y-132516571D01*
X192198476Y-132468952D01*
X192103238Y-132421333D01*
X191912761Y-132421333D01*
X191817523Y-132468952D01*
X191769904Y-132516571D01*
X191722285Y-132611809D01*
X189769904Y-130500380D02*
X189769904Y-129500380D01*
X190150857Y-129500380D01*
X190246095Y-129548000D01*
X190293714Y-129595619D01*
X190341333Y-129690857D01*
X190341333Y-129833714D01*
X190293714Y-129928952D01*
X190246095Y-129976571D01*
X190150857Y-130024190D01*
X189769904Y-130024190D01*
X191341333Y-130405142D02*
X191293714Y-130452761D01*
X191150857Y-130500380D01*
X191055619Y-130500380D01*
X190912761Y-130452761D01*
X190817523Y-130357523D01*
X190769904Y-130262285D01*
X190722285Y-130071809D01*
X190722285Y-129928952D01*
X190769904Y-129738476D01*
X190817523Y-129643238D01*
X190912761Y-129548000D01*
X191055619Y-129500380D01*
X191150857Y-129500380D01*
X191293714Y-129548000D01*
X191341333Y-129595619D01*
X192246095Y-129500380D02*
X191769904Y-129500380D01*
X191722285Y-129976571D01*
X191769904Y-129928952D01*
X191865142Y-129881333D01*
X192103238Y-129881333D01*
X192198476Y-129928952D01*
X192246095Y-129976571D01*
X192293714Y-130071809D01*
X192293714Y-130309904D01*
X192246095Y-130405142D01*
X192198476Y-130452761D01*
X192103238Y-130500380D01*
X191865142Y-130500380D01*
X191769904Y-130452761D01*
X191722285Y-130405142D01*
X189769904Y-127960380D02*
X189769904Y-126960380D01*
X190150857Y-126960380D01*
X190246095Y-127008000D01*
X190293714Y-127055619D01*
X190341333Y-127150857D01*
X190341333Y-127293714D01*
X190293714Y-127388952D01*
X190246095Y-127436571D01*
X190150857Y-127484190D01*
X189769904Y-127484190D01*
X191341333Y-127865142D02*
X191293714Y-127912761D01*
X191150857Y-127960380D01*
X191055619Y-127960380D01*
X190912761Y-127912761D01*
X190817523Y-127817523D01*
X190769904Y-127722285D01*
X190722285Y-127531809D01*
X190722285Y-127388952D01*
X190769904Y-127198476D01*
X190817523Y-127103238D01*
X190912761Y-127008000D01*
X191055619Y-126960380D01*
X191150857Y-126960380D01*
X191293714Y-127008000D01*
X191341333Y-127055619D01*
X192198476Y-127293714D02*
X192198476Y-127960380D01*
X191960380Y-126912761D02*
X191722285Y-127627047D01*
X192341333Y-127627047D01*
X189769904Y-125420380D02*
X189769904Y-124420380D01*
X190150857Y-124420380D01*
X190246095Y-124468000D01*
X190293714Y-124515619D01*
X190341333Y-124610857D01*
X190341333Y-124753714D01*
X190293714Y-124848952D01*
X190246095Y-124896571D01*
X190150857Y-124944190D01*
X189769904Y-124944190D01*
X191341333Y-125325142D02*
X191293714Y-125372761D01*
X191150857Y-125420380D01*
X191055619Y-125420380D01*
X190912761Y-125372761D01*
X190817523Y-125277523D01*
X190769904Y-125182285D01*
X190722285Y-124991809D01*
X190722285Y-124848952D01*
X190769904Y-124658476D01*
X190817523Y-124563238D01*
X190912761Y-124468000D01*
X191055619Y-124420380D01*
X191150857Y-124420380D01*
X191293714Y-124468000D01*
X191341333Y-124515619D01*
X191674666Y-124420380D02*
X192293714Y-124420380D01*
X191960380Y-124801333D01*
X192103238Y-124801333D01*
X192198476Y-124848952D01*
X192246095Y-124896571D01*
X192293714Y-124991809D01*
X192293714Y-125229904D01*
X192246095Y-125325142D01*
X192198476Y-125372761D01*
X192103238Y-125420380D01*
X191817523Y-125420380D01*
X191722285Y-125372761D01*
X191674666Y-125325142D01*
X189769904Y-122880380D02*
X189769904Y-121880380D01*
X190150857Y-121880380D01*
X190246095Y-121928000D01*
X190293714Y-121975619D01*
X190341333Y-122070857D01*
X190341333Y-122213714D01*
X190293714Y-122308952D01*
X190246095Y-122356571D01*
X190150857Y-122404190D01*
X189769904Y-122404190D01*
X191341333Y-122785142D02*
X191293714Y-122832761D01*
X191150857Y-122880380D01*
X191055619Y-122880380D01*
X190912761Y-122832761D01*
X190817523Y-122737523D01*
X190769904Y-122642285D01*
X190722285Y-122451809D01*
X190722285Y-122308952D01*
X190769904Y-122118476D01*
X190817523Y-122023238D01*
X190912761Y-121928000D01*
X191055619Y-121880380D01*
X191150857Y-121880380D01*
X191293714Y-121928000D01*
X191341333Y-121975619D01*
X191722285Y-121975619D02*
X191769904Y-121928000D01*
X191865142Y-121880380D01*
X192103238Y-121880380D01*
X192198476Y-121928000D01*
X192246095Y-121975619D01*
X192293714Y-122070857D01*
X192293714Y-122166095D01*
X192246095Y-122308952D01*
X191674666Y-122880380D01*
X192293714Y-122880380D01*
X189769904Y-120340380D02*
X189769904Y-119340380D01*
X190150857Y-119340380D01*
X190246095Y-119388000D01*
X190293714Y-119435619D01*
X190341333Y-119530857D01*
X190341333Y-119673714D01*
X190293714Y-119768952D01*
X190246095Y-119816571D01*
X190150857Y-119864190D01*
X189769904Y-119864190D01*
X191341333Y-120245142D02*
X191293714Y-120292761D01*
X191150857Y-120340380D01*
X191055619Y-120340380D01*
X190912761Y-120292761D01*
X190817523Y-120197523D01*
X190769904Y-120102285D01*
X190722285Y-119911809D01*
X190722285Y-119768952D01*
X190769904Y-119578476D01*
X190817523Y-119483238D01*
X190912761Y-119388000D01*
X191055619Y-119340380D01*
X191150857Y-119340380D01*
X191293714Y-119388000D01*
X191341333Y-119435619D01*
X192293714Y-120340380D02*
X191722285Y-120340380D01*
X192008000Y-120340380D02*
X192008000Y-119340380D01*
X191912761Y-119483238D01*
X191817523Y-119578476D01*
X191722285Y-119626095D01*
X189769904Y-117800380D02*
X189769904Y-116800380D01*
X190150857Y-116800380D01*
X190246095Y-116848000D01*
X190293714Y-116895619D01*
X190341333Y-116990857D01*
X190341333Y-117133714D01*
X190293714Y-117228952D01*
X190246095Y-117276571D01*
X190150857Y-117324190D01*
X189769904Y-117324190D01*
X191341333Y-117705142D02*
X191293714Y-117752761D01*
X191150857Y-117800380D01*
X191055619Y-117800380D01*
X190912761Y-117752761D01*
X190817523Y-117657523D01*
X190769904Y-117562285D01*
X190722285Y-117371809D01*
X190722285Y-117228952D01*
X190769904Y-117038476D01*
X190817523Y-116943238D01*
X190912761Y-116848000D01*
X191055619Y-116800380D01*
X191150857Y-116800380D01*
X191293714Y-116848000D01*
X191341333Y-116895619D01*
X191960380Y-116800380D02*
X192055619Y-116800380D01*
X192150857Y-116848000D01*
X192198476Y-116895619D01*
X192246095Y-116990857D01*
X192293714Y-117181333D01*
X192293714Y-117419428D01*
X192246095Y-117609904D01*
X192198476Y-117705142D01*
X192150857Y-117752761D01*
X192055619Y-117800380D01*
X191960380Y-117800380D01*
X191865142Y-117752761D01*
X191817523Y-117705142D01*
X191769904Y-117609904D01*
X191722285Y-117419428D01*
X191722285Y-117181333D01*
X191769904Y-116990857D01*
X191817523Y-116895619D01*
X191865142Y-116848000D01*
X191960380Y-116800380D01*
X189769904Y-115260380D02*
X189769904Y-114260380D01*
X190150857Y-114260380D01*
X190246095Y-114308000D01*
X190293714Y-114355619D01*
X190341333Y-114450857D01*
X190341333Y-114593714D01*
X190293714Y-114688952D01*
X190246095Y-114736571D01*
X190150857Y-114784190D01*
X189769904Y-114784190D01*
X191103238Y-114736571D02*
X191246095Y-114784190D01*
X191293714Y-114831809D01*
X191341333Y-114927047D01*
X191341333Y-115069904D01*
X191293714Y-115165142D01*
X191246095Y-115212761D01*
X191150857Y-115260380D01*
X190769904Y-115260380D01*
X190769904Y-114260380D01*
X191103238Y-114260380D01*
X191198476Y-114308000D01*
X191246095Y-114355619D01*
X191293714Y-114450857D01*
X191293714Y-114546095D01*
X191246095Y-114641333D01*
X191198476Y-114688952D01*
X191103238Y-114736571D01*
X190769904Y-114736571D01*
X191674666Y-114260380D02*
X192341333Y-114260380D01*
X191912761Y-115260380D01*
X189769904Y-112720380D02*
X189769904Y-111720380D01*
X190150857Y-111720380D01*
X190246095Y-111768000D01*
X190293714Y-111815619D01*
X190341333Y-111910857D01*
X190341333Y-112053714D01*
X190293714Y-112148952D01*
X190246095Y-112196571D01*
X190150857Y-112244190D01*
X189769904Y-112244190D01*
X191103238Y-112196571D02*
X191246095Y-112244190D01*
X191293714Y-112291809D01*
X191341333Y-112387047D01*
X191341333Y-112529904D01*
X191293714Y-112625142D01*
X191246095Y-112672761D01*
X191150857Y-112720380D01*
X190769904Y-112720380D01*
X190769904Y-111720380D01*
X191103238Y-111720380D01*
X191198476Y-111768000D01*
X191246095Y-111815619D01*
X191293714Y-111910857D01*
X191293714Y-112006095D01*
X191246095Y-112101333D01*
X191198476Y-112148952D01*
X191103238Y-112196571D01*
X190769904Y-112196571D01*
X192198476Y-111720380D02*
X192008000Y-111720380D01*
X191912761Y-111768000D01*
X191865142Y-111815619D01*
X191769904Y-111958476D01*
X191722285Y-112148952D01*
X191722285Y-112529904D01*
X191769904Y-112625142D01*
X191817523Y-112672761D01*
X191912761Y-112720380D01*
X192103238Y-112720380D01*
X192198476Y-112672761D01*
X192246095Y-112625142D01*
X192293714Y-112529904D01*
X192293714Y-112291809D01*
X192246095Y-112196571D01*
X192198476Y-112148952D01*
X192103238Y-112101333D01*
X191912761Y-112101333D01*
X191817523Y-112148952D01*
X191769904Y-112196571D01*
X191722285Y-112291809D01*
X189769904Y-110180380D02*
X189769904Y-109180380D01*
X190150857Y-109180380D01*
X190246095Y-109228000D01*
X190293714Y-109275619D01*
X190341333Y-109370857D01*
X190341333Y-109513714D01*
X190293714Y-109608952D01*
X190246095Y-109656571D01*
X190150857Y-109704190D01*
X189769904Y-109704190D01*
X191103238Y-109656571D02*
X191246095Y-109704190D01*
X191293714Y-109751809D01*
X191341333Y-109847047D01*
X191341333Y-109989904D01*
X191293714Y-110085142D01*
X191246095Y-110132761D01*
X191150857Y-110180380D01*
X190769904Y-110180380D01*
X190769904Y-109180380D01*
X191103238Y-109180380D01*
X191198476Y-109228000D01*
X191246095Y-109275619D01*
X191293714Y-109370857D01*
X191293714Y-109466095D01*
X191246095Y-109561333D01*
X191198476Y-109608952D01*
X191103238Y-109656571D01*
X190769904Y-109656571D01*
X192246095Y-109180380D02*
X191769904Y-109180380D01*
X191722285Y-109656571D01*
X191769904Y-109608952D01*
X191865142Y-109561333D01*
X192103238Y-109561333D01*
X192198476Y-109608952D01*
X192246095Y-109656571D01*
X192293714Y-109751809D01*
X192293714Y-109989904D01*
X192246095Y-110085142D01*
X192198476Y-110132761D01*
X192103238Y-110180380D01*
X191865142Y-110180380D01*
X191769904Y-110132761D01*
X191722285Y-110085142D01*
X189769904Y-107640380D02*
X189769904Y-106640380D01*
X190150857Y-106640380D01*
X190246095Y-106688000D01*
X190293714Y-106735619D01*
X190341333Y-106830857D01*
X190341333Y-106973714D01*
X190293714Y-107068952D01*
X190246095Y-107116571D01*
X190150857Y-107164190D01*
X189769904Y-107164190D01*
X191103238Y-107116571D02*
X191246095Y-107164190D01*
X191293714Y-107211809D01*
X191341333Y-107307047D01*
X191341333Y-107449904D01*
X191293714Y-107545142D01*
X191246095Y-107592761D01*
X191150857Y-107640380D01*
X190769904Y-107640380D01*
X190769904Y-106640380D01*
X191103238Y-106640380D01*
X191198476Y-106688000D01*
X191246095Y-106735619D01*
X191293714Y-106830857D01*
X191293714Y-106926095D01*
X191246095Y-107021333D01*
X191198476Y-107068952D01*
X191103238Y-107116571D01*
X190769904Y-107116571D01*
X192198476Y-106973714D02*
X192198476Y-107640380D01*
X191960380Y-106592761D02*
X191722285Y-107307047D01*
X192341333Y-107307047D01*
X189769904Y-105100380D02*
X189769904Y-104100380D01*
X190150857Y-104100380D01*
X190246095Y-104148000D01*
X190293714Y-104195619D01*
X190341333Y-104290857D01*
X190341333Y-104433714D01*
X190293714Y-104528952D01*
X190246095Y-104576571D01*
X190150857Y-104624190D01*
X189769904Y-104624190D01*
X191103238Y-104576571D02*
X191246095Y-104624190D01*
X191293714Y-104671809D01*
X191341333Y-104767047D01*
X191341333Y-104909904D01*
X191293714Y-105005142D01*
X191246095Y-105052761D01*
X191150857Y-105100380D01*
X190769904Y-105100380D01*
X190769904Y-104100380D01*
X191103238Y-104100380D01*
X191198476Y-104148000D01*
X191246095Y-104195619D01*
X191293714Y-104290857D01*
X191293714Y-104386095D01*
X191246095Y-104481333D01*
X191198476Y-104528952D01*
X191103238Y-104576571D01*
X190769904Y-104576571D01*
X191674666Y-104100380D02*
X192293714Y-104100380D01*
X191960380Y-104481333D01*
X192103238Y-104481333D01*
X192198476Y-104528952D01*
X192246095Y-104576571D01*
X192293714Y-104671809D01*
X192293714Y-104909904D01*
X192246095Y-105005142D01*
X192198476Y-105052761D01*
X192103238Y-105100380D01*
X191817523Y-105100380D01*
X191722285Y-105052761D01*
X191674666Y-105005142D01*
X189769904Y-102560380D02*
X189769904Y-101560380D01*
X190150857Y-101560380D01*
X190246095Y-101608000D01*
X190293714Y-101655619D01*
X190341333Y-101750857D01*
X190341333Y-101893714D01*
X190293714Y-101988952D01*
X190246095Y-102036571D01*
X190150857Y-102084190D01*
X189769904Y-102084190D01*
X191103238Y-102036571D02*
X191246095Y-102084190D01*
X191293714Y-102131809D01*
X191341333Y-102227047D01*
X191341333Y-102369904D01*
X191293714Y-102465142D01*
X191246095Y-102512761D01*
X191150857Y-102560380D01*
X190769904Y-102560380D01*
X190769904Y-101560380D01*
X191103238Y-101560380D01*
X191198476Y-101608000D01*
X191246095Y-101655619D01*
X191293714Y-101750857D01*
X191293714Y-101846095D01*
X191246095Y-101941333D01*
X191198476Y-101988952D01*
X191103238Y-102036571D01*
X190769904Y-102036571D01*
X191722285Y-101655619D02*
X191769904Y-101608000D01*
X191865142Y-101560380D01*
X192103238Y-101560380D01*
X192198476Y-101608000D01*
X192246095Y-101655619D01*
X192293714Y-101750857D01*
X192293714Y-101846095D01*
X192246095Y-101988952D01*
X191674666Y-102560380D01*
X192293714Y-102560380D01*
X189769904Y-100020380D02*
X189769904Y-99020380D01*
X190150857Y-99020380D01*
X190246095Y-99068000D01*
X190293714Y-99115619D01*
X190341333Y-99210857D01*
X190341333Y-99353714D01*
X190293714Y-99448952D01*
X190246095Y-99496571D01*
X190150857Y-99544190D01*
X189769904Y-99544190D01*
X191103238Y-99496571D02*
X191246095Y-99544190D01*
X191293714Y-99591809D01*
X191341333Y-99687047D01*
X191341333Y-99829904D01*
X191293714Y-99925142D01*
X191246095Y-99972761D01*
X191150857Y-100020380D01*
X190769904Y-100020380D01*
X190769904Y-99020380D01*
X191103238Y-99020380D01*
X191198476Y-99068000D01*
X191246095Y-99115619D01*
X191293714Y-99210857D01*
X191293714Y-99306095D01*
X191246095Y-99401333D01*
X191198476Y-99448952D01*
X191103238Y-99496571D01*
X190769904Y-99496571D01*
X192293714Y-100020380D02*
X191722285Y-100020380D01*
X192008000Y-100020380D02*
X192008000Y-99020380D01*
X191912761Y-99163238D01*
X191817523Y-99258476D01*
X191722285Y-99306095D01*
X189769904Y-97480380D02*
X189769904Y-96480380D01*
X190150857Y-96480380D01*
X190246095Y-96528000D01*
X190293714Y-96575619D01*
X190341333Y-96670857D01*
X190341333Y-96813714D01*
X190293714Y-96908952D01*
X190246095Y-96956571D01*
X190150857Y-97004190D01*
X189769904Y-97004190D01*
X191103238Y-96956571D02*
X191246095Y-97004190D01*
X191293714Y-97051809D01*
X191341333Y-97147047D01*
X191341333Y-97289904D01*
X191293714Y-97385142D01*
X191246095Y-97432761D01*
X191150857Y-97480380D01*
X190769904Y-97480380D01*
X190769904Y-96480380D01*
X191103238Y-96480380D01*
X191198476Y-96528000D01*
X191246095Y-96575619D01*
X191293714Y-96670857D01*
X191293714Y-96766095D01*
X191246095Y-96861333D01*
X191198476Y-96908952D01*
X191103238Y-96956571D01*
X190769904Y-96956571D01*
X191960380Y-96480380D02*
X192055619Y-96480380D01*
X192150857Y-96528000D01*
X192198476Y-96575619D01*
X192246095Y-96670857D01*
X192293714Y-96861333D01*
X192293714Y-97099428D01*
X192246095Y-97289904D01*
X192198476Y-97385142D01*
X192150857Y-97432761D01*
X192055619Y-97480380D01*
X191960380Y-97480380D01*
X191865142Y-97432761D01*
X191817523Y-97385142D01*
X191769904Y-97289904D01*
X191722285Y-97099428D01*
X191722285Y-96861333D01*
X191769904Y-96670857D01*
X191817523Y-96575619D01*
X191865142Y-96528000D01*
X191960380Y-96480380D01*
X189841333Y-94940380D02*
X189841333Y-93940380D01*
X190222285Y-93940380D01*
X190317523Y-93988000D01*
X190365142Y-94035619D01*
X190412761Y-94130857D01*
X190412761Y-94273714D01*
X190365142Y-94368952D01*
X190317523Y-94416571D01*
X190222285Y-94464190D01*
X189841333Y-94464190D01*
X190793714Y-94654666D02*
X191269904Y-94654666D01*
X190698476Y-94940380D02*
X191031809Y-93940380D01*
X191365142Y-94940380D01*
X191603238Y-93940380D02*
X192269904Y-93940380D01*
X191841333Y-94940380D01*
X189841333Y-92400380D02*
X189841333Y-91400380D01*
X190222285Y-91400380D01*
X190317523Y-91448000D01*
X190365142Y-91495619D01*
X190412761Y-91590857D01*
X190412761Y-91733714D01*
X190365142Y-91828952D01*
X190317523Y-91876571D01*
X190222285Y-91924190D01*
X189841333Y-91924190D01*
X190793714Y-92114666D02*
X191269904Y-92114666D01*
X190698476Y-92400380D02*
X191031809Y-91400380D01*
X191365142Y-92400380D01*
X192127047Y-91400380D02*
X191936571Y-91400380D01*
X191841333Y-91448000D01*
X191793714Y-91495619D01*
X191698476Y-91638476D01*
X191650857Y-91828952D01*
X191650857Y-92209904D01*
X191698476Y-92305142D01*
X191746095Y-92352761D01*
X191841333Y-92400380D01*
X192031809Y-92400380D01*
X192127047Y-92352761D01*
X192174666Y-92305142D01*
X192222285Y-92209904D01*
X192222285Y-91971809D01*
X192174666Y-91876571D01*
X192127047Y-91828952D01*
X192031809Y-91781333D01*
X191841333Y-91781333D01*
X191746095Y-91828952D01*
X191698476Y-91876571D01*
X191650857Y-91971809D01*
X189841333Y-89860380D02*
X189841333Y-88860380D01*
X190222285Y-88860380D01*
X190317523Y-88908000D01*
X190365142Y-88955619D01*
X190412761Y-89050857D01*
X190412761Y-89193714D01*
X190365142Y-89288952D01*
X190317523Y-89336571D01*
X190222285Y-89384190D01*
X189841333Y-89384190D01*
X190793714Y-89574666D02*
X191269904Y-89574666D01*
X190698476Y-89860380D02*
X191031809Y-88860380D01*
X191365142Y-89860380D01*
X192174666Y-88860380D02*
X191698476Y-88860380D01*
X191650857Y-89336571D01*
X191698476Y-89288952D01*
X191793714Y-89241333D01*
X192031809Y-89241333D01*
X192127047Y-89288952D01*
X192174666Y-89336571D01*
X192222285Y-89431809D01*
X192222285Y-89669904D01*
X192174666Y-89765142D01*
X192127047Y-89812761D01*
X192031809Y-89860380D01*
X191793714Y-89860380D01*
X191698476Y-89812761D01*
X191650857Y-89765142D01*
X189841333Y-87320380D02*
X189841333Y-86320380D01*
X190222285Y-86320380D01*
X190317523Y-86368000D01*
X190365142Y-86415619D01*
X190412761Y-86510857D01*
X190412761Y-86653714D01*
X190365142Y-86748952D01*
X190317523Y-86796571D01*
X190222285Y-86844190D01*
X189841333Y-86844190D01*
X190793714Y-87034666D02*
X191269904Y-87034666D01*
X190698476Y-87320380D02*
X191031809Y-86320380D01*
X191365142Y-87320380D01*
X192127047Y-86653714D02*
X192127047Y-87320380D01*
X191888952Y-86272761D02*
X191650857Y-86987047D01*
X192269904Y-86987047D01*
X189841333Y-84780380D02*
X189841333Y-83780380D01*
X190222285Y-83780380D01*
X190317523Y-83828000D01*
X190365142Y-83875619D01*
X190412761Y-83970857D01*
X190412761Y-84113714D01*
X190365142Y-84208952D01*
X190317523Y-84256571D01*
X190222285Y-84304190D01*
X189841333Y-84304190D01*
X190793714Y-84494666D02*
X191269904Y-84494666D01*
X190698476Y-84780380D02*
X191031809Y-83780380D01*
X191365142Y-84780380D01*
X191603238Y-83780380D02*
X192222285Y-83780380D01*
X191888952Y-84161333D01*
X192031809Y-84161333D01*
X192127047Y-84208952D01*
X192174666Y-84256571D01*
X192222285Y-84351809D01*
X192222285Y-84589904D01*
X192174666Y-84685142D01*
X192127047Y-84732761D01*
X192031809Y-84780380D01*
X191746095Y-84780380D01*
X191650857Y-84732761D01*
X191603238Y-84685142D01*
X189841333Y-82240380D02*
X189841333Y-81240380D01*
X190222285Y-81240380D01*
X190317523Y-81288000D01*
X190365142Y-81335619D01*
X190412761Y-81430857D01*
X190412761Y-81573714D01*
X190365142Y-81668952D01*
X190317523Y-81716571D01*
X190222285Y-81764190D01*
X189841333Y-81764190D01*
X190793714Y-81954666D02*
X191269904Y-81954666D01*
X190698476Y-82240380D02*
X191031809Y-81240380D01*
X191365142Y-82240380D01*
X191650857Y-81335619D02*
X191698476Y-81288000D01*
X191793714Y-81240380D01*
X192031809Y-81240380D01*
X192127047Y-81288000D01*
X192174666Y-81335619D01*
X192222285Y-81430857D01*
X192222285Y-81526095D01*
X192174666Y-81668952D01*
X191603238Y-82240380D01*
X192222285Y-82240380D01*
X189841333Y-79700380D02*
X189841333Y-78700380D01*
X190222285Y-78700380D01*
X190317523Y-78748000D01*
X190365142Y-78795619D01*
X190412761Y-78890857D01*
X190412761Y-79033714D01*
X190365142Y-79128952D01*
X190317523Y-79176571D01*
X190222285Y-79224190D01*
X189841333Y-79224190D01*
X190793714Y-79414666D02*
X191269904Y-79414666D01*
X190698476Y-79700380D02*
X191031809Y-78700380D01*
X191365142Y-79700380D01*
X192222285Y-79700380D02*
X191650857Y-79700380D01*
X191936571Y-79700380D02*
X191936571Y-78700380D01*
X191841333Y-78843238D01*
X191746095Y-78938476D01*
X191650857Y-78986095D01*
X189841333Y-77160380D02*
X189841333Y-76160380D01*
X190222285Y-76160380D01*
X190317523Y-76208000D01*
X190365142Y-76255619D01*
X190412761Y-76350857D01*
X190412761Y-76493714D01*
X190365142Y-76588952D01*
X190317523Y-76636571D01*
X190222285Y-76684190D01*
X189841333Y-76684190D01*
X190793714Y-76874666D02*
X191269904Y-76874666D01*
X190698476Y-77160380D02*
X191031809Y-76160380D01*
X191365142Y-77160380D01*
X191888952Y-76160380D02*
X191984190Y-76160380D01*
X192079428Y-76208000D01*
X192127047Y-76255619D01*
X192174666Y-76350857D01*
X192222285Y-76541333D01*
X192222285Y-76779428D01*
X192174666Y-76969904D01*
X192127047Y-77065142D01*
X192079428Y-77112761D01*
X191984190Y-77160380D01*
X191888952Y-77160380D01*
X191793714Y-77112761D01*
X191746095Y-77065142D01*
X191698476Y-76969904D01*
X191650857Y-76779428D01*
X191650857Y-76541333D01*
X191698476Y-76350857D01*
X191746095Y-76255619D01*
X191793714Y-76208000D01*
X191888952Y-76160380D01*
X190246095Y-73668000D02*
X190150857Y-73620380D01*
X190008000Y-73620380D01*
X189865142Y-73668000D01*
X189769904Y-73763238D01*
X189722285Y-73858476D01*
X189674666Y-74048952D01*
X189674666Y-74191809D01*
X189722285Y-74382285D01*
X189769904Y-74477523D01*
X189865142Y-74572761D01*
X190008000Y-74620380D01*
X190103238Y-74620380D01*
X190246095Y-74572761D01*
X190293714Y-74525142D01*
X190293714Y-74191809D01*
X190103238Y-74191809D01*
X190722285Y-74620380D02*
X190722285Y-73620380D01*
X191293714Y-74620380D01*
X191293714Y-73620380D01*
X191769904Y-74620380D02*
X191769904Y-73620380D01*
X192008000Y-73620380D01*
X192150857Y-73668000D01*
X192246095Y-73763238D01*
X192293714Y-73858476D01*
X192341333Y-74048952D01*
X192341333Y-74191809D01*
X192293714Y-74382285D01*
X192246095Y-74477523D01*
X192150857Y-74572761D01*
X192008000Y-74620380D01*
X191769904Y-74620380D01*
X189722285Y-71699428D02*
X190484190Y-71699428D01*
X190103238Y-72080380D02*
X190103238Y-71318476D01*
X191436571Y-71080380D02*
X190960380Y-71080380D01*
X190912761Y-71556571D01*
X190960380Y-71508952D01*
X191055619Y-71461333D01*
X191293714Y-71461333D01*
X191388952Y-71508952D01*
X191436571Y-71556571D01*
X191484190Y-71651809D01*
X191484190Y-71889904D01*
X191436571Y-71985142D01*
X191388952Y-72032761D01*
X191293714Y-72080380D01*
X191055619Y-72080380D01*
X190960380Y-72032761D01*
X190912761Y-71985142D01*
X191769904Y-71080380D02*
X192103238Y-72080380D01*
X192436571Y-71080380D01*
X189698476Y-69540380D02*
X189698476Y-68540380D01*
X190269904Y-69540380D01*
X190269904Y-68540380D01*
X191460380Y-68492761D02*
X190603238Y-69778476D01*
X192365142Y-69445142D02*
X192317523Y-69492761D01*
X192174666Y-69540380D01*
X192079428Y-69540380D01*
X191936571Y-69492761D01*
X191841333Y-69397523D01*
X191793714Y-69302285D01*
X191746095Y-69111809D01*
X191746095Y-68968952D01*
X191793714Y-68778476D01*
X191841333Y-68683238D01*
X191936571Y-68588000D01*
X192079428Y-68540380D01*
X192174666Y-68540380D01*
X192317523Y-68588000D01*
X192365142Y-68635619D01*
D11*
X203918000Y-70586000D02*
X203918000Y-73686000D01*
X203918000Y-73686000D02*
X198418000Y-73686000D01*
X198418000Y-73686000D02*
X198418000Y-70586000D01*
X198418000Y-70586000D02*
X203918000Y-70586000D01*
D10*
X201168000Y-71336000D02*
X200068000Y-71636000D01*
X200068000Y-71636000D02*
X200068000Y-72636000D01*
X200068000Y-72636000D02*
X201168000Y-72936000D01*
X201168000Y-72936000D02*
X202268000Y-72636000D01*
X202268000Y-72636000D02*
X202268000Y-71636000D01*
X202268000Y-71636000D02*
X201168000Y-71336000D01*
D11*
X200538000Y-130918000D02*
X200538000Y-129658000D01*
X200538000Y-124098000D02*
X200538000Y-125358000D01*
X196778000Y-130918000D02*
X200538000Y-130918000D01*
X194528000Y-124098000D02*
X200538000Y-124098000D01*
X200949936Y-75846000D02*
X201404064Y-75846000D01*
X200949936Y-77316000D02*
X201404064Y-77316000D01*
X198854000Y-131586000D02*
X194469000Y-131586000D01*
X194469000Y-131586000D02*
X194469000Y-134606000D01*
X194469000Y-134606000D02*
X198854000Y-134606000D01*
X202411000Y-132834748D02*
X202411000Y-133357252D01*
X200941000Y-132834748D02*
X200941000Y-133357252D01*
X202159000Y-79050000D02*
X199299000Y-79050000D01*
X199299000Y-79050000D02*
X199299000Y-80970000D01*
X199299000Y-80970000D02*
X202159000Y-80970000D01*
D12*
G36*
X195582688Y-116328074D02*
G01*
X195585384Y-116326106D01*
X195588523Y-116324457D01*
X195592828Y-116323098D01*
X195599022Y-116322001D01*
X195607828Y-116321139D01*
X195619970Y-116320483D01*
X195636170Y-116320005D01*
X195657152Y-116319677D01*
X195683639Y-116319470D01*
X195716354Y-116319357D01*
X195756020Y-116319310D01*
X195803361Y-116319300D01*
X196022752Y-116319300D01*
X196036856Y-116244158D01*
X196050235Y-116178206D01*
X196066294Y-116108008D01*
X196084445Y-116035725D01*
X196104105Y-115963522D01*
X196124686Y-115893560D01*
X196145604Y-115828003D01*
X196163468Y-115776649D01*
X196179944Y-115731416D01*
X196001680Y-115628886D01*
X195965815Y-115608179D01*
X195931931Y-115588463D01*
X195900791Y-115570195D01*
X195873159Y-115553828D01*
X195849799Y-115539818D01*
X195831475Y-115528620D01*
X195818950Y-115520689D01*
X195812989Y-115516481D01*
X195812906Y-115516404D01*
X195809641Y-115513359D01*
X195806833Y-115510440D01*
X195804683Y-115507244D01*
X195803397Y-115503365D01*
X195803178Y-115498401D01*
X195804229Y-115491948D01*
X195806754Y-115483603D01*
X195810957Y-115472960D01*
X195817041Y-115459617D01*
X195825211Y-115443171D01*
X195835669Y-115423216D01*
X195848619Y-115399349D01*
X195864266Y-115371168D01*
X195882812Y-115338267D01*
X195904462Y-115300243D01*
X195929419Y-115256693D01*
X195957886Y-115207212D01*
X195990068Y-115151397D01*
X196026168Y-115088845D01*
X196045328Y-115055650D01*
X196077140Y-115000611D01*
X196107924Y-114947511D01*
X196137398Y-114896825D01*
X196165284Y-114849027D01*
X196191300Y-114804593D01*
X196215167Y-114763997D01*
X196236606Y-114727714D01*
X196255335Y-114696219D01*
X196271075Y-114669986D01*
X196283546Y-114649490D01*
X196292467Y-114635205D01*
X196297560Y-114627607D01*
X196298435Y-114626570D01*
X196309381Y-114619458D01*
X196321701Y-114618319D01*
X196324773Y-114618677D01*
X196331882Y-114621187D01*
X196345516Y-114627681D01*
X196365757Y-114638204D01*
X196392687Y-114652800D01*
X196426387Y-114671517D01*
X196466940Y-114694399D01*
X196514427Y-114721493D01*
X196568930Y-114752845D01*
X196630530Y-114788499D01*
X196683323Y-114819189D01*
X196700796Y-114829363D01*
X196748703Y-114773173D01*
X196768286Y-114750971D01*
X196793034Y-114724121D01*
X196821873Y-114693698D01*
X196853726Y-114660777D01*
X196887520Y-114626432D01*
X196922179Y-114591740D01*
X196956629Y-114557774D01*
X196989794Y-114525609D01*
X197020601Y-114496320D01*
X197047973Y-114470983D01*
X197070836Y-114450672D01*
X197073407Y-114448469D01*
X197129597Y-114400562D01*
X197119427Y-114383089D01*
X197081277Y-114317422D01*
X197047401Y-114258844D01*
X197017705Y-114207189D01*
X196992096Y-114162292D01*
X196970481Y-114123987D01*
X196952769Y-114092108D01*
X196938867Y-114066489D01*
X196928681Y-114046966D01*
X196922120Y-114033372D01*
X196919090Y-114025542D01*
X196918883Y-114024540D01*
X196919037Y-114011328D01*
X196924875Y-114000502D01*
X196926804Y-113998244D01*
X196931724Y-113994691D01*
X196943511Y-113987197D01*
X196961688Y-113976044D01*
X196985782Y-113961512D01*
X197015318Y-113943881D01*
X197049822Y-113923430D01*
X197088818Y-113900441D01*
X197131833Y-113875192D01*
X197178393Y-113847966D01*
X197228021Y-113819040D01*
X197280245Y-113788697D01*
X197334589Y-113757215D01*
X197355883Y-113744905D01*
X197421962Y-113706720D01*
X197481104Y-113672556D01*
X197533713Y-113642209D01*
X197580190Y-113615478D01*
X197620938Y-113592162D01*
X197656361Y-113572057D01*
X197686860Y-113554963D01*
X197712839Y-113540678D01*
X197734699Y-113528999D01*
X197752844Y-113519726D01*
X197767676Y-113512655D01*
X197779598Y-113507585D01*
X197789013Y-113504314D01*
X197796322Y-113502641D01*
X197801930Y-113502363D01*
X197806237Y-113503279D01*
X197809648Y-113505187D01*
X197812564Y-113507884D01*
X197815388Y-113511170D01*
X197817371Y-113513531D01*
X197821244Y-113519221D01*
X197828874Y-113531494D01*
X197839810Y-113549588D01*
X197853599Y-113572740D01*
X197869789Y-113600187D01*
X197887928Y-113631165D01*
X197907565Y-113664913D01*
X197928248Y-113700667D01*
X197928964Y-113701909D01*
X198031577Y-113879847D01*
X198070497Y-113865346D01*
X198119572Y-113848027D01*
X198175244Y-113830058D01*
X198235719Y-113811929D01*
X198299204Y-113794126D01*
X198363906Y-113777137D01*
X198428032Y-113761451D01*
X198489788Y-113747553D01*
X198544392Y-113736497D01*
X198619534Y-113722255D01*
X198619534Y-113288848D01*
X198630688Y-113280074D01*
X198632455Y-113278747D01*
X198634503Y-113277561D01*
X198637293Y-113276508D01*
X198641285Y-113275580D01*
X198646940Y-113274770D01*
X198654717Y-113274069D01*
X198665079Y-113273469D01*
X198678484Y-113272963D01*
X198695394Y-113272542D01*
X198716268Y-113272199D01*
X198741569Y-113271926D01*
X198771755Y-113271715D01*
X198807288Y-113271557D01*
X198848627Y-113271446D01*
X198896235Y-113271372D01*
X198950570Y-113271329D01*
X199012093Y-113271308D01*
X199081266Y-113271301D01*
X199140497Y-113271300D01*
X199639152Y-113271300D01*
X199647926Y-113282454D01*
X199649895Y-113285151D01*
X199651544Y-113288291D01*
X199652903Y-113292598D01*
X199654000Y-113298794D01*
X199654862Y-113307603D01*
X199655518Y-113319748D01*
X199655996Y-113335954D01*
X199656324Y-113356942D01*
X199656530Y-113383438D01*
X199656643Y-113416164D01*
X199656690Y-113455844D01*
X199656700Y-113503201D01*
X199656700Y-113722255D01*
X199731842Y-113736497D01*
X199798695Y-113750154D01*
X199869521Y-113766420D01*
X199942192Y-113784719D01*
X200014582Y-113804473D01*
X200084563Y-113825107D01*
X200150006Y-113846043D01*
X200199413Y-113863257D01*
X200244709Y-113879755D01*
X200347296Y-113701863D01*
X200368019Y-113666037D01*
X200387726Y-113632175D01*
X200405964Y-113601043D01*
X200422277Y-113573406D01*
X200436213Y-113550030D01*
X200447317Y-113531681D01*
X200455135Y-113519124D01*
X200459213Y-113513125D01*
X200459273Y-113513054D01*
X200462172Y-113509626D01*
X200464955Y-113506667D01*
X200468022Y-113504379D01*
X200471778Y-113502965D01*
X200476623Y-113502627D01*
X200482961Y-113503567D01*
X200491194Y-113505988D01*
X200501723Y-113510093D01*
X200514952Y-113516084D01*
X200531282Y-113524164D01*
X200551116Y-113534534D01*
X200574856Y-113547398D01*
X200602904Y-113562959D01*
X200635663Y-113581418D01*
X200673535Y-113602978D01*
X200716923Y-113627841D01*
X200766228Y-113656211D01*
X200821852Y-113688289D01*
X200884199Y-113724279D01*
X200920350Y-113745149D01*
X200975388Y-113776967D01*
X201028486Y-113807755D01*
X201079170Y-113837233D01*
X201126966Y-113865121D01*
X201171399Y-113891139D01*
X201211994Y-113915007D01*
X201248277Y-113936445D01*
X201279773Y-113955172D01*
X201306007Y-113970910D01*
X201326504Y-113983378D01*
X201340790Y-113992295D01*
X201348391Y-113997383D01*
X201349430Y-113998256D01*
X201356549Y-114009178D01*
X201357696Y-114021514D01*
X201357348Y-114024540D01*
X201354653Y-114032020D01*
X201347772Y-114046373D01*
X201336907Y-114067229D01*
X201322259Y-114094219D01*
X201304028Y-114126973D01*
X201282416Y-114165122D01*
X201257625Y-114208297D01*
X201251108Y-114219566D01*
X201146929Y-114399483D01*
X201160963Y-114412183D01*
X201168495Y-114418927D01*
X201181131Y-114430159D01*
X201197621Y-114444773D01*
X201216715Y-114461660D01*
X201237163Y-114479714D01*
X201238685Y-114481056D01*
X201267821Y-114507477D01*
X201301082Y-114538865D01*
X201337103Y-114573840D01*
X201374519Y-114611021D01*
X201411966Y-114649029D01*
X201448078Y-114686481D01*
X201481491Y-114721998D01*
X201510839Y-114754200D01*
X201527438Y-114773105D01*
X201575727Y-114829194D01*
X201593055Y-114819104D01*
X201660124Y-114780136D01*
X201720036Y-114745503D01*
X201772878Y-114715156D01*
X201818736Y-114689046D01*
X201857699Y-114667125D01*
X201889852Y-114649343D01*
X201915282Y-114635654D01*
X201934077Y-114626007D01*
X201946323Y-114620355D01*
X201951460Y-114618677D01*
X201964642Y-114618796D01*
X201975438Y-114624579D01*
X201977776Y-114626570D01*
X201981332Y-114631491D01*
X201988827Y-114643278D01*
X201999982Y-114661456D01*
X202014515Y-114685551D01*
X202032147Y-114715088D01*
X202052597Y-114749592D01*
X202075586Y-114788590D01*
X202100833Y-114831607D01*
X202128058Y-114878168D01*
X202156981Y-114927798D01*
X202187322Y-114980023D01*
X202218801Y-115034369D01*
X202231102Y-115055650D01*
X202269225Y-115121631D01*
X202303329Y-115180677D01*
X202333617Y-115233193D01*
X202360293Y-115279581D01*
X202383560Y-115320246D01*
X202403620Y-115355592D01*
X202420677Y-115386023D01*
X202434934Y-115411943D01*
X202446593Y-115433756D01*
X202455859Y-115451866D01*
X202462932Y-115466678D01*
X202468018Y-115478594D01*
X202471319Y-115488020D01*
X202473037Y-115495359D01*
X202473377Y-115501015D01*
X202472540Y-115505392D01*
X202470730Y-115508894D01*
X202468151Y-115511926D01*
X202465004Y-115514891D01*
X202462873Y-115516859D01*
X202457259Y-115520830D01*
X202445052Y-115528544D01*
X202427013Y-115539548D01*
X202403903Y-115553388D01*
X202376484Y-115569613D01*
X202345517Y-115587769D01*
X202311763Y-115607403D01*
X202275983Y-115628063D01*
X202274553Y-115628886D01*
X202096290Y-115731416D01*
X202112725Y-115776649D01*
X202135267Y-115842030D01*
X202157555Y-115913004D01*
X202179029Y-115987438D01*
X202199127Y-116063197D01*
X202217286Y-116138146D01*
X202232945Y-116210153D01*
X202245543Y-116277081D01*
X202247472Y-116288608D01*
X202252498Y-116319300D01*
X202687152Y-116319300D01*
X202695926Y-116330454D01*
X202697253Y-116332221D01*
X202698439Y-116334270D01*
X202699492Y-116337059D01*
X202700420Y-116341051D01*
X202701230Y-116346706D01*
X202701931Y-116354484D01*
X202702531Y-116364845D01*
X202703037Y-116378250D01*
X202703458Y-116395160D01*
X202703801Y-116416035D01*
X202704074Y-116441335D01*
X202704285Y-116471521D01*
X202704443Y-116507054D01*
X202704554Y-116548394D01*
X202704628Y-116596001D01*
X202704671Y-116650336D01*
X202704692Y-116711859D01*
X202704699Y-116781032D01*
X202704700Y-116840263D01*
X202704700Y-117338919D01*
X202693546Y-117347693D01*
X202690853Y-117349658D01*
X202687717Y-117351306D01*
X202683417Y-117352664D01*
X202677231Y-117353760D01*
X202668435Y-117354623D01*
X202656309Y-117355279D01*
X202640128Y-117355758D01*
X202619172Y-117356087D01*
X202592718Y-117356294D01*
X202560044Y-117356408D01*
X202520427Y-117356456D01*
X202473145Y-117356466D01*
X202252498Y-117356466D01*
X202247472Y-117387158D01*
X202235906Y-117450727D01*
X202221284Y-117519723D01*
X202204158Y-117592078D01*
X202185079Y-117665727D01*
X202164598Y-117738603D01*
X202143266Y-117808639D01*
X202121636Y-117873769D01*
X202106373Y-117915969D01*
X202095747Y-117944189D01*
X202273889Y-118046919D01*
X202309739Y-118067656D01*
X202343626Y-118087378D01*
X202374784Y-118105629D01*
X202402448Y-118121958D01*
X202425852Y-118135910D01*
X202444233Y-118147031D01*
X202456824Y-118154869D01*
X202462861Y-118158968D01*
X202462946Y-118159040D01*
X202466375Y-118161939D01*
X202469335Y-118164722D01*
X202471624Y-118167789D01*
X202473040Y-118171544D01*
X202473380Y-118176389D01*
X202472442Y-118182726D01*
X202470023Y-118190957D01*
X202465921Y-118201485D01*
X202459933Y-118214712D01*
X202451857Y-118231040D01*
X202441490Y-118250872D01*
X202428630Y-118274610D01*
X202413074Y-118302656D01*
X202394621Y-118335414D01*
X202373067Y-118373284D01*
X202348210Y-118416669D01*
X202319847Y-118465972D01*
X202287777Y-118521596D01*
X202251796Y-118583941D01*
X202230916Y-118620117D01*
X202199104Y-118675156D01*
X202168320Y-118728256D01*
X202138845Y-118778942D01*
X202110959Y-118826739D01*
X202084942Y-118871173D01*
X202061074Y-118911769D01*
X202039635Y-118948052D01*
X202020906Y-118979547D01*
X202005165Y-119005780D01*
X201992694Y-119026277D01*
X201983771Y-119040561D01*
X201978678Y-119048159D01*
X201977803Y-119049196D01*
X201966852Y-119056309D01*
X201954529Y-119057447D01*
X201951460Y-119057090D01*
X201944362Y-119054584D01*
X201930753Y-119048103D01*
X201910549Y-119037602D01*
X201883667Y-119023033D01*
X201850024Y-119004349D01*
X201809537Y-118981505D01*
X201762122Y-118954453D01*
X201707696Y-118923147D01*
X201646174Y-118887540D01*
X201592955Y-118856604D01*
X201575527Y-118846456D01*
X201523401Y-118906853D01*
X201500301Y-118932830D01*
X201472101Y-118963266D01*
X201439998Y-118996965D01*
X201405190Y-119032727D01*
X201368876Y-119069356D01*
X201332252Y-119105652D01*
X201296519Y-119140419D01*
X201262872Y-119172458D01*
X201232511Y-119200570D01*
X201207087Y-119223168D01*
X201146690Y-119275294D01*
X201156837Y-119292722D01*
X201195847Y-119359860D01*
X201230519Y-119419839D01*
X201260900Y-119472741D01*
X201287037Y-119518650D01*
X201308977Y-119557649D01*
X201326766Y-119589821D01*
X201340451Y-119615251D01*
X201350079Y-119634020D01*
X201355695Y-119646214D01*
X201357323Y-119651227D01*
X201357199Y-119664429D01*
X201351396Y-119675264D01*
X201349430Y-119677578D01*
X201344509Y-119681139D01*
X201332722Y-119688639D01*
X201314544Y-119699798D01*
X201290449Y-119714335D01*
X201260912Y-119731971D01*
X201226407Y-119752425D01*
X201187409Y-119775418D01*
X201144393Y-119800668D01*
X201097832Y-119827896D01*
X201048201Y-119856821D01*
X200995976Y-119887164D01*
X200941630Y-119918643D01*
X200920350Y-119930944D01*
X200854273Y-119969123D01*
X200795132Y-120003283D01*
X200742525Y-120033626D01*
X200696050Y-120060352D01*
X200655303Y-120083665D01*
X200619882Y-120103766D01*
X200589385Y-120120857D01*
X200563408Y-120135140D01*
X200541550Y-120146816D01*
X200523406Y-120156087D01*
X200508576Y-120163156D01*
X200496656Y-120168224D01*
X200487242Y-120171492D01*
X200479934Y-120173164D01*
X200474328Y-120173440D01*
X200470021Y-120172522D01*
X200466611Y-120170612D01*
X200463694Y-120167913D01*
X200460870Y-120164626D01*
X200458880Y-120162255D01*
X200455009Y-120156571D01*
X200447378Y-120144305D01*
X200436438Y-120126219D01*
X200422641Y-120103074D01*
X200406438Y-120075633D01*
X200388282Y-120044657D01*
X200368625Y-120010910D01*
X200347917Y-119975151D01*
X200347083Y-119973707D01*
X200244249Y-119795579D01*
X200218233Y-119805331D01*
X200154072Y-119828096D01*
X200083608Y-119850797D01*
X200008989Y-119872847D01*
X199932362Y-119893658D01*
X199855876Y-119912642D01*
X199781678Y-119929214D01*
X199723093Y-119940764D01*
X199701693Y-119944643D01*
X199683223Y-119947898D01*
X199669305Y-119950250D01*
X199661564Y-119951420D01*
X199660652Y-119951500D01*
X199659773Y-119955650D01*
X199658986Y-119967765D01*
X199658300Y-119987345D01*
X199657724Y-120013890D01*
X199657267Y-120046899D01*
X199656939Y-120085871D01*
X199656748Y-120130306D01*
X199656700Y-120169209D01*
X199656700Y-120386919D01*
X199645546Y-120395693D01*
X199643779Y-120397020D01*
X199641730Y-120398206D01*
X199638941Y-120399259D01*
X199634949Y-120400186D01*
X199629294Y-120400997D01*
X199621516Y-120401698D01*
X199611155Y-120402297D01*
X199597750Y-120402804D01*
X199580840Y-120403224D01*
X199559965Y-120403567D01*
X199534665Y-120403840D01*
X199504479Y-120404052D01*
X199468946Y-120404209D01*
X199427606Y-120404321D01*
X199379999Y-120404394D01*
X199325664Y-120404438D01*
X199264141Y-120404459D01*
X199194968Y-120404466D01*
X199189423Y-120404466D01*
X199189423Y-119311710D01*
X199331799Y-119304745D01*
X199473701Y-119289633D01*
X199614678Y-119266337D01*
X199690567Y-119250273D01*
X199829422Y-119214258D01*
X199965547Y-119170317D01*
X200098619Y-119118642D01*
X200228315Y-119059423D01*
X200354312Y-118992853D01*
X200476289Y-118919122D01*
X200593921Y-118838421D01*
X200706886Y-118750943D01*
X200814862Y-118656877D01*
X200917525Y-118556416D01*
X200985929Y-118482533D01*
X201080140Y-118370320D01*
X201166907Y-118254099D01*
X201246180Y-118133992D01*
X201317906Y-118010118D01*
X201382034Y-117882597D01*
X201438514Y-117751550D01*
X201487293Y-117617098D01*
X201528321Y-117479360D01*
X201561546Y-117338458D01*
X201586916Y-117194510D01*
X201604382Y-117047639D01*
X201606062Y-117028412D01*
X201608475Y-116991878D01*
X201610238Y-116948896D01*
X201611352Y-116901456D01*
X201611814Y-116851553D01*
X201611626Y-116801178D01*
X201610786Y-116752324D01*
X201609293Y-116706984D01*
X201607148Y-116667150D01*
X201606169Y-116653959D01*
X201590091Y-116506282D01*
X201566141Y-116361614D01*
X201534373Y-116220075D01*
X201494843Y-116081788D01*
X201447606Y-115946874D01*
X201392717Y-115815456D01*
X201330231Y-115687654D01*
X201260204Y-115563591D01*
X201182692Y-115443388D01*
X201097749Y-115327167D01*
X201005430Y-115215049D01*
X200905791Y-115107157D01*
X200901587Y-115102863D01*
X200797543Y-115002790D01*
X200688549Y-114909484D01*
X200574906Y-114823073D01*
X200456917Y-114743683D01*
X200334882Y-114671439D01*
X200209105Y-114606469D01*
X200079884Y-114548899D01*
X199947524Y-114498855D01*
X199812324Y-114456464D01*
X199674588Y-114421853D01*
X199534615Y-114395147D01*
X199392708Y-114376473D01*
X199249168Y-114365958D01*
X199138117Y-114363500D01*
X198994307Y-114367637D01*
X198851499Y-114379979D01*
X198710089Y-114400422D01*
X198570475Y-114428859D01*
X198433053Y-114465188D01*
X198298219Y-114509302D01*
X198166371Y-114561098D01*
X198037904Y-114620471D01*
X197914684Y-114686472D01*
X197790703Y-114762427D01*
X197672128Y-114844716D01*
X197559147Y-114933076D01*
X197451946Y-115027242D01*
X197350712Y-115126949D01*
X197255633Y-115231932D01*
X197166896Y-115341928D01*
X197084687Y-115456670D01*
X197009193Y-115575895D01*
X196940603Y-115699338D01*
X196879103Y-115826734D01*
X196824879Y-115957819D01*
X196778120Y-116092328D01*
X196739012Y-116229997D01*
X196707743Y-116370560D01*
X196701933Y-116401850D01*
X196681111Y-116541633D01*
X196668358Y-116682808D01*
X196663642Y-116824716D01*
X196666929Y-116966696D01*
X196678187Y-117108089D01*
X196697383Y-117248233D01*
X196724483Y-117386468D01*
X196757461Y-117515216D01*
X196801203Y-117652699D01*
X196852503Y-117786610D01*
X196911131Y-117916691D01*
X196976852Y-118042685D01*
X197049437Y-118164335D01*
X197128652Y-118281382D01*
X197214265Y-118393569D01*
X197306044Y-118500639D01*
X197403758Y-118602334D01*
X197507174Y-118698397D01*
X197616059Y-118788570D01*
X197730183Y-118872595D01*
X197849312Y-118950215D01*
X197973215Y-119021172D01*
X198101660Y-119085209D01*
X198217367Y-119135271D01*
X198350445Y-119184358D01*
X198486203Y-119225543D01*
X198624191Y-119258791D01*
X198763957Y-119284067D01*
X198905052Y-119301336D01*
X199047024Y-119310562D01*
X199189423Y-119311710D01*
X199189423Y-120404466D01*
X198637081Y-120404466D01*
X198628307Y-120393312D01*
X198626343Y-120390621D01*
X198624696Y-120387489D01*
X198623339Y-120383193D01*
X198622243Y-120377012D01*
X198621381Y-120368225D01*
X198620724Y-120356110D01*
X198620244Y-120339945D01*
X198619915Y-120319009D01*
X198619707Y-120292580D01*
X198619593Y-120259937D01*
X198619544Y-120220359D01*
X198619534Y-120173122D01*
X198619533Y-120166829D01*
X198619457Y-120118703D01*
X198619235Y-120075639D01*
X198618876Y-120038138D01*
X198618389Y-120006707D01*
X198617784Y-119981849D01*
X198617070Y-119964069D01*
X198616256Y-119953870D01*
X198615582Y-119951500D01*
X198610183Y-119950771D01*
X198598083Y-119948770D01*
X198580906Y-119945776D01*
X198560274Y-119942068D01*
X198553140Y-119940764D01*
X198482408Y-119926638D01*
X198407598Y-119909604D01*
X198330860Y-119890250D01*
X198254344Y-119869165D01*
X198180199Y-119846936D01*
X198110575Y-119824152D01*
X198057914Y-119805298D01*
X198031811Y-119795514D01*
X197929081Y-119973655D01*
X197908344Y-120009506D01*
X197888622Y-120043392D01*
X197870371Y-120074550D01*
X197854042Y-120102214D01*
X197840090Y-120125619D01*
X197828969Y-120143999D01*
X197821131Y-120156590D01*
X197817032Y-120162627D01*
X197816960Y-120162712D01*
X197814057Y-120166147D01*
X197811273Y-120169114D01*
X197808207Y-120171411D01*
X197804456Y-120172835D01*
X197799618Y-120173184D01*
X197793290Y-120172255D01*
X197785070Y-120169847D01*
X197774556Y-120165756D01*
X197761345Y-120159781D01*
X197745035Y-120151718D01*
X197725223Y-120141366D01*
X197701507Y-120128522D01*
X197673485Y-120112983D01*
X197640754Y-120094547D01*
X197602913Y-120073013D01*
X197559558Y-120048176D01*
X197510287Y-120019836D01*
X197454698Y-119987788D01*
X197392388Y-119951832D01*
X197355883Y-119930765D01*
X197300843Y-119898955D01*
X197247742Y-119868172D01*
X197197055Y-119838698D01*
X197149257Y-119810812D01*
X197104823Y-119784794D01*
X197064226Y-119760924D01*
X197027943Y-119739482D01*
X196996448Y-119720749D01*
X196970215Y-119705004D01*
X196949720Y-119692528D01*
X196935437Y-119683600D01*
X196927840Y-119678502D01*
X196926804Y-119677624D01*
X196919686Y-119666610D01*
X196918559Y-119654233D01*
X196918910Y-119651227D01*
X196921416Y-119644128D01*
X196927897Y-119630519D01*
X196938398Y-119610315D01*
X196952967Y-119583433D01*
X196971651Y-119549791D01*
X196994495Y-119509303D01*
X197021547Y-119461888D01*
X197052853Y-119407462D01*
X197088460Y-119345941D01*
X197119396Y-119292722D01*
X197129544Y-119275294D01*
X197069147Y-119223168D01*
X197043170Y-119200068D01*
X197012734Y-119171867D01*
X196979035Y-119139764D01*
X196943273Y-119104956D01*
X196906644Y-119068642D01*
X196870348Y-119032019D01*
X196835581Y-118996285D01*
X196803542Y-118962638D01*
X196775430Y-118932277D01*
X196752832Y-118906853D01*
X196700706Y-118846456D01*
X196683278Y-118856604D01*
X196616140Y-118895613D01*
X196556161Y-118930285D01*
X196503259Y-118960666D01*
X196457350Y-118986804D01*
X196418351Y-119008744D01*
X196386179Y-119026533D01*
X196360749Y-119040218D01*
X196341980Y-119049845D01*
X196329786Y-119055461D01*
X196324773Y-119057090D01*
X196311551Y-119056960D01*
X196300675Y-119051137D01*
X196298386Y-119049196D01*
X196294821Y-119044275D01*
X196287317Y-119032487D01*
X196276156Y-119014308D01*
X196261618Y-118990211D01*
X196243981Y-118960672D01*
X196223528Y-118926165D01*
X196200537Y-118887164D01*
X196175290Y-118844144D01*
X196148065Y-118797581D01*
X196119145Y-118747947D01*
X196088808Y-118695719D01*
X196057335Y-118641370D01*
X196045053Y-118620117D01*
X196006882Y-118554034D01*
X195972730Y-118494889D01*
X195942394Y-118442278D01*
X195915673Y-118395799D01*
X195892365Y-118355048D01*
X195872269Y-118319625D01*
X195855182Y-118289125D01*
X195840903Y-118263146D01*
X195829229Y-118241286D01*
X195819959Y-118223141D01*
X195812892Y-118208309D01*
X195807825Y-118196388D01*
X195804557Y-118186974D01*
X195802885Y-118179666D01*
X195802608Y-118174059D01*
X195803524Y-118169752D01*
X195805432Y-118166343D01*
X195808129Y-118163427D01*
X195811414Y-118160603D01*
X195813764Y-118158629D01*
X195819453Y-118154757D01*
X195831726Y-118147127D01*
X195849820Y-118136192D01*
X195872974Y-118122402D01*
X195900424Y-118106210D01*
X195931409Y-118088067D01*
X195965166Y-118068424D01*
X196000933Y-118047734D01*
X196002345Y-118046919D01*
X196180486Y-117944189D01*
X196169831Y-117915969D01*
X196148665Y-117856693D01*
X196127362Y-117791002D01*
X196106462Y-117720921D01*
X196086504Y-117648474D01*
X196068029Y-117575686D01*
X196051577Y-117504583D01*
X196037688Y-117437187D01*
X196028762Y-117387158D01*
X196023735Y-117356466D01*
X195589081Y-117356466D01*
X195580307Y-117345312D01*
X195578980Y-117343545D01*
X195577794Y-117341497D01*
X195576741Y-117338707D01*
X195575814Y-117334715D01*
X195575003Y-117329060D01*
X195574302Y-117321283D01*
X195573703Y-117310921D01*
X195573196Y-117297516D01*
X195572776Y-117280606D01*
X195572433Y-117259732D01*
X195572160Y-117234431D01*
X195571948Y-117204245D01*
X195571791Y-117168712D01*
X195571679Y-117127373D01*
X195571606Y-117079765D01*
X195571562Y-117025430D01*
X195571541Y-116963907D01*
X195571534Y-116894734D01*
X195571534Y-116336848D01*
X195582688Y-116328074D01*
G37*
X195582688Y-116328074D02*
X195585384Y-116326106D01*
X195588523Y-116324457D01*
X195592828Y-116323098D01*
X195599022Y-116322001D01*
X195607828Y-116321139D01*
X195619970Y-116320483D01*
X195636170Y-116320005D01*
X195657152Y-116319677D01*
X195683639Y-116319470D01*
X195716354Y-116319357D01*
X195756020Y-116319310D01*
X195803361Y-116319300D01*
X196022752Y-116319300D01*
X196036856Y-116244158D01*
X196050235Y-116178206D01*
X196066294Y-116108008D01*
X196084445Y-116035725D01*
X196104105Y-115963522D01*
X196124686Y-115893560D01*
X196145604Y-115828003D01*
X196163468Y-115776649D01*
X196179944Y-115731416D01*
X196001680Y-115628886D01*
X195965815Y-115608179D01*
X195931931Y-115588463D01*
X195900791Y-115570195D01*
X195873159Y-115553828D01*
X195849799Y-115539818D01*
X195831475Y-115528620D01*
X195818950Y-115520689D01*
X195812989Y-115516481D01*
X195812906Y-115516404D01*
X195809641Y-115513359D01*
X195806833Y-115510440D01*
X195804683Y-115507244D01*
X195803397Y-115503365D01*
X195803178Y-115498401D01*
X195804229Y-115491948D01*
X195806754Y-115483603D01*
X195810957Y-115472960D01*
X195817041Y-115459617D01*
X195825211Y-115443171D01*
X195835669Y-115423216D01*
X195848619Y-115399349D01*
X195864266Y-115371168D01*
X195882812Y-115338267D01*
X195904462Y-115300243D01*
X195929419Y-115256693D01*
X195957886Y-115207212D01*
X195990068Y-115151397D01*
X196026168Y-115088845D01*
X196045328Y-115055650D01*
X196077140Y-115000611D01*
X196107924Y-114947511D01*
X196137398Y-114896825D01*
X196165284Y-114849027D01*
X196191300Y-114804593D01*
X196215167Y-114763997D01*
X196236606Y-114727714D01*
X196255335Y-114696219D01*
X196271075Y-114669986D01*
X196283546Y-114649490D01*
X196292467Y-114635205D01*
X196297560Y-114627607D01*
X196298435Y-114626570D01*
X196309381Y-114619458D01*
X196321701Y-114618319D01*
X196324773Y-114618677D01*
X196331882Y-114621187D01*
X196345516Y-114627681D01*
X196365757Y-114638204D01*
X196392687Y-114652800D01*
X196426387Y-114671517D01*
X196466940Y-114694399D01*
X196514427Y-114721493D01*
X196568930Y-114752845D01*
X196630530Y-114788499D01*
X196683323Y-114819189D01*
X196700796Y-114829363D01*
X196748703Y-114773173D01*
X196768286Y-114750971D01*
X196793034Y-114724121D01*
X196821873Y-114693698D01*
X196853726Y-114660777D01*
X196887520Y-114626432D01*
X196922179Y-114591740D01*
X196956629Y-114557774D01*
X196989794Y-114525609D01*
X197020601Y-114496320D01*
X197047973Y-114470983D01*
X197070836Y-114450672D01*
X197073407Y-114448469D01*
X197129597Y-114400562D01*
X197119427Y-114383089D01*
X197081277Y-114317422D01*
X197047401Y-114258844D01*
X197017705Y-114207189D01*
X196992096Y-114162292D01*
X196970481Y-114123987D01*
X196952769Y-114092108D01*
X196938867Y-114066489D01*
X196928681Y-114046966D01*
X196922120Y-114033372D01*
X196919090Y-114025542D01*
X196918883Y-114024540D01*
X196919037Y-114011328D01*
X196924875Y-114000502D01*
X196926804Y-113998244D01*
X196931724Y-113994691D01*
X196943511Y-113987197D01*
X196961688Y-113976044D01*
X196985782Y-113961512D01*
X197015318Y-113943881D01*
X197049822Y-113923430D01*
X197088818Y-113900441D01*
X197131833Y-113875192D01*
X197178393Y-113847966D01*
X197228021Y-113819040D01*
X197280245Y-113788697D01*
X197334589Y-113757215D01*
X197355883Y-113744905D01*
X197421962Y-113706720D01*
X197481104Y-113672556D01*
X197533713Y-113642209D01*
X197580190Y-113615478D01*
X197620938Y-113592162D01*
X197656361Y-113572057D01*
X197686860Y-113554963D01*
X197712839Y-113540678D01*
X197734699Y-113528999D01*
X197752844Y-113519726D01*
X197767676Y-113512655D01*
X197779598Y-113507585D01*
X197789013Y-113504314D01*
X197796322Y-113502641D01*
X197801930Y-113502363D01*
X197806237Y-113503279D01*
X197809648Y-113505187D01*
X197812564Y-113507884D01*
X197815388Y-113511170D01*
X197817371Y-113513531D01*
X197821244Y-113519221D01*
X197828874Y-113531494D01*
X197839810Y-113549588D01*
X197853599Y-113572740D01*
X197869789Y-113600187D01*
X197887928Y-113631165D01*
X197907565Y-113664913D01*
X197928248Y-113700667D01*
X197928964Y-113701909D01*
X198031577Y-113879847D01*
X198070497Y-113865346D01*
X198119572Y-113848027D01*
X198175244Y-113830058D01*
X198235719Y-113811929D01*
X198299204Y-113794126D01*
X198363906Y-113777137D01*
X198428032Y-113761451D01*
X198489788Y-113747553D01*
X198544392Y-113736497D01*
X198619534Y-113722255D01*
X198619534Y-113288848D01*
X198630688Y-113280074D01*
X198632455Y-113278747D01*
X198634503Y-113277561D01*
X198637293Y-113276508D01*
X198641285Y-113275580D01*
X198646940Y-113274770D01*
X198654717Y-113274069D01*
X198665079Y-113273469D01*
X198678484Y-113272963D01*
X198695394Y-113272542D01*
X198716268Y-113272199D01*
X198741569Y-113271926D01*
X198771755Y-113271715D01*
X198807288Y-113271557D01*
X198848627Y-113271446D01*
X198896235Y-113271372D01*
X198950570Y-113271329D01*
X199012093Y-113271308D01*
X199081266Y-113271301D01*
X199140497Y-113271300D01*
X199639152Y-113271300D01*
X199647926Y-113282454D01*
X199649895Y-113285151D01*
X199651544Y-113288291D01*
X199652903Y-113292598D01*
X199654000Y-113298794D01*
X199654862Y-113307603D01*
X199655518Y-113319748D01*
X199655996Y-113335954D01*
X199656324Y-113356942D01*
X199656530Y-113383438D01*
X199656643Y-113416164D01*
X199656690Y-113455844D01*
X199656700Y-113503201D01*
X199656700Y-113722255D01*
X199731842Y-113736497D01*
X199798695Y-113750154D01*
X199869521Y-113766420D01*
X199942192Y-113784719D01*
X200014582Y-113804473D01*
X200084563Y-113825107D01*
X200150006Y-113846043D01*
X200199413Y-113863257D01*
X200244709Y-113879755D01*
X200347296Y-113701863D01*
X200368019Y-113666037D01*
X200387726Y-113632175D01*
X200405964Y-113601043D01*
X200422277Y-113573406D01*
X200436213Y-113550030D01*
X200447317Y-113531681D01*
X200455135Y-113519124D01*
X200459213Y-113513125D01*
X200459273Y-113513054D01*
X200462172Y-113509626D01*
X200464955Y-113506667D01*
X200468022Y-113504379D01*
X200471778Y-113502965D01*
X200476623Y-113502627D01*
X200482961Y-113503567D01*
X200491194Y-113505988D01*
X200501723Y-113510093D01*
X200514952Y-113516084D01*
X200531282Y-113524164D01*
X200551116Y-113534534D01*
X200574856Y-113547398D01*
X200602904Y-113562959D01*
X200635663Y-113581418D01*
X200673535Y-113602978D01*
X200716923Y-113627841D01*
X200766228Y-113656211D01*
X200821852Y-113688289D01*
X200884199Y-113724279D01*
X200920350Y-113745149D01*
X200975388Y-113776967D01*
X201028486Y-113807755D01*
X201079170Y-113837233D01*
X201126966Y-113865121D01*
X201171399Y-113891139D01*
X201211994Y-113915007D01*
X201248277Y-113936445D01*
X201279773Y-113955172D01*
X201306007Y-113970910D01*
X201326504Y-113983378D01*
X201340790Y-113992295D01*
X201348391Y-113997383D01*
X201349430Y-113998256D01*
X201356549Y-114009178D01*
X201357696Y-114021514D01*
X201357348Y-114024540D01*
X201354653Y-114032020D01*
X201347772Y-114046373D01*
X201336907Y-114067229D01*
X201322259Y-114094219D01*
X201304028Y-114126973D01*
X201282416Y-114165122D01*
X201257625Y-114208297D01*
X201251108Y-114219566D01*
X201146929Y-114399483D01*
X201160963Y-114412183D01*
X201168495Y-114418927D01*
X201181131Y-114430159D01*
X201197621Y-114444773D01*
X201216715Y-114461660D01*
X201237163Y-114479714D01*
X201238685Y-114481056D01*
X201267821Y-114507477D01*
X201301082Y-114538865D01*
X201337103Y-114573840D01*
X201374519Y-114611021D01*
X201411966Y-114649029D01*
X201448078Y-114686481D01*
X201481491Y-114721998D01*
X201510839Y-114754200D01*
X201527438Y-114773105D01*
X201575727Y-114829194D01*
X201593055Y-114819104D01*
X201660124Y-114780136D01*
X201720036Y-114745503D01*
X201772878Y-114715156D01*
X201818736Y-114689046D01*
X201857699Y-114667125D01*
X201889852Y-114649343D01*
X201915282Y-114635654D01*
X201934077Y-114626007D01*
X201946323Y-114620355D01*
X201951460Y-114618677D01*
X201964642Y-114618796D01*
X201975438Y-114624579D01*
X201977776Y-114626570D01*
X201981332Y-114631491D01*
X201988827Y-114643278D01*
X201999982Y-114661456D01*
X202014515Y-114685551D01*
X202032147Y-114715088D01*
X202052597Y-114749592D01*
X202075586Y-114788590D01*
X202100833Y-114831607D01*
X202128058Y-114878168D01*
X202156981Y-114927798D01*
X202187322Y-114980023D01*
X202218801Y-115034369D01*
X202231102Y-115055650D01*
X202269225Y-115121631D01*
X202303329Y-115180677D01*
X202333617Y-115233193D01*
X202360293Y-115279581D01*
X202383560Y-115320246D01*
X202403620Y-115355592D01*
X202420677Y-115386023D01*
X202434934Y-115411943D01*
X202446593Y-115433756D01*
X202455859Y-115451866D01*
X202462932Y-115466678D01*
X202468018Y-115478594D01*
X202471319Y-115488020D01*
X202473037Y-115495359D01*
X202473377Y-115501015D01*
X202472540Y-115505392D01*
X202470730Y-115508894D01*
X202468151Y-115511926D01*
X202465004Y-115514891D01*
X202462873Y-115516859D01*
X202457259Y-115520830D01*
X202445052Y-115528544D01*
X202427013Y-115539548D01*
X202403903Y-115553388D01*
X202376484Y-115569613D01*
X202345517Y-115587769D01*
X202311763Y-115607403D01*
X202275983Y-115628063D01*
X202274553Y-115628886D01*
X202096290Y-115731416D01*
X202112725Y-115776649D01*
X202135267Y-115842030D01*
X202157555Y-115913004D01*
X202179029Y-115987438D01*
X202199127Y-116063197D01*
X202217286Y-116138146D01*
X202232945Y-116210153D01*
X202245543Y-116277081D01*
X202247472Y-116288608D01*
X202252498Y-116319300D01*
X202687152Y-116319300D01*
X202695926Y-116330454D01*
X202697253Y-116332221D01*
X202698439Y-116334270D01*
X202699492Y-116337059D01*
X202700420Y-116341051D01*
X202701230Y-116346706D01*
X202701931Y-116354484D01*
X202702531Y-116364845D01*
X202703037Y-116378250D01*
X202703458Y-116395160D01*
X202703801Y-116416035D01*
X202704074Y-116441335D01*
X202704285Y-116471521D01*
X202704443Y-116507054D01*
X202704554Y-116548394D01*
X202704628Y-116596001D01*
X202704671Y-116650336D01*
X202704692Y-116711859D01*
X202704699Y-116781032D01*
X202704700Y-116840263D01*
X202704700Y-117338919D01*
X202693546Y-117347693D01*
X202690853Y-117349658D01*
X202687717Y-117351306D01*
X202683417Y-117352664D01*
X202677231Y-117353760D01*
X202668435Y-117354623D01*
X202656309Y-117355279D01*
X202640128Y-117355758D01*
X202619172Y-117356087D01*
X202592718Y-117356294D01*
X202560044Y-117356408D01*
X202520427Y-117356456D01*
X202473145Y-117356466D01*
X202252498Y-117356466D01*
X202247472Y-117387158D01*
X202235906Y-117450727D01*
X202221284Y-117519723D01*
X202204158Y-117592078D01*
X202185079Y-117665727D01*
X202164598Y-117738603D01*
X202143266Y-117808639D01*
X202121636Y-117873769D01*
X202106373Y-117915969D01*
X202095747Y-117944189D01*
X202273889Y-118046919D01*
X202309739Y-118067656D01*
X202343626Y-118087378D01*
X202374784Y-118105629D01*
X202402448Y-118121958D01*
X202425852Y-118135910D01*
X202444233Y-118147031D01*
X202456824Y-118154869D01*
X202462861Y-118158968D01*
X202462946Y-118159040D01*
X202466375Y-118161939D01*
X202469335Y-118164722D01*
X202471624Y-118167789D01*
X202473040Y-118171544D01*
X202473380Y-118176389D01*
X202472442Y-118182726D01*
X202470023Y-118190957D01*
X202465921Y-118201485D01*
X202459933Y-118214712D01*
X202451857Y-118231040D01*
X202441490Y-118250872D01*
X202428630Y-118274610D01*
X202413074Y-118302656D01*
X202394621Y-118335414D01*
X202373067Y-118373284D01*
X202348210Y-118416669D01*
X202319847Y-118465972D01*
X202287777Y-118521596D01*
X202251796Y-118583941D01*
X202230916Y-118620117D01*
X202199104Y-118675156D01*
X202168320Y-118728256D01*
X202138845Y-118778942D01*
X202110959Y-118826739D01*
X202084942Y-118871173D01*
X202061074Y-118911769D01*
X202039635Y-118948052D01*
X202020906Y-118979547D01*
X202005165Y-119005780D01*
X201992694Y-119026277D01*
X201983771Y-119040561D01*
X201978678Y-119048159D01*
X201977803Y-119049196D01*
X201966852Y-119056309D01*
X201954529Y-119057447D01*
X201951460Y-119057090D01*
X201944362Y-119054584D01*
X201930753Y-119048103D01*
X201910549Y-119037602D01*
X201883667Y-119023033D01*
X201850024Y-119004349D01*
X201809537Y-118981505D01*
X201762122Y-118954453D01*
X201707696Y-118923147D01*
X201646174Y-118887540D01*
X201592955Y-118856604D01*
X201575527Y-118846456D01*
X201523401Y-118906853D01*
X201500301Y-118932830D01*
X201472101Y-118963266D01*
X201439998Y-118996965D01*
X201405190Y-119032727D01*
X201368876Y-119069356D01*
X201332252Y-119105652D01*
X201296519Y-119140419D01*
X201262872Y-119172458D01*
X201232511Y-119200570D01*
X201207087Y-119223168D01*
X201146690Y-119275294D01*
X201156837Y-119292722D01*
X201195847Y-119359860D01*
X201230519Y-119419839D01*
X201260900Y-119472741D01*
X201287037Y-119518650D01*
X201308977Y-119557649D01*
X201326766Y-119589821D01*
X201340451Y-119615251D01*
X201350079Y-119634020D01*
X201355695Y-119646214D01*
X201357323Y-119651227D01*
X201357199Y-119664429D01*
X201351396Y-119675264D01*
X201349430Y-119677578D01*
X201344509Y-119681139D01*
X201332722Y-119688639D01*
X201314544Y-119699798D01*
X201290449Y-119714335D01*
X201260912Y-119731971D01*
X201226407Y-119752425D01*
X201187409Y-119775418D01*
X201144393Y-119800668D01*
X201097832Y-119827896D01*
X201048201Y-119856821D01*
X200995976Y-119887164D01*
X200941630Y-119918643D01*
X200920350Y-119930944D01*
X200854273Y-119969123D01*
X200795132Y-120003283D01*
X200742525Y-120033626D01*
X200696050Y-120060352D01*
X200655303Y-120083665D01*
X200619882Y-120103766D01*
X200589385Y-120120857D01*
X200563408Y-120135140D01*
X200541550Y-120146816D01*
X200523406Y-120156087D01*
X200508576Y-120163156D01*
X200496656Y-120168224D01*
X200487242Y-120171492D01*
X200479934Y-120173164D01*
X200474328Y-120173440D01*
X200470021Y-120172522D01*
X200466611Y-120170612D01*
X200463694Y-120167913D01*
X200460870Y-120164626D01*
X200458880Y-120162255D01*
X200455009Y-120156571D01*
X200447378Y-120144305D01*
X200436438Y-120126219D01*
X200422641Y-120103074D01*
X200406438Y-120075633D01*
X200388282Y-120044657D01*
X200368625Y-120010910D01*
X200347917Y-119975151D01*
X200347083Y-119973707D01*
X200244249Y-119795579D01*
X200218233Y-119805331D01*
X200154072Y-119828096D01*
X200083608Y-119850797D01*
X200008989Y-119872847D01*
X199932362Y-119893658D01*
X199855876Y-119912642D01*
X199781678Y-119929214D01*
X199723093Y-119940764D01*
X199701693Y-119944643D01*
X199683223Y-119947898D01*
X199669305Y-119950250D01*
X199661564Y-119951420D01*
X199660652Y-119951500D01*
X199659773Y-119955650D01*
X199658986Y-119967765D01*
X199658300Y-119987345D01*
X199657724Y-120013890D01*
X199657267Y-120046899D01*
X199656939Y-120085871D01*
X199656748Y-120130306D01*
X199656700Y-120169209D01*
X199656700Y-120386919D01*
X199645546Y-120395693D01*
X199643779Y-120397020D01*
X199641730Y-120398206D01*
X199638941Y-120399259D01*
X199634949Y-120400186D01*
X199629294Y-120400997D01*
X199621516Y-120401698D01*
X199611155Y-120402297D01*
X199597750Y-120402804D01*
X199580840Y-120403224D01*
X199559965Y-120403567D01*
X199534665Y-120403840D01*
X199504479Y-120404052D01*
X199468946Y-120404209D01*
X199427606Y-120404321D01*
X199379999Y-120404394D01*
X199325664Y-120404438D01*
X199264141Y-120404459D01*
X199194968Y-120404466D01*
X199189423Y-120404466D01*
X199189423Y-119311710D01*
X199331799Y-119304745D01*
X199473701Y-119289633D01*
X199614678Y-119266337D01*
X199690567Y-119250273D01*
X199829422Y-119214258D01*
X199965547Y-119170317D01*
X200098619Y-119118642D01*
X200228315Y-119059423D01*
X200354312Y-118992853D01*
X200476289Y-118919122D01*
X200593921Y-118838421D01*
X200706886Y-118750943D01*
X200814862Y-118656877D01*
X200917525Y-118556416D01*
X200985929Y-118482533D01*
X201080140Y-118370320D01*
X201166907Y-118254099D01*
X201246180Y-118133992D01*
X201317906Y-118010118D01*
X201382034Y-117882597D01*
X201438514Y-117751550D01*
X201487293Y-117617098D01*
X201528321Y-117479360D01*
X201561546Y-117338458D01*
X201586916Y-117194510D01*
X201604382Y-117047639D01*
X201606062Y-117028412D01*
X201608475Y-116991878D01*
X201610238Y-116948896D01*
X201611352Y-116901456D01*
X201611814Y-116851553D01*
X201611626Y-116801178D01*
X201610786Y-116752324D01*
X201609293Y-116706984D01*
X201607148Y-116667150D01*
X201606169Y-116653959D01*
X201590091Y-116506282D01*
X201566141Y-116361614D01*
X201534373Y-116220075D01*
X201494843Y-116081788D01*
X201447606Y-115946874D01*
X201392717Y-115815456D01*
X201330231Y-115687654D01*
X201260204Y-115563591D01*
X201182692Y-115443388D01*
X201097749Y-115327167D01*
X201005430Y-115215049D01*
X200905791Y-115107157D01*
X200901587Y-115102863D01*
X200797543Y-115002790D01*
X200688549Y-114909484D01*
X200574906Y-114823073D01*
X200456917Y-114743683D01*
X200334882Y-114671439D01*
X200209105Y-114606469D01*
X200079884Y-114548899D01*
X199947524Y-114498855D01*
X199812324Y-114456464D01*
X199674588Y-114421853D01*
X199534615Y-114395147D01*
X199392708Y-114376473D01*
X199249168Y-114365958D01*
X199138117Y-114363500D01*
X198994307Y-114367637D01*
X198851499Y-114379979D01*
X198710089Y-114400422D01*
X198570475Y-114428859D01*
X198433053Y-114465188D01*
X198298219Y-114509302D01*
X198166371Y-114561098D01*
X198037904Y-114620471D01*
X197914684Y-114686472D01*
X197790703Y-114762427D01*
X197672128Y-114844716D01*
X197559147Y-114933076D01*
X197451946Y-115027242D01*
X197350712Y-115126949D01*
X197255633Y-115231932D01*
X197166896Y-115341928D01*
X197084687Y-115456670D01*
X197009193Y-115575895D01*
X196940603Y-115699338D01*
X196879103Y-115826734D01*
X196824879Y-115957819D01*
X196778120Y-116092328D01*
X196739012Y-116229997D01*
X196707743Y-116370560D01*
X196701933Y-116401850D01*
X196681111Y-116541633D01*
X196668358Y-116682808D01*
X196663642Y-116824716D01*
X196666929Y-116966696D01*
X196678187Y-117108089D01*
X196697383Y-117248233D01*
X196724483Y-117386468D01*
X196757461Y-117515216D01*
X196801203Y-117652699D01*
X196852503Y-117786610D01*
X196911131Y-117916691D01*
X196976852Y-118042685D01*
X197049437Y-118164335D01*
X197128652Y-118281382D01*
X197214265Y-118393569D01*
X197306044Y-118500639D01*
X197403758Y-118602334D01*
X197507174Y-118698397D01*
X197616059Y-118788570D01*
X197730183Y-118872595D01*
X197849312Y-118950215D01*
X197973215Y-119021172D01*
X198101660Y-119085209D01*
X198217367Y-119135271D01*
X198350445Y-119184358D01*
X198486203Y-119225543D01*
X198624191Y-119258791D01*
X198763957Y-119284067D01*
X198905052Y-119301336D01*
X199047024Y-119310562D01*
X199189423Y-119311710D01*
X199189423Y-120404466D01*
X198637081Y-120404466D01*
X198628307Y-120393312D01*
X198626343Y-120390621D01*
X198624696Y-120387489D01*
X198623339Y-120383193D01*
X198622243Y-120377012D01*
X198621381Y-120368225D01*
X198620724Y-120356110D01*
X198620244Y-120339945D01*
X198619915Y-120319009D01*
X198619707Y-120292580D01*
X198619593Y-120259937D01*
X198619544Y-120220359D01*
X198619534Y-120173122D01*
X198619533Y-120166829D01*
X198619457Y-120118703D01*
X198619235Y-120075639D01*
X198618876Y-120038138D01*
X198618389Y-120006707D01*
X198617784Y-119981849D01*
X198617070Y-119964069D01*
X198616256Y-119953870D01*
X198615582Y-119951500D01*
X198610183Y-119950771D01*
X198598083Y-119948770D01*
X198580906Y-119945776D01*
X198560274Y-119942068D01*
X198553140Y-119940764D01*
X198482408Y-119926638D01*
X198407598Y-119909604D01*
X198330860Y-119890250D01*
X198254344Y-119869165D01*
X198180199Y-119846936D01*
X198110575Y-119824152D01*
X198057914Y-119805298D01*
X198031811Y-119795514D01*
X197929081Y-119973655D01*
X197908344Y-120009506D01*
X197888622Y-120043392D01*
X197870371Y-120074550D01*
X197854042Y-120102214D01*
X197840090Y-120125619D01*
X197828969Y-120143999D01*
X197821131Y-120156590D01*
X197817032Y-120162627D01*
X197816960Y-120162712D01*
X197814057Y-120166147D01*
X197811273Y-120169114D01*
X197808207Y-120171411D01*
X197804456Y-120172835D01*
X197799618Y-120173184D01*
X197793290Y-120172255D01*
X197785070Y-120169847D01*
X197774556Y-120165756D01*
X197761345Y-120159781D01*
X197745035Y-120151718D01*
X197725223Y-120141366D01*
X197701507Y-120128522D01*
X197673485Y-120112983D01*
X197640754Y-120094547D01*
X197602913Y-120073013D01*
X197559558Y-120048176D01*
X197510287Y-120019836D01*
X197454698Y-119987788D01*
X197392388Y-119951832D01*
X197355883Y-119930765D01*
X197300843Y-119898955D01*
X197247742Y-119868172D01*
X197197055Y-119838698D01*
X197149257Y-119810812D01*
X197104823Y-119784794D01*
X197064226Y-119760924D01*
X197027943Y-119739482D01*
X196996448Y-119720749D01*
X196970215Y-119705004D01*
X196949720Y-119692528D01*
X196935437Y-119683600D01*
X196927840Y-119678502D01*
X196926804Y-119677624D01*
X196919686Y-119666610D01*
X196918559Y-119654233D01*
X196918910Y-119651227D01*
X196921416Y-119644128D01*
X196927897Y-119630519D01*
X196938398Y-119610315D01*
X196952967Y-119583433D01*
X196971651Y-119549791D01*
X196994495Y-119509303D01*
X197021547Y-119461888D01*
X197052853Y-119407462D01*
X197088460Y-119345941D01*
X197119396Y-119292722D01*
X197129544Y-119275294D01*
X197069147Y-119223168D01*
X197043170Y-119200068D01*
X197012734Y-119171867D01*
X196979035Y-119139764D01*
X196943273Y-119104956D01*
X196906644Y-119068642D01*
X196870348Y-119032019D01*
X196835581Y-118996285D01*
X196803542Y-118962638D01*
X196775430Y-118932277D01*
X196752832Y-118906853D01*
X196700706Y-118846456D01*
X196683278Y-118856604D01*
X196616140Y-118895613D01*
X196556161Y-118930285D01*
X196503259Y-118960666D01*
X196457350Y-118986804D01*
X196418351Y-119008744D01*
X196386179Y-119026533D01*
X196360749Y-119040218D01*
X196341980Y-119049845D01*
X196329786Y-119055461D01*
X196324773Y-119057090D01*
X196311551Y-119056960D01*
X196300675Y-119051137D01*
X196298386Y-119049196D01*
X196294821Y-119044275D01*
X196287317Y-119032487D01*
X196276156Y-119014308D01*
X196261618Y-118990211D01*
X196243981Y-118960672D01*
X196223528Y-118926165D01*
X196200537Y-118887164D01*
X196175290Y-118844144D01*
X196148065Y-118797581D01*
X196119145Y-118747947D01*
X196088808Y-118695719D01*
X196057335Y-118641370D01*
X196045053Y-118620117D01*
X196006882Y-118554034D01*
X195972730Y-118494889D01*
X195942394Y-118442278D01*
X195915673Y-118395799D01*
X195892365Y-118355048D01*
X195872269Y-118319625D01*
X195855182Y-118289125D01*
X195840903Y-118263146D01*
X195829229Y-118241286D01*
X195819959Y-118223141D01*
X195812892Y-118208309D01*
X195807825Y-118196388D01*
X195804557Y-118186974D01*
X195802885Y-118179666D01*
X195802608Y-118174059D01*
X195803524Y-118169752D01*
X195805432Y-118166343D01*
X195808129Y-118163427D01*
X195811414Y-118160603D01*
X195813764Y-118158629D01*
X195819453Y-118154757D01*
X195831726Y-118147127D01*
X195849820Y-118136192D01*
X195872974Y-118122402D01*
X195900424Y-118106210D01*
X195931409Y-118088067D01*
X195965166Y-118068424D01*
X196000933Y-118047734D01*
X196002345Y-118046919D01*
X196180486Y-117944189D01*
X196169831Y-117915969D01*
X196148665Y-117856693D01*
X196127362Y-117791002D01*
X196106462Y-117720921D01*
X196086504Y-117648474D01*
X196068029Y-117575686D01*
X196051577Y-117504583D01*
X196037688Y-117437187D01*
X196028762Y-117387158D01*
X196023735Y-117356466D01*
X195589081Y-117356466D01*
X195580307Y-117345312D01*
X195578980Y-117343545D01*
X195577794Y-117341497D01*
X195576741Y-117338707D01*
X195575814Y-117334715D01*
X195575003Y-117329060D01*
X195574302Y-117321283D01*
X195573703Y-117310921D01*
X195573196Y-117297516D01*
X195572776Y-117280606D01*
X195572433Y-117259732D01*
X195572160Y-117234431D01*
X195571948Y-117204245D01*
X195571791Y-117168712D01*
X195571679Y-117127373D01*
X195571606Y-117079765D01*
X195571562Y-117025430D01*
X195571541Y-116963907D01*
X195571534Y-116894734D01*
X195571534Y-116336848D01*
X195582688Y-116328074D01*
G36*
X197251945Y-116745682D02*
G01*
X197252374Y-116740517D01*
X197266843Y-116619666D01*
X197289263Y-116500517D01*
X197319397Y-116383492D01*
X197357010Y-116269012D01*
X197401867Y-116157498D01*
X197453731Y-116049370D01*
X197512368Y-115945051D01*
X197577542Y-115844962D01*
X197649017Y-115749523D01*
X197726557Y-115659157D01*
X197809928Y-115574283D01*
X197898893Y-115495324D01*
X197986650Y-115427422D01*
X198078234Y-115365904D01*
X198171855Y-115312123D01*
X198267217Y-115266160D01*
X198364026Y-115228097D01*
X198461985Y-115198016D01*
X198560799Y-115176000D01*
X198660171Y-115162130D01*
X198759807Y-115156489D01*
X198859411Y-115159158D01*
X198928567Y-115165966D01*
X199027484Y-115182481D01*
X199127673Y-115206642D01*
X199227897Y-115238010D01*
X199326922Y-115276144D01*
X199423513Y-115320603D01*
X199516435Y-115370946D01*
X199535950Y-115382578D01*
X199564059Y-115399920D01*
X199590061Y-115416710D01*
X199614734Y-115433599D01*
X199638856Y-115451238D01*
X199663204Y-115470279D01*
X199688557Y-115491373D01*
X199715691Y-115515172D01*
X199745385Y-115542328D01*
X199778416Y-115573491D01*
X199815562Y-115609313D01*
X199857600Y-115650446D01*
X199868367Y-115661046D01*
X199896599Y-115688648D01*
X199924606Y-115715625D01*
X199951444Y-115741098D01*
X199976171Y-115764185D01*
X199997843Y-115784008D01*
X200015517Y-115799687D01*
X200028250Y-115810342D01*
X200029234Y-115811111D01*
X200107594Y-115867215D01*
X200192500Y-115919237D01*
X200268374Y-115959416D01*
X200313987Y-115981352D01*
X200358867Y-116001628D01*
X200404601Y-116020872D01*
X200452776Y-116039711D01*
X200504978Y-116058774D01*
X200562793Y-116078689D01*
X200604967Y-116092659D01*
X200652158Y-116108113D01*
X200692139Y-116121275D01*
X200725758Y-116132448D01*
X200753864Y-116141936D01*
X200777305Y-116150042D01*
X200796930Y-116157071D01*
X200813588Y-116163325D01*
X200828127Y-116169109D01*
X200841396Y-116174726D01*
X200854242Y-116180479D01*
X200866921Y-116186392D01*
X200938298Y-116224496D01*
X201003596Y-116268480D01*
X201062905Y-116318435D01*
X201116318Y-116374450D01*
X201163928Y-116436614D01*
X201205825Y-116505019D01*
X201218793Y-116529729D01*
X201233256Y-116561387D01*
X201247775Y-116598450D01*
X201261379Y-116638018D01*
X201273095Y-116677190D01*
X201281951Y-116713067D01*
X201284450Y-116725700D01*
X201288639Y-116755685D01*
X201291509Y-116790317D01*
X201293008Y-116827037D01*
X201293083Y-116863287D01*
X201291682Y-116896510D01*
X201288755Y-116924148D01*
X201288500Y-116925760D01*
X201271515Y-117004885D01*
X201247064Y-117080453D01*
X201215447Y-117152073D01*
X201176967Y-117219355D01*
X201131922Y-117281907D01*
X201080613Y-117339339D01*
X201023342Y-117391260D01*
X200960409Y-117437279D01*
X200892114Y-117477006D01*
X200848496Y-117497743D01*
X200830504Y-117505132D01*
X200806543Y-117514259D01*
X200778730Y-117524358D01*
X200749184Y-117534659D01*
X200720021Y-117544394D01*
X200718603Y-117544855D01*
X200652551Y-117566444D01*
X200593743Y-117586036D01*
X200541287Y-117603972D01*
X200494290Y-117620596D01*
X200451859Y-117636251D01*
X200413103Y-117651279D01*
X200377129Y-117666023D01*
X200343044Y-117680825D01*
X200309955Y-117696029D01*
X200276971Y-117711978D01*
X200255717Y-117722625D01*
X200214342Y-117744040D01*
X200176907Y-117764493D01*
X200142429Y-117784727D01*
X200109924Y-117805484D01*
X200078410Y-117827507D01*
X200046904Y-117851539D01*
X200014423Y-117878322D01*
X199979983Y-117908598D01*
X199942602Y-117943111D01*
X199901297Y-117982603D01*
X199866205Y-118016866D01*
X199822992Y-118059137D01*
X199784841Y-118095946D01*
X199750968Y-118127953D01*
X199720588Y-118155821D01*
X199692915Y-118180209D01*
X199667166Y-118201779D01*
X199642555Y-118221193D01*
X199618298Y-118239110D01*
X199593609Y-118256194D01*
X199567705Y-118273104D01*
X199545699Y-118286876D01*
X199451122Y-118340685D01*
X199352341Y-118388283D01*
X199250490Y-118429262D01*
X199146705Y-118463217D01*
X199042118Y-118489739D01*
X198937863Y-118508424D01*
X198922217Y-118510539D01*
X198893646Y-118513432D01*
X198859474Y-118515609D01*
X198821708Y-118517055D01*
X198782350Y-118517752D01*
X198772234Y-118517735D01*
X198772234Y-118399848D01*
X198813258Y-118399521D01*
X198852503Y-118398308D01*
X198887940Y-118396210D01*
X198917540Y-118393225D01*
X198924333Y-118392258D01*
X199028204Y-118372259D01*
X199131679Y-118344555D01*
X199233449Y-118309626D01*
X199332201Y-118267954D01*
X199426627Y-118220019D01*
X199482552Y-118187286D01*
X199507869Y-118171364D01*
X199531149Y-118156012D01*
X199553230Y-118140522D01*
X199574951Y-118124189D01*
X199597148Y-118106305D01*
X199620662Y-118086165D01*
X199646331Y-118063061D01*
X199674992Y-118036287D01*
X199707484Y-118005136D01*
X199744647Y-117968903D01*
X199762533Y-117951325D01*
X199798718Y-117915784D01*
X199829728Y-117885544D01*
X199856348Y-117859892D01*
X199879364Y-117838115D01*
X199899561Y-117819502D01*
X199917725Y-117803339D01*
X199934639Y-117788913D01*
X199951091Y-117775513D01*
X199967865Y-117762426D01*
X199984784Y-117749656D01*
X200034352Y-117714249D01*
X200085392Y-117680996D01*
X200138728Y-117649508D01*
X200195182Y-117619396D01*
X200255578Y-117590271D01*
X200320739Y-117561745D01*
X200391488Y-117533427D01*
X200468648Y-117504929D01*
X200553043Y-117475863D01*
X200589678Y-117463772D01*
X200638648Y-117447701D01*
X200680420Y-117433766D01*
X200715889Y-117421624D01*
X200745954Y-117410932D01*
X200771512Y-117401347D01*
X200793458Y-117392528D01*
X200812691Y-117384132D01*
X200830107Y-117375815D01*
X200846604Y-117367236D01*
X200856022Y-117362051D01*
X200901018Y-117334580D01*
X200941699Y-117304616D01*
X200980778Y-117270040D01*
X201004760Y-117246019D01*
X201051538Y-117191255D01*
X201091545Y-117131739D01*
X201124448Y-117068192D01*
X201149913Y-117001334D01*
X201167608Y-116931887D01*
X201175864Y-116875763D01*
X201177509Y-116855384D01*
X201177957Y-116836579D01*
X201177085Y-116817044D01*
X201174767Y-116794475D01*
X201170879Y-116766570D01*
X201169487Y-116757450D01*
X201154806Y-116689875D01*
X201132212Y-116624365D01*
X201102142Y-116561594D01*
X201065036Y-116502236D01*
X201021330Y-116446964D01*
X200971464Y-116396454D01*
X200915876Y-116351379D01*
X200896956Y-116338216D01*
X200880491Y-116327405D01*
X200864730Y-116317627D01*
X200848878Y-116308557D01*
X200832139Y-116299873D01*
X200813715Y-116291249D01*
X200792813Y-116282363D01*
X200768634Y-116272891D01*
X200740384Y-116262508D01*
X200707265Y-116250891D01*
X200668483Y-116237717D01*
X200623241Y-116222662D01*
X200570743Y-116205401D01*
X200568984Y-116204825D01*
X200479466Y-116174465D01*
X200397542Y-116144438D01*
X200322371Y-116114367D01*
X200253110Y-116083876D01*
X200188917Y-116052586D01*
X200128949Y-116020120D01*
X200072365Y-115986102D01*
X200053479Y-115973939D01*
X200027730Y-115956804D01*
X200003930Y-115940309D01*
X199981263Y-115923753D01*
X199958913Y-115906436D01*
X199936067Y-115887659D01*
X199911907Y-115866722D01*
X199885618Y-115842924D01*
X199856384Y-115815566D01*
X199823391Y-115783948D01*
X199785821Y-115747370D01*
X199760417Y-115722428D01*
X199733445Y-115695981D01*
X199707236Y-115670455D01*
X199682668Y-115646696D01*
X199660621Y-115625548D01*
X199641976Y-115607853D01*
X199627610Y-115594457D01*
X199618600Y-115586369D01*
X199557240Y-115538105D01*
X199488819Y-115492121D01*
X199414570Y-115448996D01*
X199335727Y-115409310D01*
X199253522Y-115373640D01*
X199169190Y-115342566D01*
X199083963Y-115316667D01*
X199002650Y-115297251D01*
X198906925Y-115281846D01*
X198810830Y-115274852D01*
X198714656Y-115276237D01*
X198618691Y-115285971D01*
X198523224Y-115304024D01*
X198428545Y-115330363D01*
X198334941Y-115364959D01*
X198324454Y-115369383D01*
X198236777Y-115411017D01*
X198149949Y-115460476D01*
X198064828Y-115517118D01*
X197982274Y-115580300D01*
X197903144Y-115649380D01*
X197828297Y-115723717D01*
X197781686Y-115775316D01*
X197719146Y-115851718D01*
X197662723Y-115929437D01*
X197611087Y-116010488D01*
X197562908Y-116096888D01*
X197540575Y-116140945D01*
X197492246Y-116247373D01*
X197451911Y-116354301D01*
X197419234Y-116462882D01*
X197393875Y-116574265D01*
X197375497Y-116689602D01*
X197372657Y-116713000D01*
X197366729Y-116795445D01*
X197367293Y-116882299D01*
X197374212Y-116972705D01*
X197387348Y-117065808D01*
X197406562Y-117160751D01*
X197431718Y-117256678D01*
X197462678Y-117352731D01*
X197485372Y-117413616D01*
X197497397Y-117442344D01*
X197512851Y-117476398D01*
X197530769Y-117513865D01*
X197550184Y-117552833D01*
X197570132Y-117591390D01*
X197589648Y-117627624D01*
X197607767Y-117659624D01*
X197618928Y-117678200D01*
X197685487Y-117777840D01*
X197757711Y-117871507D01*
X197835379Y-117958987D01*
X197918269Y-118040068D01*
X198006159Y-118114536D01*
X198098827Y-118182179D01*
X198196051Y-118242782D01*
X198221836Y-118257244D01*
X198287821Y-118290139D01*
X198359946Y-118320113D01*
X198436188Y-118346499D01*
X198514526Y-118368628D01*
X198592936Y-118385833D01*
X198630942Y-118392290D01*
X198658786Y-118395510D01*
X198692969Y-118397843D01*
X198731461Y-118399289D01*
X198772234Y-118399848D01*
X198772234Y-118517735D01*
X198743406Y-118517684D01*
X198706881Y-118516836D01*
X198674778Y-118515191D01*
X198649167Y-118512742D01*
X198570057Y-118500769D01*
X198497117Y-118486225D01*
X198428277Y-118468492D01*
X198361468Y-118446954D01*
X198294621Y-118420993D01*
X198225669Y-118389994D01*
X198206784Y-118380857D01*
X198110772Y-118329172D01*
X198017625Y-118269861D01*
X197927797Y-118203417D01*
X197841741Y-118130328D01*
X197759910Y-118051087D01*
X197682760Y-117966185D01*
X197610742Y-117876112D01*
X197544312Y-117781359D01*
X197483923Y-117682417D01*
X197430028Y-117579777D01*
X197394928Y-117502516D01*
X197356947Y-117405978D01*
X197324363Y-117308128D01*
X197297349Y-117209900D01*
X197276081Y-117112224D01*
X197260732Y-117016032D01*
X197251477Y-116922257D01*
X197248489Y-116831829D01*
X197251945Y-116745682D01*
G37*
X197251945Y-116745682D02*
X197252374Y-116740517D01*
X197266843Y-116619666D01*
X197289263Y-116500517D01*
X197319397Y-116383492D01*
X197357010Y-116269012D01*
X197401867Y-116157498D01*
X197453731Y-116049370D01*
X197512368Y-115945051D01*
X197577542Y-115844962D01*
X197649017Y-115749523D01*
X197726557Y-115659157D01*
X197809928Y-115574283D01*
X197898893Y-115495324D01*
X197986650Y-115427422D01*
X198078234Y-115365904D01*
X198171855Y-115312123D01*
X198267217Y-115266160D01*
X198364026Y-115228097D01*
X198461985Y-115198016D01*
X198560799Y-115176000D01*
X198660171Y-115162130D01*
X198759807Y-115156489D01*
X198859411Y-115159158D01*
X198928567Y-115165966D01*
X199027484Y-115182481D01*
X199127673Y-115206642D01*
X199227897Y-115238010D01*
X199326922Y-115276144D01*
X199423513Y-115320603D01*
X199516435Y-115370946D01*
X199535950Y-115382578D01*
X199564059Y-115399920D01*
X199590061Y-115416710D01*
X199614734Y-115433599D01*
X199638856Y-115451238D01*
X199663204Y-115470279D01*
X199688557Y-115491373D01*
X199715691Y-115515172D01*
X199745385Y-115542328D01*
X199778416Y-115573491D01*
X199815562Y-115609313D01*
X199857600Y-115650446D01*
X199868367Y-115661046D01*
X199896599Y-115688648D01*
X199924606Y-115715625D01*
X199951444Y-115741098D01*
X199976171Y-115764185D01*
X199997843Y-115784008D01*
X200015517Y-115799687D01*
X200028250Y-115810342D01*
X200029234Y-115811111D01*
X200107594Y-115867215D01*
X200192500Y-115919237D01*
X200268374Y-115959416D01*
X200313987Y-115981352D01*
X200358867Y-116001628D01*
X200404601Y-116020872D01*
X200452776Y-116039711D01*
X200504978Y-116058774D01*
X200562793Y-116078689D01*
X200604967Y-116092659D01*
X200652158Y-116108113D01*
X200692139Y-116121275D01*
X200725758Y-116132448D01*
X200753864Y-116141936D01*
X200777305Y-116150042D01*
X200796930Y-116157071D01*
X200813588Y-116163325D01*
X200828127Y-116169109D01*
X200841396Y-116174726D01*
X200854242Y-116180479D01*
X200866921Y-116186392D01*
X200938298Y-116224496D01*
X201003596Y-116268480D01*
X201062905Y-116318435D01*
X201116318Y-116374450D01*
X201163928Y-116436614D01*
X201205825Y-116505019D01*
X201218793Y-116529729D01*
X201233256Y-116561387D01*
X201247775Y-116598450D01*
X201261379Y-116638018D01*
X201273095Y-116677190D01*
X201281951Y-116713067D01*
X201284450Y-116725700D01*
X201288639Y-116755685D01*
X201291509Y-116790317D01*
X201293008Y-116827037D01*
X201293083Y-116863287D01*
X201291682Y-116896510D01*
X201288755Y-116924148D01*
X201288500Y-116925760D01*
X201271515Y-117004885D01*
X201247064Y-117080453D01*
X201215447Y-117152073D01*
X201176967Y-117219355D01*
X201131922Y-117281907D01*
X201080613Y-117339339D01*
X201023342Y-117391260D01*
X200960409Y-117437279D01*
X200892114Y-117477006D01*
X200848496Y-117497743D01*
X200830504Y-117505132D01*
X200806543Y-117514259D01*
X200778730Y-117524358D01*
X200749184Y-117534659D01*
X200720021Y-117544394D01*
X200718603Y-117544855D01*
X200652551Y-117566444D01*
X200593743Y-117586036D01*
X200541287Y-117603972D01*
X200494290Y-117620596D01*
X200451859Y-117636251D01*
X200413103Y-117651279D01*
X200377129Y-117666023D01*
X200343044Y-117680825D01*
X200309955Y-117696029D01*
X200276971Y-117711978D01*
X200255717Y-117722625D01*
X200214342Y-117744040D01*
X200176907Y-117764493D01*
X200142429Y-117784727D01*
X200109924Y-117805484D01*
X200078410Y-117827507D01*
X200046904Y-117851539D01*
X200014423Y-117878322D01*
X199979983Y-117908598D01*
X199942602Y-117943111D01*
X199901297Y-117982603D01*
X199866205Y-118016866D01*
X199822992Y-118059137D01*
X199784841Y-118095946D01*
X199750968Y-118127953D01*
X199720588Y-118155821D01*
X199692915Y-118180209D01*
X199667166Y-118201779D01*
X199642555Y-118221193D01*
X199618298Y-118239110D01*
X199593609Y-118256194D01*
X199567705Y-118273104D01*
X199545699Y-118286876D01*
X199451122Y-118340685D01*
X199352341Y-118388283D01*
X199250490Y-118429262D01*
X199146705Y-118463217D01*
X199042118Y-118489739D01*
X198937863Y-118508424D01*
X198922217Y-118510539D01*
X198893646Y-118513432D01*
X198859474Y-118515609D01*
X198821708Y-118517055D01*
X198782350Y-118517752D01*
X198772234Y-118517735D01*
X198772234Y-118399848D01*
X198813258Y-118399521D01*
X198852503Y-118398308D01*
X198887940Y-118396210D01*
X198917540Y-118393225D01*
X198924333Y-118392258D01*
X199028204Y-118372259D01*
X199131679Y-118344555D01*
X199233449Y-118309626D01*
X199332201Y-118267954D01*
X199426627Y-118220019D01*
X199482552Y-118187286D01*
X199507869Y-118171364D01*
X199531149Y-118156012D01*
X199553230Y-118140522D01*
X199574951Y-118124189D01*
X199597148Y-118106305D01*
X199620662Y-118086165D01*
X199646331Y-118063061D01*
X199674992Y-118036287D01*
X199707484Y-118005136D01*
X199744647Y-117968903D01*
X199762533Y-117951325D01*
X199798718Y-117915784D01*
X199829728Y-117885544D01*
X199856348Y-117859892D01*
X199879364Y-117838115D01*
X199899561Y-117819502D01*
X199917725Y-117803339D01*
X199934639Y-117788913D01*
X199951091Y-117775513D01*
X199967865Y-117762426D01*
X199984784Y-117749656D01*
X200034352Y-117714249D01*
X200085392Y-117680996D01*
X200138728Y-117649508D01*
X200195182Y-117619396D01*
X200255578Y-117590271D01*
X200320739Y-117561745D01*
X200391488Y-117533427D01*
X200468648Y-117504929D01*
X200553043Y-117475863D01*
X200589678Y-117463772D01*
X200638648Y-117447701D01*
X200680420Y-117433766D01*
X200715889Y-117421624D01*
X200745954Y-117410932D01*
X200771512Y-117401347D01*
X200793458Y-117392528D01*
X200812691Y-117384132D01*
X200830107Y-117375815D01*
X200846604Y-117367236D01*
X200856022Y-117362051D01*
X200901018Y-117334580D01*
X200941699Y-117304616D01*
X200980778Y-117270040D01*
X201004760Y-117246019D01*
X201051538Y-117191255D01*
X201091545Y-117131739D01*
X201124448Y-117068192D01*
X201149913Y-117001334D01*
X201167608Y-116931887D01*
X201175864Y-116875763D01*
X201177509Y-116855384D01*
X201177957Y-116836579D01*
X201177085Y-116817044D01*
X201174767Y-116794475D01*
X201170879Y-116766570D01*
X201169487Y-116757450D01*
X201154806Y-116689875D01*
X201132212Y-116624365D01*
X201102142Y-116561594D01*
X201065036Y-116502236D01*
X201021330Y-116446964D01*
X200971464Y-116396454D01*
X200915876Y-116351379D01*
X200896956Y-116338216D01*
X200880491Y-116327405D01*
X200864730Y-116317627D01*
X200848878Y-116308557D01*
X200832139Y-116299873D01*
X200813715Y-116291249D01*
X200792813Y-116282363D01*
X200768634Y-116272891D01*
X200740384Y-116262508D01*
X200707265Y-116250891D01*
X200668483Y-116237717D01*
X200623241Y-116222662D01*
X200570743Y-116205401D01*
X200568984Y-116204825D01*
X200479466Y-116174465D01*
X200397542Y-116144438D01*
X200322371Y-116114367D01*
X200253110Y-116083876D01*
X200188917Y-116052586D01*
X200128949Y-116020120D01*
X200072365Y-115986102D01*
X200053479Y-115973939D01*
X200027730Y-115956804D01*
X200003930Y-115940309D01*
X199981263Y-115923753D01*
X199958913Y-115906436D01*
X199936067Y-115887659D01*
X199911907Y-115866722D01*
X199885618Y-115842924D01*
X199856384Y-115815566D01*
X199823391Y-115783948D01*
X199785821Y-115747370D01*
X199760417Y-115722428D01*
X199733445Y-115695981D01*
X199707236Y-115670455D01*
X199682668Y-115646696D01*
X199660621Y-115625548D01*
X199641976Y-115607853D01*
X199627610Y-115594457D01*
X199618600Y-115586369D01*
X199557240Y-115538105D01*
X199488819Y-115492121D01*
X199414570Y-115448996D01*
X199335727Y-115409310D01*
X199253522Y-115373640D01*
X199169190Y-115342566D01*
X199083963Y-115316667D01*
X199002650Y-115297251D01*
X198906925Y-115281846D01*
X198810830Y-115274852D01*
X198714656Y-115276237D01*
X198618691Y-115285971D01*
X198523224Y-115304024D01*
X198428545Y-115330363D01*
X198334941Y-115364959D01*
X198324454Y-115369383D01*
X198236777Y-115411017D01*
X198149949Y-115460476D01*
X198064828Y-115517118D01*
X197982274Y-115580300D01*
X197903144Y-115649380D01*
X197828297Y-115723717D01*
X197781686Y-115775316D01*
X197719146Y-115851718D01*
X197662723Y-115929437D01*
X197611087Y-116010488D01*
X197562908Y-116096888D01*
X197540575Y-116140945D01*
X197492246Y-116247373D01*
X197451911Y-116354301D01*
X197419234Y-116462882D01*
X197393875Y-116574265D01*
X197375497Y-116689602D01*
X197372657Y-116713000D01*
X197366729Y-116795445D01*
X197367293Y-116882299D01*
X197374212Y-116972705D01*
X197387348Y-117065808D01*
X197406562Y-117160751D01*
X197431718Y-117256678D01*
X197462678Y-117352731D01*
X197485372Y-117413616D01*
X197497397Y-117442344D01*
X197512851Y-117476398D01*
X197530769Y-117513865D01*
X197550184Y-117552833D01*
X197570132Y-117591390D01*
X197589648Y-117627624D01*
X197607767Y-117659624D01*
X197618928Y-117678200D01*
X197685487Y-117777840D01*
X197757711Y-117871507D01*
X197835379Y-117958987D01*
X197918269Y-118040068D01*
X198006159Y-118114536D01*
X198098827Y-118182179D01*
X198196051Y-118242782D01*
X198221836Y-118257244D01*
X198287821Y-118290139D01*
X198359946Y-118320113D01*
X198436188Y-118346499D01*
X198514526Y-118368628D01*
X198592936Y-118385833D01*
X198630942Y-118392290D01*
X198658786Y-118395510D01*
X198692969Y-118397843D01*
X198731461Y-118399289D01*
X198772234Y-118399848D01*
X198772234Y-118517735D01*
X198743406Y-118517684D01*
X198706881Y-118516836D01*
X198674778Y-118515191D01*
X198649167Y-118512742D01*
X198570057Y-118500769D01*
X198497117Y-118486225D01*
X198428277Y-118468492D01*
X198361468Y-118446954D01*
X198294621Y-118420993D01*
X198225669Y-118389994D01*
X198206784Y-118380857D01*
X198110772Y-118329172D01*
X198017625Y-118269861D01*
X197927797Y-118203417D01*
X197841741Y-118130328D01*
X197759910Y-118051087D01*
X197682760Y-117966185D01*
X197610742Y-117876112D01*
X197544312Y-117781359D01*
X197483923Y-117682417D01*
X197430028Y-117579777D01*
X197394928Y-117502516D01*
X197356947Y-117405978D01*
X197324363Y-117308128D01*
X197297349Y-117209900D01*
X197276081Y-117112224D01*
X197260732Y-117016032D01*
X197251477Y-116922257D01*
X197248489Y-116831829D01*
X197251945Y-116745682D01*
G36*
X200291543Y-116404551D02*
G01*
X200299611Y-116387933D01*
X200312924Y-116373613D01*
X200328756Y-116364357D01*
X200332271Y-116363283D01*
X200349773Y-116362456D01*
X200368452Y-116367082D01*
X200382421Y-116374857D01*
X200393334Y-116386049D01*
X200405237Y-116402249D01*
X200416252Y-116420500D01*
X200424499Y-116437842D01*
X200426902Y-116444896D01*
X200428404Y-116453344D01*
X200430400Y-116469155D01*
X200432799Y-116491248D01*
X200435513Y-116518539D01*
X200438452Y-116549947D01*
X200441527Y-116584389D01*
X200444648Y-116620782D01*
X200447726Y-116658043D01*
X200450672Y-116695091D01*
X200453397Y-116730842D01*
X200455810Y-116764214D01*
X200457823Y-116794125D01*
X200459346Y-116819491D01*
X200460291Y-116839230D01*
X200460566Y-116852260D01*
X200460561Y-116852700D01*
X200460083Y-116865091D01*
X200458938Y-116884731D01*
X200457214Y-116910437D01*
X200454996Y-116941025D01*
X200452371Y-116975311D01*
X200449424Y-117012112D01*
X200446241Y-117050243D01*
X200445939Y-117053783D01*
X200442671Y-117090893D01*
X200439413Y-117125836D01*
X200436273Y-117157601D01*
X200433360Y-117185174D01*
X200430780Y-117207543D01*
X200428641Y-117223697D01*
X200427052Y-117232622D01*
X200426814Y-117233438D01*
X200420797Y-117247039D01*
X200411737Y-117263261D01*
X200401418Y-117279268D01*
X200391626Y-117292225D01*
X200386399Y-117297659D01*
X200369493Y-117307398D01*
X200350241Y-117311030D01*
X200330847Y-117308883D01*
X200313516Y-117301284D01*
X200300452Y-117288560D01*
X200298070Y-117284538D01*
X200293509Y-117271606D01*
X200291068Y-117256881D01*
X200291010Y-117255744D01*
X200291172Y-117246483D01*
X200292963Y-117237590D01*
X200297146Y-117226904D01*
X200304484Y-117212269D01*
X200310036Y-117201950D01*
X200312043Y-117196452D01*
X200314107Y-117186895D01*
X200316300Y-117172638D01*
X200318693Y-117153042D01*
X200321360Y-117127466D01*
X200324374Y-117095271D01*
X200327806Y-117055817D01*
X200331141Y-117015683D01*
X200345333Y-116842117D01*
X200330107Y-116660034D01*
X200326363Y-116615598D01*
X200323181Y-116578817D01*
X200320465Y-116548904D01*
X200318117Y-116525072D01*
X200316040Y-116506535D01*
X200314136Y-116492507D01*
X200312307Y-116482200D01*
X200310457Y-116474829D01*
X200308488Y-116469607D01*
X200306303Y-116465748D01*
X200305994Y-116465300D01*
X200293593Y-116442009D01*
X200289532Y-116419399D01*
X200291543Y-116404551D01*
G37*
X200291543Y-116404551D02*
X200299611Y-116387933D01*
X200312924Y-116373613D01*
X200328756Y-116364357D01*
X200332271Y-116363283D01*
X200349773Y-116362456D01*
X200368452Y-116367082D01*
X200382421Y-116374857D01*
X200393334Y-116386049D01*
X200405237Y-116402249D01*
X200416252Y-116420500D01*
X200424499Y-116437842D01*
X200426902Y-116444896D01*
X200428404Y-116453344D01*
X200430400Y-116469155D01*
X200432799Y-116491248D01*
X200435513Y-116518539D01*
X200438452Y-116549947D01*
X200441527Y-116584389D01*
X200444648Y-116620782D01*
X200447726Y-116658043D01*
X200450672Y-116695091D01*
X200453397Y-116730842D01*
X200455810Y-116764214D01*
X200457823Y-116794125D01*
X200459346Y-116819491D01*
X200460291Y-116839230D01*
X200460566Y-116852260D01*
X200460561Y-116852700D01*
X200460083Y-116865091D01*
X200458938Y-116884731D01*
X200457214Y-116910437D01*
X200454996Y-116941025D01*
X200452371Y-116975311D01*
X200449424Y-117012112D01*
X200446241Y-117050243D01*
X200445939Y-117053783D01*
X200442671Y-117090893D01*
X200439413Y-117125836D01*
X200436273Y-117157601D01*
X200433360Y-117185174D01*
X200430780Y-117207543D01*
X200428641Y-117223697D01*
X200427052Y-117232622D01*
X200426814Y-117233438D01*
X200420797Y-117247039D01*
X200411737Y-117263261D01*
X200401418Y-117279268D01*
X200391626Y-117292225D01*
X200386399Y-117297659D01*
X200369493Y-117307398D01*
X200350241Y-117311030D01*
X200330847Y-117308883D01*
X200313516Y-117301284D01*
X200300452Y-117288560D01*
X200298070Y-117284538D01*
X200293509Y-117271606D01*
X200291068Y-117256881D01*
X200291010Y-117255744D01*
X200291172Y-117246483D01*
X200292963Y-117237590D01*
X200297146Y-117226904D01*
X200304484Y-117212269D01*
X200310036Y-117201950D01*
X200312043Y-117196452D01*
X200314107Y-117186895D01*
X200316300Y-117172638D01*
X200318693Y-117153042D01*
X200321360Y-117127466D01*
X200324374Y-117095271D01*
X200327806Y-117055817D01*
X200331141Y-117015683D01*
X200345333Y-116842117D01*
X200330107Y-116660034D01*
X200326363Y-116615598D01*
X200323181Y-116578817D01*
X200320465Y-116548904D01*
X200318117Y-116525072D01*
X200316040Y-116506535D01*
X200314136Y-116492507D01*
X200312307Y-116482200D01*
X200310457Y-116474829D01*
X200308488Y-116469607D01*
X200306303Y-116465748D01*
X200305994Y-116465300D01*
X200293593Y-116442009D01*
X200289532Y-116419399D01*
X200291543Y-116404551D01*
G36*
X198177165Y-117477582D02*
G01*
X198180790Y-117438236D01*
X198186917Y-117399375D01*
X198195809Y-117358397D01*
X198198568Y-117347225D01*
X198221797Y-117272198D01*
X198252910Y-117199381D01*
X198291461Y-117129475D01*
X198337001Y-117063180D01*
X198389084Y-117001196D01*
X198447264Y-116944223D01*
X198466289Y-116927838D01*
X198501761Y-116898210D01*
X198546889Y-116918381D01*
X198627767Y-116958987D01*
X198704386Y-117006659D01*
X198777079Y-117061634D01*
X198846177Y-117124149D01*
X198870428Y-117148745D01*
X198931601Y-117218603D01*
X198985452Y-117292686D01*
X199031903Y-117370835D01*
X199070877Y-117452893D01*
X199102297Y-117538704D01*
X199126085Y-117628109D01*
X199138195Y-117693016D01*
X199140417Y-117711768D01*
X199142435Y-117737089D01*
X199144194Y-117767130D01*
X199145637Y-117800044D01*
X199146706Y-117833983D01*
X199147345Y-117867099D01*
X199147497Y-117897544D01*
X199147104Y-117923471D01*
X199146112Y-117943032D01*
X199145946Y-117944900D01*
X199134378Y-118028132D01*
X199115588Y-118112301D01*
X199090197Y-118195149D01*
X199058823Y-118274421D01*
X199050443Y-118292725D01*
X199040758Y-118313013D01*
X199033049Y-118326901D01*
X199025590Y-118335604D01*
X199016657Y-118340337D01*
X199004523Y-118342316D01*
X198987462Y-118342756D01*
X198979367Y-118342772D01*
X198897752Y-118338872D01*
X198818116Y-118327113D01*
X198740928Y-118307833D01*
X198666663Y-118281366D01*
X198595792Y-118248049D01*
X198528787Y-118208218D01*
X198466121Y-118162210D01*
X198408265Y-118110360D01*
X198355693Y-118053004D01*
X198308877Y-117990478D01*
X198268288Y-117923119D01*
X198234399Y-117851262D01*
X198215042Y-117798850D01*
X198201442Y-117754121D01*
X198191242Y-117712026D01*
X198183996Y-117669911D01*
X198179262Y-117625120D01*
X198176592Y-117575000D01*
X198176379Y-117568133D01*
X198175782Y-117520013D01*
X198177165Y-117477582D01*
G37*
X198177165Y-117477582D02*
X198180790Y-117438236D01*
X198186917Y-117399375D01*
X198195809Y-117358397D01*
X198198568Y-117347225D01*
X198221797Y-117272198D01*
X198252910Y-117199381D01*
X198291461Y-117129475D01*
X198337001Y-117063180D01*
X198389084Y-117001196D01*
X198447264Y-116944223D01*
X198466289Y-116927838D01*
X198501761Y-116898210D01*
X198546889Y-116918381D01*
X198627767Y-116958987D01*
X198704386Y-117006659D01*
X198777079Y-117061634D01*
X198846177Y-117124149D01*
X198870428Y-117148745D01*
X198931601Y-117218603D01*
X198985452Y-117292686D01*
X199031903Y-117370835D01*
X199070877Y-117452893D01*
X199102297Y-117538704D01*
X199126085Y-117628109D01*
X199138195Y-117693016D01*
X199140417Y-117711768D01*
X199142435Y-117737089D01*
X199144194Y-117767130D01*
X199145637Y-117800044D01*
X199146706Y-117833983D01*
X199147345Y-117867099D01*
X199147497Y-117897544D01*
X199147104Y-117923471D01*
X199146112Y-117943032D01*
X199145946Y-117944900D01*
X199134378Y-118028132D01*
X199115588Y-118112301D01*
X199090197Y-118195149D01*
X199058823Y-118274421D01*
X199050443Y-118292725D01*
X199040758Y-118313013D01*
X199033049Y-118326901D01*
X199025590Y-118335604D01*
X199016657Y-118340337D01*
X199004523Y-118342316D01*
X198987462Y-118342756D01*
X198979367Y-118342772D01*
X198897752Y-118338872D01*
X198818116Y-118327113D01*
X198740928Y-118307833D01*
X198666663Y-118281366D01*
X198595792Y-118248049D01*
X198528787Y-118208218D01*
X198466121Y-118162210D01*
X198408265Y-118110360D01*
X198355693Y-118053004D01*
X198308877Y-117990478D01*
X198268288Y-117923119D01*
X198234399Y-117851262D01*
X198215042Y-117798850D01*
X198201442Y-117754121D01*
X198191242Y-117712026D01*
X198183996Y-117669911D01*
X198179262Y-117625120D01*
X198176592Y-117575000D01*
X198176379Y-117568133D01*
X198175782Y-117520013D01*
X198177165Y-117477582D01*
G36*
X198176527Y-116092063D02*
G01*
X198178266Y-116063981D01*
X198179016Y-116056641D01*
X198192467Y-115975418D01*
X198213755Y-115896798D01*
X198242628Y-115821290D01*
X198278832Y-115749403D01*
X198322112Y-115681646D01*
X198372215Y-115618528D01*
X198423834Y-115565261D01*
X198466391Y-115527639D01*
X198508931Y-115495117D01*
X198553885Y-115466050D01*
X198603683Y-115438798D01*
X198630117Y-115425832D01*
X198688959Y-115400277D01*
X198746321Y-115380589D01*
X198804335Y-115366266D01*
X198865137Y-115356807D01*
X198930860Y-115351711D01*
X198948644Y-115351050D01*
X199025871Y-115348743D01*
X199051187Y-115401163D01*
X199082567Y-115473599D01*
X199107795Y-115548590D01*
X199127233Y-115627444D01*
X199141244Y-115711470D01*
X199144370Y-115737216D01*
X199146121Y-115759313D01*
X199147296Y-115787592D01*
X199147896Y-115819789D01*
X199147926Y-115853641D01*
X199147389Y-115886884D01*
X199146286Y-115917252D01*
X199144623Y-115942483D01*
X199144078Y-115948123D01*
X199130196Y-116040239D01*
X199108439Y-116129632D01*
X199079068Y-116215905D01*
X199042342Y-116298660D01*
X198998521Y-116377501D01*
X198947867Y-116452030D01*
X198890637Y-116521849D01*
X198827094Y-116586562D01*
X198757496Y-116645771D01*
X198682104Y-116699079D01*
X198633178Y-116728644D01*
X198614872Y-116738639D01*
X198594076Y-116749354D01*
X198572322Y-116760075D01*
X198551143Y-116770085D01*
X198532071Y-116778667D01*
X198516640Y-116785105D01*
X198506383Y-116788683D01*
X198503629Y-116789176D01*
X198497878Y-116786509D01*
X198487296Y-116779304D01*
X198473324Y-116768709D01*
X198457402Y-116755874D01*
X198440972Y-116741948D01*
X198425475Y-116728080D01*
X198417086Y-116720133D01*
X198362401Y-116661022D01*
X198313722Y-116596353D01*
X198271486Y-116526949D01*
X198236131Y-116453630D01*
X198208095Y-116377217D01*
X198187815Y-116298531D01*
X198185167Y-116284973D01*
X198181755Y-116260996D01*
X198179051Y-116230794D01*
X198177117Y-116196584D01*
X198176012Y-116160581D01*
X198175795Y-116125001D01*
X198176527Y-116092063D01*
G37*
X198176527Y-116092063D02*
X198178266Y-116063981D01*
X198179016Y-116056641D01*
X198192467Y-115975418D01*
X198213755Y-115896798D01*
X198242628Y-115821290D01*
X198278832Y-115749403D01*
X198322112Y-115681646D01*
X198372215Y-115618528D01*
X198423834Y-115565261D01*
X198466391Y-115527639D01*
X198508931Y-115495117D01*
X198553885Y-115466050D01*
X198603683Y-115438798D01*
X198630117Y-115425832D01*
X198688959Y-115400277D01*
X198746321Y-115380589D01*
X198804335Y-115366266D01*
X198865137Y-115356807D01*
X198930860Y-115351711D01*
X198948644Y-115351050D01*
X199025871Y-115348743D01*
X199051187Y-115401163D01*
X199082567Y-115473599D01*
X199107795Y-115548590D01*
X199127233Y-115627444D01*
X199141244Y-115711470D01*
X199144370Y-115737216D01*
X199146121Y-115759313D01*
X199147296Y-115787592D01*
X199147896Y-115819789D01*
X199147926Y-115853641D01*
X199147389Y-115886884D01*
X199146286Y-115917252D01*
X199144623Y-115942483D01*
X199144078Y-115948123D01*
X199130196Y-116040239D01*
X199108439Y-116129632D01*
X199079068Y-116215905D01*
X199042342Y-116298660D01*
X198998521Y-116377501D01*
X198947867Y-116452030D01*
X198890637Y-116521849D01*
X198827094Y-116586562D01*
X198757496Y-116645771D01*
X198682104Y-116699079D01*
X198633178Y-116728644D01*
X198614872Y-116738639D01*
X198594076Y-116749354D01*
X198572322Y-116760075D01*
X198551143Y-116770085D01*
X198532071Y-116778667D01*
X198516640Y-116785105D01*
X198506383Y-116788683D01*
X198503629Y-116789176D01*
X198497878Y-116786509D01*
X198487296Y-116779304D01*
X198473324Y-116768709D01*
X198457402Y-116755874D01*
X198440972Y-116741948D01*
X198425475Y-116728080D01*
X198417086Y-116720133D01*
X198362401Y-116661022D01*
X198313722Y-116596353D01*
X198271486Y-116526949D01*
X198236131Y-116453630D01*
X198208095Y-116377217D01*
X198187815Y-116298531D01*
X198185167Y-116284973D01*
X198181755Y-116260996D01*
X198179051Y-116230794D01*
X198177117Y-116196584D01*
X198176012Y-116160581D01*
X198175795Y-116125001D01*
X198176527Y-116092063D01*
D10*
X194421000Y-94511000D02*
X193146000Y-94511000D01*
X208771000Y-93936000D02*
X208096000Y-93936000D01*
X208771000Y-108286000D02*
X208096000Y-108286000D01*
X194421000Y-108286000D02*
X195096000Y-108286000D01*
X194421000Y-93936000D02*
X195096000Y-93936000D01*
X194421000Y-108286000D02*
X194421000Y-107611000D01*
X208771000Y-108286000D02*
X208771000Y-107611000D01*
X208771000Y-93936000D02*
X208771000Y-94611000D01*
X194421000Y-93936000D02*
X194421000Y-94511000D01*
X197866095Y-122460380D02*
X197866095Y-123269904D01*
X197913714Y-123365142D01*
X197961333Y-123412761D01*
X198056571Y-123460380D01*
X198247047Y-123460380D01*
X198342285Y-123412761D01*
X198389904Y-123365142D01*
X198437523Y-123269904D01*
X198437523Y-122460380D01*
X199437523Y-123460380D02*
X198866095Y-123460380D01*
X199151809Y-123460380D02*
X199151809Y-122460380D01*
X199056571Y-122603238D01*
X198961333Y-122698476D01*
X198866095Y-122746095D01*
X201010333Y-75383380D02*
X200677000Y-74907190D01*
X200438904Y-75383380D02*
X200438904Y-74383380D01*
X200819857Y-74383380D01*
X200915095Y-74431000D01*
X200962714Y-74478619D01*
X201010333Y-74573857D01*
X201010333Y-74716714D01*
X200962714Y-74811952D01*
X200915095Y-74859571D01*
X200819857Y-74907190D01*
X200438904Y-74907190D01*
X201962714Y-75383380D02*
X201391285Y-75383380D01*
X201677000Y-75383380D02*
X201677000Y-74383380D01*
X201581761Y-74526238D01*
X201486523Y-74621476D01*
X201391285Y-74669095D01*
X196429333Y-135993142D02*
X196381714Y-136040761D01*
X196238857Y-136088380D01*
X196143619Y-136088380D01*
X196000761Y-136040761D01*
X195905523Y-135945523D01*
X195857904Y-135850285D01*
X195810285Y-135659809D01*
X195810285Y-135516952D01*
X195857904Y-135326476D01*
X195905523Y-135231238D01*
X196000761Y-135136000D01*
X196143619Y-135088380D01*
X196238857Y-135088380D01*
X196381714Y-135136000D01*
X196429333Y-135183619D01*
X197000761Y-135516952D02*
X196905523Y-135469333D01*
X196857904Y-135421714D01*
X196810285Y-135326476D01*
X196810285Y-135278857D01*
X196857904Y-135183619D01*
X196905523Y-135136000D01*
X197000761Y-135088380D01*
X197191238Y-135088380D01*
X197286476Y-135136000D01*
X197334095Y-135183619D01*
X197381714Y-135278857D01*
X197381714Y-135326476D01*
X197334095Y-135421714D01*
X197286476Y-135469333D01*
X197191238Y-135516952D01*
X197000761Y-135516952D01*
X196905523Y-135564571D01*
X196857904Y-135612190D01*
X196810285Y-135707428D01*
X196810285Y-135897904D01*
X196857904Y-135993142D01*
X196905523Y-136040761D01*
X197000761Y-136088380D01*
X197191238Y-136088380D01*
X197286476Y-136040761D01*
X197334095Y-135993142D01*
X197381714Y-135897904D01*
X197381714Y-135707428D01*
X197334095Y-135612190D01*
X197286476Y-135564571D01*
X197191238Y-135516952D01*
X203713142Y-133262666D02*
X203760761Y-133310285D01*
X203808380Y-133453142D01*
X203808380Y-133548380D01*
X203760761Y-133691238D01*
X203665523Y-133786476D01*
X203570285Y-133834095D01*
X203379809Y-133881714D01*
X203236952Y-133881714D01*
X203046476Y-133834095D01*
X202951238Y-133786476D01*
X202856000Y-133691238D01*
X202808380Y-133548380D01*
X202808380Y-133453142D01*
X202856000Y-133310285D01*
X202903619Y-133262666D01*
X202808380Y-132929333D02*
X202808380Y-132262666D01*
X203808380Y-132691238D01*
X200420904Y-78812380D02*
X200420904Y-77812380D01*
X200659000Y-77812380D01*
X200801857Y-77860000D01*
X200897095Y-77955238D01*
X200944714Y-78050476D01*
X200992333Y-78240952D01*
X200992333Y-78383809D01*
X200944714Y-78574285D01*
X200897095Y-78669523D01*
X200801857Y-78764761D01*
X200659000Y-78812380D01*
X200420904Y-78812380D01*
X201944714Y-78812380D02*
X201373285Y-78812380D01*
X201659000Y-78812380D02*
X201659000Y-77812380D01*
X201563761Y-77955238D01*
X201468523Y-78050476D01*
X201373285Y-78098095D01*
X200834095Y-91113380D02*
X200834095Y-91922904D01*
X200881714Y-92018142D01*
X200929333Y-92065761D01*
X201024571Y-92113380D01*
X201215047Y-92113380D01*
X201310285Y-92065761D01*
X201357904Y-92018142D01*
X201405523Y-91922904D01*
X201405523Y-91113380D01*
X201834095Y-91208619D02*
X201881714Y-91161000D01*
X201976952Y-91113380D01*
X202215047Y-91113380D01*
X202310285Y-91161000D01*
X202357904Y-91208619D01*
X202405523Y-91303857D01*
X202405523Y-91399095D01*
X202357904Y-91541952D01*
X201786476Y-92113380D01*
X202405523Y-92113380D01*
M02*
